%TF.GenerationSoftware,KiCad,Pcbnew,10.0.4*%
%TF.CreationDate,2026-08-16T14:59:16+02:00*%
%TF.ProjectId,PS-microCard PCB,50532d6d-6963-4726-9f43-617264205043,rev?*%
%TF.SameCoordinates,Original*%
%TF.FileFunction,Paste,Bot*%
%TF.FilePolarity,Positive*%
%FSLAX46Y46*%
G04 Gerber Fmt 4.6, Leading zero omitted, Abs format (unit mm)*
G04 Created by KiCad (PCBNEW 10.0.4) date 2026-08-16 14:59:16*
%MOMM*%
%LPD*%
G01*
G04 APERTURE LIST*
G04 Aperture macros list*
%AMRoundRect*
0 Rectangle with rounded corners*
0 $1 Rounding radius*
0 $2 $3 $4 $5 $6 $7 $8 $9 X,Y pos of 4 corners*
0 Add a 4 corners polygon primitive as box body*
4,1,4,$2,$3,$4,$5,$6,$7,$8,$9,$2,$3,0*
0 Add four circle primitives for the rounded corners*
1,1,$1+$1,$2,$3*
1,1,$1+$1,$4,$5*
1,1,$1+$1,$6,$7*
1,1,$1+$1,$8,$9*
0 Add four rect primitives between the rounded corners*
20,1,$1+$1,$2,$3,$4,$5,0*
20,1,$1+$1,$4,$5,$6,$7,0*
20,1,$1+$1,$6,$7,$8,$9,0*
20,1,$1+$1,$8,$9,$2,$3,0*%
G04 Aperture macros list end*
%ADD10C,0.010000*%
%ADD11RoundRect,0.150000X0.625000X-0.150000X0.625000X0.150000X-0.625000X0.150000X-0.625000X-0.150000X0*%
%ADD12RoundRect,0.250000X0.650000X-0.350000X0.650000X0.350000X-0.650000X0.350000X-0.650000X-0.350000X0*%
%ADD13RoundRect,0.140000X-0.140000X-0.170000X0.140000X-0.170000X0.140000X0.170000X-0.140000X0.170000X0*%
%ADD14R,1.400000X1.900000*%
%ADD15R,1.200000X1.400000*%
%ADD16R,1.300000X1.400000*%
%ADD17R,0.800000X1.500000*%
%ADD18R,1.000000X1.040000*%
%ADD19RoundRect,0.135000X0.185000X-0.135000X0.185000X0.135000X-0.185000X0.135000X-0.185000X-0.135000X0*%
%ADD20RoundRect,0.103500X-0.586500X0.946500X-0.586500X-0.946500X0.586500X-0.946500X0.586500X0.946500X0*%
%ADD21R,1.800000X2.200000*%
G04 APERTURE END LIST*
D10*
%TO.C,J1*%
X143870420Y-95625000D02*
X143625000Y-95625000D01*
X143625000Y-96925418D01*
X143870420Y-96925418D01*
X143870420Y-95625000D01*
G36*
X143870420Y-96925418D02*
G01*
X143625000Y-96925418D01*
X143625000Y-95625000D01*
X143870420Y-95625000D01*
X143870420Y-96925418D01*
G37*
X144370960Y-95625000D02*
X144125000Y-95625000D01*
X144125000Y-96925397D01*
X144370960Y-96925397D01*
X144370960Y-95625000D01*
G36*
X144370960Y-96925397D02*
G01*
X144125000Y-96925397D01*
X144125000Y-95625000D01*
X144370960Y-95625000D01*
X144370960Y-96925397D01*
G37*
X144874300Y-95625000D02*
X144625000Y-95625000D01*
X144625000Y-96925074D01*
X144874300Y-96925074D01*
X144874300Y-95625000D01*
G36*
X144874300Y-96925074D02*
G01*
X144625000Y-96925074D01*
X144625000Y-95625000D01*
X144874300Y-95625000D01*
X144874300Y-96925074D01*
G37*
X145364110Y-95625000D02*
X145125000Y-95625000D01*
X145125000Y-96926259D01*
X145364110Y-96926259D01*
X145364110Y-95625000D01*
G36*
X145364110Y-96926259D02*
G01*
X145125000Y-96926259D01*
X145125000Y-95625000D01*
X145364110Y-95625000D01*
X145364110Y-96926259D01*
G37*
X145867100Y-95625000D02*
X145625000Y-95625000D01*
X145625000Y-96926002D01*
X145867100Y-96926002D01*
X145867100Y-95625000D01*
G36*
X145867100Y-96926002D02*
G01*
X145625000Y-96926002D01*
X145625000Y-95625000D01*
X145867100Y-95625000D01*
X145867100Y-96926002D01*
G37*
X146373870Y-95625000D02*
X146125000Y-95625000D01*
X146125000Y-96925159D01*
X146373870Y-96925159D01*
X146373870Y-95625000D01*
G36*
X146373870Y-96925159D02*
G01*
X146125000Y-96925159D01*
X146125000Y-95625000D01*
X146373870Y-95625000D01*
X146373870Y-96925159D01*
G37*
X146874690Y-95625000D02*
X146625000Y-95625000D01*
X146625000Y-96925049D01*
X146874690Y-96925049D01*
X146874690Y-95625000D01*
G36*
X146874690Y-96925049D02*
G01*
X146625000Y-96925049D01*
X146625000Y-95625000D01*
X146874690Y-95625000D01*
X146874690Y-96925049D01*
G37*
X147368770Y-95625000D02*
X147125000Y-95625000D01*
X147125000Y-96926117D01*
X147368770Y-96926117D01*
X147368770Y-95625000D01*
G36*
X147368770Y-96926117D02*
G01*
X147125000Y-96926117D01*
X147125000Y-95625000D01*
X147368770Y-95625000D01*
X147368770Y-96926117D01*
G37*
X147869070Y-95625000D02*
X147625000Y-95625000D01*
X147625000Y-96926233D01*
X147869070Y-96926233D01*
X147869070Y-95625000D01*
G36*
X147869070Y-96926233D02*
G01*
X147625000Y-96926233D01*
X147625000Y-95625000D01*
X147869070Y-95625000D01*
X147869070Y-96926233D01*
G37*
X148373620Y-95625000D02*
X148125000Y-95625000D01*
X148125000Y-96925341D01*
X148373620Y-96925341D01*
X148373620Y-95625000D01*
G36*
X148373620Y-96925341D02*
G01*
X148125000Y-96925341D01*
X148125000Y-95625000D01*
X148373620Y-95625000D01*
X148373620Y-96925341D01*
G37*
X148874310Y-95625000D02*
X148625000Y-95625000D01*
X148625000Y-96925212D01*
X148874310Y-96925212D01*
X148874310Y-95625000D01*
G36*
X148874310Y-96925212D02*
G01*
X148625000Y-96925212D01*
X148625000Y-95625000D01*
X148874310Y-95625000D01*
X148874310Y-96925212D01*
G37*
X149374160Y-95625000D02*
X149125000Y-95625000D01*
X149125000Y-96925337D01*
X149374160Y-96925337D01*
X149374160Y-95625000D01*
G36*
X149374160Y-96925337D02*
G01*
X149125000Y-96925337D01*
X149125000Y-95625000D01*
X149374160Y-95625000D01*
X149374160Y-96925337D01*
G37*
X149874560Y-95625000D02*
X149625000Y-95625000D01*
X149625000Y-96925257D01*
X149874560Y-96925257D01*
X149874560Y-95625000D01*
G36*
X149874560Y-96925257D02*
G01*
X149625000Y-96925257D01*
X149625000Y-95625000D01*
X149874560Y-95625000D01*
X149874560Y-96925257D01*
G37*
X150373778Y-95625000D02*
X150125000Y-95625000D01*
X150125000Y-96926271D01*
X150373778Y-96926271D01*
X150373778Y-95625000D01*
G36*
X150373778Y-96926271D02*
G01*
X150125000Y-96926271D01*
X150125000Y-95625000D01*
X150373778Y-95625000D01*
X150373778Y-96926271D01*
G37*
X150874910Y-95625000D02*
X150625000Y-95625000D01*
X150625000Y-96925469D01*
X150874910Y-96925469D01*
X150874910Y-95625000D01*
G36*
X150874910Y-96925469D02*
G01*
X150625000Y-96925469D01*
X150625000Y-95625000D01*
X150874910Y-95625000D01*
X150874910Y-96925469D01*
G37*
X151375319Y-95625000D02*
X151125000Y-95625000D01*
X151125000Y-96925552D01*
X151375319Y-96925552D01*
X151375319Y-95625000D01*
G36*
X151375319Y-96925552D02*
G01*
X151125000Y-96925552D01*
X151125000Y-95625000D01*
X151375319Y-95625000D01*
X151375319Y-96925552D01*
G37*
X151876653Y-95625000D02*
X151625000Y-95625000D01*
X151625000Y-96926228D01*
X151876653Y-96926228D01*
X151876653Y-95625000D01*
G36*
X151876653Y-96926228D02*
G01*
X151625000Y-96926228D01*
X151625000Y-95625000D01*
X151876653Y-95625000D01*
X151876653Y-96926228D01*
G37*
X152375160Y-95625000D02*
X152125000Y-95625000D01*
X152125000Y-96925074D01*
X152375160Y-96925074D01*
X152375160Y-95625000D01*
G36*
X152375160Y-96925074D02*
G01*
X152125000Y-96925074D01*
X152125000Y-95625000D01*
X152375160Y-95625000D01*
X152375160Y-96925074D01*
G37*
X152875170Y-95625000D02*
X152625000Y-95625000D01*
X152625000Y-96925058D01*
X152875170Y-96925058D01*
X152875170Y-95625000D01*
G36*
X152875170Y-96925058D02*
G01*
X152625000Y-96925058D01*
X152625000Y-95625000D01*
X152875170Y-95625000D01*
X152875170Y-96925058D01*
G37*
X153377580Y-95625000D02*
X153125000Y-95625000D01*
X153125000Y-96925707D01*
X153377580Y-96925707D01*
X153377580Y-95625000D01*
G36*
X153377580Y-96925707D02*
G01*
X153125000Y-96925707D01*
X153125000Y-95625000D01*
X153377580Y-95625000D01*
X153377580Y-96925707D01*
G37*
X153877520Y-95625000D02*
X153625000Y-95625000D01*
X153625000Y-96925571D01*
X153877520Y-96925571D01*
X153877520Y-95625000D01*
G36*
X153877520Y-96925571D02*
G01*
X153625000Y-96925571D01*
X153625000Y-95625000D01*
X153877520Y-95625000D01*
X153877520Y-96925571D01*
G37*
X154381700Y-95625000D02*
X154125000Y-95625000D01*
X154125000Y-96926290D01*
X154381700Y-96926290D01*
X154381700Y-95625000D01*
G36*
X154381700Y-96926290D02*
G01*
X154125000Y-96926290D01*
X154125000Y-95625000D01*
X154381700Y-95625000D01*
X154381700Y-96926290D01*
G37*
X154880360Y-95625000D02*
X154625000Y-95625000D01*
X154625000Y-96925898D01*
X154880360Y-96925898D01*
X154880360Y-95625000D01*
G36*
X154880360Y-96925898D02*
G01*
X154625000Y-96925898D01*
X154625000Y-95625000D01*
X154880360Y-95625000D01*
X154880360Y-96925898D01*
G37*
X155381210Y-95625000D02*
X155125000Y-95625000D01*
X155125000Y-96925923D01*
X155381210Y-96925923D01*
X155381210Y-95625000D01*
G36*
X155381210Y-96925923D02*
G01*
X155125000Y-96925923D01*
X155125000Y-95625000D01*
X155381210Y-95625000D01*
X155381210Y-96925923D01*
G37*
X155879410Y-95625000D02*
X155625000Y-95625000D01*
X155625000Y-96925588D01*
X155879410Y-96925588D01*
X155879410Y-95625000D01*
G36*
X155879410Y-96925588D02*
G01*
X155625000Y-96925588D01*
X155625000Y-95625000D01*
X155879410Y-95625000D01*
X155879410Y-96925588D01*
G37*
X156377130Y-95625000D02*
X156125000Y-95625000D01*
X156125000Y-96925258D01*
X156377130Y-96925258D01*
X156377130Y-95625000D01*
G36*
X156377130Y-96925258D02*
G01*
X156125000Y-96925258D01*
X156125000Y-95625000D01*
X156377130Y-95625000D01*
X156377130Y-96925258D01*
G37*
X156882220Y-95625000D02*
X156625000Y-95625000D01*
X156625000Y-96925799D01*
X156882220Y-96925799D01*
X156882220Y-95625000D01*
G36*
X156882220Y-96925799D02*
G01*
X156625000Y-96925799D01*
X156625000Y-95625000D01*
X156882220Y-95625000D01*
X156882220Y-96925799D01*
G37*
X157386870Y-95625000D02*
X157125000Y-95625000D01*
X157125000Y-96926210D01*
X157386870Y-96926210D01*
X157386870Y-95625000D01*
G36*
X157386870Y-96926210D02*
G01*
X157125000Y-96926210D01*
X157125000Y-95625000D01*
X157386870Y-95625000D01*
X157386870Y-96926210D01*
G37*
X157879980Y-95625000D02*
X157625000Y-95625000D01*
X157625000Y-96925471D01*
X157879980Y-96925471D01*
X157879980Y-95625000D01*
G36*
X157879980Y-96925471D02*
G01*
X157625000Y-96925471D01*
X157625000Y-95625000D01*
X157879980Y-95625000D01*
X157879980Y-96925471D01*
G37*
X158389160Y-95625000D02*
X158125000Y-95625000D01*
X158125000Y-96926248D01*
X158389160Y-96926248D01*
X158389160Y-95625000D01*
G36*
X158389160Y-96926248D02*
G01*
X158125000Y-96926248D01*
X158125000Y-95625000D01*
X158389160Y-95625000D01*
X158389160Y-96926248D01*
G37*
%TD*%
D11*
%TO.C,J6*%
X138100000Y-98800000D03*
X138100000Y-97800000D03*
X138100000Y-96800000D03*
D12*
X134225000Y-100100000D03*
X134225000Y-95500000D03*
%TD*%
D13*
%TO.C,C29*%
X157070000Y-94650000D03*
X158030000Y-94650000D03*
%TD*%
D14*
%TO.C,J3*%
X157690000Y-121050000D03*
X144540000Y-122050000D03*
D15*
X156150000Y-107900000D03*
D16*
X150400000Y-107900000D03*
D17*
X149210000Y-118760000D03*
X150310000Y-118360000D03*
X151410000Y-118760000D03*
X152510000Y-118960000D03*
X153610000Y-118760000D03*
X154710000Y-118960000D03*
X155810000Y-118760000D03*
X156910000Y-118760000D03*
D18*
X154700000Y-107530000D03*
%TD*%
D19*
%TO.C,R18*%
X159450000Y-105260000D03*
X159450000Y-104240000D03*
%TD*%
D20*
%TO.C,SW2*%
X161810000Y-106350000D03*
X161810000Y-115450000D03*
X166290000Y-106350000D03*
X166290000Y-115450000D03*
%TD*%
D13*
%TO.C,C16*%
X156025000Y-86700000D03*
X156985000Y-86700000D03*
%TD*%
D20*
%TO.C,SW1*%
X136150000Y-106350000D03*
X136150000Y-115450000D03*
X140630000Y-106350000D03*
X140630000Y-115450000D03*
%TD*%
D21*
%TO.C,J1*%
X160150000Y-99525000D03*
X141850000Y-99525000D03*
%TD*%
D19*
%TO.C,R17*%
X140650000Y-104210000D03*
X140650000Y-103190000D03*
%TD*%
D13*
%TO.C,C8*%
X156020000Y-87700000D03*
X156980000Y-87700000D03*
%TD*%
M02*
