%TF.GenerationSoftware,KiCad,Pcbnew,10.0.4*%
%TF.CreationDate,2026-08-16T14:59:17+02:00*%
%TF.ProjectId,PS-microCard PCB,50532d6d-6963-4726-9f43-617264205043,rev?*%
%TF.SameCoordinates,Original*%
%TF.FileFunction,Soldermask,Bot*%
%TF.FilePolarity,Negative*%
%FSLAX46Y46*%
G04 Gerber Fmt 4.6, Leading zero omitted, Abs format (unit mm)*
G04 Created by KiCad (PCBNEW 10.0.4) date 2026-08-16 14:59:17*
%MOMM*%
%LPD*%
G01*
G04 APERTURE LIST*
G04 Aperture macros list*
%AMRoundRect*
0 Rectangle with rounded corners*
0 $1 Rounding radius*
0 $2 $3 $4 $5 $6 $7 $8 $9 X,Y pos of 4 corners*
0 Add a 4 corners polygon primitive as box body*
4,1,4,$2,$3,$4,$5,$6,$7,$8,$9,$2,$3,0*
0 Add four circle primitives for the rounded corners*
1,1,$1+$1,$2,$3*
1,1,$1+$1,$4,$5*
1,1,$1+$1,$6,$7*
1,1,$1+$1,$8,$9*
0 Add four rect primitives between the rounded corners*
20,1,$1+$1,$2,$3,$4,$5,0*
20,1,$1+$1,$4,$5,$6,$7,0*
20,1,$1+$1,$6,$7,$8,$9,0*
20,1,$1+$1,$8,$9,$2,$3,0*%
G04 Aperture macros list end*
%ADD10C,0.010000*%
%ADD11O,1.504000X1.154000*%
%ADD12RoundRect,0.150000X0.625000X-0.150000X0.625000X0.150000X-0.625000X0.150000X-0.625000X-0.150000X0*%
%ADD13RoundRect,0.250000X0.650000X-0.350000X0.650000X0.350000X-0.650000X0.350000X-0.650000X-0.350000X0*%
%ADD14C,1.000000*%
%ADD15RoundRect,0.140000X-0.140000X-0.170000X0.140000X-0.170000X0.140000X0.170000X-0.140000X0.170000X0*%
%ADD16RoundRect,0.102000X0.700000X0.950000X-0.700000X0.950000X-0.700000X-0.950000X0.700000X-0.950000X0*%
%ADD17RoundRect,0.102000X0.600000X0.700000X-0.600000X0.700000X-0.600000X-0.700000X0.600000X-0.700000X0*%
%ADD18RoundRect,0.102000X0.650000X0.700000X-0.650000X0.700000X-0.650000X-0.700000X0.650000X-0.700000X0*%
%ADD19RoundRect,0.102000X0.400000X0.750000X-0.400000X0.750000X-0.400000X-0.750000X0.400000X-0.750000X0*%
%ADD20RoundRect,0.102000X0.500000X0.520000X-0.500000X0.520000X-0.500000X-0.520000X0.500000X-0.520000X0*%
%ADD21RoundRect,0.135000X0.185000X-0.135000X0.185000X0.135000X-0.185000X0.135000X-0.185000X-0.135000X0*%
%ADD22RoundRect,0.205500X-0.586500X0.946500X-0.586500X-0.946500X0.586500X-0.946500X0.586500X0.946500X0*%
%ADD23R,0.300000X1.300000*%
%ADD24RoundRect,0.102000X0.900000X1.100000X-0.900000X1.100000X-0.900000X-1.100000X0.900000X-1.100000X0*%
G04 APERTURE END LIST*
D10*
%TO.C,J2*%
X168062000Y-120162000D02*
X168062000Y-120938000D01*
X168062000Y-120963000D01*
X168060000Y-120988000D01*
X168056000Y-121014000D01*
X168052000Y-121039000D01*
X168046000Y-121064000D01*
X168039000Y-121088000D01*
X168030000Y-121112000D01*
X168020000Y-121136000D01*
X168009000Y-121159000D01*
X167997000Y-121181000D01*
X167984000Y-121203000D01*
X167969000Y-121224000D01*
X167954000Y-121244000D01*
X167937000Y-121264000D01*
X167920000Y-121282000D01*
X167901000Y-121300000D01*
X167882000Y-121316000D01*
X167862000Y-121332000D01*
X167841000Y-121346000D01*
X167819000Y-121360000D01*
X167796000Y-121372000D01*
X167773000Y-121383000D01*
X167750000Y-121393000D01*
X167726000Y-121401000D01*
X167701000Y-121408000D01*
X167676000Y-121414000D01*
X167651000Y-121419000D01*
X167626000Y-121422000D01*
X167601000Y-121424000D01*
X167575000Y-121425000D01*
X167549000Y-121424000D01*
X167524000Y-121422000D01*
X167499000Y-121419000D01*
X167474000Y-121414000D01*
X167449000Y-121408000D01*
X167424000Y-121401000D01*
X167400000Y-121393000D01*
X167377000Y-121383000D01*
X167354000Y-121372000D01*
X167331000Y-121360000D01*
X167309000Y-121346000D01*
X167288000Y-121332000D01*
X167268000Y-121316000D01*
X167249000Y-121300000D01*
X167230000Y-121282000D01*
X167213000Y-121264000D01*
X167196000Y-121244000D01*
X167181000Y-121224000D01*
X167166000Y-121203000D01*
X167153000Y-121181000D01*
X167141000Y-121159000D01*
X167130000Y-121136000D01*
X167120000Y-121112000D01*
X167111000Y-121088000D01*
X167104000Y-121064000D01*
X167098000Y-121039000D01*
X167094000Y-121014000D01*
X167090000Y-120988000D01*
X167088000Y-120963000D01*
X167088000Y-120938000D01*
X167088000Y-120162000D01*
X167088000Y-120137000D01*
X167090000Y-120112000D01*
X167094000Y-120086000D01*
X167098000Y-120061000D01*
X167104000Y-120036000D01*
X167111000Y-120012000D01*
X167120000Y-119988000D01*
X167130000Y-119964000D01*
X167141000Y-119941000D01*
X167153000Y-119919000D01*
X167166000Y-119897000D01*
X167181000Y-119876000D01*
X167196000Y-119856000D01*
X167213000Y-119836000D01*
X167230000Y-119818000D01*
X167249000Y-119800000D01*
X167268000Y-119784000D01*
X167288000Y-119768000D01*
X167309000Y-119754000D01*
X167331000Y-119740000D01*
X167354000Y-119728000D01*
X167377000Y-119717000D01*
X167400000Y-119707000D01*
X167424000Y-119699000D01*
X167449000Y-119692000D01*
X167474000Y-119686000D01*
X167499000Y-119681000D01*
X167524000Y-119678000D01*
X167549000Y-119676000D01*
X167575000Y-119675000D01*
X167601000Y-119676000D01*
X167626000Y-119678000D01*
X167651000Y-119681000D01*
X167676000Y-119686000D01*
X167701000Y-119692000D01*
X167726000Y-119699000D01*
X167750000Y-119707000D01*
X167773000Y-119717000D01*
X167796000Y-119728000D01*
X167819000Y-119740000D01*
X167841000Y-119754000D01*
X167862000Y-119768000D01*
X167882000Y-119784000D01*
X167901000Y-119800000D01*
X167920000Y-119818000D01*
X167937000Y-119836000D01*
X167954000Y-119856000D01*
X167969000Y-119876000D01*
X167984000Y-119897000D01*
X167997000Y-119919000D01*
X168009000Y-119941000D01*
X168020000Y-119964000D01*
X168030000Y-119988000D01*
X168039000Y-120012000D01*
X168046000Y-120036000D01*
X168052000Y-120061000D01*
X168056000Y-120086000D01*
X168060000Y-120112000D01*
X168062000Y-120137000D01*
X168062000Y-120162000D01*
G36*
X167601000Y-119676000D02*
G01*
X167626000Y-119678000D01*
X167651000Y-119681000D01*
X167676000Y-119686000D01*
X167701000Y-119692000D01*
X167726000Y-119699000D01*
X167750000Y-119707000D01*
X167773000Y-119717000D01*
X167796000Y-119728000D01*
X167819000Y-119740000D01*
X167841000Y-119754000D01*
X167862000Y-119768000D01*
X167882000Y-119784000D01*
X167901000Y-119800000D01*
X167920000Y-119818000D01*
X167937000Y-119836000D01*
X167954000Y-119856000D01*
X167969000Y-119876000D01*
X167984000Y-119897000D01*
X167997000Y-119919000D01*
X168009000Y-119941000D01*
X168020000Y-119964000D01*
X168030000Y-119988000D01*
X168039000Y-120012000D01*
X168046000Y-120036000D01*
X168052000Y-120061000D01*
X168056000Y-120086000D01*
X168060000Y-120112000D01*
X168062000Y-120137000D01*
X168062000Y-120162000D01*
X168062000Y-120938000D01*
X168062000Y-120963000D01*
X168060000Y-120988000D01*
X168056000Y-121014000D01*
X168052000Y-121039000D01*
X168046000Y-121064000D01*
X168039000Y-121088000D01*
X168030000Y-121112000D01*
X168020000Y-121136000D01*
X168009000Y-121159000D01*
X167997000Y-121181000D01*
X167984000Y-121203000D01*
X167969000Y-121224000D01*
X167954000Y-121244000D01*
X167937000Y-121264000D01*
X167920000Y-121282000D01*
X167901000Y-121300000D01*
X167882000Y-121316000D01*
X167862000Y-121332000D01*
X167841000Y-121346000D01*
X167819000Y-121360000D01*
X167796000Y-121372000D01*
X167773000Y-121383000D01*
X167750000Y-121393000D01*
X167726000Y-121401000D01*
X167701000Y-121408000D01*
X167676000Y-121414000D01*
X167651000Y-121419000D01*
X167626000Y-121422000D01*
X167601000Y-121424000D01*
X167575000Y-121425000D01*
X167549000Y-121424000D01*
X167524000Y-121422000D01*
X167499000Y-121419000D01*
X167474000Y-121414000D01*
X167449000Y-121408000D01*
X167424000Y-121401000D01*
X167400000Y-121393000D01*
X167377000Y-121383000D01*
X167354000Y-121372000D01*
X167331000Y-121360000D01*
X167309000Y-121346000D01*
X167288000Y-121332000D01*
X167268000Y-121316000D01*
X167249000Y-121300000D01*
X167230000Y-121282000D01*
X167213000Y-121264000D01*
X167196000Y-121244000D01*
X167181000Y-121224000D01*
X167166000Y-121203000D01*
X167153000Y-121181000D01*
X167141000Y-121159000D01*
X167130000Y-121136000D01*
X167120000Y-121112000D01*
X167111000Y-121088000D01*
X167104000Y-121064000D01*
X167098000Y-121039000D01*
X167094000Y-121014000D01*
X167090000Y-120988000D01*
X167088000Y-120963000D01*
X167088000Y-120938000D01*
X167088000Y-120162000D01*
X167088000Y-120137000D01*
X167090000Y-120112000D01*
X167094000Y-120086000D01*
X167098000Y-120061000D01*
X167104000Y-120036000D01*
X167111000Y-120012000D01*
X167120000Y-119988000D01*
X167130000Y-119964000D01*
X167141000Y-119941000D01*
X167153000Y-119919000D01*
X167166000Y-119897000D01*
X167181000Y-119876000D01*
X167196000Y-119856000D01*
X167213000Y-119836000D01*
X167230000Y-119818000D01*
X167249000Y-119800000D01*
X167268000Y-119784000D01*
X167288000Y-119768000D01*
X167309000Y-119754000D01*
X167331000Y-119740000D01*
X167354000Y-119728000D01*
X167377000Y-119717000D01*
X167400000Y-119707000D01*
X167424000Y-119699000D01*
X167449000Y-119692000D01*
X167474000Y-119686000D01*
X167499000Y-119681000D01*
X167524000Y-119678000D01*
X167549000Y-119676000D01*
X167575000Y-119675000D01*
X167601000Y-119676000D01*
G37*
X161062000Y-120162000D02*
X161062000Y-120938000D01*
X161062000Y-120963000D01*
X161060000Y-120988000D01*
X161056000Y-121014000D01*
X161052000Y-121039000D01*
X161046000Y-121064000D01*
X161039000Y-121088000D01*
X161030000Y-121112000D01*
X161020000Y-121136000D01*
X161009000Y-121159000D01*
X160997000Y-121181000D01*
X160984000Y-121203000D01*
X160969000Y-121224000D01*
X160954000Y-121244000D01*
X160937000Y-121264000D01*
X160920000Y-121282000D01*
X160901000Y-121300000D01*
X160882000Y-121316000D01*
X160862000Y-121332000D01*
X160841000Y-121346000D01*
X160819000Y-121360000D01*
X160796000Y-121372000D01*
X160773000Y-121383000D01*
X160750000Y-121393000D01*
X160726000Y-121401000D01*
X160701000Y-121408000D01*
X160676000Y-121414000D01*
X160651000Y-121419000D01*
X160626000Y-121422000D01*
X160601000Y-121424000D01*
X160575000Y-121425000D01*
X160549000Y-121424000D01*
X160524000Y-121422000D01*
X160499000Y-121419000D01*
X160474000Y-121414000D01*
X160449000Y-121408000D01*
X160424000Y-121401000D01*
X160400000Y-121393000D01*
X160377000Y-121383000D01*
X160354000Y-121372000D01*
X160331000Y-121360000D01*
X160309000Y-121346000D01*
X160288000Y-121332000D01*
X160268000Y-121316000D01*
X160249000Y-121300000D01*
X160230000Y-121282000D01*
X160213000Y-121264000D01*
X160196000Y-121244000D01*
X160181000Y-121224000D01*
X160166000Y-121203000D01*
X160153000Y-121181000D01*
X160141000Y-121159000D01*
X160130000Y-121136000D01*
X160120000Y-121112000D01*
X160111000Y-121088000D01*
X160104000Y-121064000D01*
X160098000Y-121039000D01*
X160094000Y-121014000D01*
X160090000Y-120988000D01*
X160088000Y-120963000D01*
X160088000Y-120938000D01*
X160088000Y-120162000D01*
X160088000Y-120137000D01*
X160090000Y-120112000D01*
X160094000Y-120086000D01*
X160098000Y-120061000D01*
X160104000Y-120036000D01*
X160111000Y-120012000D01*
X160120000Y-119988000D01*
X160130000Y-119964000D01*
X160141000Y-119941000D01*
X160153000Y-119919000D01*
X160166000Y-119897000D01*
X160181000Y-119876000D01*
X160196000Y-119856000D01*
X160213000Y-119836000D01*
X160230000Y-119818000D01*
X160249000Y-119800000D01*
X160268000Y-119784000D01*
X160288000Y-119768000D01*
X160309000Y-119754000D01*
X160331000Y-119740000D01*
X160354000Y-119728000D01*
X160377000Y-119717000D01*
X160400000Y-119707000D01*
X160424000Y-119699000D01*
X160449000Y-119692000D01*
X160474000Y-119686000D01*
X160499000Y-119681000D01*
X160524000Y-119678000D01*
X160549000Y-119676000D01*
X160575000Y-119675000D01*
X160601000Y-119676000D01*
X160626000Y-119678000D01*
X160651000Y-119681000D01*
X160676000Y-119686000D01*
X160701000Y-119692000D01*
X160726000Y-119699000D01*
X160750000Y-119707000D01*
X160773000Y-119717000D01*
X160796000Y-119728000D01*
X160819000Y-119740000D01*
X160841000Y-119754000D01*
X160862000Y-119768000D01*
X160882000Y-119784000D01*
X160901000Y-119800000D01*
X160920000Y-119818000D01*
X160937000Y-119836000D01*
X160954000Y-119856000D01*
X160969000Y-119876000D01*
X160984000Y-119897000D01*
X160997000Y-119919000D01*
X161009000Y-119941000D01*
X161020000Y-119964000D01*
X161030000Y-119988000D01*
X161039000Y-120012000D01*
X161046000Y-120036000D01*
X161052000Y-120061000D01*
X161056000Y-120086000D01*
X161060000Y-120112000D01*
X161062000Y-120137000D01*
X161062000Y-120162000D01*
G36*
X160601000Y-119676000D02*
G01*
X160626000Y-119678000D01*
X160651000Y-119681000D01*
X160676000Y-119686000D01*
X160701000Y-119692000D01*
X160726000Y-119699000D01*
X160750000Y-119707000D01*
X160773000Y-119717000D01*
X160796000Y-119728000D01*
X160819000Y-119740000D01*
X160841000Y-119754000D01*
X160862000Y-119768000D01*
X160882000Y-119784000D01*
X160901000Y-119800000D01*
X160920000Y-119818000D01*
X160937000Y-119836000D01*
X160954000Y-119856000D01*
X160969000Y-119876000D01*
X160984000Y-119897000D01*
X160997000Y-119919000D01*
X161009000Y-119941000D01*
X161020000Y-119964000D01*
X161030000Y-119988000D01*
X161039000Y-120012000D01*
X161046000Y-120036000D01*
X161052000Y-120061000D01*
X161056000Y-120086000D01*
X161060000Y-120112000D01*
X161062000Y-120137000D01*
X161062000Y-120162000D01*
X161062000Y-120938000D01*
X161062000Y-120963000D01*
X161060000Y-120988000D01*
X161056000Y-121014000D01*
X161052000Y-121039000D01*
X161046000Y-121064000D01*
X161039000Y-121088000D01*
X161030000Y-121112000D01*
X161020000Y-121136000D01*
X161009000Y-121159000D01*
X160997000Y-121181000D01*
X160984000Y-121203000D01*
X160969000Y-121224000D01*
X160954000Y-121244000D01*
X160937000Y-121264000D01*
X160920000Y-121282000D01*
X160901000Y-121300000D01*
X160882000Y-121316000D01*
X160862000Y-121332000D01*
X160841000Y-121346000D01*
X160819000Y-121360000D01*
X160796000Y-121372000D01*
X160773000Y-121383000D01*
X160750000Y-121393000D01*
X160726000Y-121401000D01*
X160701000Y-121408000D01*
X160676000Y-121414000D01*
X160651000Y-121419000D01*
X160626000Y-121422000D01*
X160601000Y-121424000D01*
X160575000Y-121425000D01*
X160549000Y-121424000D01*
X160524000Y-121422000D01*
X160499000Y-121419000D01*
X160474000Y-121414000D01*
X160449000Y-121408000D01*
X160424000Y-121401000D01*
X160400000Y-121393000D01*
X160377000Y-121383000D01*
X160354000Y-121372000D01*
X160331000Y-121360000D01*
X160309000Y-121346000D01*
X160288000Y-121332000D01*
X160268000Y-121316000D01*
X160249000Y-121300000D01*
X160230000Y-121282000D01*
X160213000Y-121264000D01*
X160196000Y-121244000D01*
X160181000Y-121224000D01*
X160166000Y-121203000D01*
X160153000Y-121181000D01*
X160141000Y-121159000D01*
X160130000Y-121136000D01*
X160120000Y-121112000D01*
X160111000Y-121088000D01*
X160104000Y-121064000D01*
X160098000Y-121039000D01*
X160094000Y-121014000D01*
X160090000Y-120988000D01*
X160088000Y-120963000D01*
X160088000Y-120938000D01*
X160088000Y-120162000D01*
X160088000Y-120137000D01*
X160090000Y-120112000D01*
X160094000Y-120086000D01*
X160098000Y-120061000D01*
X160104000Y-120036000D01*
X160111000Y-120012000D01*
X160120000Y-119988000D01*
X160130000Y-119964000D01*
X160141000Y-119941000D01*
X160153000Y-119919000D01*
X160166000Y-119897000D01*
X160181000Y-119876000D01*
X160196000Y-119856000D01*
X160213000Y-119836000D01*
X160230000Y-119818000D01*
X160249000Y-119800000D01*
X160268000Y-119784000D01*
X160288000Y-119768000D01*
X160309000Y-119754000D01*
X160331000Y-119740000D01*
X160354000Y-119728000D01*
X160377000Y-119717000D01*
X160400000Y-119707000D01*
X160424000Y-119699000D01*
X160449000Y-119692000D01*
X160474000Y-119686000D01*
X160499000Y-119681000D01*
X160524000Y-119678000D01*
X160549000Y-119676000D01*
X160575000Y-119675000D01*
X160601000Y-119676000D01*
G37*
%TD*%
D11*
%TO.C,J2*%
X166575000Y-117850000D03*
X161575000Y-117850000D03*
%TD*%
D12*
%TO.C,J6*%
X138100000Y-98800000D03*
X138100000Y-97800000D03*
X138100000Y-96800000D03*
D13*
X134225000Y-100100000D03*
X134225000Y-95500000D03*
%TD*%
D14*
%TO.C,TP17*%
X153550000Y-104100000D03*
%TD*%
%TO.C,TP16*%
X147200000Y-105050000D03*
%TD*%
D15*
%TO.C,C29*%
X157070000Y-94650000D03*
X158030000Y-94650000D03*
%TD*%
D16*
%TO.C,J3*%
X157690000Y-121050000D03*
X144540000Y-122050000D03*
D17*
X156150000Y-107900000D03*
D18*
X150400000Y-107900000D03*
D19*
X149210000Y-118760000D03*
X150310000Y-118360000D03*
X151410000Y-118760000D03*
X152510000Y-118960000D03*
X153610000Y-118760000D03*
X154710000Y-118960000D03*
X155810000Y-118760000D03*
X156910000Y-118760000D03*
D20*
X154700000Y-107530000D03*
%TD*%
D14*
%TO.C,TP15*%
X157925000Y-104100000D03*
%TD*%
%TO.C,TP14*%
X155750000Y-104075000D03*
%TD*%
D21*
%TO.C,R18*%
X159450000Y-105260000D03*
X159450000Y-104240000D03*
%TD*%
D22*
%TO.C,SW2*%
X161810000Y-106350000D03*
X161810000Y-115450000D03*
X166290000Y-106350000D03*
X166290000Y-115450000D03*
%TD*%
D15*
%TO.C,C16*%
X156025000Y-86700000D03*
X156985000Y-86700000D03*
%TD*%
D22*
%TO.C,SW1*%
X136150000Y-106350000D03*
X136150000Y-115450000D03*
X140630000Y-106350000D03*
X140630000Y-115450000D03*
%TD*%
D14*
%TO.C,TP18*%
X144400000Y-105025000D03*
%TD*%
D23*
%TO.C,J1*%
X158250000Y-96275000D03*
X157750000Y-96275000D03*
X157250000Y-96275000D03*
X156750000Y-96275000D03*
X156250000Y-96275000D03*
X155750000Y-96275000D03*
X155250000Y-96275000D03*
X154750000Y-96275000D03*
X154250000Y-96275000D03*
X153750000Y-96275000D03*
X153250000Y-96275000D03*
X152750000Y-96275000D03*
X152250000Y-96275000D03*
X151750000Y-96275000D03*
X151250000Y-96275000D03*
X150750000Y-96275000D03*
X150250000Y-96275000D03*
X149750000Y-96275000D03*
X149250000Y-96275000D03*
X148750000Y-96275000D03*
X148250000Y-96275000D03*
X147750000Y-96275000D03*
X147250000Y-96275000D03*
X146750000Y-96275000D03*
X146250000Y-96275000D03*
X145750000Y-96275000D03*
X145250000Y-96275000D03*
X144750000Y-96275000D03*
X144250000Y-96275000D03*
X143750000Y-96275000D03*
D24*
X160150000Y-99525000D03*
X141850000Y-99525000D03*
%TD*%
D21*
%TO.C,R17*%
X140650000Y-104210000D03*
X140650000Y-103190000D03*
%TD*%
D15*
%TO.C,C8*%
X156020000Y-87700000D03*
X156980000Y-87700000D03*
%TD*%
M02*
