M48
; DRILL file KiCad 10.0.4 date 2026-08-16T14:59:19
; FORMAT={-:-/ absolute / metric / decimal}
; #@! TF.CreationDate,2026-08-16T14:59:19+02:00
; #@! TF.GenerationSoftware,Kicad,Pcbnew,10.0.4
; #@! TF.FileFunction,Plated,1,4,PTH
FMAT,2
METRIC
; #@! TA.AperFunction,Plated,PTH,ViaDrill
T1C0.300
; #@! TA.AperFunction,Plated,PTH,ComponentDrill
T2C0.300
; #@! TA.AperFunction,Plated,PTH,ComponentDrill
T3C0.500
; #@! TA.AperFunction,Plated,PTH,ComponentDrill
T4C0.550
%
G90
G05
T1
X133.6Y-94.15
X134.25Y-101.6
X134.525Y-91.675
X134.675Y-89.875
X136.15Y-104.25
X136.5Y-97.825
X136.85Y-111.925
X137.2Y-89.35
X138.4Y-93.4
X138.75Y-84.8
X138.95Y-109.35
X139.225Y-104.55
X140.775Y-110.525
X140.825Y-97.45
X141.05Y-88.75
X142.45Y-101.225
X142.7Y-122.05
X142.8Y-84.2
X143.7Y-87.85
X144.3Y-97.475
X144.3Y-100.2
X144.575Y-84.7
X144.65Y-85.9
X145.25Y-97.425
X145.35Y-100.225
X145.825Y-85.08
X146.22Y-87.48
X146.3Y-91.9
X146.375Y-97.525
X146.375Y-100.2
X146.63Y-63.2
X147.41Y-63.21
X147.7Y-82.175
X148.1Y-99.475
X148.23Y-63.22
X148.5Y-115.9
X148.6Y-75.9
X148.85Y-84.9
X148.85Y-101.75
X148.9Y-82.674
X149.1Y-63.22
X149.15Y-87.4
X149.499Y-99.647
X149.55Y-82.925
X149.875Y-69.895
X150.1Y-80.3
X150.1Y-97.9
X150.31Y-116.69
X150.4Y-106.25
X150.6Y-101.825
X151.3Y-94.35
X151.6Y-97.475
X151.6Y-100.1
X151.7Y-89.48
X152.1Y-85.28
X152.175Y-77.55
X152.25Y-105.0
X152.35Y-79.8
X152.35Y-82.4
X152.375Y-91.775
X152.45Y-94.35
X152.55Y-117.05
X152.6Y-76.6
X152.675Y-97.45
X152.675Y-100.1
X153.402Y-88.55
X153.75Y-89.85
X153.8Y-86.75
X153.8Y-87.5
X154.075Y-99.975
X154.1Y-97.475
X154.15Y-94.35
X154.4Y-115.8
X154.55Y-105.85
X154.7Y-120.4
X155.1Y-100.0
X155.15Y-94.35
X155.275Y-97.525
X156.0Y-114.4
X156.15Y-106.25
X156.3Y-91.25
X156.4Y-93.8
X156.475Y-97.625
X156.95Y-82.5
X157.0Y-85.9
X157.1Y-88.55
X157.225Y-101.8
X157.45Y-91.25
X157.708Y-88.545
X157.8Y-97.475
X157.95Y-100.05
X158.75Y-102.05
X159.05Y-121.05
X159.275Y-94.875
X159.285Y-93.815
X159.65Y-101.25
X160.0Y-106.975
X160.375Y-103.275
X160.4Y-92.3
X160.725Y-111.925
X162.6Y-79.8
X162.9Y-97.7
X163.05Y-119.45
X163.2Y-92.8
X163.6Y-108.925
X163.705Y-114.93
X164.18Y-76.32
X164.25Y-106.025
X164.6Y-87.45
X164.734Y-104.075
X165.0Y-102.45
X165.05Y-107.15
X165.237Y-119.262
X165.75Y-87.25
X167.15Y-90.65
X167.45Y-86.4
X167.75Y-77.15
T2
X149.927Y-86.005
X149.927Y-87.38
X149.927Y-88.755
X151.302Y-86.005
X151.302Y-87.38
X151.302Y-88.755
X152.677Y-86.005
X152.677Y-87.38
X152.677Y-88.755
T3
G00X160.575Y-120.225
M15
G01X160.575Y-120.875
M16
G05
G00X167.575Y-120.225
M15
G01X167.575Y-120.875
M16
G05
T4
G00X161.4Y-117.85
M15
G01X161.75Y-117.85
M16
G05
G00X166.4Y-117.85
M15
G01X166.75Y-117.85
M16
G05
M30
