%TF.GenerationSoftware,KiCad,Pcbnew,10.0.4*%
%TF.CreationDate,2026-08-16T14:59:16+02:00*%
%TF.ProjectId,PS-microCard PCB,50532d6d-6963-4726-9f43-617264205043,rev?*%
%TF.SameCoordinates,Original*%
%TF.FileFunction,Paste,Top*%
%TF.FilePolarity,Positive*%
%FSLAX46Y46*%
G04 Gerber Fmt 4.6, Leading zero omitted, Abs format (unit mm)*
G04 Created by KiCad (PCBNEW 10.0.4) date 2026-08-16 14:59:16*
%MOMM*%
%LPD*%
G01*
G04 APERTURE LIST*
G04 Aperture macros list*
%AMRoundRect*
0 Rectangle with rounded corners*
0 $1 Rounding radius*
0 $2 $3 $4 $5 $6 $7 $8 $9 X,Y pos of 4 corners*
0 Add a 4 corners polygon primitive as box body*
4,1,4,$2,$3,$4,$5,$6,$7,$8,$9,$2,$3,0*
0 Add four circle primitives for the rounded corners*
1,1,$1+$1,$2,$3*
1,1,$1+$1,$4,$5*
1,1,$1+$1,$6,$7*
1,1,$1+$1,$8,$9*
0 Add four rect primitives between the rounded corners*
20,1,$1+$1,$2,$3,$4,$5,0*
20,1,$1+$1,$4,$5,$6,$7,0*
20,1,$1+$1,$6,$7,$8,$9,0*
20,1,$1+$1,$8,$9,$2,$3,0*%
%AMFreePoly0*
4,1,18,-0.437500,0.050000,-0.433694,0.069134,-0.422855,0.085355,-0.406634,0.096194,-0.387500,0.100000,0.387500,0.100000,0.437500,0.050000,0.437500,-0.050000,0.433694,-0.069134,0.422855,-0.085355,0.406634,-0.096194,0.387500,-0.100000,-0.387500,-0.100000,-0.406634,-0.096194,-0.422855,-0.085355,-0.433694,-0.069134,-0.437500,-0.050000,-0.437500,0.050000,-0.437500,0.050000,$1*%
%AMFreePoly1*
4,1,18,-0.437500,0.050000,-0.433694,0.069134,-0.422855,0.085355,-0.406634,0.096194,-0.387500,0.100000,0.387500,0.100000,0.406634,0.096194,0.422855,0.085355,0.433694,0.069134,0.437500,0.050000,0.437500,-0.050000,0.387500,-0.100000,-0.387500,-0.100000,-0.406634,-0.096194,-0.422855,-0.085355,-0.433694,-0.069134,-0.437500,-0.050000,-0.437500,0.050000,-0.437500,0.050000,$1*%
%AMFreePoly2*
4,1,18,-0.100000,0.387500,-0.050000,0.437500,0.050000,0.437500,0.069134,0.433694,0.085355,0.422855,0.096194,0.406634,0.100000,0.387500,0.100000,-0.387500,0.096194,-0.406634,0.085355,-0.422855,0.069134,-0.433694,0.050000,-0.437500,-0.050000,-0.437500,-0.069134,-0.433694,-0.085355,-0.422855,-0.096194,-0.406634,-0.100000,-0.387500,-0.100000,0.387500,-0.100000,0.387500,$1*%
%AMFreePoly3*
4,1,18,-0.100000,0.387500,-0.096194,0.406634,-0.085355,0.422855,-0.069134,0.433694,-0.050000,0.437500,0.050000,0.437500,0.100000,0.387500,0.100000,-0.387500,0.096194,-0.406634,0.085355,-0.422855,0.069134,-0.433694,0.050000,-0.437500,-0.050000,-0.437500,-0.069134,-0.433694,-0.085355,-0.422855,-0.096194,-0.406634,-0.100000,-0.387500,-0.100000,0.387500,-0.100000,0.387500,$1*%
%AMFreePoly4*
4,1,18,-0.437500,0.050000,-0.433694,0.069134,-0.422855,0.085355,-0.406634,0.096194,-0.387500,0.100000,0.387500,0.100000,0.406634,0.096194,0.422855,0.085355,0.433694,0.069134,0.437500,0.050000,0.437500,-0.050000,0.433694,-0.069134,0.422855,-0.085355,0.406634,-0.096194,0.387500,-0.100000,-0.387500,-0.100000,-0.437500,-0.050000,-0.437500,0.050000,-0.437500,0.050000,$1*%
%AMFreePoly5*
4,1,18,-0.437500,0.050000,-0.387500,0.100000,0.387500,0.100000,0.406634,0.096194,0.422855,0.085355,0.433694,0.069134,0.437500,0.050000,0.437500,-0.050000,0.433694,-0.069134,0.422855,-0.085355,0.406634,-0.096194,0.387500,-0.100000,-0.387500,-0.100000,-0.406634,-0.096194,-0.422855,-0.085355,-0.433694,-0.069134,-0.437500,-0.050000,-0.437500,0.050000,-0.437500,0.050000,$1*%
%AMFreePoly6*
4,1,18,-0.100000,0.387500,-0.096194,0.406634,-0.085355,0.422855,-0.069134,0.433694,-0.050000,0.437500,0.050000,0.437500,0.069134,0.433694,0.085355,0.422855,0.096194,0.406634,0.100000,0.387500,0.100000,-0.387500,0.050000,-0.437500,-0.050000,-0.437500,-0.069134,-0.433694,-0.085355,-0.422855,-0.096194,-0.406634,-0.100000,-0.387500,-0.100000,0.387500,-0.100000,0.387500,$1*%
%AMFreePoly7*
4,1,18,-0.100000,0.387500,-0.096194,0.406634,-0.085355,0.422855,-0.069134,0.433694,-0.050000,0.437500,0.050000,0.437500,0.069134,0.433694,0.085355,0.422855,0.096194,0.406634,0.100000,0.387500,0.100000,-0.387500,0.096194,-0.406634,0.085355,-0.422855,0.069134,-0.433694,0.050000,-0.437500,-0.050000,-0.437500,-0.100000,-0.387500,-0.100000,0.387500,-0.100000,0.387500,$1*%
G04 Aperture macros list end*
%ADD10C,0.010000*%
%ADD11R,1.500000X1.550000*%
%ADD12R,0.400000X1.350000*%
%ADD13RoundRect,0.135000X0.185000X-0.135000X0.185000X0.135000X-0.185000X0.135000X-0.185000X-0.135000X0*%
%ADD14RoundRect,0.140000X-0.170000X0.140000X-0.170000X-0.140000X0.170000X-0.140000X0.170000X0.140000X0*%
%ADD15RoundRect,0.135000X-0.185000X0.135000X-0.185000X-0.135000X0.185000X-0.135000X0.185000X0.135000X0*%
%ADD16RoundRect,0.135000X-0.135000X-0.185000X0.135000X-0.185000X0.135000X0.185000X-0.135000X0.185000X0*%
%ADD17RoundRect,0.140000X0.170000X-0.140000X0.170000X0.140000X-0.170000X0.140000X-0.170000X-0.140000X0*%
%ADD18R,0.558800X1.270000*%
%ADD19RoundRect,0.140000X0.140000X0.170000X-0.140000X0.170000X-0.140000X-0.170000X0.140000X-0.170000X0*%
%ADD20R,0.550000X0.570000*%
%ADD21RoundRect,0.135000X0.135000X0.185000X-0.135000X0.185000X-0.135000X-0.185000X0.135000X-0.185000X0*%
%ADD22RoundRect,0.140000X-0.140000X-0.170000X0.140000X-0.170000X0.140000X0.170000X-0.140000X0.170000X0*%
%ADD23R,1.500000X3.600000*%
%ADD24RoundRect,0.250000X-0.350000X0.350000X-0.350000X-0.350000X0.350000X-0.350000X0.350000X0.350000X0*%
%ADD25FreePoly0,270.000000*%
%ADD26RoundRect,0.050000X-0.050000X0.387500X-0.050000X-0.387500X0.050000X-0.387500X0.050000X0.387500X0*%
%ADD27FreePoly1,270.000000*%
%ADD28FreePoly2,270.000000*%
%ADD29RoundRect,0.050000X-0.387500X0.050000X-0.387500X-0.050000X0.387500X-0.050000X0.387500X0.050000X0*%
%ADD30FreePoly3,270.000000*%
%ADD31FreePoly4,270.000000*%
%ADD32FreePoly5,270.000000*%
%ADD33FreePoly6,270.000000*%
%ADD34FreePoly7,270.000000*%
%ADD35RoundRect,0.162500X-0.162500X0.650000X-0.162500X-0.650000X0.162500X-0.650000X0.162500X0.650000X0*%
%ADD36RoundRect,0.250000X0.250000X0.475000X-0.250000X0.475000X-0.250000X-0.475000X0.250000X-0.475000X0*%
%ADD37RoundRect,0.250000X-0.250000X-0.475000X0.250000X-0.475000X0.250000X0.475000X-0.250000X0.475000X0*%
%ADD38RoundRect,0.147500X0.147500X-0.457500X0.147500X0.457500X-0.147500X0.457500X-0.147500X-0.457500X0*%
%ADD39R,0.530000X0.470000*%
%ADD40RoundRect,0.051250X-0.153750X0.733750X-0.153750X-0.733750X0.153750X-0.733750X0.153750X0.733750X0*%
%ADD41RoundRect,0.073750X-0.221250X0.531250X-0.221250X-0.531250X0.221250X-0.531250X0.221250X0.531250X0*%
%ADD42R,1.300000X1.050000*%
%ADD43R,1.700000X0.700000*%
G04 APERTURE END LIST*
D10*
%TO.C,J2*%
X166375000Y-119775000D02*
X167520000Y-119775000D01*
X167546000Y-119776000D01*
X167572000Y-119778000D01*
X167598000Y-119781000D01*
X167624000Y-119786000D01*
X167649000Y-119792000D01*
X167675000Y-119799000D01*
X167699000Y-119808000D01*
X167723000Y-119818000D01*
X167747000Y-119829000D01*
X167770000Y-119842000D01*
X167792000Y-119856000D01*
X167814000Y-119870000D01*
X167835000Y-119886000D01*
X167855000Y-119903000D01*
X167874000Y-119921000D01*
X167892000Y-119940000D01*
X167909000Y-119960000D01*
X167925000Y-119981000D01*
X167939000Y-120003000D01*
X167953000Y-120025000D01*
X167966000Y-120048000D01*
X167977000Y-120072000D01*
X167987000Y-120096000D01*
X167996000Y-120120000D01*
X168003000Y-120146000D01*
X168009000Y-120171000D01*
X168014000Y-120197000D01*
X168017000Y-120223000D01*
X168019000Y-120249000D01*
X168020000Y-120275000D01*
X168020000Y-120825000D01*
X168019000Y-120851000D01*
X168017000Y-120877000D01*
X168014000Y-120903000D01*
X168009000Y-120929000D01*
X168003000Y-120954000D01*
X167996000Y-120980000D01*
X167987000Y-121004000D01*
X167977000Y-121028000D01*
X167966000Y-121052000D01*
X167953000Y-121075000D01*
X167939000Y-121097000D01*
X167925000Y-121119000D01*
X167909000Y-121140000D01*
X167892000Y-121160000D01*
X167874000Y-121179000D01*
X167855000Y-121197000D01*
X167835000Y-121214000D01*
X167814000Y-121230000D01*
X167792000Y-121244000D01*
X167770000Y-121258000D01*
X167747000Y-121271000D01*
X167723000Y-121282000D01*
X167699000Y-121292000D01*
X167675000Y-121301000D01*
X167649000Y-121308000D01*
X167624000Y-121314000D01*
X167598000Y-121319000D01*
X167572000Y-121322000D01*
X167546000Y-121324000D01*
X167520000Y-121325000D01*
X166375000Y-121325000D01*
X166375000Y-119775000D01*
G36*
X167546000Y-119776000D02*
G01*
X167572000Y-119778000D01*
X167598000Y-119781000D01*
X167624000Y-119786000D01*
X167649000Y-119792000D01*
X167675000Y-119799000D01*
X167699000Y-119808000D01*
X167723000Y-119818000D01*
X167747000Y-119829000D01*
X167770000Y-119842000D01*
X167792000Y-119856000D01*
X167814000Y-119870000D01*
X167835000Y-119886000D01*
X167855000Y-119903000D01*
X167874000Y-119921000D01*
X167892000Y-119940000D01*
X167909000Y-119960000D01*
X167925000Y-119981000D01*
X167939000Y-120003000D01*
X167953000Y-120025000D01*
X167966000Y-120048000D01*
X167977000Y-120072000D01*
X167987000Y-120096000D01*
X167996000Y-120120000D01*
X168003000Y-120146000D01*
X168009000Y-120171000D01*
X168014000Y-120197000D01*
X168017000Y-120223000D01*
X168019000Y-120249000D01*
X168020000Y-120275000D01*
X168020000Y-120825000D01*
X168019000Y-120851000D01*
X168017000Y-120877000D01*
X168014000Y-120903000D01*
X168009000Y-120929000D01*
X168003000Y-120954000D01*
X167996000Y-120980000D01*
X167987000Y-121004000D01*
X167977000Y-121028000D01*
X167966000Y-121052000D01*
X167953000Y-121075000D01*
X167939000Y-121097000D01*
X167925000Y-121119000D01*
X167909000Y-121140000D01*
X167892000Y-121160000D01*
X167874000Y-121179000D01*
X167855000Y-121197000D01*
X167835000Y-121214000D01*
X167814000Y-121230000D01*
X167792000Y-121244000D01*
X167770000Y-121258000D01*
X167747000Y-121271000D01*
X167723000Y-121282000D01*
X167699000Y-121292000D01*
X167675000Y-121301000D01*
X167649000Y-121308000D01*
X167624000Y-121314000D01*
X167598000Y-121319000D01*
X167572000Y-121322000D01*
X167546000Y-121324000D01*
X167520000Y-121325000D01*
X166375000Y-121325000D01*
X166375000Y-119775000D01*
X167520000Y-119775000D01*
X167546000Y-119776000D01*
G37*
X161775000Y-121325000D02*
X160630000Y-121325000D01*
X160604000Y-121324000D01*
X160578000Y-121322000D01*
X160552000Y-121319000D01*
X160526000Y-121314000D01*
X160501000Y-121308000D01*
X160475000Y-121301000D01*
X160451000Y-121292000D01*
X160427000Y-121282000D01*
X160403000Y-121271000D01*
X160380000Y-121258000D01*
X160358000Y-121244000D01*
X160336000Y-121230000D01*
X160315000Y-121214000D01*
X160295000Y-121197000D01*
X160276000Y-121179000D01*
X160258000Y-121160000D01*
X160241000Y-121140000D01*
X160225000Y-121119000D01*
X160211000Y-121097000D01*
X160197000Y-121075000D01*
X160184000Y-121052000D01*
X160173000Y-121028000D01*
X160163000Y-121004000D01*
X160154000Y-120980000D01*
X160147000Y-120954000D01*
X160141000Y-120929000D01*
X160136000Y-120903000D01*
X160133000Y-120877000D01*
X160131000Y-120851000D01*
X160130000Y-120825000D01*
X160130000Y-120275000D01*
X160131000Y-120249000D01*
X160133000Y-120223000D01*
X160136000Y-120197000D01*
X160141000Y-120171000D01*
X160147000Y-120146000D01*
X160154000Y-120120000D01*
X160163000Y-120096000D01*
X160173000Y-120072000D01*
X160184000Y-120048000D01*
X160197000Y-120025000D01*
X160211000Y-120003000D01*
X160225000Y-119981000D01*
X160241000Y-119960000D01*
X160258000Y-119940000D01*
X160276000Y-119921000D01*
X160295000Y-119903000D01*
X160315000Y-119886000D01*
X160336000Y-119870000D01*
X160358000Y-119856000D01*
X160380000Y-119842000D01*
X160403000Y-119829000D01*
X160427000Y-119818000D01*
X160451000Y-119808000D01*
X160475000Y-119799000D01*
X160501000Y-119792000D01*
X160526000Y-119786000D01*
X160552000Y-119781000D01*
X160578000Y-119778000D01*
X160604000Y-119776000D01*
X160630000Y-119775000D01*
X161775000Y-119775000D01*
X161775000Y-121325000D01*
G36*
X161775000Y-121325000D02*
G01*
X160630000Y-121325000D01*
X160604000Y-121324000D01*
X160578000Y-121322000D01*
X160552000Y-121319000D01*
X160526000Y-121314000D01*
X160501000Y-121308000D01*
X160475000Y-121301000D01*
X160451000Y-121292000D01*
X160427000Y-121282000D01*
X160403000Y-121271000D01*
X160380000Y-121258000D01*
X160358000Y-121244000D01*
X160336000Y-121230000D01*
X160315000Y-121214000D01*
X160295000Y-121197000D01*
X160276000Y-121179000D01*
X160258000Y-121160000D01*
X160241000Y-121140000D01*
X160225000Y-121119000D01*
X160211000Y-121097000D01*
X160197000Y-121075000D01*
X160184000Y-121052000D01*
X160173000Y-121028000D01*
X160163000Y-121004000D01*
X160154000Y-120980000D01*
X160147000Y-120954000D01*
X160141000Y-120929000D01*
X160136000Y-120903000D01*
X160133000Y-120877000D01*
X160131000Y-120851000D01*
X160130000Y-120825000D01*
X160130000Y-120275000D01*
X160131000Y-120249000D01*
X160133000Y-120223000D01*
X160136000Y-120197000D01*
X160141000Y-120171000D01*
X160147000Y-120146000D01*
X160154000Y-120120000D01*
X160163000Y-120096000D01*
X160173000Y-120072000D01*
X160184000Y-120048000D01*
X160197000Y-120025000D01*
X160211000Y-120003000D01*
X160225000Y-119981000D01*
X160241000Y-119960000D01*
X160258000Y-119940000D01*
X160276000Y-119921000D01*
X160295000Y-119903000D01*
X160315000Y-119886000D01*
X160336000Y-119870000D01*
X160358000Y-119856000D01*
X160380000Y-119842000D01*
X160403000Y-119829000D01*
X160427000Y-119818000D01*
X160451000Y-119808000D01*
X160475000Y-119799000D01*
X160501000Y-119792000D01*
X160526000Y-119786000D01*
X160552000Y-119781000D01*
X160578000Y-119778000D01*
X160604000Y-119776000D01*
X160630000Y-119775000D01*
X161775000Y-119775000D01*
X161775000Y-121325000D01*
G37*
%TD*%
D11*
%TO.C,J2*%
X163075000Y-120550000D03*
X165075000Y-120550000D03*
D12*
X165375000Y-117875000D03*
X164725000Y-117875000D03*
X164075000Y-117875000D03*
X163425000Y-117875000D03*
X162775000Y-117875000D03*
%TD*%
D13*
%TO.C,R15*%
X155202000Y-78452500D03*
X155202000Y-77432500D03*
%TD*%
D14*
%TO.C,C7*%
X146300000Y-90170000D03*
X146300000Y-91130000D03*
%TD*%
D15*
%TO.C,R16*%
X156302000Y-77432500D03*
X156302000Y-78452500D03*
%TD*%
D16*
%TO.C,R10*%
X152240000Y-105850000D03*
X153260000Y-105850000D03*
%TD*%
D17*
%TO.C,C17*%
X150100000Y-82030000D03*
X150100000Y-81070000D03*
%TD*%
D18*
%TO.C,U6*%
X135935200Y-110445400D03*
X136875000Y-110445400D03*
X137814800Y-110445400D03*
X137814800Y-107854600D03*
X136875000Y-107854600D03*
X135935200Y-107854600D03*
%TD*%
D15*
%TO.C,R19*%
X163350000Y-75300000D03*
X163350000Y-76320000D03*
%TD*%
D14*
%TO.C,C14*%
X154150000Y-92650000D03*
X154150000Y-93610000D03*
%TD*%
D19*
%TO.C,C27*%
X151605000Y-69895000D03*
X150645000Y-69895000D03*
%TD*%
D20*
%TO.C,S1*%
X136575000Y-90970000D03*
X139125000Y-90970000D03*
X136575000Y-92130000D03*
X139125000Y-92130000D03*
%TD*%
D14*
%TO.C,C10*%
X155150000Y-92650000D03*
X155150000Y-93610000D03*
%TD*%
D13*
%TO.C,R5*%
X142800000Y-88510000D03*
X142800000Y-87490000D03*
%TD*%
D21*
%TO.C,R6*%
X159560000Y-86700000D03*
X158540000Y-86700000D03*
%TD*%
D13*
%TO.C,R3*%
X167750000Y-76310000D03*
X167750000Y-75290000D03*
%TD*%
D22*
%TO.C,C22*%
X152570000Y-115800000D03*
X153530000Y-115800000D03*
%TD*%
D17*
%TO.C,C31*%
X155125000Y-99255000D03*
X155125000Y-98295000D03*
%TD*%
D23*
%TO.C,L2*%
X138400000Y-113525000D03*
X135350000Y-113525000D03*
%TD*%
D21*
%TO.C,R26*%
X140560000Y-105875000D03*
X139540000Y-105875000D03*
%TD*%
%TO.C,R1*%
X166000000Y-74000000D03*
X164980000Y-74000000D03*
%TD*%
D24*
%TO.C,U2*%
X152002000Y-86680000D03*
X150602000Y-86680000D03*
X152002000Y-88080000D03*
X150602000Y-88080000D03*
D25*
X154102000Y-83942500D03*
D26*
X153702000Y-83942500D03*
X153302000Y-83942500D03*
X152902000Y-83942500D03*
X152502000Y-83942500D03*
X152102000Y-83942500D03*
X151702000Y-83942500D03*
X151302000Y-83942500D03*
X150902000Y-83942500D03*
X150502000Y-83942500D03*
X150102000Y-83942500D03*
X149702000Y-83942500D03*
X149302000Y-83942500D03*
X148902000Y-83942500D03*
D27*
X148502000Y-83942500D03*
D28*
X147864500Y-84580000D03*
D29*
X147864500Y-84980000D03*
X147864500Y-85380000D03*
X147864500Y-85780000D03*
X147864500Y-86180000D03*
X147864500Y-86580000D03*
X147864500Y-86980000D03*
X147864500Y-87380000D03*
X147864500Y-87780000D03*
X147864500Y-88180000D03*
X147864500Y-88580000D03*
X147864500Y-88980000D03*
X147864500Y-89380000D03*
X147864500Y-89780000D03*
D30*
X147864500Y-90180000D03*
D31*
X148502000Y-90817500D03*
D26*
X148902000Y-90817500D03*
X149302000Y-90817500D03*
X149702000Y-90817500D03*
X150102000Y-90817500D03*
X150502000Y-90817500D03*
X150902000Y-90817500D03*
X151302000Y-90817500D03*
X151702000Y-90817500D03*
X152102000Y-90817500D03*
X152502000Y-90817500D03*
X152902000Y-90817500D03*
X153302000Y-90817500D03*
X153702000Y-90817500D03*
D32*
X154102000Y-90817500D03*
D33*
X154739500Y-90180000D03*
D29*
X154739500Y-89780000D03*
X154739500Y-89380000D03*
X154739500Y-88980000D03*
X154739500Y-88580000D03*
X154739500Y-88180000D03*
X154739500Y-87780000D03*
X154739500Y-87380000D03*
X154739500Y-86980000D03*
X154739500Y-86580000D03*
X154739500Y-86180000D03*
X154739500Y-85780000D03*
X154739500Y-85380000D03*
X154739500Y-84980000D03*
D34*
X154739500Y-84580000D03*
%TD*%
D35*
%TO.C,U1*%
X166407000Y-78292500D03*
X165137000Y-78292500D03*
X163867000Y-78292500D03*
X162597000Y-78292500D03*
X162597000Y-85467500D03*
X163867000Y-85467500D03*
X165137000Y-85467500D03*
X166407000Y-85467500D03*
%TD*%
D21*
%TO.C,R27*%
X150635000Y-75825000D03*
X149615000Y-75825000D03*
%TD*%
D22*
%TO.C,C30*%
X157145000Y-98425000D03*
X158105000Y-98425000D03*
%TD*%
D36*
%TO.C,C19*%
X162975000Y-106025000D03*
X161075000Y-106025000D03*
%TD*%
D22*
%TO.C,C20*%
X161745000Y-115525000D03*
X162705000Y-115525000D03*
%TD*%
D20*
%TO.C,S2*%
X167150000Y-89700000D03*
X164600000Y-89700000D03*
X167150000Y-88540000D03*
X164600000Y-88540000D03*
%TD*%
D21*
%TO.C,R11*%
X137610000Y-93400000D03*
X136590000Y-93400000D03*
%TD*%
D13*
%TO.C,R14*%
X154102000Y-78452500D03*
X154102000Y-77432500D03*
%TD*%
D16*
%TO.C,R4*%
X158490000Y-92300000D03*
X159510000Y-92300000D03*
%TD*%
D19*
%TO.C,C35*%
X139955000Y-110525000D03*
X138995000Y-110525000D03*
%TD*%
D15*
%TO.C,R22*%
X146375000Y-98390000D03*
X146375000Y-99410000D03*
%TD*%
D17*
%TO.C,C3*%
X137200000Y-88630000D03*
X137200000Y-87670000D03*
%TD*%
%TO.C,C33*%
X154075000Y-99255000D03*
X154075000Y-98295000D03*
%TD*%
%TO.C,C23*%
X165000000Y-101730000D03*
X165000000Y-100770000D03*
%TD*%
D15*
%TO.C,R23*%
X152675000Y-98305000D03*
X152675000Y-99325000D03*
%TD*%
D19*
%TO.C,C15*%
X145380000Y-87650000D03*
X144420000Y-87650000D03*
%TD*%
D16*
%TO.C,R20*%
X160065000Y-93815000D03*
X161085000Y-93815000D03*
%TD*%
D22*
%TO.C,C5*%
X166470000Y-87250000D03*
X167430000Y-87250000D03*
%TD*%
D16*
%TO.C,R9*%
X160015000Y-94875000D03*
X161035000Y-94875000D03*
%TD*%
D15*
%TO.C,R12*%
X145902000Y-77440000D03*
X145902000Y-78460000D03*
%TD*%
D37*
%TO.C,C24*%
X152800000Y-114050000D03*
X154700000Y-114050000D03*
%TD*%
D15*
%TO.C,R21*%
X162275000Y-92805000D03*
X162275000Y-93825000D03*
%TD*%
D38*
%TO.C,U3*%
X161875000Y-113185000D03*
X162825000Y-113185000D03*
X163775000Y-113185000D03*
X163775000Y-110675000D03*
X161875000Y-110675000D03*
%TD*%
D39*
%TO.C,C1*%
X156300000Y-89465000D03*
X156300000Y-90495000D03*
%TD*%
D13*
%TO.C,R24*%
X151600000Y-99325000D03*
X151600000Y-98305000D03*
%TD*%
D40*
%TO.C,U4*%
X163550000Y-96460000D03*
X162900000Y-96460000D03*
X162250000Y-96460000D03*
X161600000Y-96460000D03*
X161600000Y-102200000D03*
X162250000Y-102200000D03*
X162900000Y-102200000D03*
X163550000Y-102200000D03*
%TD*%
D41*
%TO.C,U7*%
X151575000Y-71590000D03*
X150625000Y-71590000D03*
X149675000Y-71590000D03*
X149675000Y-74100000D03*
X151575000Y-74100000D03*
%TD*%
D16*
%TO.C,R28*%
X148600000Y-76950000D03*
X149620000Y-76950000D03*
%TD*%
D14*
%TO.C,C13*%
X152452000Y-92650000D03*
X152452000Y-93610000D03*
%TD*%
D22*
%TO.C,C28*%
X162945000Y-104075000D03*
X163905000Y-104075000D03*
%TD*%
D17*
%TO.C,C34*%
X144275000Y-99380000D03*
X144275000Y-98420000D03*
%TD*%
D21*
%TO.C,R2*%
X166000000Y-75300000D03*
X164980000Y-75300000D03*
%TD*%
D22*
%TO.C,C26*%
X151620000Y-75825000D03*
X152580000Y-75825000D03*
%TD*%
D39*
%TO.C,C4*%
X157440000Y-89465000D03*
X157440000Y-90495000D03*
%TD*%
D17*
%TO.C,C11*%
X152350000Y-81530000D03*
X152350000Y-80570000D03*
%TD*%
D19*
%TO.C,C21*%
X162855000Y-108925000D03*
X161895000Y-108925000D03*
%TD*%
D13*
%TO.C,R13*%
X147002000Y-78452500D03*
X147002000Y-77432500D03*
%TD*%
D19*
%TO.C,C9*%
X146380000Y-85900000D03*
X145420000Y-85900000D03*
%TD*%
D14*
%TO.C,C6*%
X156400000Y-92070000D03*
X156400000Y-93030000D03*
%TD*%
D22*
%TO.C,C18*%
X155170000Y-82500000D03*
X156130000Y-82500000D03*
%TD*%
D21*
%TO.C,R8*%
X150310000Y-115900000D03*
X149290000Y-115900000D03*
%TD*%
D14*
%TO.C,C2*%
X142800000Y-84940000D03*
X142800000Y-85900000D03*
%TD*%
D16*
%TO.C,R25*%
X137465000Y-105900000D03*
X138485000Y-105900000D03*
%TD*%
D21*
%TO.C,R7*%
X159560000Y-87750000D03*
X158540000Y-87750000D03*
%TD*%
D42*
%TO.C,Y1*%
X138750000Y-87675000D03*
X141050000Y-87675000D03*
X141050000Y-85925000D03*
X138750000Y-85925000D03*
%TD*%
D14*
%TO.C,C12*%
X151300000Y-92650000D03*
X151300000Y-93610000D03*
%TD*%
D19*
%TO.C,C25*%
X161355000Y-104025000D03*
X160395000Y-104025000D03*
%TD*%
D43*
%TO.C,L1*%
X159100000Y-89600000D03*
X159100000Y-91000000D03*
%TD*%
D14*
%TO.C,C32*%
X145325000Y-98420000D03*
X145325000Y-99380000D03*
%TD*%
D19*
%TO.C,C36*%
X138455000Y-104550000D03*
X137495000Y-104550000D03*
%TD*%
M02*
