%TF.GenerationSoftware,KiCad,Pcbnew,10.0.4*%
%TF.CreationDate,2026-08-16T14:59:16+02:00*%
%TF.ProjectId,PS-microCard PCB,50532d6d-6963-4726-9f43-617264205043,rev?*%
%TF.SameCoordinates,Original*%
%TF.FileFunction,Copper,L2,Inr*%
%TF.FilePolarity,Positive*%
%FSLAX46Y46*%
G04 Gerber Fmt 4.6, Leading zero omitted, Abs format (unit mm)*
G04 Created by KiCad (PCBNEW 10.0.4) date 2026-08-16 14:59:16*
%MOMM*%
%LPD*%
G01*
G04 APERTURE LIST*
G04 Aperture macros list*
%AMFreePoly0*
4,1,123,-0.054808,0.779996,-0.028808,0.778996,-0.028617,0.778985,-0.002617,0.776985,-0.002427,0.776967,0.023573,0.773967,0.023944,0.773910,0.049944,0.768910,0.050167,0.768862,0.075167,0.762862,0.075300,0.762828,0.101300,0.755828,0.101756,0.755682,0.125756,0.746682,0.125923,0.746615,0.149923,0.736615,0.150083,0.736545,0.174083,0.725545,0.174460,0.725353,0.197460,0.712353,
0.197684,0.712218,0.241684,0.684218,0.242030,0.683977,0.263030,0.667977,0.263238,0.667810,0.283238,0.650810,0.283439,0.650630,0.302439,0.632630,0.302630,0.632439,0.320630,0.613439,0.320810,0.613238,0.337810,0.593238,0.337977,0.593030,0.353977,0.572030,0.354218,0.571684,0.382218,0.527684,0.382353,0.527460,0.395353,0.504460,0.395545,0.504083,0.406545,0.480083,
0.406615,0.479923,0.416615,0.455923,0.416682,0.455756,0.425682,0.431756,0.425828,0.431300,0.432828,0.405300,0.432862,0.405167,0.438862,0.380167,0.438910,0.379944,0.443910,0.353944,0.443967,0.353573,0.446967,0.327573,0.446985,0.327383,0.448985,0.301383,0.448996,0.301192,0.449996,0.275192,0.450000,0.275000,0.450000,-0.275000,0.449996,-0.275192,0.448996,-0.301192,
0.448985,-0.301383,0.446985,-0.327383,0.446967,-0.327573,0.443967,-0.353573,0.443910,-0.353944,0.438910,-0.379944,0.438862,-0.380167,0.432862,-0.405167,0.432828,-0.405300,0.425828,-0.431300,0.425682,-0.431756,0.416682,-0.455756,0.416615,-0.455923,0.406615,-0.479923,0.406545,-0.480083,0.395545,-0.504083,0.395353,-0.504460,0.382353,-0.527460,0.382218,-0.527684,0.354218,-0.571684,
0.353977,-0.572030,0.337977,-0.593030,0.337810,-0.593238,0.320810,-0.613238,0.320630,-0.613439,0.302630,-0.632439,0.302439,-0.632630,0.283439,-0.650630,0.283238,-0.650810,0.263238,-0.667810,0.263030,-0.667977,0.242030,-0.683977,0.241684,-0.684218,0.197684,-0.712218,0.197460,-0.712353,0.174460,-0.725353,0.174083,-0.725545,0.150083,-0.736545,0.149923,-0.736615,0.125923,-0.746615,
0.125756,-0.746682,0.101756,-0.755682,0.101300,-0.755828,0.075300,-0.762828,0.075167,-0.762862,0.050167,-0.768862,0.049944,-0.768910,0.023944,-0.773910,0.023573,-0.773967,-0.002427,-0.776967,-0.002617,-0.776985,-0.028617,-0.778985,-0.028808,-0.778996,-0.054808,-0.779996,-0.055000,-0.780000,-1.200000,-0.780000,-1.203536,-0.778536,-1.205000,-0.775000,-1.205000,0.775000,-1.203536,0.778536,
-1.200000,0.780000,-0.055000,0.780000,-0.054808,0.779996,-0.054808,0.779996,$1*%
%AMFreePoly1*
4,1,123,1.203536,0.778536,1.205000,0.775000,1.205000,-0.775000,1.203536,-0.778536,1.200000,-0.780000,0.055000,-0.780000,0.054808,-0.779996,0.028808,-0.778996,0.028617,-0.778985,0.002617,-0.776985,0.002427,-0.776967,-0.023573,-0.773967,-0.023944,-0.773910,-0.049944,-0.768910,-0.050167,-0.768862,-0.075167,-0.762862,-0.075300,-0.762828,-0.101300,-0.755828,-0.101756,-0.755682,-0.125756,-0.746682,
-0.125923,-0.746615,-0.149923,-0.736615,-0.150083,-0.736545,-0.174083,-0.725545,-0.174460,-0.725353,-0.197460,-0.712353,-0.197684,-0.712218,-0.241684,-0.684218,-0.242030,-0.683977,-0.263030,-0.667977,-0.263238,-0.667810,-0.283238,-0.650810,-0.283439,-0.650630,-0.302439,-0.632630,-0.302630,-0.632439,-0.320630,-0.613439,-0.320810,-0.613238,-0.337810,-0.593238,-0.337977,-0.593030,-0.353977,-0.572030,
-0.354218,-0.571684,-0.382218,-0.527684,-0.382353,-0.527460,-0.395353,-0.504460,-0.395545,-0.504083,-0.406545,-0.480083,-0.406615,-0.479923,-0.416615,-0.455923,-0.416682,-0.455756,-0.425682,-0.431756,-0.425828,-0.431300,-0.432828,-0.405300,-0.432862,-0.405167,-0.438862,-0.380167,-0.438910,-0.379944,-0.443910,-0.353944,-0.443967,-0.353573,-0.446967,-0.327573,-0.446985,-0.327383,-0.448985,-0.301383,
-0.448996,-0.301192,-0.449996,-0.275192,-0.450000,-0.275000,-0.450000,0.275000,-0.449996,0.275192,-0.448996,0.301192,-0.448985,0.301383,-0.446985,0.327383,-0.446967,0.327573,-0.443967,0.353573,-0.443910,0.353944,-0.438910,0.379944,-0.438862,0.380167,-0.432862,0.405167,-0.432828,0.405300,-0.425828,0.431300,-0.425682,0.431756,-0.416682,0.455756,-0.416615,0.455923,-0.406615,0.479923,
-0.406545,0.480083,-0.395545,0.504083,-0.395353,0.504460,-0.382353,0.527460,-0.382218,0.527684,-0.354218,0.571684,-0.353977,0.572030,-0.337977,0.593030,-0.337810,0.593238,-0.320810,0.613238,-0.320630,0.613439,-0.302630,0.632439,-0.302439,0.632630,-0.283439,0.650630,-0.283238,0.650810,-0.263238,0.667810,-0.263030,0.667977,-0.242030,0.683977,-0.241684,0.684218,-0.197684,0.712218,
-0.197460,0.712353,-0.174460,0.725353,-0.174083,0.725545,-0.150083,0.736545,-0.149923,0.736615,-0.125923,0.746615,-0.125756,0.746682,-0.101756,0.755682,-0.101300,0.755828,-0.075300,0.762828,-0.075167,0.762862,-0.050167,0.768862,-0.049944,0.768910,-0.023944,0.773910,-0.023573,0.773967,0.002427,0.776967,0.002617,0.776985,0.028617,0.778985,0.028808,0.778996,0.054808,0.779996,
0.055000,0.780000,1.200000,0.780000,1.203536,0.778536,1.203536,0.778536,$1*%
G04 Aperture macros list end*
%TA.AperFunction,ComponentPad*%
%ADD10O,1.300000X0.950000*%
%TD*%
%TA.AperFunction,ComponentPad*%
%ADD11FreePoly0,0.000000*%
%TD*%
%TA.AperFunction,ComponentPad*%
%ADD12FreePoly1,0.000000*%
%TD*%
%TA.AperFunction,ComponentPad*%
%ADD13C,0.600000*%
%TD*%
%TA.AperFunction,ViaPad*%
%ADD14C,0.500000*%
%TD*%
G04 APERTURE END LIST*
D10*
%TO.N,GND*%
%TO.C,J2*%
X166575000Y-117850000D03*
X161575000Y-117850000D03*
D11*
X167575000Y-120550000D03*
D12*
X160575000Y-120550000D03*
%TD*%
D13*
%TO.N,GND*%
%TO.C,U2*%
X152677000Y-86005000D03*
X151302000Y-86005000D03*
X149927000Y-86005000D03*
X152677000Y-87380000D03*
X151302000Y-87380000D03*
X149927000Y-87380000D03*
X152677000Y-88755000D03*
X151302000Y-88755000D03*
X149927000Y-88755000D03*
%TD*%
D14*
%TO.N,GND*%
X142450000Y-101225000D03*
X159650000Y-101250000D03*
X162600000Y-79800000D03*
X142700000Y-122050000D03*
X150100000Y-80300000D03*
X157000000Y-85900000D03*
X138750000Y-84800000D03*
X159050000Y-121050000D03*
X155100000Y-100000000D03*
X143700000Y-87850000D03*
X145350000Y-100225000D03*
X152350000Y-79800000D03*
X154700000Y-120400000D03*
X142800000Y-84200000D03*
X164734052Y-104075000D03*
X160725000Y-111925000D03*
X136150000Y-104250000D03*
X146375000Y-100200000D03*
X155150000Y-94350000D03*
X162900000Y-97700000D03*
X156150000Y-106250000D03*
X160000000Y-106975000D03*
X157450000Y-91250000D03*
X165237500Y-119262500D03*
X134250000Y-101600000D03*
X163050000Y-119450000D03*
X154400000Y-115800000D03*
X159285000Y-93815000D03*
X160375000Y-103275000D03*
X147410000Y-63210000D03*
X150400000Y-106250000D03*
X165050000Y-107150000D03*
X152450000Y-94350000D03*
X154150000Y-94350000D03*
X154075000Y-99975000D03*
X163705024Y-114930024D03*
X148600000Y-75900000D03*
X133600000Y-94150000D03*
X144300000Y-100200000D03*
X149100000Y-63220000D03*
X163600000Y-108925000D03*
X156400000Y-93800000D03*
X152600000Y-76600000D03*
X138400000Y-93400000D03*
X149875000Y-69895000D03*
X137200000Y-89350000D03*
X139225000Y-104550000D03*
X156950000Y-82500000D03*
X136850000Y-111925000D03*
X151300000Y-94350000D03*
X141050000Y-88750000D03*
X167150000Y-90650000D03*
X144650000Y-85900000D03*
X167450000Y-86400000D03*
X156000000Y-114400000D03*
X159275000Y-94875000D03*
X165000000Y-102450000D03*
X136500000Y-97825000D03*
X146300000Y-91900000D03*
X156300000Y-91250000D03*
X146630000Y-63200000D03*
X148230000Y-63220000D03*
X140775000Y-110525000D03*
%TD*%
%TA.AperFunction,Conductor*%
%TO.N,GND*%
G36*
X162061066Y-53846493D02*
G01*
X162066730Y-53848096D01*
X162108160Y-53846499D01*
X162110552Y-53846500D01*
X162122768Y-53847105D01*
X162199127Y-53854685D01*
X162232141Y-53862638D01*
X162295544Y-53887509D01*
X162325171Y-53904132D01*
X162379435Y-53945272D01*
X162403437Y-53969309D01*
X162403444Y-53969316D01*
X162444503Y-54023640D01*
X162461083Y-54053297D01*
X162485854Y-54116722D01*
X162493763Y-54149768D01*
X162501227Y-54226116D01*
X162501716Y-54243136D01*
X162500154Y-54282167D01*
X162500968Y-54289077D01*
X162501818Y-54303568D01*
X162501818Y-60999074D01*
X162501803Y-60999121D01*
X162501818Y-61045659D01*
X162501818Y-61094124D01*
X162501832Y-61094345D01*
X162501854Y-61166649D01*
X162501855Y-61166658D01*
X162537682Y-61403851D01*
X162542350Y-61418967D01*
X162608460Y-61633052D01*
X162608461Y-61633053D01*
X162608463Y-61633059D01*
X162712609Y-61849148D01*
X162847802Y-62047305D01*
X162847812Y-62047319D01*
X163011012Y-62223094D01*
X163011028Y-62223108D01*
X163198611Y-62372604D01*
X163198613Y-62372605D01*
X163198618Y-62372609D01*
X163406401Y-62492484D01*
X163629730Y-62580052D01*
X163863617Y-62633356D01*
X164102835Y-62651206D01*
X164102836Y-62651205D01*
X164102838Y-62651206D01*
X164102844Y-62651206D01*
X164318121Y-62635002D01*
X164342042Y-62633202D01*
X164575894Y-62579747D01*
X164799167Y-62492035D01*
X165006873Y-62372026D01*
X165194373Y-62222400D01*
X165357477Y-62046499D01*
X165492543Y-61848253D01*
X165596553Y-61632091D01*
X165657647Y-61433794D01*
X165696196Y-61375525D01*
X165760131Y-61347346D01*
X165776147Y-61346307D01*
X168277496Y-61346471D01*
X168344532Y-61366160D01*
X168390284Y-61418967D01*
X168401486Y-61470475D01*
X168401003Y-76581699D01*
X168381316Y-76648738D01*
X168328511Y-76694491D01*
X168259352Y-76704432D01*
X168195797Y-76675405D01*
X168189322Y-76669376D01*
X168164672Y-76644726D01*
X168164668Y-76644723D01*
X168058133Y-76573538D01*
X168058124Y-76573533D01*
X167939744Y-76524499D01*
X167939738Y-76524497D01*
X167814071Y-76499500D01*
X167814069Y-76499500D01*
X167685931Y-76499500D01*
X167685929Y-76499500D01*
X167560261Y-76524497D01*
X167560255Y-76524499D01*
X167441875Y-76573533D01*
X167441866Y-76573538D01*
X167335331Y-76644723D01*
X167335327Y-76644726D01*
X167244726Y-76735327D01*
X167244723Y-76735331D01*
X167173538Y-76841866D01*
X167173533Y-76841875D01*
X167124499Y-76960255D01*
X167124497Y-76960261D01*
X167099500Y-77085928D01*
X167099500Y-77085931D01*
X167099500Y-77214069D01*
X167099500Y-77214071D01*
X167099499Y-77214071D01*
X167124497Y-77339738D01*
X167124499Y-77339744D01*
X167173533Y-77458124D01*
X167173538Y-77458133D01*
X167244723Y-77564668D01*
X167244726Y-77564672D01*
X167335327Y-77655273D01*
X167335331Y-77655276D01*
X167441866Y-77726461D01*
X167441872Y-77726464D01*
X167441873Y-77726465D01*
X167560256Y-77775501D01*
X167560260Y-77775501D01*
X167560261Y-77775502D01*
X167685928Y-77800500D01*
X167685931Y-77800500D01*
X167814071Y-77800500D01*
X167898615Y-77783682D01*
X167939744Y-77775501D01*
X168058127Y-77726465D01*
X168164669Y-77655276D01*
X168189286Y-77630658D01*
X168250607Y-77597174D01*
X168320299Y-77602157D01*
X168376233Y-77644028D01*
X168400651Y-77709492D01*
X168400967Y-77718344D01*
X168399636Y-119422034D01*
X168379949Y-119489073D01*
X168327144Y-119534826D01*
X168257985Y-119544767D01*
X168194430Y-119515740D01*
X168194126Y-119515476D01*
X168188545Y-119510608D01*
X168168527Y-119493593D01*
X168158224Y-119485067D01*
X168157788Y-119484716D01*
X168147120Y-119476359D01*
X168126102Y-119460346D01*
X168109394Y-119448148D01*
X168108671Y-119447644D01*
X168090481Y-119435507D01*
X168046512Y-119407526D01*
X168035367Y-119400635D01*
X168034849Y-119400325D01*
X168023421Y-119393666D01*
X168000425Y-119380668D01*
X167981574Y-119370533D01*
X167980823Y-119370150D01*
X167961559Y-119360822D01*
X167937568Y-119349826D01*
X167929136Y-119346055D01*
X167928753Y-119345889D01*
X167921008Y-119342586D01*
X167897073Y-119332613D01*
X167888047Y-119328954D01*
X167887650Y-119328798D01*
X167879838Y-119325795D01*
X167855831Y-119316791D01*
X167833129Y-119308889D01*
X167832239Y-119308603D01*
X167808881Y-119301706D01*
X167782806Y-119294686D01*
X167776789Y-119293107D01*
X167776355Y-119292996D01*
X167769182Y-119291218D01*
X167744202Y-119285224D01*
X167732534Y-119282568D01*
X167732195Y-119282495D01*
X167721209Y-119280258D01*
X167695252Y-119275265D01*
X167676594Y-119272040D01*
X167675843Y-119271924D01*
X167657043Y-119269395D01*
X167630982Y-119266388D01*
X167622221Y-119265455D01*
X167621803Y-119265415D01*
X167611537Y-119264518D01*
X167585458Y-119262513D01*
X167575776Y-119261862D01*
X167575334Y-119261837D01*
X167565736Y-119261377D01*
X167539783Y-119260378D01*
X167529631Y-119260091D01*
X167529199Y-119260083D01*
X167519988Y-119260000D01*
X167447500Y-119260000D01*
X167447500Y-120007213D01*
X167433386Y-120013060D01*
X167363060Y-120083386D01*
X167325000Y-120175272D01*
X167325000Y-120924728D01*
X167363060Y-121016614D01*
X167433386Y-121086940D01*
X167447500Y-121092786D01*
X167447500Y-121840000D01*
X167519988Y-121840000D01*
X167529199Y-121839916D01*
X167529631Y-121839908D01*
X167539783Y-121839621D01*
X167565736Y-121838622D01*
X167575334Y-121838162D01*
X167575776Y-121838137D01*
X167585458Y-121837486D01*
X167611537Y-121835481D01*
X167621803Y-121834584D01*
X167622221Y-121834544D01*
X167630982Y-121833611D01*
X167657043Y-121830604D01*
X167675843Y-121828075D01*
X167676594Y-121827959D01*
X167695252Y-121824734D01*
X167721209Y-121819741D01*
X167732195Y-121817504D01*
X167732534Y-121817431D01*
X167744202Y-121814775D01*
X167769182Y-121808781D01*
X167776355Y-121807003D01*
X167776789Y-121806892D01*
X167782806Y-121805313D01*
X167808881Y-121798293D01*
X167832239Y-121791396D01*
X167833129Y-121791110D01*
X167855831Y-121783208D01*
X167879838Y-121774204D01*
X167887650Y-121771201D01*
X167888047Y-121771045D01*
X167897073Y-121767386D01*
X167921008Y-121757413D01*
X167928753Y-121754110D01*
X167929136Y-121753944D01*
X167937568Y-121750173D01*
X167961559Y-121739177D01*
X167980823Y-121729849D01*
X167981574Y-121729466D01*
X168000425Y-121719331D01*
X168023421Y-121706333D01*
X168034849Y-121699674D01*
X168035367Y-121699364D01*
X168046512Y-121692473D01*
X168090481Y-121664492D01*
X168108671Y-121652355D01*
X168109394Y-121651851D01*
X168126102Y-121639653D01*
X168147120Y-121623640D01*
X168157788Y-121615283D01*
X168158224Y-121614932D01*
X168168527Y-121606406D01*
X168188537Y-121589398D01*
X168194047Y-121584592D01*
X168257505Y-121555354D01*
X168326696Y-121565065D01*
X168379654Y-121610643D01*
X168399563Y-121677615D01*
X168399564Y-121678036D01*
X168399514Y-123275504D01*
X168379827Y-123342543D01*
X168327022Y-123388296D01*
X168275514Y-123399500D01*
X133023837Y-123399500D01*
X132956798Y-123379815D01*
X132911043Y-123327011D01*
X132899837Y-123275694D01*
X132897591Y-121839916D01*
X132896355Y-121049202D01*
X132895885Y-120748832D01*
X132895144Y-120275012D01*
X159615000Y-120275012D01*
X159615000Y-120300000D01*
X160325000Y-120300000D01*
X160325000Y-120800000D01*
X159615000Y-120800000D01*
X159615000Y-120824987D01*
X159615083Y-120834199D01*
X159615091Y-120834631D01*
X159615378Y-120844783D01*
X159616377Y-120870736D01*
X159616837Y-120880334D01*
X159616862Y-120880776D01*
X159617513Y-120890458D01*
X159619518Y-120916537D01*
X159620415Y-120926803D01*
X159620455Y-120927221D01*
X159621388Y-120935982D01*
X159624395Y-120962043D01*
X159626924Y-120980843D01*
X159627040Y-120981594D01*
X159630265Y-121000252D01*
X159635258Y-121026209D01*
X159637495Y-121037195D01*
X159637568Y-121037534D01*
X159640224Y-121049202D01*
X159646218Y-121074182D01*
X159647996Y-121081355D01*
X159648107Y-121081789D01*
X159649686Y-121087806D01*
X159656706Y-121113881D01*
X159663603Y-121137239D01*
X159663889Y-121138129D01*
X159671791Y-121160831D01*
X159680795Y-121184838D01*
X159683798Y-121192650D01*
X159683954Y-121193047D01*
X159687613Y-121202073D01*
X159697586Y-121226008D01*
X159700889Y-121233753D01*
X159701055Y-121234136D01*
X159704826Y-121242568D01*
X159715822Y-121266559D01*
X159725150Y-121285823D01*
X159725533Y-121286574D01*
X159735668Y-121305425D01*
X159748666Y-121328421D01*
X159755325Y-121339849D01*
X159755635Y-121340367D01*
X159762526Y-121351512D01*
X159790507Y-121395481D01*
X159802644Y-121413671D01*
X159803148Y-121414394D01*
X159815346Y-121431102D01*
X159831359Y-121452120D01*
X159839716Y-121462788D01*
X159840067Y-121463224D01*
X159848593Y-121473527D01*
X159865617Y-121493556D01*
X159874106Y-121503287D01*
X159874503Y-121503731D01*
X159884105Y-121514156D01*
X159902139Y-121533193D01*
X159911683Y-121542998D01*
X159912001Y-121543316D01*
X159921806Y-121552860D01*
X159940843Y-121570894D01*
X159951268Y-121580496D01*
X159951712Y-121580893D01*
X159961443Y-121589382D01*
X159981472Y-121606406D01*
X159991775Y-121614932D01*
X159992211Y-121615283D01*
X160002879Y-121623640D01*
X160023897Y-121639653D01*
X160040605Y-121651851D01*
X160041328Y-121652355D01*
X160059518Y-121664492D01*
X160103487Y-121692473D01*
X160114632Y-121699364D01*
X160115150Y-121699674D01*
X160126578Y-121706333D01*
X160149574Y-121719331D01*
X160168425Y-121729466D01*
X160169176Y-121729849D01*
X160188440Y-121739177D01*
X160212431Y-121750173D01*
X160220863Y-121753944D01*
X160221246Y-121754110D01*
X160228991Y-121757413D01*
X160252926Y-121767386D01*
X160261952Y-121771045D01*
X160262349Y-121771201D01*
X160270161Y-121774204D01*
X160294168Y-121783208D01*
X160316870Y-121791110D01*
X160317760Y-121791396D01*
X160341118Y-121798293D01*
X160367193Y-121805313D01*
X160373210Y-121806892D01*
X160373644Y-121807003D01*
X160380817Y-121808781D01*
X160405797Y-121814775D01*
X160417465Y-121817431D01*
X160417804Y-121817504D01*
X160428790Y-121819741D01*
X160454747Y-121824734D01*
X160473405Y-121827959D01*
X160474156Y-121828075D01*
X160492956Y-121830604D01*
X160519017Y-121833611D01*
X160527778Y-121834544D01*
X160528196Y-121834584D01*
X160538462Y-121835481D01*
X160564541Y-121837486D01*
X160574223Y-121838137D01*
X160574665Y-121838162D01*
X160584263Y-121838622D01*
X160610216Y-121839621D01*
X160620368Y-121839908D01*
X160620800Y-121839916D01*
X160630012Y-121840000D01*
X160702500Y-121840000D01*
X161202500Y-121840000D01*
X161775002Y-121840000D01*
X161828988Y-121837106D01*
X161968259Y-121801557D01*
X161975330Y-121798628D01*
X162070076Y-121746893D01*
X162175277Y-121648950D01*
X162175278Y-121648948D01*
X162248629Y-121525327D01*
X162251554Y-121518267D01*
X162269544Y-121467271D01*
X162289998Y-121325002D01*
X165860000Y-121325002D01*
X165862893Y-121378988D01*
X165898442Y-121518259D01*
X165901371Y-121525330D01*
X165953106Y-121620076D01*
X166051049Y-121725277D01*
X166051051Y-121725278D01*
X166174672Y-121798629D01*
X166181732Y-121801554D01*
X166232728Y-121819544D01*
X166375001Y-121839999D01*
X166375003Y-121840000D01*
X166947500Y-121840000D01*
X166947500Y-120800000D01*
X165860000Y-120800000D01*
X165860000Y-121325002D01*
X162289998Y-121325002D01*
X162289999Y-121324998D01*
X162290000Y-121324997D01*
X162290000Y-120800000D01*
X161202500Y-120800000D01*
X161202500Y-121840000D01*
X160702500Y-121840000D01*
X160702500Y-121092786D01*
X160716614Y-121086940D01*
X160786940Y-121016614D01*
X160825000Y-120924728D01*
X160825000Y-120300000D01*
X161202500Y-120300000D01*
X162290000Y-120300000D01*
X162290000Y-119775006D01*
X162290000Y-119775001D01*
X165860000Y-119775001D01*
X165860000Y-120300000D01*
X166947500Y-120300000D01*
X166947500Y-119260000D01*
X166374998Y-119260000D01*
X166321011Y-119262893D01*
X166181740Y-119298442D01*
X166174669Y-119301371D01*
X166079923Y-119353106D01*
X165974722Y-119451049D01*
X165974721Y-119451051D01*
X165901370Y-119574672D01*
X165898445Y-119581732D01*
X165880455Y-119632728D01*
X165860000Y-119775001D01*
X162290000Y-119775001D01*
X162289999Y-119774988D01*
X162287106Y-119721011D01*
X162251557Y-119581740D01*
X162248628Y-119574669D01*
X162196893Y-119479923D01*
X162098950Y-119374722D01*
X162098948Y-119374721D01*
X161975327Y-119301370D01*
X161968267Y-119298445D01*
X161917271Y-119280455D01*
X161774998Y-119260000D01*
X161202500Y-119260000D01*
X161202500Y-120300000D01*
X160825000Y-120300000D01*
X160825000Y-120175272D01*
X160786940Y-120083386D01*
X160716614Y-120013060D01*
X160702500Y-120007213D01*
X160702500Y-119260000D01*
X160630012Y-119260000D01*
X160620800Y-119260083D01*
X160620368Y-119260091D01*
X160610216Y-119260378D01*
X160584263Y-119261377D01*
X160574665Y-119261837D01*
X160574223Y-119261862D01*
X160564541Y-119262513D01*
X160538462Y-119264518D01*
X160528196Y-119265415D01*
X160527778Y-119265455D01*
X160519017Y-119266388D01*
X160492956Y-119269395D01*
X160474156Y-119271924D01*
X160473405Y-119272040D01*
X160454747Y-119275265D01*
X160428790Y-119280258D01*
X160417804Y-119282495D01*
X160417465Y-119282568D01*
X160405797Y-119285224D01*
X160380817Y-119291218D01*
X160373644Y-119292996D01*
X160373210Y-119293107D01*
X160367193Y-119294686D01*
X160341118Y-119301706D01*
X160317760Y-119308603D01*
X160316870Y-119308889D01*
X160294168Y-119316791D01*
X160270161Y-119325795D01*
X160262349Y-119328798D01*
X160261952Y-119328954D01*
X160252926Y-119332613D01*
X160228991Y-119342586D01*
X160221246Y-119345889D01*
X160220863Y-119346055D01*
X160212431Y-119349826D01*
X160188440Y-119360822D01*
X160169176Y-119370150D01*
X160168425Y-119370533D01*
X160149574Y-119380668D01*
X160126578Y-119393666D01*
X160115150Y-119400325D01*
X160114632Y-119400635D01*
X160103487Y-119407526D01*
X160059518Y-119435507D01*
X160041328Y-119447644D01*
X160040605Y-119448148D01*
X160023897Y-119460346D01*
X160002879Y-119476359D01*
X159992211Y-119484716D01*
X159991775Y-119485067D01*
X159981472Y-119493593D01*
X159961443Y-119510617D01*
X159951712Y-119519106D01*
X159951268Y-119519503D01*
X159940843Y-119529105D01*
X159921806Y-119547139D01*
X159912001Y-119556683D01*
X159911683Y-119557001D01*
X159902139Y-119566806D01*
X159884105Y-119585843D01*
X159874503Y-119596268D01*
X159874106Y-119596712D01*
X159865617Y-119606443D01*
X159848593Y-119626472D01*
X159840067Y-119636775D01*
X159839716Y-119637211D01*
X159831359Y-119647879D01*
X159815346Y-119668897D01*
X159803148Y-119685605D01*
X159802644Y-119686328D01*
X159790507Y-119704518D01*
X159762526Y-119748487D01*
X159755635Y-119759632D01*
X159755325Y-119760150D01*
X159748666Y-119771578D01*
X159735668Y-119794574D01*
X159725533Y-119813425D01*
X159725150Y-119814176D01*
X159715822Y-119833440D01*
X159704826Y-119857431D01*
X159701055Y-119865863D01*
X159700889Y-119866246D01*
X159697586Y-119873991D01*
X159687613Y-119897926D01*
X159683954Y-119906952D01*
X159683798Y-119907349D01*
X159680795Y-119915161D01*
X159671791Y-119939168D01*
X159663889Y-119961870D01*
X159663603Y-119962760D01*
X159656706Y-119986118D01*
X159649686Y-120012193D01*
X159648123Y-120018152D01*
X159647996Y-120018644D01*
X159646218Y-120025817D01*
X159640224Y-120050797D01*
X159637568Y-120062465D01*
X159637495Y-120062804D01*
X159635258Y-120073790D01*
X159630265Y-120099747D01*
X159627040Y-120118405D01*
X159626924Y-120119156D01*
X159624395Y-120137956D01*
X159621388Y-120164017D01*
X159620455Y-120172778D01*
X159620415Y-120173196D01*
X159619518Y-120183462D01*
X159617513Y-120209541D01*
X159616862Y-120219223D01*
X159616837Y-120219665D01*
X159616377Y-120229263D01*
X159615378Y-120255216D01*
X159615091Y-120265368D01*
X159615083Y-120265800D01*
X159615000Y-120275012D01*
X132895144Y-120275012D01*
X132895143Y-120274628D01*
X132895056Y-120219223D01*
X132892073Y-118311833D01*
X132891690Y-118066864D01*
X132889637Y-116754071D01*
X149659499Y-116754071D01*
X149684497Y-116879738D01*
X149684499Y-116879744D01*
X149733533Y-116998124D01*
X149733538Y-116998133D01*
X149804723Y-117104668D01*
X149804726Y-117104672D01*
X149895327Y-117195273D01*
X149895331Y-117195276D01*
X150001866Y-117266461D01*
X150001872Y-117266464D01*
X150001873Y-117266465D01*
X150120256Y-117315501D01*
X150120260Y-117315501D01*
X150120261Y-117315502D01*
X150245928Y-117340500D01*
X150245931Y-117340500D01*
X150374071Y-117340500D01*
X150458615Y-117323682D01*
X150499744Y-117315501D01*
X150618127Y-117266465D01*
X150724669Y-117195276D01*
X150805874Y-117114071D01*
X151899499Y-117114071D01*
X151924497Y-117239738D01*
X151924499Y-117239744D01*
X151973533Y-117358124D01*
X151973538Y-117358133D01*
X152044723Y-117464668D01*
X152044726Y-117464672D01*
X152135327Y-117555273D01*
X152135331Y-117555276D01*
X152241866Y-117626461D01*
X152241872Y-117626464D01*
X152241873Y-117626465D01*
X152360256Y-117675501D01*
X152360260Y-117675501D01*
X152360261Y-117675502D01*
X152485928Y-117700500D01*
X152485931Y-117700500D01*
X152614071Y-117700500D01*
X152698615Y-117683682D01*
X152739744Y-117675501D01*
X152858127Y-117626465D01*
X152897735Y-117600000D01*
X160455626Y-117600000D01*
X161284943Y-117600000D01*
X161244225Y-117616866D01*
X161166866Y-117694225D01*
X161125000Y-117795299D01*
X161125000Y-117904701D01*
X161166866Y-118005775D01*
X161244225Y-118083134D01*
X161284943Y-118100000D01*
X160455626Y-118100000D01*
X160462466Y-118134389D01*
X160462468Y-118134397D01*
X160535964Y-118311833D01*
X160535969Y-118311842D01*
X160642667Y-118471526D01*
X160642670Y-118471530D01*
X160778469Y-118607329D01*
X160778473Y-118607332D01*
X160938157Y-118714030D01*
X160938166Y-118714035D01*
X161115602Y-118787531D01*
X161115610Y-118787533D01*
X161303966Y-118824999D01*
X161303970Y-118825000D01*
X161325000Y-118825000D01*
X161325000Y-118116591D01*
X161345299Y-118125000D01*
X161804701Y-118125000D01*
X161825000Y-118116591D01*
X161825000Y-118825000D01*
X161846030Y-118825000D01*
X161846033Y-118824999D01*
X162034389Y-118787533D01*
X162034397Y-118787531D01*
X162211833Y-118714035D01*
X162211842Y-118714030D01*
X162371526Y-118607332D01*
X162371530Y-118607329D01*
X162507329Y-118471530D01*
X162507332Y-118471526D01*
X162614030Y-118311842D01*
X162614035Y-118311833D01*
X162687531Y-118134397D01*
X162687533Y-118134389D01*
X162694374Y-118100000D01*
X161865057Y-118100000D01*
X161905775Y-118083134D01*
X161983134Y-118005775D01*
X162025000Y-117904701D01*
X162025000Y-117795299D01*
X161983134Y-117694225D01*
X161905775Y-117616866D01*
X161865057Y-117600000D01*
X162694374Y-117600000D01*
X165455626Y-117600000D01*
X166284943Y-117600000D01*
X166244225Y-117616866D01*
X166166866Y-117694225D01*
X166125000Y-117795299D01*
X166125000Y-117904701D01*
X166166866Y-118005775D01*
X166244225Y-118083134D01*
X166284943Y-118100000D01*
X165455626Y-118100000D01*
X165462466Y-118134389D01*
X165462468Y-118134397D01*
X165535964Y-118311833D01*
X165535969Y-118311842D01*
X165642667Y-118471526D01*
X165642670Y-118471530D01*
X165778469Y-118607329D01*
X165778473Y-118607332D01*
X165938157Y-118714030D01*
X165938166Y-118714035D01*
X166115602Y-118787531D01*
X166115610Y-118787533D01*
X166303966Y-118824999D01*
X166303970Y-118825000D01*
X166325000Y-118825000D01*
X166325000Y-118116591D01*
X166345299Y-118125000D01*
X166804701Y-118125000D01*
X166825000Y-118116591D01*
X166825000Y-118825000D01*
X166846030Y-118825000D01*
X166846033Y-118824999D01*
X167034389Y-118787533D01*
X167034397Y-118787531D01*
X167211833Y-118714035D01*
X167211842Y-118714030D01*
X167371526Y-118607332D01*
X167371530Y-118607329D01*
X167507329Y-118471530D01*
X167507332Y-118471526D01*
X167614030Y-118311842D01*
X167614035Y-118311833D01*
X167687531Y-118134397D01*
X167687533Y-118134389D01*
X167694374Y-118100000D01*
X166865057Y-118100000D01*
X166905775Y-118083134D01*
X166983134Y-118005775D01*
X167025000Y-117904701D01*
X167025000Y-117795299D01*
X166983134Y-117694225D01*
X166905775Y-117616866D01*
X166865057Y-117600000D01*
X167694374Y-117600000D01*
X167687533Y-117565610D01*
X167687531Y-117565602D01*
X167614035Y-117388166D01*
X167614030Y-117388157D01*
X167507332Y-117228473D01*
X167507329Y-117228469D01*
X167371530Y-117092670D01*
X167371526Y-117092667D01*
X167211842Y-116985969D01*
X167211833Y-116985964D01*
X167034397Y-116912468D01*
X167034389Y-116912466D01*
X166846033Y-116875000D01*
X166825000Y-116875000D01*
X166825000Y-117583408D01*
X166804701Y-117575000D01*
X166345299Y-117575000D01*
X166325000Y-117583408D01*
X166325000Y-116875000D01*
X166303966Y-116875000D01*
X166115610Y-116912466D01*
X166115602Y-116912468D01*
X165938166Y-116985964D01*
X165938157Y-116985969D01*
X165778473Y-117092667D01*
X165778469Y-117092670D01*
X165642670Y-117228469D01*
X165642667Y-117228473D01*
X165535969Y-117388157D01*
X165535964Y-117388166D01*
X165462468Y-117565602D01*
X165462466Y-117565610D01*
X165455626Y-117600000D01*
X162694374Y-117600000D01*
X162687533Y-117565610D01*
X162687531Y-117565602D01*
X162614035Y-117388166D01*
X162614030Y-117388157D01*
X162507332Y-117228473D01*
X162507329Y-117228469D01*
X162371530Y-117092670D01*
X162371526Y-117092667D01*
X162211842Y-116985969D01*
X162211833Y-116985964D01*
X162034397Y-116912468D01*
X162034389Y-116912466D01*
X161846033Y-116875000D01*
X161825000Y-116875000D01*
X161825000Y-117583408D01*
X161804701Y-117575000D01*
X161345299Y-117575000D01*
X161325000Y-117583408D01*
X161325000Y-116875000D01*
X161303966Y-116875000D01*
X161115610Y-116912466D01*
X161115602Y-116912468D01*
X160938166Y-116985964D01*
X160938157Y-116985969D01*
X160778473Y-117092667D01*
X160778469Y-117092670D01*
X160642670Y-117228469D01*
X160642667Y-117228473D01*
X160535969Y-117388157D01*
X160535964Y-117388166D01*
X160462468Y-117565602D01*
X160462466Y-117565610D01*
X160455626Y-117600000D01*
X152897735Y-117600000D01*
X152964669Y-117555276D01*
X152964672Y-117555273D01*
X152974297Y-117545649D01*
X153055273Y-117464672D01*
X153055276Y-117464669D01*
X153126465Y-117358127D01*
X153175501Y-117239744D01*
X153200500Y-117114069D01*
X153200500Y-116985931D01*
X153200500Y-116985928D01*
X153175502Y-116860261D01*
X153175501Y-116860260D01*
X153175501Y-116860256D01*
X153126465Y-116741873D01*
X153126464Y-116741872D01*
X153126461Y-116741866D01*
X153055276Y-116635331D01*
X153055273Y-116635327D01*
X152964672Y-116544726D01*
X152964668Y-116544723D01*
X152858133Y-116473538D01*
X152858124Y-116473533D01*
X152739744Y-116424499D01*
X152739738Y-116424497D01*
X152614071Y-116399500D01*
X152614069Y-116399500D01*
X152485931Y-116399500D01*
X152485929Y-116399500D01*
X152360261Y-116424497D01*
X152360255Y-116424499D01*
X152241875Y-116473533D01*
X152241866Y-116473538D01*
X152135331Y-116544723D01*
X152135327Y-116544726D01*
X152044726Y-116635327D01*
X152044723Y-116635331D01*
X151973538Y-116741866D01*
X151973533Y-116741875D01*
X151924499Y-116860255D01*
X151924497Y-116860261D01*
X151899500Y-116985928D01*
X151899500Y-116985931D01*
X151899500Y-117114069D01*
X151899500Y-117114071D01*
X151899499Y-117114071D01*
X150805874Y-117114071D01*
X150815276Y-117104669D01*
X150886465Y-116998127D01*
X150935501Y-116879744D01*
X150960500Y-116754069D01*
X150960500Y-116625931D01*
X150960500Y-116625928D01*
X150935502Y-116500261D01*
X150935501Y-116500260D01*
X150935501Y-116500256D01*
X150886465Y-116381873D01*
X150886464Y-116381872D01*
X150886461Y-116381866D01*
X150815276Y-116275331D01*
X150815273Y-116275327D01*
X150724672Y-116184726D01*
X150724668Y-116184723D01*
X150618133Y-116113538D01*
X150618124Y-116113533D01*
X150499744Y-116064499D01*
X150499738Y-116064497D01*
X150374071Y-116039500D01*
X150374069Y-116039500D01*
X150245931Y-116039500D01*
X150245929Y-116039500D01*
X150120261Y-116064497D01*
X150120255Y-116064499D01*
X150001875Y-116113533D01*
X150001866Y-116113538D01*
X149895331Y-116184723D01*
X149895327Y-116184726D01*
X149804726Y-116275327D01*
X149804723Y-116275331D01*
X149733538Y-116381866D01*
X149733533Y-116381875D01*
X149684499Y-116500255D01*
X149684497Y-116500261D01*
X149659500Y-116625928D01*
X149659500Y-116625931D01*
X149659500Y-116754069D01*
X149659500Y-116754071D01*
X149659499Y-116754071D01*
X132889637Y-116754071D01*
X132888746Y-116184723D01*
X132888401Y-115964071D01*
X147849499Y-115964071D01*
X147874497Y-116089738D01*
X147874499Y-116089744D01*
X147923533Y-116208124D01*
X147923538Y-116208133D01*
X147994723Y-116314668D01*
X147994726Y-116314672D01*
X148085327Y-116405273D01*
X148085331Y-116405276D01*
X148191866Y-116476461D01*
X148191872Y-116476464D01*
X148191873Y-116476465D01*
X148310256Y-116525501D01*
X148310260Y-116525501D01*
X148310261Y-116525502D01*
X148435928Y-116550500D01*
X148435931Y-116550500D01*
X148564071Y-116550500D01*
X148648615Y-116533682D01*
X148689744Y-116525501D01*
X148808127Y-116476465D01*
X148914669Y-116405276D01*
X149005276Y-116314669D01*
X149076465Y-116208127D01*
X149125501Y-116089744D01*
X149150500Y-115964069D01*
X149150500Y-115835931D01*
X149150500Y-115835928D01*
X149125502Y-115710261D01*
X149125501Y-115710260D01*
X149125501Y-115710256D01*
X149076465Y-115591873D01*
X149076464Y-115591872D01*
X149076461Y-115591866D01*
X149005276Y-115485331D01*
X149005273Y-115485327D01*
X148914672Y-115394726D01*
X148914668Y-115394723D01*
X148808133Y-115323538D01*
X148808124Y-115323533D01*
X148689744Y-115274499D01*
X148689738Y-115274497D01*
X148564071Y-115249500D01*
X148564069Y-115249500D01*
X148435931Y-115249500D01*
X148435929Y-115249500D01*
X148310261Y-115274497D01*
X148310255Y-115274499D01*
X148191875Y-115323533D01*
X148191866Y-115323538D01*
X148085331Y-115394723D01*
X148085327Y-115394726D01*
X147994726Y-115485327D01*
X147994723Y-115485331D01*
X147923538Y-115591866D01*
X147923533Y-115591875D01*
X147874499Y-115710255D01*
X147874497Y-115710261D01*
X147849500Y-115835928D01*
X147849500Y-115835931D01*
X147849500Y-115964069D01*
X147849500Y-115964071D01*
X147849499Y-115964071D01*
X132888401Y-115964071D01*
X132878352Y-109539738D01*
X132878156Y-109414071D01*
X138299499Y-109414071D01*
X138324497Y-109539738D01*
X138324499Y-109539744D01*
X138373533Y-109658124D01*
X138373538Y-109658133D01*
X138444723Y-109764668D01*
X138444726Y-109764672D01*
X138535327Y-109855273D01*
X138535331Y-109855276D01*
X138641866Y-109926461D01*
X138641872Y-109926464D01*
X138641873Y-109926465D01*
X138760256Y-109975501D01*
X138760260Y-109975501D01*
X138760261Y-109975502D01*
X138885928Y-110000500D01*
X138885931Y-110000500D01*
X139014071Y-110000500D01*
X139098615Y-109983682D01*
X139139744Y-109975501D01*
X139258127Y-109926465D01*
X139364669Y-109855276D01*
X139455276Y-109764669D01*
X139526465Y-109658127D01*
X139575501Y-109539744D01*
X139600500Y-109414069D01*
X139600500Y-109285931D01*
X139600500Y-109285928D01*
X139575502Y-109160261D01*
X139575501Y-109160260D01*
X139575501Y-109160256D01*
X139526465Y-109041873D01*
X139526464Y-109041872D01*
X139526461Y-109041866D01*
X139455276Y-108935331D01*
X139455273Y-108935327D01*
X139364672Y-108844726D01*
X139364668Y-108844723D01*
X139258133Y-108773538D01*
X139258124Y-108773533D01*
X139139744Y-108724499D01*
X139139738Y-108724497D01*
X139014071Y-108699500D01*
X139014069Y-108699500D01*
X138885931Y-108699500D01*
X138885929Y-108699500D01*
X138760261Y-108724497D01*
X138760255Y-108724499D01*
X138641875Y-108773533D01*
X138641866Y-108773538D01*
X138535331Y-108844723D01*
X138535327Y-108844726D01*
X138444726Y-108935327D01*
X138444723Y-108935331D01*
X138373538Y-109041866D01*
X138373533Y-109041875D01*
X138324499Y-109160255D01*
X138324497Y-109160261D01*
X138299500Y-109285928D01*
X138299500Y-109285931D01*
X138299500Y-109414069D01*
X138299500Y-109414071D01*
X138299499Y-109414071D01*
X132878156Y-109414071D01*
X132877946Y-109280033D01*
X132872682Y-105914071D01*
X153899499Y-105914071D01*
X153924497Y-106039738D01*
X153924499Y-106039744D01*
X153973533Y-106158124D01*
X153973538Y-106158133D01*
X154044723Y-106264668D01*
X154044726Y-106264672D01*
X154135327Y-106355273D01*
X154135331Y-106355276D01*
X154241866Y-106426461D01*
X154241872Y-106426464D01*
X154241873Y-106426465D01*
X154360256Y-106475501D01*
X154360260Y-106475501D01*
X154360261Y-106475502D01*
X154485928Y-106500500D01*
X154485931Y-106500500D01*
X154614071Y-106500500D01*
X154698615Y-106483682D01*
X154739744Y-106475501D01*
X154858127Y-106426465D01*
X154964669Y-106355276D01*
X155055276Y-106264669D01*
X155126465Y-106158127D01*
X155155069Y-106089071D01*
X163599499Y-106089071D01*
X163624497Y-106214738D01*
X163624499Y-106214744D01*
X163673533Y-106333124D01*
X163673538Y-106333133D01*
X163744723Y-106439668D01*
X163744726Y-106439672D01*
X163835327Y-106530273D01*
X163835331Y-106530276D01*
X163941866Y-106601461D01*
X163941872Y-106601464D01*
X163941873Y-106601465D01*
X164060256Y-106650501D01*
X164060260Y-106650501D01*
X164060261Y-106650502D01*
X164185928Y-106675500D01*
X164185931Y-106675500D01*
X164314071Y-106675500D01*
X164398615Y-106658682D01*
X164439744Y-106650501D01*
X164558127Y-106601465D01*
X164664669Y-106530276D01*
X164755276Y-106439669D01*
X164826465Y-106333127D01*
X164875501Y-106214744D01*
X164900500Y-106089069D01*
X164900500Y-105960931D01*
X164900500Y-105960928D01*
X164875502Y-105835261D01*
X164875501Y-105835260D01*
X164875501Y-105835256D01*
X164826465Y-105716873D01*
X164826464Y-105716872D01*
X164826461Y-105716866D01*
X164755276Y-105610331D01*
X164755273Y-105610327D01*
X164664672Y-105519726D01*
X164664668Y-105519723D01*
X164558133Y-105448538D01*
X164558124Y-105448533D01*
X164439744Y-105399499D01*
X164439738Y-105399497D01*
X164314071Y-105374500D01*
X164314069Y-105374500D01*
X164185931Y-105374500D01*
X164185929Y-105374500D01*
X164060261Y-105399497D01*
X164060255Y-105399499D01*
X163941875Y-105448533D01*
X163941866Y-105448538D01*
X163835331Y-105519723D01*
X163835327Y-105519726D01*
X163744726Y-105610327D01*
X163744723Y-105610331D01*
X163673538Y-105716866D01*
X163673533Y-105716875D01*
X163624499Y-105835255D01*
X163624497Y-105835261D01*
X163599500Y-105960928D01*
X163599500Y-105960931D01*
X163599500Y-106089069D01*
X163599500Y-106089071D01*
X163599499Y-106089071D01*
X155155069Y-106089071D01*
X155175501Y-106039744D01*
X155180421Y-106015005D01*
X155197203Y-105930647D01*
X155197203Y-105930646D01*
X155200499Y-105914073D01*
X155200500Y-105914071D01*
X155200500Y-105785928D01*
X155175502Y-105660261D01*
X155175501Y-105660260D01*
X155175501Y-105660256D01*
X155126465Y-105541873D01*
X155126464Y-105541872D01*
X155126461Y-105541866D01*
X155055276Y-105435331D01*
X155055273Y-105435327D01*
X154964672Y-105344726D01*
X154964668Y-105344723D01*
X154858133Y-105273538D01*
X154858124Y-105273533D01*
X154739744Y-105224499D01*
X154739738Y-105224497D01*
X154614071Y-105199500D01*
X154614069Y-105199500D01*
X154485931Y-105199500D01*
X154485929Y-105199500D01*
X154360261Y-105224497D01*
X154360255Y-105224499D01*
X154241875Y-105273533D01*
X154241866Y-105273538D01*
X154135331Y-105344723D01*
X154135327Y-105344726D01*
X154044726Y-105435327D01*
X154044723Y-105435331D01*
X153973538Y-105541866D01*
X153973533Y-105541875D01*
X153924499Y-105660255D01*
X153924497Y-105660261D01*
X153899500Y-105785928D01*
X153899500Y-105785931D01*
X153899500Y-105914069D01*
X153899500Y-105914071D01*
X153899499Y-105914071D01*
X132872682Y-105914071D01*
X132872472Y-105780033D01*
X132871352Y-105064071D01*
X151599499Y-105064071D01*
X151624497Y-105189738D01*
X151624499Y-105189744D01*
X151673533Y-105308124D01*
X151673538Y-105308133D01*
X151744723Y-105414668D01*
X151744726Y-105414672D01*
X151835327Y-105505273D01*
X151835331Y-105505276D01*
X151941866Y-105576461D01*
X151941872Y-105576464D01*
X151941873Y-105576465D01*
X152060256Y-105625501D01*
X152060260Y-105625501D01*
X152060261Y-105625502D01*
X152185928Y-105650500D01*
X152185931Y-105650500D01*
X152314071Y-105650500D01*
X152398615Y-105633682D01*
X152439744Y-105625501D01*
X152558127Y-105576465D01*
X152664669Y-105505276D01*
X152755276Y-105414669D01*
X152826465Y-105308127D01*
X152875501Y-105189744D01*
X152900500Y-105064069D01*
X152900500Y-104935931D01*
X152900500Y-104935928D01*
X152875502Y-104810261D01*
X152875501Y-104810260D01*
X152875501Y-104810256D01*
X152826465Y-104691873D01*
X152826464Y-104691872D01*
X152826461Y-104691866D01*
X152755276Y-104585331D01*
X152755273Y-104585327D01*
X152664672Y-104494726D01*
X152664668Y-104494723D01*
X152558133Y-104423538D01*
X152558124Y-104423533D01*
X152439744Y-104374499D01*
X152439738Y-104374497D01*
X152314071Y-104349500D01*
X152314069Y-104349500D01*
X152185931Y-104349500D01*
X152185929Y-104349500D01*
X152060261Y-104374497D01*
X152060255Y-104374499D01*
X151941875Y-104423533D01*
X151941866Y-104423538D01*
X151835331Y-104494723D01*
X151835327Y-104494726D01*
X151744726Y-104585327D01*
X151744723Y-104585331D01*
X151673538Y-104691866D01*
X151673533Y-104691875D01*
X151624499Y-104810255D01*
X151624497Y-104810261D01*
X151599500Y-104935928D01*
X151599500Y-104935931D01*
X151599500Y-105064069D01*
X151599500Y-105064071D01*
X151599499Y-105064071D01*
X132871352Y-105064071D01*
X132871142Y-104930033D01*
X132866728Y-102108124D01*
X132866268Y-101814071D01*
X148199499Y-101814071D01*
X148224497Y-101939738D01*
X148224499Y-101939744D01*
X148273533Y-102058124D01*
X148273538Y-102058133D01*
X148344723Y-102164668D01*
X148344726Y-102164672D01*
X148435327Y-102255273D01*
X148435331Y-102255276D01*
X148541866Y-102326461D01*
X148541875Y-102326466D01*
X148568692Y-102337574D01*
X148660256Y-102375501D01*
X148660260Y-102375501D01*
X148660261Y-102375502D01*
X148785928Y-102400500D01*
X148785931Y-102400500D01*
X148914071Y-102400500D01*
X148998615Y-102383682D01*
X149039744Y-102375501D01*
X149158127Y-102326465D01*
X149264669Y-102255276D01*
X149355276Y-102164669D01*
X149426465Y-102058127D01*
X149475501Y-101939744D01*
X149485581Y-101889071D01*
X149949499Y-101889071D01*
X149974497Y-102014738D01*
X149974499Y-102014744D01*
X150023533Y-102133124D01*
X150023538Y-102133133D01*
X150094723Y-102239668D01*
X150094726Y-102239672D01*
X150185327Y-102330273D01*
X150185331Y-102330276D01*
X150291866Y-102401461D01*
X150291872Y-102401464D01*
X150291873Y-102401465D01*
X150410256Y-102450501D01*
X150410260Y-102450501D01*
X150410261Y-102450502D01*
X150535928Y-102475500D01*
X150535931Y-102475500D01*
X150664071Y-102475500D01*
X150748615Y-102458682D01*
X150789744Y-102450501D01*
X150908127Y-102401465D01*
X151014669Y-102330276D01*
X151105276Y-102239669D01*
X151176465Y-102133127D01*
X151225501Y-102014744D01*
X151250500Y-101889069D01*
X151250500Y-101864071D01*
X156574499Y-101864071D01*
X156599497Y-101989738D01*
X156599499Y-101989744D01*
X156648533Y-102108124D01*
X156648538Y-102108133D01*
X156719723Y-102214668D01*
X156719726Y-102214672D01*
X156810327Y-102305273D01*
X156810331Y-102305276D01*
X156916866Y-102376461D01*
X156916872Y-102376464D01*
X156916873Y-102376465D01*
X157035256Y-102425501D01*
X157035260Y-102425501D01*
X157035261Y-102425502D01*
X157160928Y-102450500D01*
X157160931Y-102450500D01*
X157289071Y-102450500D01*
X157373615Y-102433682D01*
X157414744Y-102425501D01*
X157533127Y-102376465D01*
X157639669Y-102305276D01*
X157730276Y-102214669D01*
X157797493Y-102114071D01*
X158099499Y-102114071D01*
X158124497Y-102239738D01*
X158124499Y-102239744D01*
X158173533Y-102358124D01*
X158173538Y-102358133D01*
X158244723Y-102464668D01*
X158244726Y-102464672D01*
X158335327Y-102555273D01*
X158335331Y-102555276D01*
X158441866Y-102626461D01*
X158441872Y-102626464D01*
X158441873Y-102626465D01*
X158560256Y-102675501D01*
X158560260Y-102675501D01*
X158560261Y-102675502D01*
X158685928Y-102700500D01*
X158685931Y-102700500D01*
X158814071Y-102700500D01*
X158898615Y-102683682D01*
X158939744Y-102675501D01*
X159058127Y-102626465D01*
X159164669Y-102555276D01*
X159255276Y-102464669D01*
X159326465Y-102358127D01*
X159375501Y-102239744D01*
X159400500Y-102114069D01*
X159400500Y-101985931D01*
X159400500Y-101985928D01*
X159375502Y-101860261D01*
X159375501Y-101860260D01*
X159375501Y-101860256D01*
X159326465Y-101741873D01*
X159326464Y-101741872D01*
X159326461Y-101741866D01*
X159255276Y-101635331D01*
X159255273Y-101635327D01*
X159164672Y-101544726D01*
X159164668Y-101544723D01*
X159058133Y-101473538D01*
X159058124Y-101473533D01*
X158939744Y-101424499D01*
X158939738Y-101424497D01*
X158814071Y-101399500D01*
X158814069Y-101399500D01*
X158685931Y-101399500D01*
X158685929Y-101399500D01*
X158560261Y-101424497D01*
X158560255Y-101424499D01*
X158441875Y-101473533D01*
X158441866Y-101473538D01*
X158335331Y-101544723D01*
X158335327Y-101544726D01*
X158244726Y-101635327D01*
X158244723Y-101635331D01*
X158173538Y-101741866D01*
X158173533Y-101741875D01*
X158124499Y-101860255D01*
X158124497Y-101860261D01*
X158121494Y-101875358D01*
X158121489Y-101875387D01*
X158099500Y-101985931D01*
X158099500Y-102114069D01*
X158099500Y-102114071D01*
X158099499Y-102114071D01*
X157797493Y-102114071D01*
X157801465Y-102108127D01*
X157850501Y-101989744D01*
X157875500Y-101864069D01*
X157875500Y-101735931D01*
X157875500Y-101735928D01*
X157850502Y-101610261D01*
X157850501Y-101610260D01*
X157850501Y-101610256D01*
X157801465Y-101491873D01*
X157801464Y-101491872D01*
X157801461Y-101491866D01*
X157730276Y-101385331D01*
X157730273Y-101385327D01*
X157639672Y-101294726D01*
X157639668Y-101294723D01*
X157533133Y-101223538D01*
X157533124Y-101223533D01*
X157414744Y-101174499D01*
X157414738Y-101174497D01*
X157289071Y-101149500D01*
X157289069Y-101149500D01*
X157160931Y-101149500D01*
X157160929Y-101149500D01*
X157035261Y-101174497D01*
X157035255Y-101174499D01*
X156916875Y-101223533D01*
X156916866Y-101223538D01*
X156810331Y-101294723D01*
X156810327Y-101294726D01*
X156719726Y-101385327D01*
X156719723Y-101385331D01*
X156648538Y-101491866D01*
X156648533Y-101491875D01*
X156599499Y-101610255D01*
X156599497Y-101610261D01*
X156574500Y-101735928D01*
X156574500Y-101735931D01*
X156574500Y-101864069D01*
X156574500Y-101864071D01*
X156574499Y-101864071D01*
X151250500Y-101864071D01*
X151250500Y-101760931D01*
X151250500Y-101760928D01*
X151250499Y-101760926D01*
X151249128Y-101754030D01*
X151225502Y-101635261D01*
X151225501Y-101635260D01*
X151225501Y-101635256D01*
X151176465Y-101516873D01*
X151176464Y-101516872D01*
X151176461Y-101516866D01*
X151105276Y-101410331D01*
X151105273Y-101410327D01*
X151014672Y-101319726D01*
X151014668Y-101319723D01*
X150908133Y-101248538D01*
X150908124Y-101248533D01*
X150789744Y-101199499D01*
X150789738Y-101199497D01*
X150664071Y-101174500D01*
X150664069Y-101174500D01*
X150535931Y-101174500D01*
X150535929Y-101174500D01*
X150410261Y-101199497D01*
X150410255Y-101199499D01*
X150291875Y-101248533D01*
X150291866Y-101248538D01*
X150185331Y-101319723D01*
X150185327Y-101319726D01*
X150094726Y-101410327D01*
X150094723Y-101410331D01*
X150023538Y-101516866D01*
X150023533Y-101516875D01*
X149974499Y-101635255D01*
X149974497Y-101635261D01*
X149949500Y-101760928D01*
X149949500Y-101760931D01*
X149949500Y-101889069D01*
X149949500Y-101889071D01*
X149949499Y-101889071D01*
X149485581Y-101889071D01*
X149500500Y-101814069D01*
X149500500Y-101685931D01*
X149500500Y-101685928D01*
X149475502Y-101560261D01*
X149475501Y-101560260D01*
X149475501Y-101560256D01*
X149426465Y-101441873D01*
X149426464Y-101441872D01*
X149426461Y-101441866D01*
X149355276Y-101335331D01*
X149355273Y-101335327D01*
X149264672Y-101244726D01*
X149264668Y-101244723D01*
X149158133Y-101173538D01*
X149158124Y-101173533D01*
X149039744Y-101124499D01*
X149039738Y-101124497D01*
X148914071Y-101099500D01*
X148914069Y-101099500D01*
X148785931Y-101099500D01*
X148785929Y-101099500D01*
X148660261Y-101124497D01*
X148660255Y-101124499D01*
X148541875Y-101173533D01*
X148541866Y-101173538D01*
X148435331Y-101244723D01*
X148435327Y-101244726D01*
X148344726Y-101335327D01*
X148344723Y-101335331D01*
X148273538Y-101441866D01*
X148273533Y-101441875D01*
X148224499Y-101560255D01*
X148224497Y-101560261D01*
X148199500Y-101685928D01*
X148199500Y-101685931D01*
X148199500Y-101814069D01*
X148199500Y-101814071D01*
X148199499Y-101814071D01*
X132866268Y-101814071D01*
X132864299Y-100555273D01*
X132862710Y-99539071D01*
X147449499Y-99539071D01*
X147474497Y-99664738D01*
X147474499Y-99664744D01*
X147523533Y-99783124D01*
X147523538Y-99783133D01*
X147594723Y-99889668D01*
X147594726Y-99889672D01*
X147685327Y-99980273D01*
X147685331Y-99980276D01*
X147791866Y-100051461D01*
X147791872Y-100051464D01*
X147791873Y-100051465D01*
X147910256Y-100100501D01*
X147910260Y-100100501D01*
X147910261Y-100100502D01*
X148035928Y-100125500D01*
X148035931Y-100125500D01*
X148164071Y-100125500D01*
X148248615Y-100108682D01*
X148289744Y-100100501D01*
X148408127Y-100051465D01*
X148514669Y-99980276D01*
X148605276Y-99889669D01*
X148655802Y-99814050D01*
X148709413Y-99769246D01*
X148778738Y-99760539D01*
X148841766Y-99790693D01*
X148873465Y-99835489D01*
X148922922Y-99954890D01*
X148922927Y-99954899D01*
X148994112Y-100061434D01*
X148994115Y-100061438D01*
X149084716Y-100152039D01*
X149084720Y-100152042D01*
X149191255Y-100223227D01*
X149191261Y-100223230D01*
X149191262Y-100223231D01*
X149309645Y-100272267D01*
X149309649Y-100272267D01*
X149309650Y-100272268D01*
X149435317Y-100297266D01*
X149435320Y-100297266D01*
X149563460Y-100297266D01*
X149648004Y-100280448D01*
X149689133Y-100272267D01*
X149807516Y-100223231D01*
X149896055Y-100164071D01*
X150949499Y-100164071D01*
X150974497Y-100289738D01*
X150974499Y-100289744D01*
X151023533Y-100408124D01*
X151023538Y-100408133D01*
X151094723Y-100514668D01*
X151094726Y-100514672D01*
X151185327Y-100605273D01*
X151185331Y-100605276D01*
X151291866Y-100676461D01*
X151291872Y-100676464D01*
X151291873Y-100676465D01*
X151410256Y-100725501D01*
X151410260Y-100725501D01*
X151410261Y-100725502D01*
X151535928Y-100750500D01*
X151535931Y-100750500D01*
X151664071Y-100750500D01*
X151748615Y-100733682D01*
X151789744Y-100725501D01*
X151908127Y-100676465D01*
X152014669Y-100605276D01*
X152014672Y-100605273D01*
X152049819Y-100570127D01*
X152111142Y-100536642D01*
X152180834Y-100541626D01*
X152225181Y-100570127D01*
X152260327Y-100605273D01*
X152260331Y-100605276D01*
X152366866Y-100676461D01*
X152366872Y-100676464D01*
X152366873Y-100676465D01*
X152485256Y-100725501D01*
X152485260Y-100725501D01*
X152485261Y-100725502D01*
X152610928Y-100750500D01*
X152610931Y-100750500D01*
X152739071Y-100750500D01*
X152823615Y-100733682D01*
X152864744Y-100725501D01*
X152983127Y-100676465D01*
X153089669Y-100605276D01*
X153180276Y-100514669D01*
X153251465Y-100408127D01*
X153300501Y-100289744D01*
X153310448Y-100239738D01*
X153325500Y-100164071D01*
X153325500Y-100114071D01*
X157299499Y-100114071D01*
X157324497Y-100239738D01*
X157324499Y-100239744D01*
X157373533Y-100358124D01*
X157373538Y-100358133D01*
X157444723Y-100464668D01*
X157444726Y-100464672D01*
X157535327Y-100555273D01*
X157535331Y-100555276D01*
X157641866Y-100626461D01*
X157641872Y-100626464D01*
X157641873Y-100626465D01*
X157760256Y-100675501D01*
X157760260Y-100675501D01*
X157760261Y-100675502D01*
X157885928Y-100700500D01*
X157885931Y-100700500D01*
X158014071Y-100700500D01*
X158098615Y-100683682D01*
X158139744Y-100675501D01*
X158258127Y-100626465D01*
X158364669Y-100555276D01*
X158455276Y-100464669D01*
X158526465Y-100358127D01*
X158575501Y-100239744D01*
X158590554Y-100164069D01*
X158600500Y-100114071D01*
X158600500Y-99985928D01*
X158575502Y-99860261D01*
X158575501Y-99860260D01*
X158575501Y-99860256D01*
X158526465Y-99741873D01*
X158526464Y-99741872D01*
X158526461Y-99741866D01*
X158455276Y-99635331D01*
X158455273Y-99635327D01*
X158364672Y-99544726D01*
X158364668Y-99544723D01*
X158258133Y-99473538D01*
X158258124Y-99473533D01*
X158139744Y-99424499D01*
X158139738Y-99424497D01*
X158014071Y-99399500D01*
X158014069Y-99399500D01*
X157885931Y-99399500D01*
X157885929Y-99399500D01*
X157760261Y-99424497D01*
X157760255Y-99424499D01*
X157641875Y-99473533D01*
X157641866Y-99473538D01*
X157535331Y-99544723D01*
X157535327Y-99544726D01*
X157444726Y-99635327D01*
X157444723Y-99635331D01*
X157373538Y-99741866D01*
X157373533Y-99741875D01*
X157324499Y-99860255D01*
X157324497Y-99860261D01*
X157299500Y-99985928D01*
X157299500Y-99985931D01*
X157299500Y-100114069D01*
X157299500Y-100114071D01*
X157299499Y-100114071D01*
X153325500Y-100114071D01*
X153325500Y-100035928D01*
X153319155Y-100004031D01*
X153300502Y-99910261D01*
X153300501Y-99910260D01*
X153300501Y-99910256D01*
X153251465Y-99791873D01*
X153251464Y-99791872D01*
X153251461Y-99791866D01*
X153180276Y-99685331D01*
X153180273Y-99685327D01*
X153089672Y-99594726D01*
X153089668Y-99594723D01*
X152983133Y-99523538D01*
X152983124Y-99523533D01*
X152864744Y-99474499D01*
X152864738Y-99474497D01*
X152739071Y-99449500D01*
X152739069Y-99449500D01*
X152610931Y-99449500D01*
X152610929Y-99449500D01*
X152485261Y-99474497D01*
X152485255Y-99474499D01*
X152366875Y-99523533D01*
X152366866Y-99523538D01*
X152260331Y-99594723D01*
X152260327Y-99594726D01*
X152225181Y-99629873D01*
X152163858Y-99663358D01*
X152094166Y-99658374D01*
X152049819Y-99629873D01*
X152014672Y-99594726D01*
X152014668Y-99594723D01*
X151908133Y-99523538D01*
X151908124Y-99523533D01*
X151789744Y-99474499D01*
X151789738Y-99474497D01*
X151664071Y-99449500D01*
X151664069Y-99449500D01*
X151535931Y-99449500D01*
X151535929Y-99449500D01*
X151410261Y-99474497D01*
X151410255Y-99474499D01*
X151291875Y-99523533D01*
X151291866Y-99523538D01*
X151185331Y-99594723D01*
X151185327Y-99594726D01*
X151094726Y-99685327D01*
X151094723Y-99685331D01*
X151023538Y-99791866D01*
X151023533Y-99791875D01*
X150974499Y-99910255D01*
X150974497Y-99910261D01*
X150949500Y-100035928D01*
X150949500Y-100035931D01*
X150949500Y-100164069D01*
X150949500Y-100164071D01*
X150949499Y-100164071D01*
X149896055Y-100164071D01*
X149914058Y-100152042D01*
X150004665Y-100061435D01*
X150043021Y-100004031D01*
X150071809Y-99960948D01*
X150075851Y-99954897D01*
X150075854Y-99954893D01*
X150124890Y-99836510D01*
X150133769Y-99791873D01*
X150149889Y-99710837D01*
X150149889Y-99582694D01*
X150124891Y-99457027D01*
X150124890Y-99457026D01*
X150124890Y-99457022D01*
X150075854Y-99338639D01*
X150075853Y-99338638D01*
X150075850Y-99338632D01*
X150004665Y-99232097D01*
X150004662Y-99232093D01*
X149914061Y-99141492D01*
X149914057Y-99141489D01*
X149807522Y-99070304D01*
X149807513Y-99070299D01*
X149689133Y-99021265D01*
X149689127Y-99021263D01*
X149563460Y-98996266D01*
X149563458Y-98996266D01*
X149435320Y-98996266D01*
X149435318Y-98996266D01*
X149309650Y-99021263D01*
X149309644Y-99021265D01*
X149191264Y-99070299D01*
X149191255Y-99070304D01*
X149084720Y-99141489D01*
X149084716Y-99141492D01*
X148994115Y-99232093D01*
X148943586Y-99307715D01*
X148889973Y-99352519D01*
X148820648Y-99361226D01*
X148757621Y-99331071D01*
X148725923Y-99286275D01*
X148676468Y-99166879D01*
X148676461Y-99166866D01*
X148605276Y-99060331D01*
X148605273Y-99060327D01*
X148514672Y-98969726D01*
X148514668Y-98969723D01*
X148408133Y-98898538D01*
X148408124Y-98898533D01*
X148289744Y-98849499D01*
X148289738Y-98849497D01*
X148164071Y-98824500D01*
X148164069Y-98824500D01*
X148035931Y-98824500D01*
X148035929Y-98824500D01*
X147910261Y-98849497D01*
X147910255Y-98849499D01*
X147791875Y-98898533D01*
X147791866Y-98898538D01*
X147685331Y-98969723D01*
X147685327Y-98969726D01*
X147594726Y-99060327D01*
X147594723Y-99060331D01*
X147523538Y-99166866D01*
X147523533Y-99166875D01*
X147474499Y-99285255D01*
X147474497Y-99285261D01*
X147449500Y-99410928D01*
X147449500Y-99410931D01*
X147449500Y-99539069D01*
X147449500Y-99539071D01*
X147449499Y-99539071D01*
X132862710Y-99539071D01*
X132862500Y-99405033D01*
X132860197Y-97932627D01*
X132859542Y-97514071D01*
X140174499Y-97514071D01*
X140199497Y-97639738D01*
X140199499Y-97639744D01*
X140248533Y-97758124D01*
X140248538Y-97758133D01*
X140319723Y-97864668D01*
X140319726Y-97864672D01*
X140410327Y-97955273D01*
X140410331Y-97955276D01*
X140516866Y-98026461D01*
X140516875Y-98026466D01*
X140526076Y-98030277D01*
X140635256Y-98075501D01*
X140635260Y-98075501D01*
X140635261Y-98075502D01*
X140760928Y-98100500D01*
X140760931Y-98100500D01*
X140889071Y-98100500D01*
X140973615Y-98083682D01*
X141014744Y-98075501D01*
X141133127Y-98026465D01*
X141239669Y-97955276D01*
X141330276Y-97864669D01*
X141401465Y-97758127D01*
X141450501Y-97639744D01*
X141470527Y-97539071D01*
X143649499Y-97539071D01*
X143674497Y-97664738D01*
X143674499Y-97664744D01*
X143723533Y-97783124D01*
X143723538Y-97783133D01*
X143794723Y-97889668D01*
X143794726Y-97889672D01*
X143885327Y-97980273D01*
X143885331Y-97980276D01*
X143991866Y-98051461D01*
X143991872Y-98051464D01*
X143991873Y-98051465D01*
X144110256Y-98100501D01*
X144110260Y-98100501D01*
X144110261Y-98100502D01*
X144235928Y-98125500D01*
X144235931Y-98125500D01*
X144364071Y-98125500D01*
X144448615Y-98108682D01*
X144489744Y-98100501D01*
X144608127Y-98051465D01*
X144714669Y-97980276D01*
X144721010Y-97973935D01*
X144782331Y-97940447D01*
X144852023Y-97945428D01*
X144877586Y-97958510D01*
X144941866Y-98001461D01*
X144941872Y-98001464D01*
X144941873Y-98001465D01*
X145060256Y-98050501D01*
X145060260Y-98050501D01*
X145060261Y-98050502D01*
X145185928Y-98075500D01*
X145185931Y-98075500D01*
X145314071Y-98075500D01*
X145398615Y-98058682D01*
X145439744Y-98050501D01*
X145558127Y-98001465D01*
X145664669Y-97930276D01*
X145676987Y-97917957D01*
X145738307Y-97884473D01*
X145807999Y-97889455D01*
X145863934Y-97931325D01*
X145867770Y-97936745D01*
X145869724Y-97939670D01*
X145960327Y-98030273D01*
X145960331Y-98030276D01*
X146066866Y-98101461D01*
X146066872Y-98101464D01*
X146066873Y-98101465D01*
X146185256Y-98150501D01*
X146185260Y-98150501D01*
X146185261Y-98150502D01*
X146310928Y-98175500D01*
X146310931Y-98175500D01*
X146439071Y-98175500D01*
X146523615Y-98158682D01*
X146564744Y-98150501D01*
X146683127Y-98101465D01*
X146789669Y-98030276D01*
X146855874Y-97964071D01*
X149449499Y-97964071D01*
X149474497Y-98089738D01*
X149474499Y-98089744D01*
X149523533Y-98208124D01*
X149523538Y-98208133D01*
X149594723Y-98314668D01*
X149594726Y-98314672D01*
X149685327Y-98405273D01*
X149685331Y-98405276D01*
X149791866Y-98476461D01*
X149791872Y-98476464D01*
X149791873Y-98476465D01*
X149910256Y-98525501D01*
X149910260Y-98525501D01*
X149910261Y-98525502D01*
X150035928Y-98550500D01*
X150035931Y-98550500D01*
X150164071Y-98550500D01*
X150248615Y-98533682D01*
X150289744Y-98525501D01*
X150408127Y-98476465D01*
X150514669Y-98405276D01*
X150605276Y-98314669D01*
X150676465Y-98208127D01*
X150725501Y-98089744D01*
X150743062Y-98001461D01*
X150750500Y-97964071D01*
X150750500Y-97835928D01*
X150725502Y-97710261D01*
X150725501Y-97710260D01*
X150725501Y-97710256D01*
X150676465Y-97591873D01*
X150676464Y-97591872D01*
X150676461Y-97591866D01*
X150641185Y-97539071D01*
X150949499Y-97539071D01*
X150974497Y-97664738D01*
X150974499Y-97664744D01*
X151023533Y-97783124D01*
X151023538Y-97783133D01*
X151094723Y-97889668D01*
X151094726Y-97889672D01*
X151185327Y-97980273D01*
X151185331Y-97980276D01*
X151291866Y-98051461D01*
X151291872Y-98051464D01*
X151291873Y-98051465D01*
X151410256Y-98100501D01*
X151410260Y-98100501D01*
X151410261Y-98100502D01*
X151535928Y-98125500D01*
X151535931Y-98125500D01*
X151664071Y-98125500D01*
X151748615Y-98108682D01*
X151789744Y-98100501D01*
X151908127Y-98051465D01*
X152014669Y-97980276D01*
X152036435Y-97958510D01*
X152062319Y-97932627D01*
X152123642Y-97899142D01*
X152193334Y-97904126D01*
X152237681Y-97932627D01*
X152260327Y-97955273D01*
X152260331Y-97955276D01*
X152366866Y-98026461D01*
X152366875Y-98026466D01*
X152376076Y-98030277D01*
X152485256Y-98075501D01*
X152485260Y-98075501D01*
X152485261Y-98075502D01*
X152610928Y-98100500D01*
X152610931Y-98100500D01*
X152739071Y-98100500D01*
X152823615Y-98083682D01*
X152864744Y-98075501D01*
X152983127Y-98026465D01*
X153089669Y-97955276D01*
X153180276Y-97864669D01*
X153251465Y-97758127D01*
X153267761Y-97718784D01*
X153311601Y-97664382D01*
X153377895Y-97642316D01*
X153445594Y-97659595D01*
X153493205Y-97710731D01*
X153496883Y-97718784D01*
X153523533Y-97783123D01*
X153523538Y-97783133D01*
X153594723Y-97889668D01*
X153594726Y-97889672D01*
X153685327Y-97980273D01*
X153685331Y-97980276D01*
X153791866Y-98051461D01*
X153791872Y-98051464D01*
X153791873Y-98051465D01*
X153910256Y-98100501D01*
X153910260Y-98100501D01*
X153910261Y-98100502D01*
X154035928Y-98125500D01*
X154035931Y-98125500D01*
X154164071Y-98125500D01*
X154248615Y-98108682D01*
X154289744Y-98100501D01*
X154408127Y-98051465D01*
X154514669Y-97980276D01*
X154576989Y-97917955D01*
X154638310Y-97884472D01*
X154708002Y-97889456D01*
X154763936Y-97931327D01*
X154767770Y-97936745D01*
X154769724Y-97939670D01*
X154860327Y-98030273D01*
X154860331Y-98030276D01*
X154966866Y-98101461D01*
X154966872Y-98101464D01*
X154966873Y-98101465D01*
X155085256Y-98150501D01*
X155085260Y-98150501D01*
X155085261Y-98150502D01*
X155210928Y-98175500D01*
X155210931Y-98175500D01*
X155339071Y-98175500D01*
X155423615Y-98158682D01*
X155464744Y-98150501D01*
X155583127Y-98101465D01*
X155689669Y-98030276D01*
X155746948Y-97972996D01*
X155808269Y-97939513D01*
X155877961Y-97944497D01*
X155933895Y-97986368D01*
X155937730Y-97991787D01*
X155969726Y-98039672D01*
X156060327Y-98130273D01*
X156060331Y-98130276D01*
X156166866Y-98201461D01*
X156166872Y-98201464D01*
X156166873Y-98201465D01*
X156285256Y-98250501D01*
X156285260Y-98250501D01*
X156285261Y-98250502D01*
X156410928Y-98275500D01*
X156410931Y-98275500D01*
X156539071Y-98275500D01*
X156623615Y-98258682D01*
X156664744Y-98250501D01*
X156783127Y-98201465D01*
X156889669Y-98130276D01*
X156980276Y-98039669D01*
X157051465Y-97933127D01*
X157066890Y-97895885D01*
X157110729Y-97841484D01*
X157177023Y-97819418D01*
X157244723Y-97836696D01*
X157284552Y-97874447D01*
X157294721Y-97889666D01*
X157294726Y-97889672D01*
X157385327Y-97980273D01*
X157385331Y-97980276D01*
X157491866Y-98051461D01*
X157491872Y-98051464D01*
X157491873Y-98051465D01*
X157610256Y-98100501D01*
X157610260Y-98100501D01*
X157610261Y-98100502D01*
X157735928Y-98125500D01*
X157735931Y-98125500D01*
X157864071Y-98125500D01*
X157948615Y-98108682D01*
X157989744Y-98100501D01*
X158108127Y-98051465D01*
X158214669Y-97980276D01*
X158305276Y-97889669D01*
X158376465Y-97783127D01*
X158425501Y-97664744D01*
X158440554Y-97589069D01*
X158450500Y-97539071D01*
X158450500Y-97410928D01*
X158425502Y-97285261D01*
X158425501Y-97285260D01*
X158425501Y-97285256D01*
X158376465Y-97166873D01*
X158376464Y-97166872D01*
X158376461Y-97166866D01*
X158305276Y-97060331D01*
X158305273Y-97060327D01*
X158214672Y-96969726D01*
X158214668Y-96969723D01*
X158108133Y-96898538D01*
X158108124Y-96898533D01*
X157989744Y-96849499D01*
X157989738Y-96849497D01*
X157864071Y-96824500D01*
X157864069Y-96824500D01*
X157735931Y-96824500D01*
X157735929Y-96824500D01*
X157610261Y-96849497D01*
X157610255Y-96849499D01*
X157491875Y-96898533D01*
X157491866Y-96898538D01*
X157385331Y-96969723D01*
X157385327Y-96969726D01*
X157294726Y-97060327D01*
X157294723Y-97060331D01*
X157223538Y-97166866D01*
X157223535Y-97166873D01*
X157208109Y-97204114D01*
X157164267Y-97258517D01*
X157097973Y-97280581D01*
X157030273Y-97263301D01*
X156990446Y-97225551D01*
X156980276Y-97210331D01*
X156980273Y-97210327D01*
X156889672Y-97119726D01*
X156889668Y-97119723D01*
X156783133Y-97048538D01*
X156783124Y-97048533D01*
X156664744Y-96999499D01*
X156664738Y-96999497D01*
X156539071Y-96974500D01*
X156539069Y-96974500D01*
X156410931Y-96974500D01*
X156410929Y-96974500D01*
X156285261Y-96999497D01*
X156285255Y-96999499D01*
X156166875Y-97048533D01*
X156166866Y-97048538D01*
X156060331Y-97119723D01*
X156003052Y-97177002D01*
X155941728Y-97210486D01*
X155872036Y-97205501D01*
X155816103Y-97163630D01*
X155812269Y-97158211D01*
X155780276Y-97110331D01*
X155780273Y-97110327D01*
X155689672Y-97019726D01*
X155689668Y-97019723D01*
X155583133Y-96948538D01*
X155583124Y-96948533D01*
X155464744Y-96899499D01*
X155464738Y-96899497D01*
X155339071Y-96874500D01*
X155339069Y-96874500D01*
X155210931Y-96874500D01*
X155210929Y-96874500D01*
X155085261Y-96899497D01*
X155085255Y-96899499D01*
X154966875Y-96948533D01*
X154966866Y-96948538D01*
X154860331Y-97019723D01*
X154798011Y-97082043D01*
X154736687Y-97115527D01*
X154666996Y-97110542D01*
X154611062Y-97068671D01*
X154607227Y-97063251D01*
X154605274Y-97060328D01*
X154514672Y-96969726D01*
X154514668Y-96969723D01*
X154408133Y-96898538D01*
X154408124Y-96898533D01*
X154289744Y-96849499D01*
X154289738Y-96849497D01*
X154164071Y-96824500D01*
X154164069Y-96824500D01*
X154035931Y-96824500D01*
X154035929Y-96824500D01*
X153910261Y-96849497D01*
X153910255Y-96849499D01*
X153791875Y-96898533D01*
X153791866Y-96898538D01*
X153685331Y-96969723D01*
X153685327Y-96969726D01*
X153594726Y-97060327D01*
X153594723Y-97060331D01*
X153523538Y-97166866D01*
X153523532Y-97166878D01*
X153507237Y-97206217D01*
X153463395Y-97260619D01*
X153397101Y-97282683D01*
X153329402Y-97265403D01*
X153281792Y-97214265D01*
X153278116Y-97206214D01*
X153251468Y-97141879D01*
X153251461Y-97141866D01*
X153180276Y-97035331D01*
X153180273Y-97035327D01*
X153089672Y-96944726D01*
X153089668Y-96944723D01*
X152983133Y-96873538D01*
X152983124Y-96873533D01*
X152864744Y-96824499D01*
X152864738Y-96824497D01*
X152739071Y-96799500D01*
X152739069Y-96799500D01*
X152610931Y-96799500D01*
X152610929Y-96799500D01*
X152485261Y-96824497D01*
X152485255Y-96824499D01*
X152366875Y-96873533D01*
X152366866Y-96873538D01*
X152260331Y-96944723D01*
X152260327Y-96944726D01*
X152212681Y-96992373D01*
X152151358Y-97025858D01*
X152081666Y-97020874D01*
X152037319Y-96992373D01*
X152014672Y-96969726D01*
X152014668Y-96969723D01*
X151908133Y-96898538D01*
X151908124Y-96898533D01*
X151789744Y-96849499D01*
X151789738Y-96849497D01*
X151664071Y-96824500D01*
X151664069Y-96824500D01*
X151535931Y-96824500D01*
X151535929Y-96824500D01*
X151410261Y-96849497D01*
X151410255Y-96849499D01*
X151291875Y-96898533D01*
X151291866Y-96898538D01*
X151185331Y-96969723D01*
X151185327Y-96969726D01*
X151094726Y-97060327D01*
X151094723Y-97060331D01*
X151023538Y-97166866D01*
X151023533Y-97166875D01*
X150974499Y-97285255D01*
X150974497Y-97285261D01*
X150949500Y-97410928D01*
X150949500Y-97410931D01*
X150949500Y-97539069D01*
X150949500Y-97539071D01*
X150949499Y-97539071D01*
X150641185Y-97539071D01*
X150605276Y-97485330D01*
X150514672Y-97394726D01*
X150514668Y-97394723D01*
X150408133Y-97323538D01*
X150408124Y-97323533D01*
X150289744Y-97274499D01*
X150289738Y-97274497D01*
X150164071Y-97249500D01*
X150164069Y-97249500D01*
X150035931Y-97249500D01*
X150035929Y-97249500D01*
X149910261Y-97274497D01*
X149910255Y-97274499D01*
X149791875Y-97323533D01*
X149791866Y-97323538D01*
X149685331Y-97394723D01*
X149685327Y-97394726D01*
X149594726Y-97485327D01*
X149594723Y-97485331D01*
X149523538Y-97591866D01*
X149523533Y-97591875D01*
X149474499Y-97710255D01*
X149474497Y-97710261D01*
X149449500Y-97835928D01*
X149449500Y-97835931D01*
X149449500Y-97964069D01*
X149449500Y-97964071D01*
X149449499Y-97964071D01*
X146855874Y-97964071D01*
X146880276Y-97939669D01*
X146951465Y-97833127D01*
X146966347Y-97797199D01*
X146972483Y-97782386D01*
X146972483Y-97782385D01*
X147000501Y-97714744D01*
X147024942Y-97591875D01*
X147025500Y-97589071D01*
X147025500Y-97460928D01*
X147000502Y-97335261D01*
X147000501Y-97335260D01*
X147000501Y-97335256D01*
X146951465Y-97216873D01*
X146951464Y-97216872D01*
X146951461Y-97216866D01*
X146880276Y-97110331D01*
X146880273Y-97110327D01*
X146789672Y-97019726D01*
X146789668Y-97019723D01*
X146683133Y-96948538D01*
X146683124Y-96948533D01*
X146564744Y-96899499D01*
X146564738Y-96899497D01*
X146439071Y-96874500D01*
X146439069Y-96874500D01*
X146310931Y-96874500D01*
X146310929Y-96874500D01*
X146185261Y-96899497D01*
X146185255Y-96899499D01*
X146066875Y-96948533D01*
X146066866Y-96948538D01*
X145960331Y-97019723D01*
X145948009Y-97032045D01*
X145886684Y-97065528D01*
X145816993Y-97060541D01*
X145761061Y-97018668D01*
X145757227Y-97013251D01*
X145755274Y-97010328D01*
X145664672Y-96919726D01*
X145664668Y-96919723D01*
X145558133Y-96848538D01*
X145558124Y-96848533D01*
X145439744Y-96799499D01*
X145439738Y-96799497D01*
X145314071Y-96774500D01*
X145314069Y-96774500D01*
X145185931Y-96774500D01*
X145185929Y-96774500D01*
X145060261Y-96799497D01*
X145060255Y-96799499D01*
X144941875Y-96848533D01*
X144941866Y-96848538D01*
X144835331Y-96919723D01*
X144835324Y-96919728D01*
X144828981Y-96926072D01*
X144767656Y-96959554D01*
X144697965Y-96954567D01*
X144672413Y-96941489D01*
X144608133Y-96898538D01*
X144608124Y-96898533D01*
X144489744Y-96849499D01*
X144489738Y-96849497D01*
X144364071Y-96824500D01*
X144364069Y-96824500D01*
X144235931Y-96824500D01*
X144235929Y-96824500D01*
X144110261Y-96849497D01*
X144110255Y-96849499D01*
X143991875Y-96898533D01*
X143991866Y-96898538D01*
X143885331Y-96969723D01*
X143885327Y-96969726D01*
X143794726Y-97060327D01*
X143794723Y-97060331D01*
X143723538Y-97166866D01*
X143723533Y-97166875D01*
X143674499Y-97285255D01*
X143674497Y-97285261D01*
X143649500Y-97410928D01*
X143649500Y-97410931D01*
X143649500Y-97539069D01*
X143649500Y-97539071D01*
X143649499Y-97539071D01*
X141470527Y-97539071D01*
X141475500Y-97514069D01*
X141475500Y-97385931D01*
X141475500Y-97385928D01*
X141450502Y-97260261D01*
X141450501Y-97260260D01*
X141450501Y-97260256D01*
X141410477Y-97163630D01*
X141401466Y-97141875D01*
X141401461Y-97141866D01*
X141330276Y-97035331D01*
X141330273Y-97035327D01*
X141239672Y-96944726D01*
X141239668Y-96944723D01*
X141133133Y-96873538D01*
X141133124Y-96873533D01*
X141014744Y-96824499D01*
X141014738Y-96824497D01*
X140889071Y-96799500D01*
X140889069Y-96799500D01*
X140760931Y-96799500D01*
X140760929Y-96799500D01*
X140635261Y-96824497D01*
X140635255Y-96824499D01*
X140516875Y-96873533D01*
X140516866Y-96873538D01*
X140410331Y-96944723D01*
X140410327Y-96944726D01*
X140319726Y-97035327D01*
X140319723Y-97035331D01*
X140248538Y-97141866D01*
X140248533Y-97141875D01*
X140199499Y-97260255D01*
X140199497Y-97260261D01*
X140174500Y-97385928D01*
X140174500Y-97385931D01*
X140174500Y-97514069D01*
X140174500Y-97514071D01*
X140174499Y-97514071D01*
X132859542Y-97514071D01*
X132850509Y-91739071D01*
X133874499Y-91739071D01*
X133899497Y-91864738D01*
X133899499Y-91864744D01*
X133948533Y-91983124D01*
X133948538Y-91983133D01*
X134019723Y-92089668D01*
X134019726Y-92089672D01*
X134110327Y-92180273D01*
X134110331Y-92180276D01*
X134216866Y-92251461D01*
X134216872Y-92251464D01*
X134216873Y-92251465D01*
X134335256Y-92300501D01*
X134335260Y-92300501D01*
X134335261Y-92300502D01*
X134460928Y-92325500D01*
X134460931Y-92325500D01*
X134589071Y-92325500D01*
X134673615Y-92308682D01*
X134714744Y-92300501D01*
X134833127Y-92251465D01*
X134939669Y-92180276D01*
X135030276Y-92089669D01*
X135101465Y-91983127D01*
X135150501Y-91864744D01*
X135155608Y-91839071D01*
X151724499Y-91839071D01*
X151749497Y-91964738D01*
X151749499Y-91964744D01*
X151798533Y-92083124D01*
X151798538Y-92083133D01*
X151869723Y-92189668D01*
X151869726Y-92189672D01*
X151960327Y-92280273D01*
X151960331Y-92280276D01*
X152066866Y-92351461D01*
X152066872Y-92351464D01*
X152066873Y-92351465D01*
X152185256Y-92400501D01*
X152185260Y-92400501D01*
X152185261Y-92400502D01*
X152310928Y-92425500D01*
X152310931Y-92425500D01*
X152439071Y-92425500D01*
X152523615Y-92408682D01*
X152564744Y-92400501D01*
X152652694Y-92364071D01*
X159749499Y-92364071D01*
X159774497Y-92489738D01*
X159774499Y-92489744D01*
X159823533Y-92608124D01*
X159823538Y-92608133D01*
X159894723Y-92714668D01*
X159894726Y-92714672D01*
X159985327Y-92805273D01*
X159985331Y-92805276D01*
X160091866Y-92876461D01*
X160091872Y-92876464D01*
X160091873Y-92876465D01*
X160210256Y-92925501D01*
X160210260Y-92925501D01*
X160210261Y-92925502D01*
X160335928Y-92950500D01*
X160335931Y-92950500D01*
X160464071Y-92950500D01*
X160548615Y-92933682D01*
X160589744Y-92925501D01*
X160708127Y-92876465D01*
X160726676Y-92864071D01*
X162549499Y-92864071D01*
X162574497Y-92989738D01*
X162574499Y-92989744D01*
X162623533Y-93108124D01*
X162623538Y-93108133D01*
X162694723Y-93214668D01*
X162694726Y-93214672D01*
X162785327Y-93305273D01*
X162785331Y-93305276D01*
X162891866Y-93376461D01*
X162891872Y-93376464D01*
X162891873Y-93376465D01*
X163010256Y-93425501D01*
X163010260Y-93425501D01*
X163010261Y-93425502D01*
X163135928Y-93450500D01*
X163135931Y-93450500D01*
X163264071Y-93450500D01*
X163348615Y-93433682D01*
X163389744Y-93425501D01*
X163508127Y-93376465D01*
X163614669Y-93305276D01*
X163705276Y-93214669D01*
X163776465Y-93108127D01*
X163825501Y-92989744D01*
X163848034Y-92876466D01*
X163850500Y-92864071D01*
X163850500Y-92735928D01*
X163825502Y-92610261D01*
X163825501Y-92610260D01*
X163825501Y-92610256D01*
X163776465Y-92491873D01*
X163776464Y-92491872D01*
X163776461Y-92491866D01*
X163705276Y-92385331D01*
X163705273Y-92385327D01*
X163614672Y-92294726D01*
X163614668Y-92294723D01*
X163508133Y-92223538D01*
X163508124Y-92223533D01*
X163389744Y-92174499D01*
X163389738Y-92174497D01*
X163264071Y-92149500D01*
X163264069Y-92149500D01*
X163135931Y-92149500D01*
X163135929Y-92149500D01*
X163010261Y-92174497D01*
X163010255Y-92174499D01*
X162891875Y-92223533D01*
X162891866Y-92223538D01*
X162785331Y-92294723D01*
X162785327Y-92294726D01*
X162694726Y-92385327D01*
X162694723Y-92385331D01*
X162623538Y-92491866D01*
X162623533Y-92491875D01*
X162574499Y-92610255D01*
X162574497Y-92610261D01*
X162549500Y-92735928D01*
X162549500Y-92735931D01*
X162549500Y-92864069D01*
X162549500Y-92864071D01*
X162549499Y-92864071D01*
X160726676Y-92864071D01*
X160814669Y-92805276D01*
X160905276Y-92714669D01*
X160921393Y-92690548D01*
X160941172Y-92660948D01*
X160941173Y-92660946D01*
X160976458Y-92608138D01*
X160976461Y-92608133D01*
X160976465Y-92608127D01*
X161025501Y-92489744D01*
X161046271Y-92385331D01*
X161050500Y-92364071D01*
X161050500Y-92235928D01*
X161025502Y-92110261D01*
X161025501Y-92110260D01*
X161025501Y-92110256D01*
X160976465Y-91991873D01*
X160976464Y-91991872D01*
X160976461Y-91991866D01*
X160905276Y-91885331D01*
X160905273Y-91885327D01*
X160814672Y-91794726D01*
X160814668Y-91794723D01*
X160708133Y-91723538D01*
X160708124Y-91723533D01*
X160589744Y-91674499D01*
X160589738Y-91674497D01*
X160464071Y-91649500D01*
X160464069Y-91649500D01*
X160335931Y-91649500D01*
X160335929Y-91649500D01*
X160210261Y-91674497D01*
X160210255Y-91674499D01*
X160091875Y-91723533D01*
X160091866Y-91723538D01*
X159985331Y-91794723D01*
X159985327Y-91794726D01*
X159894726Y-91885327D01*
X159894723Y-91885331D01*
X159823538Y-91991866D01*
X159823533Y-91991875D01*
X159774499Y-92110255D01*
X159774497Y-92110261D01*
X159749500Y-92235928D01*
X159749500Y-92235931D01*
X159749500Y-92364069D01*
X159749500Y-92364071D01*
X159749499Y-92364071D01*
X152652694Y-92364071D01*
X152683127Y-92351465D01*
X152789669Y-92280276D01*
X152880276Y-92189669D01*
X152951465Y-92083127D01*
X153000501Y-91964744D01*
X153016298Y-91885331D01*
X153025500Y-91839071D01*
X153025500Y-91710928D01*
X153000502Y-91585261D01*
X153000501Y-91585260D01*
X153000501Y-91585256D01*
X152951465Y-91466873D01*
X152951464Y-91466872D01*
X152951461Y-91466866D01*
X152880276Y-91360331D01*
X152880273Y-91360327D01*
X152789672Y-91269726D01*
X152789668Y-91269723D01*
X152683133Y-91198538D01*
X152683124Y-91198533D01*
X152564744Y-91149499D01*
X152564738Y-91149497D01*
X152439071Y-91124500D01*
X152439069Y-91124500D01*
X152310931Y-91124500D01*
X152310929Y-91124500D01*
X152185261Y-91149497D01*
X152185255Y-91149499D01*
X152066875Y-91198533D01*
X152066866Y-91198538D01*
X151960331Y-91269723D01*
X151960327Y-91269726D01*
X151869726Y-91360327D01*
X151869723Y-91360331D01*
X151798538Y-91466866D01*
X151798533Y-91466875D01*
X151749499Y-91585255D01*
X151749497Y-91585261D01*
X151724500Y-91710928D01*
X151724500Y-91710931D01*
X151724500Y-91839069D01*
X151724500Y-91839071D01*
X151724499Y-91839071D01*
X135155608Y-91839071D01*
X135164429Y-91794724D01*
X135175500Y-91739071D01*
X135175500Y-91610928D01*
X135150502Y-91485261D01*
X135150501Y-91485260D01*
X135150501Y-91485256D01*
X135101465Y-91366873D01*
X135101464Y-91366872D01*
X135101461Y-91366866D01*
X135030276Y-91260331D01*
X135030273Y-91260327D01*
X134939672Y-91169726D01*
X134939668Y-91169723D01*
X134833133Y-91098538D01*
X134833124Y-91098533D01*
X134714744Y-91049499D01*
X134714738Y-91049497D01*
X134589071Y-91024500D01*
X134589069Y-91024500D01*
X134460931Y-91024500D01*
X134460929Y-91024500D01*
X134335261Y-91049497D01*
X134335255Y-91049499D01*
X134216875Y-91098533D01*
X134216866Y-91098538D01*
X134110331Y-91169723D01*
X134110327Y-91169726D01*
X134019726Y-91260327D01*
X134019723Y-91260331D01*
X133948538Y-91366866D01*
X133948533Y-91366875D01*
X133899499Y-91485255D01*
X133899497Y-91485261D01*
X133874500Y-91610928D01*
X133874500Y-91610931D01*
X133874500Y-91739069D01*
X133874500Y-91739071D01*
X133874499Y-91739071D01*
X132850509Y-91739071D01*
X132847693Y-89939071D01*
X134024499Y-89939071D01*
X134049497Y-90064738D01*
X134049499Y-90064744D01*
X134098533Y-90183124D01*
X134098538Y-90183133D01*
X134169723Y-90289668D01*
X134169726Y-90289672D01*
X134260327Y-90380273D01*
X134260331Y-90380276D01*
X134366866Y-90451461D01*
X134366872Y-90451464D01*
X134366873Y-90451465D01*
X134485256Y-90500501D01*
X134485260Y-90500501D01*
X134485261Y-90500502D01*
X134610928Y-90525500D01*
X134610931Y-90525500D01*
X134739071Y-90525500D01*
X134823615Y-90508682D01*
X134864744Y-90500501D01*
X134983127Y-90451465D01*
X135089669Y-90380276D01*
X135180276Y-90289669D01*
X135251465Y-90183127D01*
X135300501Y-90064744D01*
X135325500Y-89939069D01*
X135325500Y-89810931D01*
X135325500Y-89810928D01*
X135300502Y-89685261D01*
X135300501Y-89685260D01*
X135300501Y-89685256D01*
X135251465Y-89566873D01*
X135251464Y-89566872D01*
X135251461Y-89566866D01*
X135236230Y-89544071D01*
X151049499Y-89544071D01*
X151074497Y-89669738D01*
X151074499Y-89669744D01*
X151123533Y-89788124D01*
X151123538Y-89788133D01*
X151194723Y-89894668D01*
X151194726Y-89894672D01*
X151285327Y-89985273D01*
X151285331Y-89985276D01*
X151391866Y-90056461D01*
X151391872Y-90056464D01*
X151391873Y-90056465D01*
X151510256Y-90105501D01*
X151510260Y-90105501D01*
X151510261Y-90105502D01*
X151635928Y-90130500D01*
X151635931Y-90130500D01*
X151764071Y-90130500D01*
X151848615Y-90113682D01*
X151889744Y-90105501D01*
X152008127Y-90056465D01*
X152114669Y-89985276D01*
X152205276Y-89894669D01*
X152276465Y-89788127D01*
X152325501Y-89669744D01*
X152333682Y-89628615D01*
X152350500Y-89544071D01*
X152350500Y-89415928D01*
X152325502Y-89290261D01*
X152325501Y-89290260D01*
X152325501Y-89290256D01*
X152277968Y-89175501D01*
X152276466Y-89171875D01*
X152276461Y-89171866D01*
X152205276Y-89065331D01*
X152205273Y-89065327D01*
X152114672Y-88974726D01*
X152114668Y-88974723D01*
X152008133Y-88903538D01*
X152008124Y-88903533D01*
X151889744Y-88854499D01*
X151889738Y-88854497D01*
X151764071Y-88829500D01*
X151764069Y-88829500D01*
X151635931Y-88829500D01*
X151635929Y-88829500D01*
X151510261Y-88854497D01*
X151510255Y-88854499D01*
X151391875Y-88903533D01*
X151391866Y-88903538D01*
X151285331Y-88974723D01*
X151285327Y-88974726D01*
X151194726Y-89065327D01*
X151194723Y-89065331D01*
X151123538Y-89171866D01*
X151123533Y-89171875D01*
X151074499Y-89290255D01*
X151074497Y-89290261D01*
X151049500Y-89415928D01*
X151049500Y-89415931D01*
X151049500Y-89544069D01*
X151049500Y-89544071D01*
X151049499Y-89544071D01*
X135236230Y-89544071D01*
X135192570Y-89478730D01*
X135192569Y-89478729D01*
X135180274Y-89460328D01*
X135089672Y-89369726D01*
X135089668Y-89369723D01*
X134983133Y-89298538D01*
X134983124Y-89298533D01*
X134864744Y-89249499D01*
X134864738Y-89249497D01*
X134739071Y-89224500D01*
X134739069Y-89224500D01*
X134610931Y-89224500D01*
X134610929Y-89224500D01*
X134485261Y-89249497D01*
X134485255Y-89249499D01*
X134366875Y-89298533D01*
X134366866Y-89298538D01*
X134260331Y-89369723D01*
X134260327Y-89369726D01*
X134169726Y-89460327D01*
X134169723Y-89460331D01*
X134098538Y-89566866D01*
X134098533Y-89566875D01*
X134049499Y-89685255D01*
X134049497Y-89685261D01*
X134024500Y-89810928D01*
X134024500Y-89810931D01*
X134024500Y-89939069D01*
X134024500Y-89939071D01*
X134024499Y-89939071D01*
X132847693Y-89939071D01*
X132845621Y-88614071D01*
X152751499Y-88614071D01*
X152776497Y-88739738D01*
X152776499Y-88739744D01*
X152825533Y-88858124D01*
X152825538Y-88858133D01*
X152896723Y-88964668D01*
X152896726Y-88964672D01*
X152987327Y-89055273D01*
X152987331Y-89055276D01*
X153093866Y-89126461D01*
X153093872Y-89126464D01*
X153093873Y-89126465D01*
X153212256Y-89175501D01*
X153220239Y-89177088D01*
X153228527Y-89178738D01*
X153290438Y-89211123D01*
X153325012Y-89271838D01*
X153321273Y-89341608D01*
X153292018Y-89388035D01*
X153244727Y-89435326D01*
X153244723Y-89435331D01*
X153173538Y-89541866D01*
X153173533Y-89541875D01*
X153124499Y-89660255D01*
X153124497Y-89660261D01*
X153099500Y-89785928D01*
X153099500Y-89785931D01*
X153099500Y-89914069D01*
X153099500Y-89914071D01*
X153099499Y-89914071D01*
X153124497Y-90039738D01*
X153124499Y-90039744D01*
X153173533Y-90158124D01*
X153173538Y-90158133D01*
X153244723Y-90264668D01*
X153244726Y-90264672D01*
X153335327Y-90355273D01*
X153335331Y-90355276D01*
X153441866Y-90426461D01*
X153441872Y-90426464D01*
X153441873Y-90426465D01*
X153560256Y-90475501D01*
X153560260Y-90475501D01*
X153560261Y-90475502D01*
X153685928Y-90500500D01*
X153685931Y-90500500D01*
X153814071Y-90500500D01*
X153898615Y-90483682D01*
X153939744Y-90475501D01*
X154058127Y-90426465D01*
X154164669Y-90355276D01*
X154255276Y-90264669D01*
X154326465Y-90158127D01*
X154375501Y-90039744D01*
X154400500Y-89914069D01*
X154400500Y-89785931D01*
X154400500Y-89785928D01*
X154375502Y-89660261D01*
X154375501Y-89660260D01*
X154375501Y-89660256D01*
X154336817Y-89566866D01*
X154326466Y-89541875D01*
X154326461Y-89541866D01*
X154255276Y-89435331D01*
X154255273Y-89435327D01*
X154164672Y-89344726D01*
X154164668Y-89344723D01*
X154058133Y-89273538D01*
X154058124Y-89273533D01*
X153939744Y-89224499D01*
X153939742Y-89224498D01*
X153923468Y-89221261D01*
X153861558Y-89188873D01*
X153826986Y-89128156D01*
X153830728Y-89058387D01*
X153859983Y-89011962D01*
X153907273Y-88964672D01*
X153907276Y-88964669D01*
X153978465Y-88858127D01*
X154027501Y-88739744D01*
X154052500Y-88614071D01*
X156449499Y-88614071D01*
X156474497Y-88739738D01*
X156474499Y-88739744D01*
X156523533Y-88858124D01*
X156523538Y-88858133D01*
X156594723Y-88964668D01*
X156594726Y-88964672D01*
X156685327Y-89055273D01*
X156685331Y-89055276D01*
X156791866Y-89126461D01*
X156791872Y-89126464D01*
X156791873Y-89126465D01*
X156910256Y-89175501D01*
X156910260Y-89175501D01*
X156910261Y-89175502D01*
X157035928Y-89200500D01*
X157035931Y-89200500D01*
X157164071Y-89200500D01*
X157248615Y-89183682D01*
X157289744Y-89175501D01*
X157363140Y-89145098D01*
X157432609Y-89137630D01*
X157458047Y-89145099D01*
X157518647Y-89170201D01*
X157518651Y-89170201D01*
X157518652Y-89170202D01*
X157644319Y-89195200D01*
X157644322Y-89195200D01*
X157772462Y-89195200D01*
X157857006Y-89178382D01*
X157898135Y-89170201D01*
X158016518Y-89121165D01*
X158123060Y-89049976D01*
X158213667Y-88959369D01*
X158284856Y-88852827D01*
X158333892Y-88734444D01*
X158342073Y-88693315D01*
X158358891Y-88608771D01*
X158358891Y-88480628D01*
X158333893Y-88354961D01*
X158333892Y-88354960D01*
X158333892Y-88354956D01*
X158287051Y-88241873D01*
X158284857Y-88236575D01*
X158284852Y-88236566D01*
X158213667Y-88130031D01*
X158213664Y-88130027D01*
X158123063Y-88039426D01*
X158123059Y-88039423D01*
X158016524Y-87968238D01*
X158016515Y-87968233D01*
X157898135Y-87919199D01*
X157898129Y-87919197D01*
X157772462Y-87894200D01*
X157772460Y-87894200D01*
X157644322Y-87894200D01*
X157644320Y-87894200D01*
X157518652Y-87919197D01*
X157518642Y-87919200D01*
X157445250Y-87949600D01*
X157375780Y-87957069D01*
X157350347Y-87949601D01*
X157312907Y-87934093D01*
X157289744Y-87924499D01*
X157289742Y-87924498D01*
X157289738Y-87924497D01*
X157164071Y-87899500D01*
X157164069Y-87899500D01*
X157035931Y-87899500D01*
X157035929Y-87899500D01*
X156910261Y-87924497D01*
X156910255Y-87924499D01*
X156791875Y-87973533D01*
X156791866Y-87973538D01*
X156685331Y-88044723D01*
X156685327Y-88044726D01*
X156594726Y-88135327D01*
X156594723Y-88135331D01*
X156523538Y-88241866D01*
X156523533Y-88241875D01*
X156474499Y-88360255D01*
X156474497Y-88360261D01*
X156449500Y-88485928D01*
X156449500Y-88485931D01*
X156449500Y-88614069D01*
X156449500Y-88614071D01*
X156449499Y-88614071D01*
X154052500Y-88614071D01*
X154052500Y-88614069D01*
X154052500Y-88485931D01*
X154052500Y-88485928D01*
X154027502Y-88360261D01*
X154027501Y-88360260D01*
X154027501Y-88360256D01*
X154025305Y-88354955D01*
X153986426Y-88261091D01*
X153978957Y-88191622D01*
X154010232Y-88129143D01*
X154053535Y-88099078D01*
X154108120Y-88076468D01*
X154108120Y-88076467D01*
X154108127Y-88076465D01*
X154214669Y-88005276D01*
X154305276Y-87914669D01*
X154376465Y-87808127D01*
X154425501Y-87689744D01*
X154450500Y-87564069D01*
X154450500Y-87514071D01*
X163949499Y-87514071D01*
X163974497Y-87639738D01*
X163974499Y-87639744D01*
X164023533Y-87758124D01*
X164023538Y-87758133D01*
X164094723Y-87864668D01*
X164094726Y-87864672D01*
X164185327Y-87955273D01*
X164185331Y-87955276D01*
X164291866Y-88026461D01*
X164291872Y-88026464D01*
X164291873Y-88026465D01*
X164410256Y-88075501D01*
X164410260Y-88075501D01*
X164410261Y-88075502D01*
X164535928Y-88100500D01*
X164535931Y-88100500D01*
X164664071Y-88100500D01*
X164748615Y-88083682D01*
X164789744Y-88075501D01*
X164908127Y-88026465D01*
X165014669Y-87955276D01*
X165105276Y-87864669D01*
X165157950Y-87785835D01*
X165211560Y-87741033D01*
X165280885Y-87732324D01*
X165328867Y-87753984D01*
X165330266Y-87751892D01*
X165441866Y-87826461D01*
X165441872Y-87826464D01*
X165441873Y-87826465D01*
X165560256Y-87875501D01*
X165560260Y-87875501D01*
X165560261Y-87875502D01*
X165685928Y-87900500D01*
X165685931Y-87900500D01*
X165814071Y-87900500D01*
X165898615Y-87883682D01*
X165939744Y-87875501D01*
X166058127Y-87826465D01*
X166164669Y-87755276D01*
X166255276Y-87664669D01*
X166326465Y-87558127D01*
X166375501Y-87439744D01*
X166392551Y-87354030D01*
X166400500Y-87314071D01*
X166400500Y-87185928D01*
X166375502Y-87060261D01*
X166375501Y-87060260D01*
X166375501Y-87060256D01*
X166326465Y-86941873D01*
X166326464Y-86941872D01*
X166326461Y-86941866D01*
X166255276Y-86835331D01*
X166255273Y-86835327D01*
X166164672Y-86744726D01*
X166164668Y-86744723D01*
X166058133Y-86673538D01*
X166058124Y-86673533D01*
X165939744Y-86624499D01*
X165939738Y-86624497D01*
X165814071Y-86599500D01*
X165814069Y-86599500D01*
X165685931Y-86599500D01*
X165685929Y-86599500D01*
X165560261Y-86624497D01*
X165560255Y-86624499D01*
X165441875Y-86673533D01*
X165441866Y-86673538D01*
X165335331Y-86744723D01*
X165335327Y-86744726D01*
X165244726Y-86835327D01*
X165244723Y-86835331D01*
X165192050Y-86914162D01*
X165138438Y-86958967D01*
X165069113Y-86967674D01*
X165021127Y-86946022D01*
X165019734Y-86948108D01*
X164908133Y-86873538D01*
X164908124Y-86873533D01*
X164789744Y-86824499D01*
X164789738Y-86824497D01*
X164664071Y-86799500D01*
X164664069Y-86799500D01*
X164535931Y-86799500D01*
X164535929Y-86799500D01*
X164410261Y-86824497D01*
X164410255Y-86824499D01*
X164291875Y-86873533D01*
X164291866Y-86873538D01*
X164185331Y-86944723D01*
X164185327Y-86944726D01*
X164094726Y-87035327D01*
X164094723Y-87035331D01*
X164023538Y-87141866D01*
X164023533Y-87141875D01*
X163974499Y-87260255D01*
X163974497Y-87260261D01*
X163949500Y-87385928D01*
X163949500Y-87385931D01*
X163949500Y-87514069D01*
X163949500Y-87514071D01*
X163949499Y-87514071D01*
X154450500Y-87514071D01*
X154450500Y-87435931D01*
X154450500Y-87435928D01*
X154444155Y-87404031D01*
X154425502Y-87310261D01*
X154425501Y-87310260D01*
X154425501Y-87310256D01*
X154376465Y-87191873D01*
X154376462Y-87191869D01*
X154373596Y-87186506D01*
X154375227Y-87185633D01*
X154356935Y-87127215D01*
X154374310Y-87063875D01*
X154373596Y-87063494D01*
X154375278Y-87060346D01*
X154375419Y-87059835D01*
X154376210Y-87058603D01*
X154376459Y-87058134D01*
X154376465Y-87058127D01*
X154425501Y-86939744D01*
X154446271Y-86835331D01*
X154450500Y-86814071D01*
X154450500Y-86685928D01*
X154425502Y-86560261D01*
X154425501Y-86560260D01*
X154425501Y-86560256D01*
X154376465Y-86441873D01*
X154376464Y-86441872D01*
X154376461Y-86441866D01*
X154305276Y-86335331D01*
X154305273Y-86335327D01*
X154214672Y-86244726D01*
X154214668Y-86244723D01*
X154108133Y-86173538D01*
X154108124Y-86173533D01*
X153989744Y-86124499D01*
X153989738Y-86124497D01*
X153864071Y-86099500D01*
X153864069Y-86099500D01*
X153735931Y-86099500D01*
X153735929Y-86099500D01*
X153610261Y-86124497D01*
X153610255Y-86124499D01*
X153491875Y-86173533D01*
X153491866Y-86173538D01*
X153385331Y-86244723D01*
X153385327Y-86244726D01*
X153294726Y-86335327D01*
X153294723Y-86335331D01*
X153223538Y-86441866D01*
X153223533Y-86441875D01*
X153174499Y-86560255D01*
X153174497Y-86560261D01*
X153149500Y-86685928D01*
X153149500Y-86685931D01*
X153149500Y-86814069D01*
X153149500Y-86814071D01*
X153149499Y-86814071D01*
X153174497Y-86939738D01*
X153174499Y-86939744D01*
X153223533Y-87058124D01*
X153226408Y-87063502D01*
X153224778Y-87064372D01*
X153243064Y-87122813D01*
X153225684Y-87186111D01*
X153226408Y-87186498D01*
X153224702Y-87189689D01*
X153224565Y-87190189D01*
X153223794Y-87191388D01*
X153223533Y-87191875D01*
X153174499Y-87310255D01*
X153174497Y-87310261D01*
X153149500Y-87435928D01*
X153149500Y-87435931D01*
X153149500Y-87564069D01*
X153149500Y-87564071D01*
X153149499Y-87564071D01*
X153174497Y-87689738D01*
X153174500Y-87689748D01*
X153215573Y-87788908D01*
X153223042Y-87858377D01*
X153191766Y-87920856D01*
X153148466Y-87950920D01*
X153093881Y-87973530D01*
X153093866Y-87973538D01*
X152987331Y-88044723D01*
X152987327Y-88044726D01*
X152896726Y-88135327D01*
X152896723Y-88135331D01*
X152825538Y-88241866D01*
X152825533Y-88241875D01*
X152776499Y-88360255D01*
X152776497Y-88360261D01*
X152751500Y-88485928D01*
X152751500Y-88485931D01*
X152751500Y-88614069D01*
X152751500Y-88614071D01*
X152751499Y-88614071D01*
X132845621Y-88614071D01*
X132843947Y-87544071D01*
X145569499Y-87544071D01*
X145594497Y-87669738D01*
X145594499Y-87669744D01*
X145643533Y-87788124D01*
X145643538Y-87788133D01*
X145714723Y-87894668D01*
X145714726Y-87894672D01*
X145805327Y-87985273D01*
X145805331Y-87985276D01*
X145911866Y-88056461D01*
X145911872Y-88056464D01*
X145911873Y-88056465D01*
X146030256Y-88105501D01*
X146030260Y-88105501D01*
X146030261Y-88105502D01*
X146155928Y-88130500D01*
X146155931Y-88130500D01*
X146284071Y-88130500D01*
X146368615Y-88113682D01*
X146409744Y-88105501D01*
X146528127Y-88056465D01*
X146634669Y-87985276D01*
X146725276Y-87894669D01*
X146796465Y-87788127D01*
X146845501Y-87669744D01*
X146853682Y-87628615D01*
X146870500Y-87544071D01*
X146870500Y-87464071D01*
X148499499Y-87464071D01*
X148524497Y-87589738D01*
X148524499Y-87589744D01*
X148573533Y-87708124D01*
X148573538Y-87708133D01*
X148644723Y-87814668D01*
X148644726Y-87814672D01*
X148735327Y-87905273D01*
X148735331Y-87905276D01*
X148841866Y-87976461D01*
X148841875Y-87976466D01*
X148868692Y-87987574D01*
X148960256Y-88025501D01*
X148960260Y-88025501D01*
X148960261Y-88025502D01*
X149085928Y-88050500D01*
X149085931Y-88050500D01*
X149214071Y-88050500D01*
X149298615Y-88033682D01*
X149339744Y-88025501D01*
X149458127Y-87976465D01*
X149564669Y-87905276D01*
X149655276Y-87814669D01*
X149726465Y-87708127D01*
X149775501Y-87589744D01*
X149800500Y-87464069D01*
X149800500Y-87335931D01*
X149800500Y-87335928D01*
X149775502Y-87210261D01*
X149775501Y-87210260D01*
X149775501Y-87210256D01*
X149726465Y-87091873D01*
X149726464Y-87091872D01*
X149726461Y-87091866D01*
X149655276Y-86985331D01*
X149655273Y-86985327D01*
X149564672Y-86894726D01*
X149564668Y-86894723D01*
X149458133Y-86823538D01*
X149458124Y-86823533D01*
X149339744Y-86774499D01*
X149339738Y-86774497D01*
X149214071Y-86749500D01*
X149214069Y-86749500D01*
X149085931Y-86749500D01*
X149085929Y-86749500D01*
X148960261Y-86774497D01*
X148960255Y-86774499D01*
X148841875Y-86823533D01*
X148841866Y-86823538D01*
X148735331Y-86894723D01*
X148735327Y-86894726D01*
X148644726Y-86985327D01*
X148644723Y-86985331D01*
X148573538Y-87091866D01*
X148573533Y-87091875D01*
X148524499Y-87210255D01*
X148524497Y-87210261D01*
X148499500Y-87335928D01*
X148499500Y-87335931D01*
X148499500Y-87464069D01*
X148499500Y-87464071D01*
X148499499Y-87464071D01*
X146870500Y-87464071D01*
X146870500Y-87415929D01*
X146858187Y-87354032D01*
X146858187Y-87354030D01*
X146845502Y-87290263D01*
X146845502Y-87290261D01*
X146845501Y-87290256D01*
X146796465Y-87171873D01*
X146796464Y-87171872D01*
X146796461Y-87171866D01*
X146725276Y-87065331D01*
X146725273Y-87065327D01*
X146634672Y-86974726D01*
X146634668Y-86974723D01*
X146528133Y-86903538D01*
X146528124Y-86903533D01*
X146409744Y-86854499D01*
X146409738Y-86854497D01*
X146284071Y-86829500D01*
X146284069Y-86829500D01*
X146155931Y-86829500D01*
X146155929Y-86829500D01*
X146030261Y-86854497D01*
X146030255Y-86854499D01*
X145911875Y-86903533D01*
X145911866Y-86903538D01*
X145805331Y-86974723D01*
X145805327Y-86974726D01*
X145714726Y-87065327D01*
X145714723Y-87065331D01*
X145643538Y-87171866D01*
X145643533Y-87171875D01*
X145594499Y-87290255D01*
X145594497Y-87290261D01*
X145569500Y-87415928D01*
X145569500Y-87415929D01*
X145569500Y-87415931D01*
X145569500Y-87544069D01*
X145569500Y-87544071D01*
X145569499Y-87544071D01*
X132843947Y-87544071D01*
X132839598Y-84764071D01*
X143924499Y-84764071D01*
X143949497Y-84889738D01*
X143949499Y-84889744D01*
X143998533Y-85008124D01*
X143998538Y-85008133D01*
X144069723Y-85114668D01*
X144069726Y-85114672D01*
X144160327Y-85205273D01*
X144160331Y-85205276D01*
X144266866Y-85276461D01*
X144266872Y-85276464D01*
X144266873Y-85276465D01*
X144385256Y-85325501D01*
X144385260Y-85325501D01*
X144385261Y-85325502D01*
X144510928Y-85350500D01*
X144510931Y-85350500D01*
X144639071Y-85350500D01*
X144723615Y-85333682D01*
X144764744Y-85325501D01*
X144883127Y-85276465D01*
X144989669Y-85205276D01*
X144989942Y-85205002D01*
X144990121Y-85204904D01*
X144994379Y-85201411D01*
X144995041Y-85202217D01*
X145051260Y-85171513D01*
X145120952Y-85176490D01*
X145176890Y-85218355D01*
X145197270Y-85264051D01*
X145197730Y-85263912D01*
X145198838Y-85267565D01*
X145199248Y-85268484D01*
X145199497Y-85269738D01*
X145199499Y-85269744D01*
X145248533Y-85388124D01*
X145248538Y-85388133D01*
X145319723Y-85494668D01*
X145319726Y-85494672D01*
X145410327Y-85585273D01*
X145410331Y-85585276D01*
X145516866Y-85656461D01*
X145516872Y-85656464D01*
X145516873Y-85656465D01*
X145635256Y-85705501D01*
X145635260Y-85705501D01*
X145635261Y-85705502D01*
X145760928Y-85730500D01*
X145760931Y-85730500D01*
X145889071Y-85730500D01*
X145973615Y-85713682D01*
X146014744Y-85705501D01*
X146133127Y-85656465D01*
X146239669Y-85585276D01*
X146330276Y-85494669D01*
X146401465Y-85388127D01*
X146450501Y-85269744D01*
X146462759Y-85208123D01*
X146475500Y-85144071D01*
X146475500Y-85015928D01*
X146465184Y-84964071D01*
X148199499Y-84964071D01*
X148224497Y-85089738D01*
X148224499Y-85089744D01*
X148273533Y-85208124D01*
X148273538Y-85208133D01*
X148344723Y-85314668D01*
X148344726Y-85314672D01*
X148435327Y-85405273D01*
X148435331Y-85405276D01*
X148541866Y-85476461D01*
X148541872Y-85476464D01*
X148541873Y-85476465D01*
X148660256Y-85525501D01*
X148660260Y-85525501D01*
X148660261Y-85525502D01*
X148785928Y-85550500D01*
X148785931Y-85550500D01*
X148914071Y-85550500D01*
X148998615Y-85533682D01*
X149039744Y-85525501D01*
X149158127Y-85476465D01*
X149264669Y-85405276D01*
X149325874Y-85344071D01*
X151449499Y-85344071D01*
X151474497Y-85469738D01*
X151474499Y-85469744D01*
X151523533Y-85588124D01*
X151523538Y-85588133D01*
X151594723Y-85694668D01*
X151594726Y-85694672D01*
X151685327Y-85785273D01*
X151685331Y-85785276D01*
X151791866Y-85856461D01*
X151791872Y-85856464D01*
X151791873Y-85856465D01*
X151910256Y-85905501D01*
X151910260Y-85905501D01*
X151910261Y-85905502D01*
X152035928Y-85930500D01*
X152035931Y-85930500D01*
X152164071Y-85930500D01*
X152248615Y-85913682D01*
X152289744Y-85905501D01*
X152408127Y-85856465D01*
X152514669Y-85785276D01*
X152605276Y-85694669D01*
X152676465Y-85588127D01*
X152725501Y-85469744D01*
X152738325Y-85405276D01*
X152750500Y-85344071D01*
X152750500Y-85215928D01*
X152725502Y-85090261D01*
X152725501Y-85090260D01*
X152725501Y-85090256D01*
X152676465Y-84971873D01*
X152676464Y-84971872D01*
X152676461Y-84971866D01*
X152605276Y-84865331D01*
X152605273Y-84865327D01*
X152514672Y-84774726D01*
X152514668Y-84774723D01*
X152408133Y-84703538D01*
X152408124Y-84703533D01*
X152289744Y-84654499D01*
X152289738Y-84654497D01*
X152164071Y-84629500D01*
X152164069Y-84629500D01*
X152035931Y-84629500D01*
X152035929Y-84629500D01*
X151910261Y-84654497D01*
X151910255Y-84654499D01*
X151791875Y-84703533D01*
X151791866Y-84703538D01*
X151685331Y-84774723D01*
X151685327Y-84774726D01*
X151594726Y-84865327D01*
X151594723Y-84865331D01*
X151523538Y-84971866D01*
X151523533Y-84971875D01*
X151474499Y-85090255D01*
X151474497Y-85090261D01*
X151449500Y-85215928D01*
X151449500Y-85215931D01*
X151449500Y-85344069D01*
X151449500Y-85344071D01*
X151449499Y-85344071D01*
X149325874Y-85344071D01*
X149355276Y-85314669D01*
X149426465Y-85208127D01*
X149475501Y-85089744D01*
X149491737Y-85008124D01*
X149500500Y-84964071D01*
X149500500Y-84835928D01*
X149475502Y-84710261D01*
X149475501Y-84710260D01*
X149475501Y-84710256D01*
X149426465Y-84591873D01*
X149426464Y-84591872D01*
X149426461Y-84591866D01*
X149355276Y-84485331D01*
X149355273Y-84485327D01*
X149264672Y-84394726D01*
X149264668Y-84394723D01*
X149158133Y-84323538D01*
X149158124Y-84323533D01*
X149039744Y-84274499D01*
X149039738Y-84274497D01*
X148914071Y-84249500D01*
X148914069Y-84249500D01*
X148785931Y-84249500D01*
X148785929Y-84249500D01*
X148660261Y-84274497D01*
X148660255Y-84274499D01*
X148541875Y-84323533D01*
X148541866Y-84323538D01*
X148435331Y-84394723D01*
X148435327Y-84394726D01*
X148344726Y-84485327D01*
X148344723Y-84485331D01*
X148273538Y-84591866D01*
X148273533Y-84591875D01*
X148224499Y-84710255D01*
X148224497Y-84710261D01*
X148199500Y-84835928D01*
X148199500Y-84835931D01*
X148199500Y-84964069D01*
X148199500Y-84964071D01*
X148199499Y-84964071D01*
X146465184Y-84964071D01*
X146450502Y-84890261D01*
X146450501Y-84890260D01*
X146450501Y-84890256D01*
X146450289Y-84889744D01*
X146445131Y-84877291D01*
X146401466Y-84771875D01*
X146401461Y-84771866D01*
X146330276Y-84665331D01*
X146330273Y-84665327D01*
X146239672Y-84574726D01*
X146239668Y-84574723D01*
X146133133Y-84503538D01*
X146133124Y-84503533D01*
X146014744Y-84454499D01*
X146014738Y-84454497D01*
X145889071Y-84429500D01*
X145889069Y-84429500D01*
X145760931Y-84429500D01*
X145760929Y-84429500D01*
X145635261Y-84454497D01*
X145635255Y-84454499D01*
X145516875Y-84503533D01*
X145516866Y-84503538D01*
X145410331Y-84574723D01*
X145410327Y-84574726D01*
X145410040Y-84575014D01*
X145409852Y-84575116D01*
X145405621Y-84578589D01*
X145404962Y-84577786D01*
X145348713Y-84608492D01*
X145279022Y-84603500D01*
X145223093Y-84561623D01*
X145202730Y-84515948D01*
X145202270Y-84516088D01*
X145201157Y-84512419D01*
X145200749Y-84511505D01*
X145200501Y-84510256D01*
X145151465Y-84391873D01*
X145151464Y-84391872D01*
X145151461Y-84391866D01*
X145080276Y-84285331D01*
X145080273Y-84285327D01*
X144989672Y-84194726D01*
X144989668Y-84194723D01*
X144883133Y-84123538D01*
X144883124Y-84123533D01*
X144764744Y-84074499D01*
X144764738Y-84074497D01*
X144639071Y-84049500D01*
X144639069Y-84049500D01*
X144510931Y-84049500D01*
X144510929Y-84049500D01*
X144385261Y-84074497D01*
X144385255Y-84074499D01*
X144266875Y-84123533D01*
X144266866Y-84123538D01*
X144160331Y-84194723D01*
X144160327Y-84194726D01*
X144069726Y-84285327D01*
X144069723Y-84285331D01*
X143998538Y-84391866D01*
X143998533Y-84391875D01*
X143949499Y-84510255D01*
X143949497Y-84510261D01*
X143924500Y-84635928D01*
X143924500Y-84635931D01*
X143924500Y-84764069D01*
X143924500Y-84764071D01*
X143924499Y-84764071D01*
X132839598Y-84764071D01*
X132835649Y-82239071D01*
X147049499Y-82239071D01*
X147074497Y-82364738D01*
X147074499Y-82364744D01*
X147123533Y-82483124D01*
X147123538Y-82483133D01*
X147194723Y-82589668D01*
X147194726Y-82589672D01*
X147285327Y-82680273D01*
X147285331Y-82680276D01*
X147391866Y-82751461D01*
X147391872Y-82751464D01*
X147391873Y-82751465D01*
X147510256Y-82800501D01*
X147510260Y-82800501D01*
X147510261Y-82800502D01*
X147635928Y-82825500D01*
X147635931Y-82825500D01*
X147764071Y-82825500D01*
X147848615Y-82808682D01*
X147889744Y-82800501D01*
X148008127Y-82751465D01*
X148069005Y-82710787D01*
X148135680Y-82689910D01*
X148203061Y-82708394D01*
X148249751Y-82760372D01*
X148259512Y-82789697D01*
X148274244Y-82863757D01*
X148274246Y-82863762D01*
X148323280Y-82982142D01*
X148323285Y-82982151D01*
X148394470Y-83088686D01*
X148394473Y-83088690D01*
X148485074Y-83179291D01*
X148485078Y-83179294D01*
X148591613Y-83250479D01*
X148591619Y-83250482D01*
X148591620Y-83250483D01*
X148710003Y-83299519D01*
X148710007Y-83299519D01*
X148710008Y-83299520D01*
X148835675Y-83324518D01*
X148835678Y-83324518D01*
X148963809Y-83324518D01*
X148963816Y-83324518D01*
X148963822Y-83324516D01*
X148965300Y-83324371D01*
X148966075Y-83324518D01*
X148969908Y-83324518D01*
X148969908Y-83325244D01*
X149033947Y-83337384D01*
X149065146Y-83360092D01*
X149135327Y-83430273D01*
X149135331Y-83430276D01*
X149241866Y-83501461D01*
X149241872Y-83501464D01*
X149241873Y-83501465D01*
X149360256Y-83550501D01*
X149360260Y-83550501D01*
X149360261Y-83550502D01*
X149485928Y-83575500D01*
X149485931Y-83575500D01*
X149614071Y-83575500D01*
X149698615Y-83558682D01*
X149739744Y-83550501D01*
X149858127Y-83501465D01*
X149964669Y-83430276D01*
X150055276Y-83339669D01*
X150126465Y-83233127D01*
X150175501Y-83114744D01*
X150200500Y-82989069D01*
X150200500Y-82860931D01*
X150200500Y-82860928D01*
X150175502Y-82735261D01*
X150175501Y-82735260D01*
X150175501Y-82735256D01*
X150126465Y-82616873D01*
X150126464Y-82616872D01*
X150126461Y-82616866D01*
X150055276Y-82510331D01*
X150055273Y-82510327D01*
X150009017Y-82464071D01*
X151699499Y-82464071D01*
X151724497Y-82589738D01*
X151724499Y-82589744D01*
X151773533Y-82708124D01*
X151773538Y-82708133D01*
X151844723Y-82814668D01*
X151844726Y-82814672D01*
X151935327Y-82905273D01*
X151935331Y-82905276D01*
X152041866Y-82976461D01*
X152041875Y-82976466D01*
X152055600Y-82982151D01*
X152160256Y-83025501D01*
X152160260Y-83025501D01*
X152160261Y-83025502D01*
X152285928Y-83050500D01*
X152285931Y-83050500D01*
X152414071Y-83050500D01*
X152498615Y-83033682D01*
X152539744Y-83025501D01*
X152658127Y-82976465D01*
X152764669Y-82905276D01*
X152855276Y-82814669D01*
X152926465Y-82708127D01*
X152975501Y-82589744D01*
X152991298Y-82510331D01*
X153000500Y-82464071D01*
X153000500Y-82335928D01*
X152975502Y-82210261D01*
X152975501Y-82210260D01*
X152975501Y-82210256D01*
X152926465Y-82091873D01*
X152926464Y-82091872D01*
X152926461Y-82091866D01*
X152855276Y-81985331D01*
X152855273Y-81985327D01*
X152764672Y-81894726D01*
X152764668Y-81894723D01*
X152658133Y-81823538D01*
X152658124Y-81823533D01*
X152539744Y-81774499D01*
X152539738Y-81774497D01*
X152414071Y-81749500D01*
X152414069Y-81749500D01*
X152285931Y-81749500D01*
X152285929Y-81749500D01*
X152160261Y-81774497D01*
X152160255Y-81774499D01*
X152041875Y-81823533D01*
X152041866Y-81823538D01*
X151935331Y-81894723D01*
X151935327Y-81894726D01*
X151844726Y-81985327D01*
X151844723Y-81985331D01*
X151773538Y-82091866D01*
X151773533Y-82091875D01*
X151724499Y-82210255D01*
X151724497Y-82210261D01*
X151699500Y-82335928D01*
X151699500Y-82335931D01*
X151699500Y-82464069D01*
X151699500Y-82464071D01*
X151699499Y-82464071D01*
X150009017Y-82464071D01*
X149964672Y-82419726D01*
X149964668Y-82419723D01*
X149858133Y-82348538D01*
X149858124Y-82348533D01*
X149739744Y-82299499D01*
X149739738Y-82299497D01*
X149614071Y-82274500D01*
X149614069Y-82274500D01*
X149485931Y-82274500D01*
X149485930Y-82274500D01*
X149484426Y-82274648D01*
X149483646Y-82274500D01*
X149479839Y-82274500D01*
X149479839Y-82273777D01*
X149415781Y-82261624D01*
X149384601Y-82238927D01*
X149314416Y-82168742D01*
X149314415Y-82168741D01*
X149314414Y-82168740D01*
X149207880Y-82097556D01*
X149207871Y-82097551D01*
X149089491Y-82048517D01*
X149089485Y-82048515D01*
X148963818Y-82023518D01*
X148963816Y-82023518D01*
X148835678Y-82023518D01*
X148835676Y-82023518D01*
X148710008Y-82048515D01*
X148710002Y-82048517D01*
X148591622Y-82097551D01*
X148591615Y-82097555D01*
X148530741Y-82138230D01*
X148464063Y-82159107D01*
X148396683Y-82140622D01*
X148349994Y-82088643D01*
X148340234Y-82059319D01*
X148325502Y-81985261D01*
X148325501Y-81985260D01*
X148325501Y-81985256D01*
X148276465Y-81866873D01*
X148276464Y-81866872D01*
X148276461Y-81866866D01*
X148205276Y-81760331D01*
X148205273Y-81760327D01*
X148114672Y-81669726D01*
X148114668Y-81669723D01*
X148008133Y-81598538D01*
X148008124Y-81598533D01*
X147889744Y-81549499D01*
X147889738Y-81549497D01*
X147764071Y-81524500D01*
X147764069Y-81524500D01*
X147635931Y-81524500D01*
X147635929Y-81524500D01*
X147510261Y-81549497D01*
X147510255Y-81549499D01*
X147391875Y-81598533D01*
X147391866Y-81598538D01*
X147285331Y-81669723D01*
X147285327Y-81669726D01*
X147194726Y-81760327D01*
X147194723Y-81760331D01*
X147123538Y-81866866D01*
X147123533Y-81866875D01*
X147074499Y-81985255D01*
X147074497Y-81985261D01*
X147049500Y-82110928D01*
X147049500Y-82110931D01*
X147049500Y-82239069D01*
X147049500Y-82239071D01*
X147049499Y-82239071D01*
X132835649Y-82239071D01*
X132828415Y-77614071D01*
X151524499Y-77614071D01*
X151549497Y-77739738D01*
X151549499Y-77739744D01*
X151598533Y-77858124D01*
X151598538Y-77858133D01*
X151669723Y-77964668D01*
X151669726Y-77964672D01*
X151760327Y-78055273D01*
X151760331Y-78055276D01*
X151866866Y-78126461D01*
X151866872Y-78126464D01*
X151866873Y-78126465D01*
X151985256Y-78175501D01*
X151985260Y-78175501D01*
X151985261Y-78175502D01*
X152110928Y-78200500D01*
X152110931Y-78200500D01*
X152239071Y-78200500D01*
X152323615Y-78183682D01*
X152364744Y-78175501D01*
X152483127Y-78126465D01*
X152589669Y-78055276D01*
X152680276Y-77964669D01*
X152751465Y-77858127D01*
X152800501Y-77739744D01*
X152825500Y-77614069D01*
X152825500Y-77485931D01*
X152825500Y-77485928D01*
X152800502Y-77360261D01*
X152800501Y-77360260D01*
X152800501Y-77360256D01*
X152751465Y-77241873D01*
X152751464Y-77241872D01*
X152751461Y-77241866D01*
X152680276Y-77135331D01*
X152680273Y-77135327D01*
X152589672Y-77044726D01*
X152589668Y-77044723D01*
X152483133Y-76973538D01*
X152483124Y-76973533D01*
X152364744Y-76924499D01*
X152364738Y-76924497D01*
X152239071Y-76899500D01*
X152239069Y-76899500D01*
X152110931Y-76899500D01*
X152110929Y-76899500D01*
X151985261Y-76924497D01*
X151985255Y-76924499D01*
X151866875Y-76973533D01*
X151866866Y-76973538D01*
X151760331Y-77044723D01*
X151760327Y-77044726D01*
X151669726Y-77135327D01*
X151669723Y-77135331D01*
X151598538Y-77241866D01*
X151598533Y-77241875D01*
X151549499Y-77360255D01*
X151549497Y-77360261D01*
X151524500Y-77485928D01*
X151524500Y-77485931D01*
X151524500Y-77614069D01*
X151524500Y-77614071D01*
X151524499Y-77614071D01*
X132828415Y-77614071D01*
X132826491Y-76384071D01*
X163529499Y-76384071D01*
X163554497Y-76509738D01*
X163554499Y-76509744D01*
X163603533Y-76628124D01*
X163603538Y-76628133D01*
X163674723Y-76734668D01*
X163674726Y-76734672D01*
X163765327Y-76825273D01*
X163765331Y-76825276D01*
X163871866Y-76896461D01*
X163871872Y-76896464D01*
X163871873Y-76896465D01*
X163990256Y-76945501D01*
X163990260Y-76945501D01*
X163990261Y-76945502D01*
X164115928Y-76970500D01*
X164115931Y-76970500D01*
X164244071Y-76970500D01*
X164328615Y-76953682D01*
X164369744Y-76945501D01*
X164488127Y-76896465D01*
X164594669Y-76825276D01*
X164685276Y-76734669D01*
X164756465Y-76628127D01*
X164805501Y-76509744D01*
X164830500Y-76384069D01*
X164830500Y-76255931D01*
X164830500Y-76255928D01*
X164805502Y-76130261D01*
X164805501Y-76130260D01*
X164805501Y-76130256D01*
X164756465Y-76011873D01*
X164756464Y-76011872D01*
X164756461Y-76011866D01*
X164685276Y-75905331D01*
X164685273Y-75905327D01*
X164594672Y-75814726D01*
X164594668Y-75814723D01*
X164488133Y-75743538D01*
X164488124Y-75743533D01*
X164369744Y-75694499D01*
X164369738Y-75694497D01*
X164244071Y-75669500D01*
X164244069Y-75669500D01*
X164115931Y-75669500D01*
X164115929Y-75669500D01*
X163990261Y-75694497D01*
X163990255Y-75694499D01*
X163871875Y-75743533D01*
X163871866Y-75743538D01*
X163765331Y-75814723D01*
X163765327Y-75814726D01*
X163674726Y-75905327D01*
X163674723Y-75905331D01*
X163603538Y-76011866D01*
X163603533Y-76011875D01*
X163554499Y-76130255D01*
X163554497Y-76130261D01*
X163529500Y-76255928D01*
X163529500Y-76255931D01*
X163529500Y-76384069D01*
X163529500Y-76384071D01*
X163529499Y-76384071D01*
X132826491Y-76384071D01*
X132803164Y-61470932D01*
X132822744Y-61403864D01*
X132875476Y-61358026D01*
X132927233Y-61346740D01*
X133228687Y-61346910D01*
X133295714Y-61366632D01*
X133341439Y-61419462D01*
X133347095Y-61434322D01*
X133408169Y-61632091D01*
X133408466Y-61633052D01*
X133512602Y-61849116D01*
X133512616Y-61849144D01*
X133512617Y-61849147D01*
X133647812Y-62047304D01*
X133811026Y-62223092D01*
X133811028Y-62223094D01*
X133998623Y-62372598D01*
X133998625Y-62372599D01*
X133998627Y-62372601D01*
X134206395Y-62492466D01*
X134206397Y-62492467D01*
X134206406Y-62492472D01*
X134429734Y-62580038D01*
X134663618Y-62633342D01*
X134902835Y-62651191D01*
X135142041Y-62633187D01*
X135375891Y-62579733D01*
X135599162Y-62492023D01*
X135806867Y-62372015D01*
X135994366Y-62222391D01*
X136157471Y-62046492D01*
X136292537Y-61848249D01*
X136396548Y-61632089D01*
X136467181Y-61402842D01*
X136502857Y-61165628D01*
X136502818Y-61045687D01*
X136502818Y-61045684D01*
X136502187Y-54301231D01*
X136502189Y-54287869D01*
X136503793Y-54282201D01*
X136502195Y-54240760D01*
X136502196Y-54238376D01*
X136502459Y-54237477D01*
X136502801Y-54226155D01*
X136510378Y-54149813D01*
X136518335Y-54116783D01*
X136543200Y-54053391D01*
X136559821Y-54023761D01*
X136600966Y-53969491D01*
X136624997Y-53945495D01*
X136679336Y-53904425D01*
X136708980Y-53887853D01*
X136772414Y-53863080D01*
X136805454Y-53855173D01*
X136881800Y-53847710D01*
X136898820Y-53847222D01*
X136937854Y-53848786D01*
X136937860Y-53848784D01*
X136944842Y-53847963D01*
X136959311Y-53847112D01*
X141446328Y-53846495D01*
X141461080Y-53846496D01*
X141466740Y-53848097D01*
X141508162Y-53846499D01*
X141510554Y-53846500D01*
X141511451Y-53846763D01*
X141522786Y-53847105D01*
X141599124Y-53854682D01*
X141632156Y-53862639D01*
X141695548Y-53887504D01*
X141725181Y-53904127D01*
X141779440Y-53945264D01*
X141803450Y-53969309D01*
X141844508Y-54023633D01*
X141861088Y-54053291D01*
X141885858Y-54116716D01*
X141893766Y-54149762D01*
X141901228Y-54226103D01*
X141901717Y-54243126D01*
X141900154Y-54282160D01*
X141900969Y-54289089D01*
X141901818Y-54303572D01*
X141901818Y-61166570D01*
X141937568Y-61403760D01*
X141937570Y-61403766D01*
X142008278Y-61632993D01*
X142112353Y-61849107D01*
X142112358Y-61849116D01*
X142247488Y-62047316D01*
X142410649Y-62223161D01*
X142598196Y-62372725D01*
X142805940Y-62492666D01*
X143029239Y-62580305D01*
X143263107Y-62633684D01*
X143331453Y-62638805D01*
X143502313Y-62651610D01*
X143502318Y-62651610D01*
X143502323Y-62651610D01*
X143651824Y-62640406D01*
X143741529Y-62633684D01*
X143975397Y-62580305D01*
X144198696Y-62492666D01*
X144406440Y-62372725D01*
X144593987Y-62223161D01*
X144757148Y-62047316D01*
X144892278Y-61849116D01*
X144996359Y-61632990D01*
X145067066Y-61403765D01*
X145067206Y-61402840D01*
X145102817Y-61166570D01*
X145102818Y-61166561D01*
X145102818Y-61086170D01*
X145102822Y-61086156D01*
X145102818Y-61043359D01*
X145102818Y-60999027D01*
X145102818Y-60987658D01*
X145102811Y-60987600D01*
X145102187Y-54301236D01*
X145102189Y-54287869D01*
X145103793Y-54282201D01*
X145102195Y-54240760D01*
X145102196Y-54238376D01*
X145102459Y-54237477D01*
X145102801Y-54226155D01*
X145110378Y-54149813D01*
X145118335Y-54116783D01*
X145143200Y-54053391D01*
X145159821Y-54023761D01*
X145200966Y-53969491D01*
X145224997Y-53945495D01*
X145279336Y-53904425D01*
X145308980Y-53887853D01*
X145372414Y-53863080D01*
X145405454Y-53855173D01*
X145481801Y-53847710D01*
X145498824Y-53847222D01*
X145537854Y-53848786D01*
X145537854Y-53848785D01*
X145537855Y-53848786D01*
X145544821Y-53847966D01*
X145559300Y-53847115D01*
X151748260Y-53846492D01*
X151761072Y-53846493D01*
X151766740Y-53848097D01*
X151808172Y-53846499D01*
X151810560Y-53846500D01*
X151811458Y-53846763D01*
X151822786Y-53847105D01*
X151899124Y-53854682D01*
X151932156Y-53862639D01*
X151995548Y-53887504D01*
X152025181Y-53904127D01*
X152079440Y-53945264D01*
X152103450Y-53969309D01*
X152144508Y-54023633D01*
X152161088Y-54053291D01*
X152185858Y-54116716D01*
X152193766Y-54149762D01*
X152201228Y-54226103D01*
X152201717Y-54243126D01*
X152200154Y-54282160D01*
X152200969Y-54289089D01*
X152201818Y-54303572D01*
X152201818Y-61166570D01*
X152237568Y-61403760D01*
X152237570Y-61403766D01*
X152308278Y-61632993D01*
X152412353Y-61849107D01*
X152412358Y-61849116D01*
X152547488Y-62047316D01*
X152710649Y-62223161D01*
X152898196Y-62372725D01*
X153105940Y-62492666D01*
X153329239Y-62580305D01*
X153563107Y-62633684D01*
X153631453Y-62638805D01*
X153802313Y-62651610D01*
X153802318Y-62651610D01*
X153802323Y-62651610D01*
X153951824Y-62640406D01*
X154041529Y-62633684D01*
X154275397Y-62580305D01*
X154498696Y-62492666D01*
X154706440Y-62372725D01*
X154893987Y-62223161D01*
X155057148Y-62047316D01*
X155192278Y-61849116D01*
X155296359Y-61632990D01*
X155367066Y-61403765D01*
X155367206Y-61402840D01*
X155402817Y-61166570D01*
X155402818Y-61166561D01*
X155402818Y-61086170D01*
X155402822Y-61086156D01*
X155402818Y-61043359D01*
X155402818Y-60999027D01*
X155402818Y-60987658D01*
X155402811Y-60987600D01*
X155402187Y-54301236D01*
X155402189Y-54287869D01*
X155403793Y-54282201D01*
X155402195Y-54240760D01*
X155402196Y-54238376D01*
X155402459Y-54237477D01*
X155402801Y-54226155D01*
X155410378Y-54149813D01*
X155418335Y-54116783D01*
X155443200Y-54053391D01*
X155459821Y-54023761D01*
X155500966Y-53969491D01*
X155524997Y-53945495D01*
X155579336Y-53904425D01*
X155608980Y-53887853D01*
X155672414Y-53863080D01*
X155705454Y-53855173D01*
X155781801Y-53847710D01*
X155798824Y-53847222D01*
X155837854Y-53848786D01*
X155837854Y-53848785D01*
X155837855Y-53848786D01*
X155844821Y-53847966D01*
X155859300Y-53847115D01*
X162045905Y-53846492D01*
X162045915Y-53846493D01*
X162045918Y-53846492D01*
X162048256Y-53846492D01*
X162061066Y-53846493D01*
G37*
%TD.AperFunction*%
%TD*%
M02*
