%TF.GenerationSoftware,KiCad,Pcbnew,10.0.4*%
%TF.CreationDate,2026-07-26T17:29:05+02:00*%
%TF.ProjectId,PS-microCard PCB,50532d6d-6963-4726-9f43-617264205043,rev?*%
%TF.SameCoordinates,Original*%
%TF.FileFunction,Soldermask,Top*%
%TF.FilePolarity,Negative*%
%FSLAX46Y46*%
G04 Gerber Fmt 4.6, Leading zero omitted, Abs format (unit mm)*
G04 Created by KiCad (PCBNEW 10.0.4) date 2026-07-26 17:29:05*
%MOMM*%
%LPD*%
G01*
G04 APERTURE LIST*
G04 Aperture macros list*
%AMRoundRect*
0 Rectangle with rounded corners*
0 $1 Rounding radius*
0 $2 $3 $4 $5 $6 $7 $8 $9 X,Y pos of 4 corners*
0 Add a 4 corners polygon primitive as box body*
4,1,4,$2,$3,$4,$5,$6,$7,$8,$9,$2,$3,0*
0 Add four circle primitives for the rounded corners*
1,1,$1+$1,$2,$3*
1,1,$1+$1,$4,$5*
1,1,$1+$1,$6,$7*
1,1,$1+$1,$8,$9*
0 Add four rect primitives between the rounded corners*
20,1,$1+$1,$2,$3,$4,$5,0*
20,1,$1+$1,$4,$5,$6,$7,0*
20,1,$1+$1,$6,$7,$8,$9,0*
20,1,$1+$1,$8,$9,$2,$3,0*%
%AMFreePoly0*
4,1,18,-0.437500,0.050000,-0.433694,0.069134,-0.422855,0.085355,-0.406634,0.096194,-0.387500,0.100000,0.387500,0.100000,0.437500,0.050000,0.437500,-0.050000,0.433694,-0.069134,0.422855,-0.085355,0.406634,-0.096194,0.387500,-0.100000,-0.387500,-0.100000,-0.406634,-0.096194,-0.422855,-0.085355,-0.433694,-0.069134,-0.437500,-0.050000,-0.437500,0.050000,-0.437500,0.050000,$1*%
%AMFreePoly1*
4,1,18,-0.437500,0.050000,-0.433694,0.069134,-0.422855,0.085355,-0.406634,0.096194,-0.387500,0.100000,0.387500,0.100000,0.406634,0.096194,0.422855,0.085355,0.433694,0.069134,0.437500,0.050000,0.437500,-0.050000,0.387500,-0.100000,-0.387500,-0.100000,-0.406634,-0.096194,-0.422855,-0.085355,-0.433694,-0.069134,-0.437500,-0.050000,-0.437500,0.050000,-0.437500,0.050000,$1*%
%AMFreePoly2*
4,1,18,-0.100000,0.387500,-0.050000,0.437500,0.050000,0.437500,0.069134,0.433694,0.085355,0.422855,0.096194,0.406634,0.100000,0.387500,0.100000,-0.387500,0.096194,-0.406634,0.085355,-0.422855,0.069134,-0.433694,0.050000,-0.437500,-0.050000,-0.437500,-0.069134,-0.433694,-0.085355,-0.422855,-0.096194,-0.406634,-0.100000,-0.387500,-0.100000,0.387500,-0.100000,0.387500,$1*%
%AMFreePoly3*
4,1,18,-0.100000,0.387500,-0.096194,0.406634,-0.085355,0.422855,-0.069134,0.433694,-0.050000,0.437500,0.050000,0.437500,0.100000,0.387500,0.100000,-0.387500,0.096194,-0.406634,0.085355,-0.422855,0.069134,-0.433694,0.050000,-0.437500,-0.050000,-0.437500,-0.069134,-0.433694,-0.085355,-0.422855,-0.096194,-0.406634,-0.100000,-0.387500,-0.100000,0.387500,-0.100000,0.387500,$1*%
%AMFreePoly4*
4,1,18,-0.437500,0.050000,-0.433694,0.069134,-0.422855,0.085355,-0.406634,0.096194,-0.387500,0.100000,0.387500,0.100000,0.406634,0.096194,0.422855,0.085355,0.433694,0.069134,0.437500,0.050000,0.437500,-0.050000,0.433694,-0.069134,0.422855,-0.085355,0.406634,-0.096194,0.387500,-0.100000,-0.387500,-0.100000,-0.437500,-0.050000,-0.437500,0.050000,-0.437500,0.050000,$1*%
%AMFreePoly5*
4,1,18,-0.437500,0.050000,-0.387500,0.100000,0.387500,0.100000,0.406634,0.096194,0.422855,0.085355,0.433694,0.069134,0.437500,0.050000,0.437500,-0.050000,0.433694,-0.069134,0.422855,-0.085355,0.406634,-0.096194,0.387500,-0.100000,-0.387500,-0.100000,-0.406634,-0.096194,-0.422855,-0.085355,-0.433694,-0.069134,-0.437500,-0.050000,-0.437500,0.050000,-0.437500,0.050000,$1*%
%AMFreePoly6*
4,1,18,-0.100000,0.387500,-0.096194,0.406634,-0.085355,0.422855,-0.069134,0.433694,-0.050000,0.437500,0.050000,0.437500,0.069134,0.433694,0.085355,0.422855,0.096194,0.406634,0.100000,0.387500,0.100000,-0.387500,0.050000,-0.437500,-0.050000,-0.437500,-0.069134,-0.433694,-0.085355,-0.422855,-0.096194,-0.406634,-0.100000,-0.387500,-0.100000,0.387500,-0.100000,0.387500,$1*%
%AMFreePoly7*
4,1,18,-0.100000,0.387500,-0.096194,0.406634,-0.085355,0.422855,-0.069134,0.433694,-0.050000,0.437500,0.050000,0.437500,0.069134,0.433694,0.085355,0.422855,0.096194,0.406634,0.100000,0.387500,0.100000,-0.387500,0.096194,-0.406634,0.085355,-0.422855,0.069134,-0.433694,0.050000,-0.437500,-0.050000,-0.437500,-0.100000,-0.387500,-0.100000,0.387500,-0.100000,0.387500,$1*%
G04 Aperture macros list end*
%ADD10RoundRect,0.135000X0.185000X-0.135000X0.185000X0.135000X-0.185000X0.135000X-0.185000X-0.135000X0*%
%ADD11R,1.400000X6.500000*%
%ADD12RoundRect,0.140000X0.140000X0.170000X-0.140000X0.170000X-0.140000X-0.170000X0.140000X-0.170000X0*%
%ADD13RoundRect,0.135000X-0.185000X0.135000X-0.185000X-0.135000X0.185000X-0.135000X0.185000X0.135000X0*%
%ADD14RoundRect,0.140000X0.170000X-0.140000X0.170000X0.140000X-0.170000X0.140000X-0.170000X-0.140000X0*%
%ADD15C,1.000000*%
%ADD16RoundRect,0.135000X-0.135000X-0.185000X0.135000X-0.185000X0.135000X0.185000X-0.135000X0.185000X0*%
%ADD17RoundRect,0.140000X-0.170000X0.140000X-0.170000X-0.140000X0.170000X-0.140000X0.170000X0.140000X0*%
%ADD18RoundRect,0.140000X-0.140000X-0.170000X0.140000X-0.170000X0.140000X0.170000X-0.140000X0.170000X0*%
%ADD19RoundRect,0.102000X0.275000X0.285000X-0.275000X0.285000X-0.275000X-0.285000X0.275000X-0.285000X0*%
%ADD20RoundRect,0.135000X0.135000X0.185000X-0.135000X0.185000X-0.135000X-0.185000X0.135000X-0.185000X0*%
%ADD21FreePoly0,270.000000*%
%ADD22RoundRect,0.050000X-0.050000X0.387500X-0.050000X-0.387500X0.050000X-0.387500X0.050000X0.387500X0*%
%ADD23FreePoly1,270.000000*%
%ADD24FreePoly2,270.000000*%
%ADD25RoundRect,0.050000X-0.387500X0.050000X-0.387500X-0.050000X0.387500X-0.050000X0.387500X0.050000X0*%
%ADD26FreePoly3,270.000000*%
%ADD27FreePoly4,270.000000*%
%ADD28FreePoly5,270.000000*%
%ADD29FreePoly6,270.000000*%
%ADD30FreePoly7,270.000000*%
%ADD31RoundRect,0.153000X-1.547000X-1.547000X1.547000X-1.547000X1.547000X1.547000X-1.547000X1.547000X0*%
%ADD32RoundRect,0.162500X-0.162500X0.650000X-0.162500X-0.650000X0.162500X-0.650000X0.162500X0.650000X0*%
%ADD33RoundRect,0.250000X-0.250000X-0.475000X0.250000X-0.475000X0.250000X0.475000X-0.250000X0.475000X0*%
%ADD34C,3.000000*%
%ADD35RoundRect,0.102000X-0.950000X0.700000X-0.950000X-0.700000X0.950000X-0.700000X0.950000X0.700000X0*%
%ADD36RoundRect,0.102000X-0.700000X0.600000X-0.700000X-0.600000X0.700000X-0.600000X0.700000X0.600000X0*%
%ADD37RoundRect,0.102000X-0.700000X0.650000X-0.700000X-0.650000X0.700000X-0.650000X0.700000X0.650000X0*%
%ADD38RoundRect,0.102000X-0.750000X0.400000X-0.750000X-0.400000X0.750000X-0.400000X0.750000X0.400000X0*%
%ADD39RoundRect,0.102000X-0.520000X0.500000X-0.520000X-0.500000X0.520000X-0.500000X0.520000X0.500000X0*%
%ADD40R,0.530000X0.470000*%
%ADD41RoundRect,0.146250X-0.250750X0.560750X-0.250750X-0.560750X0.250750X-0.560750X0.250750X0.560750X0*%
%ADD42R,1.400000X7.300000*%
%ADD43RoundRect,0.102000X0.650000X-0.525000X0.650000X0.525000X-0.650000X0.525000X-0.650000X-0.525000X0*%
%ADD44R,1.700000X0.700000*%
%ADD45R,1.700000X1.700000*%
%ADD46C,1.700000*%
G04 APERTURE END LIST*
D10*
%TO.C,R15*%
X155202000Y-78452500D03*
X155202000Y-77432500D03*
%TD*%
D11*
%TO.C,TP2*%
X141202000Y-57680000D03*
%TD*%
D12*
%TO.C,C7*%
X145482000Y-90180000D03*
X144522000Y-90180000D03*
%TD*%
D13*
%TO.C,R16*%
X156302000Y-77432500D03*
X156302000Y-78452500D03*
%TD*%
D14*
%TO.C,C17*%
X150100000Y-81430000D03*
X150100000Y-80470000D03*
%TD*%
D15*
%TO.C,DATA*%
X140750000Y-68225000D03*
%TD*%
D11*
%TO.C,TP3*%
X157202000Y-57680000D03*
%TD*%
D16*
%TO.C,R19*%
X162790000Y-76300000D03*
X163810000Y-76300000D03*
%TD*%
D17*
%TO.C,C14*%
X153602000Y-93690000D03*
X153602000Y-94650000D03*
%TD*%
D18*
%TO.C,C27*%
X151520000Y-64771000D03*
X152480000Y-64771000D03*
%TD*%
D19*
%TO.C,S1*%
X167175000Y-97580000D03*
X164625000Y-97580000D03*
X167175000Y-96420000D03*
X164625000Y-96420000D03*
%TD*%
D17*
%TO.C,C10*%
X154602000Y-93690000D03*
X154602000Y-94650000D03*
%TD*%
D10*
%TO.C,R5*%
X142800000Y-88310000D03*
X142800000Y-87290000D03*
%TD*%
%TO.C,R3*%
X167802000Y-76600000D03*
X167802000Y-75580000D03*
%TD*%
D20*
%TO.C,R1*%
X166402000Y-74380000D03*
X165382000Y-74380000D03*
%TD*%
D21*
%TO.C,U2*%
X154102000Y-83942500D03*
D22*
X153702000Y-83942500D03*
X153302000Y-83942500D03*
X152902000Y-83942500D03*
X152502000Y-83942500D03*
X152102000Y-83942500D03*
X151702000Y-83942500D03*
X151302000Y-83942500D03*
X150902000Y-83942500D03*
X150502000Y-83942500D03*
X150102000Y-83942500D03*
X149702000Y-83942500D03*
X149302000Y-83942500D03*
X148902000Y-83942500D03*
D23*
X148502000Y-83942500D03*
D24*
X147864500Y-84580000D03*
D25*
X147864500Y-84980000D03*
X147864500Y-85380000D03*
X147864500Y-85780000D03*
X147864500Y-86180000D03*
X147864500Y-86580000D03*
X147864500Y-86980000D03*
X147864500Y-87380000D03*
X147864500Y-87780000D03*
X147864500Y-88180000D03*
X147864500Y-88580000D03*
X147864500Y-88980000D03*
X147864500Y-89380000D03*
X147864500Y-89780000D03*
D26*
X147864500Y-90180000D03*
D27*
X148502000Y-90817500D03*
D22*
X148902000Y-90817500D03*
X149302000Y-90817500D03*
X149702000Y-90817500D03*
X150102000Y-90817500D03*
X150502000Y-90817500D03*
X150902000Y-90817500D03*
X151302000Y-90817500D03*
X151702000Y-90817500D03*
X152102000Y-90817500D03*
X152502000Y-90817500D03*
X152902000Y-90817500D03*
X153302000Y-90817500D03*
X153702000Y-90817500D03*
D28*
X154102000Y-90817500D03*
D29*
X154739500Y-90180000D03*
D25*
X154739500Y-89780000D03*
X154739500Y-89380000D03*
X154739500Y-88980000D03*
X154739500Y-88580000D03*
X154739500Y-88180000D03*
X154739500Y-87780000D03*
X154739500Y-87380000D03*
X154739500Y-86980000D03*
X154739500Y-86580000D03*
X154739500Y-86180000D03*
X154739500Y-85780000D03*
X154739500Y-85380000D03*
X154739500Y-84980000D03*
D30*
X154739500Y-84580000D03*
D31*
X151302000Y-87380000D03*
%TD*%
D32*
%TO.C,U1*%
X166407000Y-78292500D03*
X165137000Y-78292500D03*
X163867000Y-78292500D03*
X162597000Y-78292500D03*
X162597000Y-85467500D03*
X163867000Y-85467500D03*
X165137000Y-85467500D03*
X166407000Y-85467500D03*
%TD*%
D15*
%TO.C,TP13*%
X163375000Y-68650000D03*
%TD*%
D33*
%TO.C,C19*%
X151450000Y-73800000D03*
X153350000Y-73800000D03*
%TD*%
D34*
%TO.C,REF\u002A\u002A*%
X136800000Y-118450000D03*
%TD*%
D19*
%TO.C,S2*%
X167175000Y-93280000D03*
X164625000Y-93280000D03*
X167175000Y-92120000D03*
X164625000Y-92120000D03*
%TD*%
D16*
%TO.C,R11*%
X166190000Y-95000000D03*
X167210000Y-95000000D03*
%TD*%
D10*
%TO.C,R14*%
X154102000Y-78452500D03*
X154102000Y-77432500D03*
%TD*%
D16*
%TO.C,R4*%
X158192000Y-91780000D03*
X159212000Y-91780000D03*
%TD*%
D14*
%TO.C,C3*%
X137200000Y-88630000D03*
X137200000Y-87670000D03*
%TD*%
D11*
%TO.C,TP4*%
X159502000Y-57680000D03*
%TD*%
D12*
%TO.C,C15*%
X145380000Y-87700000D03*
X144420000Y-87700000D03*
%TD*%
D18*
%TO.C,C5*%
X166502000Y-87880000D03*
X167462000Y-87880000D03*
%TD*%
D13*
%TO.C,R12*%
X145902000Y-77440000D03*
X145902000Y-78460000D03*
%TD*%
D35*
%TO.C,J3*%
X135300000Y-100050000D03*
X134300000Y-113200000D03*
D36*
X148450000Y-101590000D03*
D37*
X148450000Y-107340000D03*
D38*
X137590000Y-108530000D03*
X137990000Y-107430000D03*
X137590000Y-106330000D03*
X137390000Y-105230000D03*
X137590000Y-104130000D03*
X137390000Y-103030000D03*
X137590000Y-101930000D03*
X137590000Y-100830000D03*
D39*
X148820000Y-103040000D03*
%TD*%
D34*
%TO.C,REF\u002A\u002A*%
X136900000Y-66600000D03*
%TD*%
D40*
%TO.C,C1*%
X156002000Y-88945000D03*
X156002000Y-89975000D03*
%TD*%
D15*
%TO.C,TP12*%
X158375000Y-69175000D03*
%TD*%
D17*
%TO.C,C13*%
X152302000Y-93720000D03*
X152302000Y-94680000D03*
%TD*%
D18*
%TO.C,C16*%
X158775000Y-86400000D03*
X159735000Y-86400000D03*
%TD*%
D20*
%TO.C,R2*%
X166402000Y-75680000D03*
X165382000Y-75680000D03*
%TD*%
D18*
%TO.C,C26*%
X151420000Y-71571000D03*
X152380000Y-71571000D03*
%TD*%
D11*
%TO.C,TP5*%
X161802000Y-57680000D03*
%TD*%
D41*
%TO.C,U5*%
X151450000Y-67200000D03*
X150500000Y-67200000D03*
X149550000Y-67200000D03*
X149550000Y-69710000D03*
X151450000Y-69710000D03*
%TD*%
D40*
%TO.C,C4*%
X157002000Y-88945000D03*
X157002000Y-89975000D03*
%TD*%
D14*
%TO.C,C11*%
X152100000Y-81525000D03*
X152100000Y-80565000D03*
%TD*%
D42*
%TO.C,TP8*%
X151502000Y-57480000D03*
%TD*%
D10*
%TO.C,R13*%
X147002000Y-78452500D03*
X147002000Y-77432500D03*
%TD*%
D12*
%TO.C,C9*%
X146380000Y-85900000D03*
X145420000Y-85900000D03*
%TD*%
%TO.C,C6*%
X157082000Y-91780000D03*
X156122000Y-91780000D03*
%TD*%
D11*
%TO.C,TP1*%
X138902000Y-57680000D03*
%TD*%
D18*
%TO.C,C18*%
X154170000Y-82350000D03*
X155130000Y-82350000D03*
%TD*%
D17*
%TO.C,C2*%
X142800000Y-85320000D03*
X142800000Y-86280000D03*
%TD*%
D34*
%TO.C,*%
X164300000Y-118450000D03*
%TD*%
D42*
%TO.C,TP6*%
X146902000Y-57480000D03*
%TD*%
D43*
%TO.C,Y1*%
X138750000Y-87675000D03*
X141050000Y-87675000D03*
X141050000Y-85925000D03*
X138750000Y-85925000D03*
%TD*%
D17*
%TO.C,C12*%
X151150000Y-93720000D03*
X151150000Y-94680000D03*
%TD*%
D15*
%TO.C,CMD*%
X146469830Y-65987106D03*
%TD*%
D44*
%TO.C,L1*%
X158802000Y-89080000D03*
X158802000Y-90480000D03*
%TD*%
D18*
%TO.C,C8*%
X158020000Y-87400000D03*
X158980000Y-87400000D03*
%TD*%
D15*
%TO.C,TP11*%
X155600000Y-69225000D03*
%TD*%
D42*
%TO.C,TP7*%
X149202000Y-57480000D03*
%TD*%
D45*
%TO.C,J1*%
X158380000Y-121300000D03*
D46*
X155840000Y-121300000D03*
X153300000Y-121300000D03*
X150760000Y-121300000D03*
X148220000Y-121300000D03*
X145680000Y-121300000D03*
%TD*%
M02*
