%TF.GenerationSoftware,KiCad,Pcbnew,10.0.4*%
%TF.CreationDate,2026-07-26T17:29:05+02:00*%
%TF.ProjectId,PS-microCard PCB,50532d6d-6963-4726-9f43-617264205043,rev?*%
%TF.SameCoordinates,Original*%
%TF.FileFunction,Copper,L1,Top*%
%TF.FilePolarity,Positive*%
%FSLAX46Y46*%
G04 Gerber Fmt 4.6, Leading zero omitted, Abs format (unit mm)*
G04 Created by KiCad (PCBNEW 10.0.4) date 2026-07-26 17:29:05*
%MOMM*%
%LPD*%
G01*
G04 APERTURE LIST*
G04 Aperture macros list*
%AMRoundRect*
0 Rectangle with rounded corners*
0 $1 Rounding radius*
0 $2 $3 $4 $5 $6 $7 $8 $9 X,Y pos of 4 corners*
0 Add a 4 corners polygon primitive as box body*
4,1,4,$2,$3,$4,$5,$6,$7,$8,$9,$2,$3,0*
0 Add four circle primitives for the rounded corners*
1,1,$1+$1,$2,$3*
1,1,$1+$1,$4,$5*
1,1,$1+$1,$6,$7*
1,1,$1+$1,$8,$9*
0 Add four rect primitives between the rounded corners*
20,1,$1+$1,$2,$3,$4,$5,0*
20,1,$1+$1,$4,$5,$6,$7,0*
20,1,$1+$1,$6,$7,$8,$9,0*
20,1,$1+$1,$8,$9,$2,$3,0*%
%AMFreePoly0*
4,1,18,-0.437500,0.050000,-0.433694,0.069134,-0.422855,0.085355,-0.406634,0.096194,-0.387500,0.100000,0.387500,0.100000,0.437500,0.050000,0.437500,-0.050000,0.433694,-0.069134,0.422855,-0.085355,0.406634,-0.096194,0.387500,-0.100000,-0.387500,-0.100000,-0.406634,-0.096194,-0.422855,-0.085355,-0.433694,-0.069134,-0.437500,-0.050000,-0.437500,0.050000,-0.437500,0.050000,$1*%
%AMFreePoly1*
4,1,18,-0.437500,0.050000,-0.433694,0.069134,-0.422855,0.085355,-0.406634,0.096194,-0.387500,0.100000,0.387500,0.100000,0.406634,0.096194,0.422855,0.085355,0.433694,0.069134,0.437500,0.050000,0.437500,-0.050000,0.387500,-0.100000,-0.387500,-0.100000,-0.406634,-0.096194,-0.422855,-0.085355,-0.433694,-0.069134,-0.437500,-0.050000,-0.437500,0.050000,-0.437500,0.050000,$1*%
%AMFreePoly2*
4,1,18,-0.100000,0.387500,-0.050000,0.437500,0.050000,0.437500,0.069134,0.433694,0.085355,0.422855,0.096194,0.406634,0.100000,0.387500,0.100000,-0.387500,0.096194,-0.406634,0.085355,-0.422855,0.069134,-0.433694,0.050000,-0.437500,-0.050000,-0.437500,-0.069134,-0.433694,-0.085355,-0.422855,-0.096194,-0.406634,-0.100000,-0.387500,-0.100000,0.387500,-0.100000,0.387500,$1*%
%AMFreePoly3*
4,1,18,-0.100000,0.387500,-0.096194,0.406634,-0.085355,0.422855,-0.069134,0.433694,-0.050000,0.437500,0.050000,0.437500,0.100000,0.387500,0.100000,-0.387500,0.096194,-0.406634,0.085355,-0.422855,0.069134,-0.433694,0.050000,-0.437500,-0.050000,-0.437500,-0.069134,-0.433694,-0.085355,-0.422855,-0.096194,-0.406634,-0.100000,-0.387500,-0.100000,0.387500,-0.100000,0.387500,$1*%
%AMFreePoly4*
4,1,18,-0.437500,0.050000,-0.433694,0.069134,-0.422855,0.085355,-0.406634,0.096194,-0.387500,0.100000,0.387500,0.100000,0.406634,0.096194,0.422855,0.085355,0.433694,0.069134,0.437500,0.050000,0.437500,-0.050000,0.433694,-0.069134,0.422855,-0.085355,0.406634,-0.096194,0.387500,-0.100000,-0.387500,-0.100000,-0.437500,-0.050000,-0.437500,0.050000,-0.437500,0.050000,$1*%
%AMFreePoly5*
4,1,18,-0.437500,0.050000,-0.387500,0.100000,0.387500,0.100000,0.406634,0.096194,0.422855,0.085355,0.433694,0.069134,0.437500,0.050000,0.437500,-0.050000,0.433694,-0.069134,0.422855,-0.085355,0.406634,-0.096194,0.387500,-0.100000,-0.387500,-0.100000,-0.406634,-0.096194,-0.422855,-0.085355,-0.433694,-0.069134,-0.437500,-0.050000,-0.437500,0.050000,-0.437500,0.050000,$1*%
%AMFreePoly6*
4,1,18,-0.100000,0.387500,-0.096194,0.406634,-0.085355,0.422855,-0.069134,0.433694,-0.050000,0.437500,0.050000,0.437500,0.069134,0.433694,0.085355,0.422855,0.096194,0.406634,0.100000,0.387500,0.100000,-0.387500,0.050000,-0.437500,-0.050000,-0.437500,-0.069134,-0.433694,-0.085355,-0.422855,-0.096194,-0.406634,-0.100000,-0.387500,-0.100000,0.387500,-0.100000,0.387500,$1*%
%AMFreePoly7*
4,1,18,-0.100000,0.387500,-0.096194,0.406634,-0.085355,0.422855,-0.069134,0.433694,-0.050000,0.437500,0.050000,0.437500,0.069134,0.433694,0.085355,0.422855,0.096194,0.406634,0.100000,0.387500,0.100000,-0.387500,0.096194,-0.406634,0.085355,-0.422855,0.069134,-0.433694,0.050000,-0.437500,-0.050000,-0.437500,-0.100000,-0.387500,-0.100000,0.387500,-0.100000,0.387500,$1*%
G04 Aperture macros list end*
%TA.AperFunction,SMDPad,CuDef*%
%ADD10RoundRect,0.135000X0.185000X-0.135000X0.185000X0.135000X-0.185000X0.135000X-0.185000X-0.135000X0*%
%TD*%
%TA.AperFunction,ConnectorPad*%
%ADD11R,1.400000X6.500000*%
%TD*%
%TA.AperFunction,SMDPad,CuDef*%
%ADD12RoundRect,0.140000X0.140000X0.170000X-0.140000X0.170000X-0.140000X-0.170000X0.140000X-0.170000X0*%
%TD*%
%TA.AperFunction,SMDPad,CuDef*%
%ADD13RoundRect,0.135000X-0.185000X0.135000X-0.185000X-0.135000X0.185000X-0.135000X0.185000X0.135000X0*%
%TD*%
%TA.AperFunction,SMDPad,CuDef*%
%ADD14RoundRect,0.140000X0.170000X-0.140000X0.170000X0.140000X-0.170000X0.140000X-0.170000X-0.140000X0*%
%TD*%
%TA.AperFunction,SMDPad,CuDef*%
%ADD15C,1.000000*%
%TD*%
%TA.AperFunction,SMDPad,CuDef*%
%ADD16RoundRect,0.135000X-0.135000X-0.185000X0.135000X-0.185000X0.135000X0.185000X-0.135000X0.185000X0*%
%TD*%
%TA.AperFunction,SMDPad,CuDef*%
%ADD17RoundRect,0.140000X-0.170000X0.140000X-0.170000X-0.140000X0.170000X-0.140000X0.170000X0.140000X0*%
%TD*%
%TA.AperFunction,SMDPad,CuDef*%
%ADD18RoundRect,0.140000X-0.140000X-0.170000X0.140000X-0.170000X0.140000X0.170000X-0.140000X0.170000X0*%
%TD*%
%TA.AperFunction,SMDPad,CuDef*%
%ADD19R,0.550000X0.570000*%
%TD*%
%TA.AperFunction,SMDPad,CuDef*%
%ADD20RoundRect,0.135000X0.135000X0.185000X-0.135000X0.185000X-0.135000X-0.185000X0.135000X-0.185000X0*%
%TD*%
%TA.AperFunction,SMDPad,CuDef*%
%ADD21FreePoly0,270.000000*%
%TD*%
%TA.AperFunction,SMDPad,CuDef*%
%ADD22RoundRect,0.050000X-0.050000X0.387500X-0.050000X-0.387500X0.050000X-0.387500X0.050000X0.387500X0*%
%TD*%
%TA.AperFunction,SMDPad,CuDef*%
%ADD23FreePoly1,270.000000*%
%TD*%
%TA.AperFunction,SMDPad,CuDef*%
%ADD24FreePoly2,270.000000*%
%TD*%
%TA.AperFunction,SMDPad,CuDef*%
%ADD25RoundRect,0.050000X-0.387500X0.050000X-0.387500X-0.050000X0.387500X-0.050000X0.387500X0.050000X0*%
%TD*%
%TA.AperFunction,SMDPad,CuDef*%
%ADD26FreePoly3,270.000000*%
%TD*%
%TA.AperFunction,SMDPad,CuDef*%
%ADD27FreePoly4,270.000000*%
%TD*%
%TA.AperFunction,SMDPad,CuDef*%
%ADD28FreePoly5,270.000000*%
%TD*%
%TA.AperFunction,SMDPad,CuDef*%
%ADD29FreePoly6,270.000000*%
%TD*%
%TA.AperFunction,SMDPad,CuDef*%
%ADD30FreePoly7,270.000000*%
%TD*%
%TA.AperFunction,ComponentPad*%
%ADD31C,0.600000*%
%TD*%
%TA.AperFunction,SMDPad,CuDef*%
%ADD32RoundRect,0.153000X-1.547000X-1.547000X1.547000X-1.547000X1.547000X1.547000X-1.547000X1.547000X0*%
%TD*%
%TA.AperFunction,SMDPad,CuDef*%
%ADD33RoundRect,0.162500X-0.162500X0.650000X-0.162500X-0.650000X0.162500X-0.650000X0.162500X0.650000X0*%
%TD*%
%TA.AperFunction,SMDPad,CuDef*%
%ADD34RoundRect,0.250000X-0.250000X-0.475000X0.250000X-0.475000X0.250000X0.475000X-0.250000X0.475000X0*%
%TD*%
%TA.AperFunction,SMDPad,CuDef*%
%ADD35R,1.900000X1.400000*%
%TD*%
%TA.AperFunction,SMDPad,CuDef*%
%ADD36R,1.400000X1.200000*%
%TD*%
%TA.AperFunction,SMDPad,CuDef*%
%ADD37R,1.400000X1.300000*%
%TD*%
%TA.AperFunction,SMDPad,CuDef*%
%ADD38R,1.500000X0.800000*%
%TD*%
%TA.AperFunction,SMDPad,CuDef*%
%ADD39R,1.040000X1.000000*%
%TD*%
%TA.AperFunction,SMDPad,CuDef*%
%ADD40R,0.530000X0.470000*%
%TD*%
%TA.AperFunction,SMDPad,CuDef*%
%ADD41RoundRect,0.044250X-0.250750X0.560750X-0.250750X-0.560750X0.250750X-0.560750X0.250750X0.560750X0*%
%TD*%
%TA.AperFunction,ConnectorPad*%
%ADD42R,1.400000X7.300000*%
%TD*%
%TA.AperFunction,SMDPad,CuDef*%
%ADD43R,1.300000X1.050000*%
%TD*%
%TA.AperFunction,SMDPad,CuDef*%
%ADD44R,1.700000X0.700000*%
%TD*%
%TA.AperFunction,ComponentPad*%
%ADD45R,1.700000X1.700000*%
%TD*%
%TA.AperFunction,ComponentPad*%
%ADD46C,1.700000*%
%TD*%
%TA.AperFunction,ViaPad*%
%ADD47C,0.500000*%
%TD*%
%TA.AperFunction,Conductor*%
%ADD48C,0.200000*%
%TD*%
%TA.AperFunction,Conductor*%
%ADD49C,0.250000*%
%TD*%
%TA.AperFunction,Conductor*%
%ADD50C,0.300000*%
%TD*%
%TA.AperFunction,Conductor*%
%ADD51C,0.500000*%
%TD*%
G04 APERTURE END LIST*
D10*
%TO.P,R15,1*%
%TO.N,/PS1_SCK*%
X155202000Y-78452500D03*
%TO.P,R15,2*%
%TO.N,/PS1_SCK_DBG*%
X155202000Y-77432500D03*
%TD*%
D11*
%TO.P,TP2,1,1_1*%
%TO.N,/PS1_CMD_DBG*%
X141202000Y-57680000D03*
%TD*%
D12*
%TO.P,C7,1*%
%TO.N,+3V3*%
X145482000Y-90180000D03*
%TO.P,C7,2*%
%TO.N,GND*%
X144522000Y-90180000D03*
%TD*%
D13*
%TO.P,R16,1*%
%TO.N,/PS1_ACK_DBG*%
X156302000Y-77432500D03*
%TO.P,R16,2*%
%TO.N,/PS1_ACK*%
X156302000Y-78452500D03*
%TD*%
D14*
%TO.P,C17,1*%
%TO.N,+3V3*%
X150100000Y-81430000D03*
%TO.P,C17,2*%
%TO.N,GND*%
X150100000Y-80470000D03*
%TD*%
D15*
%TO.P,DATA,1,1_1*%
%TO.N,/PS1_DATA_DBG*%
X140750000Y-68225000D03*
%TD*%
D11*
%TO.P,TP3,1,1_1*%
%TO.N,/PS1_CS_DBG*%
X157202000Y-57680000D03*
%TD*%
D16*
%TO.P,R19,1*%
%TO.N,/QSPI_SS*%
X162790000Y-76300000D03*
%TO.P,R19,2*%
%TO.N,/USB_BOOT*%
X163810000Y-76300000D03*
%TD*%
D17*
%TO.P,C14,1*%
%TO.N,+3V3*%
X153602000Y-93690000D03*
%TO.P,C14,2*%
%TO.N,GND*%
X153602000Y-94650000D03*
%TD*%
D18*
%TO.P,C27,1*%
%TO.N,/PS1_3V5*%
X151520000Y-64771000D03*
%TO.P,C27,2*%
%TO.N,GND*%
X152480000Y-64771000D03*
%TD*%
D19*
%TO.P,S1,1*%
%TO.N,/RUN*%
X167175000Y-97580000D03*
%TO.P,S1,2*%
X164625000Y-97580000D03*
%TO.P,S1,3*%
%TO.N,Net-(R11-Pad2)*%
X167175000Y-96420000D03*
%TO.P,S1,4*%
X164625000Y-96420000D03*
%TD*%
D17*
%TO.P,C10,1*%
%TO.N,+3V3*%
X154602000Y-93690000D03*
%TO.P,C10,2*%
%TO.N,GND*%
X154602000Y-94650000D03*
%TD*%
D10*
%TO.P,R5,1*%
%TO.N,Net-(C3-Pad2)*%
X142800000Y-88310000D03*
%TO.P,R5,2*%
%TO.N,/XOUT*%
X142800000Y-87290000D03*
%TD*%
%TO.P,R3,1*%
%TO.N,+3V3*%
X167802000Y-76600000D03*
%TO.P,R3,2*%
%TO.N,/FLASH_SS*%
X167802000Y-75580000D03*
%TD*%
D20*
%TO.P,R1,1*%
%TO.N,/FLASH_SS*%
X166402000Y-74380000D03*
%TO.P,R1,2*%
%TO.N,/GPIO0*%
X165382000Y-74380000D03*
%TD*%
D21*
%TO.P,U2,1,IOVDD_1*%
%TO.N,+3V3*%
X154102000Y-83942500D03*
D22*
%TO.P,U2,2,GPIO0_2*%
%TO.N,/GPIO0*%
X153702000Y-83942500D03*
%TO.P,U2,3,GPIO1_3*%
%TO.N,unconnected-(U2-GPIO1-Pad3)*%
X153302000Y-83942500D03*
%TO.P,U2,4,GPIO2_4*%
%TO.N,/PS1_ACK*%
X152902000Y-83942500D03*
%TO.P,U2,5,GPIO3_5*%
%TO.N,/PS1_SCK*%
X152502000Y-83942500D03*
%TO.P,U2,6,DVDD_6*%
%TO.N,+1V1*%
X152102000Y-83942500D03*
%TO.P,U2,7,GPIO4_7*%
%TO.N,/PS1_CS*%
X151702000Y-83942500D03*
%TO.P,U2,8,GPIO5_8*%
%TO.N,/PS1_CMD*%
X151302000Y-83942500D03*
%TO.P,U2,9,GPIO6_9*%
%TO.N,/PS1_DATA*%
X150902000Y-83942500D03*
%TO.P,U2,10,GPIO7_10*%
%TO.N,unconnected-(U2-GPIO7-Pad10)*%
X150502000Y-83942500D03*
%TO.P,U2,11,IOVDD_11*%
%TO.N,+3V3*%
X150102000Y-83942500D03*
%TO.P,U2,12,GPIO8_12*%
%TO.N,/Left Button*%
X149702000Y-83942500D03*
%TO.P,U2,13,GPIO9_13*%
%TO.N,/Right Button*%
X149302000Y-83942500D03*
%TO.P,U2,14,GPIO10_14*%
%TO.N,/OLED_SCK*%
X148902000Y-83942500D03*
D23*
%TO.P,U2,15,GPIO11_15*%
%TO.N,/OLED_MOSI*%
X148502000Y-83942500D03*
D24*
%TO.P,U2,16,GPIO12_16*%
%TO.N,/OLED_D{slash}C*%
X147864500Y-84580000D03*
D25*
%TO.P,U2,17,GPIO13_17*%
%TO.N,/OLED_CS*%
X147864500Y-84980000D03*
%TO.P,U2,18,GPIO14_18*%
%TO.N,unconnected-(U2-GPIO14-Pad18)*%
X147864500Y-85380000D03*
%TO.P,U2,19,GPIO15_19*%
%TO.N,unconnected-(U2-GPIO15-Pad19)*%
X147864500Y-85780000D03*
%TO.P,U2,20,IOVDD_20*%
%TO.N,+3V3*%
X147864500Y-86180000D03*
%TO.P,U2,21,XIN_21*%
%TO.N,/XIN*%
X147864500Y-86580000D03*
%TO.P,U2,22,XOUT_22*%
%TO.N,/XOUT*%
X147864500Y-86980000D03*
%TO.P,U2,23,DVDD_23*%
%TO.N,+1V1*%
X147864500Y-87380000D03*
%TO.P,U2,24,SWCLK_24*%
%TO.N,/SWCLK*%
X147864500Y-87780000D03*
%TO.P,U2,25,SWD_25*%
%TO.N,/SWD*%
X147864500Y-88180000D03*
%TO.P,U2,26,RUN_26*%
%TO.N,/RUN*%
X147864500Y-88580000D03*
%TO.P,U2,27,GPIO16_27*%
%TO.N,unconnected-(U2-GPIO16-Pad27)*%
X147864500Y-88980000D03*
%TO.P,U2,28,GPIO17_28*%
%TO.N,unconnected-(U2-GPIO17-Pad28)*%
X147864500Y-89380000D03*
%TO.P,U2,29,GPIO18_29*%
%TO.N,unconnected-(U2-GPIO18-Pad29)*%
X147864500Y-89780000D03*
D26*
%TO.P,U2,30,IOVDD_30*%
%TO.N,+3V3*%
X147864500Y-90180000D03*
D27*
%TO.P,U2,31,GPIO19_31*%
%TO.N,unconnected-(U2-GPIO19-Pad31)*%
X148502000Y-90817500D03*
D22*
%TO.P,U2,32,GPIO20_32*%
%TO.N,/SD_MISO*%
X148902000Y-90817500D03*
%TO.P,U2,33,GPIO21_33*%
%TO.N,/SD_CS*%
X149302000Y-90817500D03*
%TO.P,U2,34,GPIO22_34*%
%TO.N,/SD_SCK*%
X149702000Y-90817500D03*
%TO.P,U2,35,GPIO23_35*%
%TO.N,/SD_MOSI*%
X150102000Y-90817500D03*
%TO.P,U2,36,GPIO24_36*%
%TO.N,/SD_DETECT*%
X150502000Y-90817500D03*
%TO.P,U2,37,GPIO25_37*%
%TO.N,unconnected-(U2-GPIO25-Pad37)*%
X150902000Y-90817500D03*
%TO.P,U2,38,IOVDD_38*%
%TO.N,+3V3*%
X151302000Y-90817500D03*
%TO.P,U2,39,DVDD_39*%
%TO.N,+1V1*%
X151702000Y-90817500D03*
%TO.P,U2,40,GPIO26_ADC0_40*%
%TO.N,unconnected-(U2-GPIO26_ADC0-Pad40)*%
X152102000Y-90817500D03*
%TO.P,U2,41,GPIO27_ADC1_41*%
%TO.N,unconnected-(U2-GPIO27_ADC1-Pad41)*%
X152502000Y-90817500D03*
%TO.P,U2,42,GPIO28_ADC2_42*%
%TO.N,unconnected-(U2-GPIO28_ADC2-Pad42)*%
X152902000Y-90817500D03*
%TO.P,U2,43,GPIO29_ADC3_43*%
%TO.N,unconnected-(U2-GPIO29_ADC3-Pad43)*%
X153302000Y-90817500D03*
%TO.P,U2,44,ADC_AVDD_44*%
%TO.N,+3V3*%
X153702000Y-90817500D03*
D28*
%TO.P,U2,45,IOVDD_45*%
X154102000Y-90817500D03*
D29*
%TO.P,U2,46,VREG_AVDD_46*%
%TO.N,/VREG_AVDD*%
X154739500Y-90180000D03*
D25*
%TO.P,U2,47,VREG_PGND_47*%
%TO.N,GND*%
X154739500Y-89780000D03*
%TO.P,U2,48,VREG_LX_48*%
%TO.N,/VREG_LX*%
X154739500Y-89380000D03*
%TO.P,U2,49,VREG_VIN_49*%
%TO.N,+3V3*%
X154739500Y-88980000D03*
%TO.P,U2,50,VREG_FB_50*%
%TO.N,+1V1*%
X154739500Y-88580000D03*
%TO.P,U2,51,USB_DM_51*%
%TO.N,unconnected-(U2-USB_DM-Pad51)*%
X154739500Y-88180000D03*
%TO.P,U2,52,USB_DP_52*%
%TO.N,unconnected-(U2-USB_DP-Pad52)*%
X154739500Y-87780000D03*
%TO.P,U2,53,USB_OTP_VDD_53*%
%TO.N,+3V3*%
X154739500Y-87380000D03*
%TO.P,U2,54,QSPI_IOVDD_54*%
X154739500Y-86980000D03*
%TO.P,U2,55,QSPI_SD3_55*%
%TO.N,/QSPI_SD3*%
X154739500Y-86580000D03*
%TO.P,U2,56,QSPI_SCLK_56*%
%TO.N,/QSPI_SCLK*%
X154739500Y-86180000D03*
%TO.P,U2,57,QSPI_SD0_57*%
%TO.N,/QSPI_SD0*%
X154739500Y-85780000D03*
%TO.P,U2,58,QSPI_SD2_58*%
%TO.N,/QSPI_SD2*%
X154739500Y-85380000D03*
%TO.P,U2,59,QSPI_SD1_59*%
%TO.N,/QSPI_SD1*%
X154739500Y-84980000D03*
D30*
%TO.P,U2,60,QSPI_SS_60*%
%TO.N,/QSPI_SS*%
X154739500Y-84580000D03*
D31*
%TO.P,U2,61,GND_61*%
%TO.N,GND*%
X152677000Y-86005000D03*
X151302000Y-86005000D03*
X149927000Y-86005000D03*
X152677000Y-87380000D03*
X151302000Y-87380000D03*
D32*
X151302000Y-87380000D03*
D31*
X149927000Y-87380000D03*
X152677000Y-88755000D03*
X151302000Y-88755000D03*
X149927000Y-88755000D03*
%TD*%
D33*
%TO.P,U1,1,~{CS}_1*%
%TO.N,/FLASH_SS*%
X166407000Y-78292500D03*
%TO.P,U1,2,DO/IO_{1}_2*%
%TO.N,/QSPI_SD1*%
X165137000Y-78292500D03*
%TO.P,U1,3,~{WP}/IO_{2}_3*%
%TO.N,/QSPI_SD2*%
X163867000Y-78292500D03*
%TO.P,U1,4,GND_4*%
%TO.N,GND*%
X162597000Y-78292500D03*
%TO.P,U1,5,DI/IO_{0}_5*%
%TO.N,/QSPI_SD0*%
X162597000Y-85467500D03*
%TO.P,U1,6,CLK_6*%
%TO.N,/QSPI_SCLK*%
X163867000Y-85467500D03*
%TO.P,U1,7,~{HOLD}/~{RESET}/IO_{3}_7*%
%TO.N,/QSPI_SD3*%
X165137000Y-85467500D03*
%TO.P,U1,8,VCC_8*%
%TO.N,+3V3*%
X166407000Y-85467500D03*
%TD*%
D15*
%TO.P,TP13,1,1_1*%
%TO.N,/PS1_ACK_DBG*%
X163375000Y-68650000D03*
%TD*%
D34*
%TO.P,C19,1*%
%TO.N,+3V3*%
X151450000Y-73800000D03*
%TO.P,C19,2*%
%TO.N,GND*%
X153350000Y-73800000D03*
%TD*%
D15*
%TO.P,REF\u002A\u002A,*%
%TO.N,*%
X136800000Y-118450000D03*
%TD*%
D19*
%TO.P,S2,1*%
%TO.N,GND*%
X167175000Y-93280000D03*
%TO.P,S2,2*%
X164625000Y-93280000D03*
%TO.P,S2,3*%
%TO.N,/USB_BOOT*%
X167175000Y-92120000D03*
%TO.P,S2,4*%
X164625000Y-92120000D03*
%TD*%
D16*
%TO.P,R11,1*%
%TO.N,GND*%
X166190000Y-95000000D03*
%TO.P,R11,2*%
%TO.N,Net-(R11-Pad2)*%
X167210000Y-95000000D03*
%TD*%
D10*
%TO.P,R14,1*%
%TO.N,/PS1_CS*%
X154102000Y-78452500D03*
%TO.P,R14,2*%
%TO.N,/PS1_CS_DBG*%
X154102000Y-77432500D03*
%TD*%
D16*
%TO.P,R4,1*%
%TO.N,/VREG_AVDD*%
X158192000Y-91780000D03*
%TO.P,R4,2*%
%TO.N,+3V3*%
X159212000Y-91780000D03*
%TD*%
D14*
%TO.P,C3,1*%
%TO.N,GND*%
X137200000Y-88630000D03*
%TO.P,C3,2*%
%TO.N,Net-(C3-Pad2)*%
X137200000Y-87670000D03*
%TD*%
D11*
%TO.P,TP4,1,1_1*%
%TO.N,/PS1_SCK_DBG*%
X159502000Y-57680000D03*
%TD*%
D12*
%TO.P,C15,1*%
%TO.N,+1V1*%
X145380000Y-87700000D03*
%TO.P,C15,2*%
%TO.N,GND*%
X144420000Y-87700000D03*
%TD*%
D18*
%TO.P,C5,1*%
%TO.N,+3V3*%
X166502000Y-87880000D03*
%TO.P,C5,2*%
%TO.N,GND*%
X167462000Y-87880000D03*
%TD*%
D13*
%TO.P,R12,1*%
%TO.N,/PS1_DATA_DBG*%
X145902000Y-77440000D03*
%TO.P,R12,2*%
%TO.N,/PS1_DATA*%
X145902000Y-78460000D03*
%TD*%
D35*
%TO.P,J3,G1,SHIELD_GND_G1*%
%TO.N,GND*%
X135300000Y-100050000D03*
%TO.P,J3,G2,SHIELD_GND_G2*%
X134300000Y-113200000D03*
D36*
%TO.P,J3,G3,SHIELD_GND_G3*%
X148450000Y-101590000D03*
D37*
%TO.P,J3,G4,SHIELD_GND_G4*%
X148450000Y-107340000D03*
D38*
%TO.P,J3,P1,DAT2_P1*%
%TO.N,unconnected-(J3-DAT2-PadP1)*%
X137590000Y-108530000D03*
%TO.P,J3,P2,CD/DAT3_P2*%
%TO.N,/SD_CS*%
X137990000Y-107430000D03*
%TO.P,J3,P3,CMD_P3*%
%TO.N,/SD_MOSI*%
X137590000Y-106330000D03*
%TO.P,J3,P4,VDD_P4*%
%TO.N,+3V3*%
X137390000Y-105230000D03*
%TO.P,J3,P5,CLK_P5*%
%TO.N,/SD_SCK*%
X137590000Y-104130000D03*
%TO.P,J3,P6,VSS_P6*%
%TO.N,GND*%
X137390000Y-103030000D03*
%TO.P,J3,P7,DAT0_P7*%
%TO.N,/SD_MISO*%
X137590000Y-101930000D03*
%TO.P,J3,P8,DAT1_P8*%
%TO.N,unconnected-(J3-DAT1-PadP8)*%
X137590000Y-100830000D03*
D39*
%TO.P,J3,P9,CD_PIN_P9*%
%TO.N,/SD_DETECT*%
X148820000Y-103040000D03*
%TD*%
D15*
%TO.P,REF\u002A\u002A,*%
%TO.N,*%
X136900000Y-66600000D03*
%TD*%
D40*
%TO.P,C1,1*%
%TO.N,+3V3*%
X156002000Y-88945000D03*
%TO.P,C1,2*%
%TO.N,GND*%
X156002000Y-89975000D03*
%TD*%
D15*
%TO.P,TP12,1,1_1*%
%TO.N,/PS1_SCK_DBG*%
X158375000Y-69175000D03*
%TD*%
D17*
%TO.P,C13,1*%
%TO.N,+1V1*%
X152302000Y-93720000D03*
%TO.P,C13,2*%
%TO.N,GND*%
X152302000Y-94680000D03*
%TD*%
D18*
%TO.P,C16,1*%
%TO.N,+3V3*%
X158775000Y-86400000D03*
%TO.P,C16,2*%
%TO.N,GND*%
X159735000Y-86400000D03*
%TD*%
D20*
%TO.P,R2,1*%
%TO.N,/FLASH_SS*%
X166402000Y-75680000D03*
%TO.P,R2,2*%
%TO.N,/QSPI_SS*%
X165382000Y-75680000D03*
%TD*%
D18*
%TO.P,C26,1*%
%TO.N,+3V3*%
X151420000Y-71571000D03*
%TO.P,C26,2*%
%TO.N,GND*%
X152380000Y-71571000D03*
%TD*%
D11*
%TO.P,TP5,1,1_1*%
%TO.N,/PS1_ACK_DBG*%
X161802000Y-57680000D03*
%TD*%
D41*
%TO.P,U5,1,IN_1*%
%TO.N,/PS1_3V5*%
X151450000Y-67200000D03*
%TO.P,U5,2,GND_2*%
%TO.N,GND*%
X150500000Y-67200000D03*
%TO.P,U5,3,EN_3*%
%TO.N,/PS1_3V5*%
X149550000Y-67200000D03*
%TO.P,U5,4,N/C_4*%
%TO.N,unconnected-(U5-N{slash}C-Pad4)*%
X149550000Y-69710000D03*
%TO.P,U5,5,OUT_5*%
%TO.N,+3V3*%
X151450000Y-69710000D03*
%TD*%
D40*
%TO.P,C4,1*%
%TO.N,+1V1*%
X157002000Y-88945000D03*
%TO.P,C4,2*%
%TO.N,GND*%
X157002000Y-89975000D03*
%TD*%
D14*
%TO.P,C11,1*%
%TO.N,+1V1*%
X152100000Y-81525000D03*
%TO.P,C11,2*%
%TO.N,GND*%
X152100000Y-80565000D03*
%TD*%
D42*
%TO.P,TP8,1,1_1*%
%TO.N,/PS1_3V5*%
X151502000Y-57480000D03*
%TD*%
D10*
%TO.P,R13,1*%
%TO.N,/PS1_CMD*%
X147002000Y-78452500D03*
%TO.P,R13,2*%
%TO.N,/PS1_CMD_DBG*%
X147002000Y-77432500D03*
%TD*%
D12*
%TO.P,C9,1*%
%TO.N,+3V3*%
X146380000Y-85900000D03*
%TO.P,C9,2*%
%TO.N,GND*%
X145420000Y-85900000D03*
%TD*%
%TO.P,C6,1*%
%TO.N,/VREG_AVDD*%
X157082000Y-91780000D03*
%TO.P,C6,2*%
%TO.N,GND*%
X156122000Y-91780000D03*
%TD*%
D11*
%TO.P,TP1,1,1_1*%
%TO.N,/PS1_DATA_DBG*%
X138902000Y-57680000D03*
%TD*%
D18*
%TO.P,C18,1*%
%TO.N,+3V3*%
X154170000Y-82350000D03*
%TO.P,C18,2*%
%TO.N,GND*%
X155130000Y-82350000D03*
%TD*%
D17*
%TO.P,C2,1*%
%TO.N,GND*%
X142800000Y-85320000D03*
%TO.P,C2,2*%
%TO.N,/XIN*%
X142800000Y-86280000D03*
%TD*%
D15*
%TO.P,,*%
%TO.N,*%
X164300000Y-118450000D03*
%TD*%
D42*
%TO.P,TP6,1,1_1*%
%TO.N,unconnected-(TP6-Pad1)*%
X146902000Y-57480000D03*
%TD*%
D43*
%TO.P,Y1,1*%
%TO.N,Net-(C3-Pad2)*%
X138750000Y-87675000D03*
%TO.P,Y1,2,GND_2*%
%TO.N,GND*%
X141050000Y-87675000D03*
%TO.P,Y1,3*%
%TO.N,/XIN*%
X141050000Y-85925000D03*
%TO.P,Y1,4,GND_4*%
%TO.N,GND*%
X138750000Y-85925000D03*
%TD*%
D17*
%TO.P,C12,1*%
%TO.N,+3V3*%
X151150000Y-93720000D03*
%TO.P,C12,2*%
%TO.N,GND*%
X151150000Y-94680000D03*
%TD*%
D15*
%TO.P,CMD,1,1_1*%
%TO.N,/PS1_CMD_DBG*%
X146469830Y-65987106D03*
%TD*%
D44*
%TO.P,L1,1,1_1*%
%TO.N,+1V1*%
X158802000Y-89080000D03*
%TO.P,L1,2,2_2*%
%TO.N,/VREG_LX*%
X158802000Y-90480000D03*
%TD*%
D18*
%TO.P,C8,1*%
%TO.N,+3V3*%
X158020000Y-87400000D03*
%TO.P,C8,2*%
%TO.N,GND*%
X158980000Y-87400000D03*
%TD*%
D15*
%TO.P,TP11,1,1_1*%
%TO.N,/PS1_CS_DBG*%
X155600000Y-69225000D03*
%TD*%
D42*
%TO.P,TP7,1,1_1*%
%TO.N,GND*%
X149202000Y-57480000D03*
%TD*%
D45*
%TO.P,J1,1,Pin_1_1*%
%TO.N,+3V3*%
X158380000Y-121300000D03*
D46*
%TO.P,J1,2,Pin_2_2*%
%TO.N,GND*%
X155840000Y-121300000D03*
%TO.P,J1,3,Pin_3_3*%
%TO.N,/OLED_SCK*%
X153300000Y-121300000D03*
%TO.P,J1,4,Pin_4_4*%
%TO.N,/OLED_MOSI*%
X150760000Y-121300000D03*
%TO.P,J1,5,Pin_5_5*%
%TO.N,/OLED_D{slash}C*%
X148220000Y-121300000D03*
%TO.P,J1,6,Pin_6_6*%
%TO.N,/OLED_CS*%
X145680000Y-121300000D03*
%TD*%
D47*
%TO.N,+3V3*%
X140250000Y-105250000D03*
X145500000Y-91100000D03*
X150100000Y-76025000D03*
X154600000Y-92850000D03*
X150850000Y-76025000D03*
X148850000Y-84900000D03*
X153750000Y-89800000D03*
X151600000Y-76025000D03*
X151150000Y-92900000D03*
X158380000Y-118820000D03*
X149350000Y-76025000D03*
X165670000Y-87880000D03*
X152500000Y-103350000D03*
X154200000Y-81350000D03*
X153600000Y-92850000D03*
X160050000Y-91750000D03*
%TO.N,GND*%
X155370000Y-91780000D03*
X148300000Y-62650000D03*
X160300000Y-86400000D03*
X161300000Y-103300000D03*
X143650000Y-90200000D03*
X166250000Y-99150000D03*
X137200000Y-89450000D03*
X149625000Y-79725000D03*
X135550000Y-115000000D03*
X135050000Y-101800000D03*
X154650000Y-73800000D03*
X142800000Y-84500000D03*
X154600000Y-95400000D03*
X152302000Y-95425000D03*
X156150000Y-90600000D03*
X152550000Y-107700000D03*
X143650000Y-87700000D03*
X165322000Y-95000000D03*
X135950000Y-98100000D03*
X146850000Y-107350000D03*
X139100000Y-103050000D03*
X155900000Y-118800000D03*
X149850000Y-101600000D03*
X147400000Y-62650000D03*
X153400000Y-64760000D03*
X150500000Y-68400000D03*
X153321000Y-71571000D03*
X159775981Y-87400000D03*
X138752930Y-84673577D03*
X153602000Y-95395000D03*
X160975000Y-78600000D03*
X167462000Y-88750000D03*
X144350000Y-85550000D03*
X163690532Y-93279209D03*
X156900000Y-90600000D03*
X146500000Y-62650000D03*
X151150000Y-95450000D03*
X152525000Y-79825000D03*
X149200000Y-62650000D03*
X143150000Y-116900000D03*
X155950000Y-82350000D03*
%TO.N,/RUN*%
X161500000Y-97600000D03*
X146650000Y-89600000D03*
%TO.N,+1V1*%
X153452000Y-88550000D03*
X152050000Y-85230000D03*
X157200000Y-88150000D03*
X151850000Y-89530000D03*
X149150000Y-87400000D03*
X146200000Y-87700000D03*
X156600000Y-88150000D03*
X152100000Y-82315000D03*
X152300000Y-92800000D03*
%TO.N,/Left Button*%
X148601409Y-81298591D03*
%TO.N,/Right Button*%
X147200000Y-80675000D03*
%TO.N,/SWCLK*%
X145200000Y-88750000D03*
%TO.N,/SWD*%
X145875000Y-89300000D03*
%TO.N,/SD_CS*%
X139500000Y-107400000D03*
%TO.N,/SD_SCK*%
X140450000Y-103450000D03*
X145100000Y-101650000D03*
%TO.N,/SD_MOSI*%
X146100000Y-101900000D03*
X141175000Y-104225000D03*
%TO.N,/SD_DETECT*%
X149750000Y-103050000D03*
%TD*%
%TO.N,/PS1_SCK*%
D48*
X152800000Y-80854500D02*
X152800000Y-82800000D01*
X152800000Y-82800000D02*
X152502000Y-83098000D01*
X152502000Y-83098000D02*
X152502000Y-83942500D01*
X155202000Y-78452500D02*
X152800000Y-80854500D01*
%TO.N,/PS1_SCK_DBG*%
D49*
X158375000Y-69175000D02*
X158375000Y-67977000D01*
X159502000Y-57680000D02*
X159502000Y-66850000D01*
X159502000Y-70426858D02*
X155202000Y-74726858D01*
X155202000Y-74726858D02*
X155202000Y-77432500D01*
X158375000Y-67977000D02*
X159502000Y-66850000D01*
X159502000Y-66850000D02*
X159502000Y-70426858D01*
%TO.N,/PS1_CMD_DBG*%
X142257843Y-64242157D02*
X147002000Y-68986314D01*
X144724881Y-64242157D02*
X146469830Y-65987106D01*
X141202000Y-57680000D02*
X141202000Y-63186314D01*
X142257843Y-64242157D02*
X144724881Y-64242157D01*
X147002000Y-68986314D02*
X147002000Y-77432500D01*
X142257843Y-64242157D02*
X141202000Y-63186314D01*
%TO.N,+3V3*%
D48*
X153602000Y-93690000D02*
X153602000Y-92852000D01*
X154739500Y-86980000D02*
X157685000Y-86980000D01*
X151150000Y-93720000D02*
X151150000Y-92900000D01*
D50*
X166407000Y-85467500D02*
X166407000Y-80493000D01*
D48*
X154739500Y-86980000D02*
X153981525Y-86980000D01*
X150102000Y-83942500D02*
X150102000Y-84698000D01*
X155967000Y-88980000D02*
X154739500Y-88980000D01*
D50*
X166407000Y-80493000D02*
X167802000Y-79098000D01*
D48*
X151302000Y-92748000D02*
X151302000Y-90817500D01*
X154200000Y-81350000D02*
X154200000Y-82320000D01*
X157685000Y-86980000D02*
X158265000Y-86400000D01*
X147864500Y-86180000D02*
X148660734Y-86180000D01*
X153702000Y-92748000D02*
X153702000Y-90817500D01*
X153988752Y-87380000D02*
X153984575Y-87384177D01*
X153600000Y-92850000D02*
X153702000Y-92748000D01*
X150102000Y-84698000D02*
X150100000Y-84700000D01*
X146660000Y-86180000D02*
X147864500Y-86180000D01*
X154070000Y-88980000D02*
X153950000Y-89100000D01*
D50*
X165670000Y-87880000D02*
X166502000Y-87880000D01*
D48*
X154739500Y-87380000D02*
X158000000Y-87380000D01*
X154102000Y-83942500D02*
X154102000Y-82418000D01*
X153602000Y-92852000D02*
X153600000Y-92850000D01*
X154600000Y-92850000D02*
X154102000Y-92352000D01*
X154602000Y-93690000D02*
X154602000Y-92852000D01*
D50*
X145500000Y-91100000D02*
X145500000Y-90198000D01*
D48*
X154739500Y-88980000D02*
X154070000Y-88980000D01*
D50*
X140250000Y-105250000D02*
X137410000Y-105250000D01*
X160050000Y-91750000D02*
X159242000Y-91750000D01*
D48*
X151150000Y-92900000D02*
X151302000Y-92748000D01*
X154102000Y-92352000D02*
X154102000Y-90817500D01*
D50*
X166502000Y-87880000D02*
X166502000Y-85562500D01*
D48*
X153988752Y-87380000D02*
X154739500Y-87380000D01*
X148660734Y-86180000D02*
X148661525Y-86180791D01*
X158265000Y-86400000D02*
X158775000Y-86400000D01*
X154602000Y-92852000D02*
X154600000Y-92850000D01*
X150102000Y-83942500D02*
X150102000Y-81432000D01*
X146380000Y-85900000D02*
X146660000Y-86180000D01*
D50*
X167802000Y-79098000D02*
X167802000Y-76600000D01*
D48*
X145482000Y-90180000D02*
X147864500Y-90180000D01*
D50*
X158380000Y-118820000D02*
X158380000Y-121300000D01*
D48*
X153981525Y-86980000D02*
X153980734Y-86980791D01*
%TO.N,GND*%
X152100000Y-80565000D02*
X152100000Y-80250000D01*
D51*
X160975000Y-78600000D02*
X161282500Y-78292500D01*
X160300000Y-86400000D02*
X159735000Y-86400000D01*
X144626965Y-85900000D02*
X145420000Y-85900000D01*
X164896446Y-93950000D02*
X164625000Y-93678554D01*
X139175000Y-85925000D02*
X138750000Y-85925000D01*
X134300000Y-113200000D02*
X134300000Y-113750000D01*
D48*
X150100000Y-80470000D02*
X150100000Y-80200000D01*
D51*
X144522000Y-90180000D02*
X143670000Y-90180000D01*
X140925000Y-87675000D02*
X139175000Y-85925000D01*
X155900000Y-118800000D02*
X155900000Y-121240000D01*
X155130000Y-82350000D02*
X155950000Y-82350000D01*
X165322000Y-95000000D02*
X166190000Y-95000000D01*
X166903554Y-93950000D02*
X164896446Y-93950000D01*
X144350000Y-85623035D02*
X144626965Y-85900000D01*
X138750000Y-85925000D02*
X138750000Y-84676507D01*
X164625000Y-93280000D02*
X163691323Y-93280000D01*
D48*
X152100000Y-80250000D02*
X152525000Y-79825000D01*
D51*
X135050000Y-99000000D02*
X135050000Y-100060000D01*
X154602000Y-94650000D02*
X154602000Y-95398000D01*
X167462000Y-88750000D02*
X167462000Y-87880000D01*
X135050000Y-102550000D02*
X135530000Y-103030000D01*
X153321000Y-71571000D02*
X152380000Y-71571000D01*
X142800000Y-85320000D02*
X142800000Y-84500000D01*
X155370000Y-91780000D02*
X156122000Y-91780000D01*
X148200000Y-101600000D02*
X149850000Y-101600000D01*
X164625000Y-93678554D02*
X164625000Y-93280000D01*
X167175000Y-93280000D02*
X167175000Y-93678554D01*
X135530000Y-103030000D02*
X137390000Y-103030000D01*
X135050000Y-101800000D02*
X135050000Y-102550000D01*
X137200000Y-88630000D02*
X137200000Y-89450000D01*
X138750000Y-84676507D02*
X138752930Y-84673577D01*
X135950000Y-98100000D02*
X135050000Y-99000000D01*
X144350000Y-85550000D02*
X144350000Y-85623035D01*
X150500000Y-67200000D02*
X150500000Y-68400000D01*
X161282500Y-78292500D02*
X162597000Y-78292500D01*
X134300000Y-113750000D02*
X135550000Y-115000000D01*
X152302000Y-94680000D02*
X152302000Y-95425000D01*
X159775981Y-87400000D02*
X158980000Y-87400000D01*
X154650000Y-73800000D02*
X153350000Y-73800000D01*
X154602000Y-95398000D02*
X154600000Y-95400000D01*
X143670000Y-90180000D02*
X143650000Y-90200000D01*
X167175000Y-93678554D02*
X166903554Y-93950000D01*
X153389000Y-64771000D02*
X153400000Y-64760000D01*
X153602000Y-94650000D02*
X153602000Y-95395000D01*
X152480000Y-64771000D02*
X153389000Y-64771000D01*
X139080000Y-103030000D02*
X139100000Y-103050000D01*
X144420000Y-87700000D02*
X143650000Y-87700000D01*
X151150000Y-94680000D02*
X151150000Y-95450000D01*
X146850000Y-107350000D02*
X148200000Y-107350000D01*
X137390000Y-103030000D02*
X139080000Y-103030000D01*
D48*
X150100000Y-80200000D02*
X149625000Y-79725000D01*
%TO.N,/PS1_ACK_DBG*%
D49*
X161802000Y-66200000D02*
X161802000Y-68692544D01*
X156302000Y-74227000D02*
X156302000Y-77432500D01*
X163375000Y-67773000D02*
X161802000Y-66200000D01*
X163375000Y-68650000D02*
X163375000Y-67773000D01*
X161802000Y-68692544D02*
X156284772Y-74209772D01*
X161802000Y-57680000D02*
X161802000Y-66200000D01*
X156284772Y-74209772D02*
X156302000Y-74227000D01*
%TO.N,/PS1_ACK*%
D48*
X153190000Y-81016497D02*
X153190000Y-83085000D01*
X152902000Y-83373000D02*
X152902000Y-83942500D01*
X153190000Y-83085000D02*
X152902000Y-83373000D01*
X153806496Y-80400000D02*
X153190000Y-81016497D01*
X154354500Y-80400000D02*
X153806496Y-80400000D01*
X156302000Y-78452500D02*
X154354500Y-80400000D01*
%TO.N,/PS1_DATA_DBG*%
D49*
X138902000Y-61452000D02*
X142150000Y-64700000D01*
X138902000Y-57680000D02*
X138902000Y-61452000D01*
X140750000Y-66150000D02*
X140750000Y-68225000D01*
X142150000Y-64700000D02*
X145902000Y-68452000D01*
X142150000Y-64750000D02*
X140750000Y-66150000D01*
X142150000Y-64700000D02*
X142150000Y-64750000D01*
X145902000Y-68452000D02*
X145902000Y-77440000D01*
%TO.N,/PS1_CS_DBG*%
X157202000Y-57680000D02*
X157202000Y-66900000D01*
X157202000Y-70198000D02*
X155850000Y-71550000D01*
X154102000Y-75261172D02*
X154102000Y-77432500D01*
X155600000Y-68502000D02*
X155600000Y-69225000D01*
X155850000Y-71550000D02*
X155850000Y-73513172D01*
X157202000Y-66900000D02*
X157202000Y-70198000D01*
X157202000Y-66900000D02*
X155600000Y-68502000D01*
X155850000Y-73513172D02*
X154102000Y-75261172D01*
%TO.N,/QSPI_SS*%
D48*
X162000000Y-75500000D02*
X161200000Y-76300000D01*
X156750000Y-84200000D02*
X156370000Y-84580000D01*
X156370000Y-84580000D02*
X155273360Y-84580000D01*
X161200000Y-76300000D02*
X156750000Y-80750001D01*
X162790000Y-76300000D02*
X161200000Y-76300000D01*
X155273360Y-84580000D02*
X154739500Y-84580000D01*
X165202000Y-75500000D02*
X162000000Y-75500000D01*
X165382000Y-75680000D02*
X165202000Y-75500000D01*
X156750000Y-80750001D02*
X156750000Y-84200000D01*
%TO.N,/USB_BOOT*%
X164615576Y-76300000D02*
X163810000Y-76300000D01*
X165762000Y-86313576D02*
X165762000Y-77446424D01*
X164958578Y-91600000D02*
X164625000Y-91933578D01*
X167140000Y-91600000D02*
X164958578Y-91600000D01*
X164625000Y-92120000D02*
X164625000Y-87450576D01*
X167175000Y-92120000D02*
X167175000Y-91635000D01*
X167175000Y-91635000D02*
X167140000Y-91600000D01*
X164625000Y-87450576D02*
X165762000Y-86313576D01*
X165762000Y-77446424D02*
X164615576Y-76300000D01*
%TO.N,/RUN*%
X161500000Y-97600000D02*
X161520000Y-97580000D01*
X167175000Y-97580000D02*
X167175000Y-98065000D01*
X164660000Y-98100000D02*
X164625000Y-98065000D01*
X146650000Y-89600000D02*
X146650000Y-89260640D01*
X161520000Y-97580000D02*
X164625000Y-97580000D01*
X167175000Y-98065000D02*
X167140000Y-98100000D01*
X167140000Y-98100000D02*
X164660000Y-98100000D01*
X146650000Y-89260640D02*
X147330640Y-88580000D01*
X164625000Y-98065000D02*
X164625000Y-97580000D01*
X147330640Y-88580000D02*
X147864500Y-88580000D01*
%TO.N,Net-(R11-Pad2)*%
X164660000Y-95900000D02*
X166841422Y-95900000D01*
X166841422Y-95900000D02*
X167175000Y-96233578D01*
X164625000Y-96420000D02*
X164625000Y-95935000D01*
X167175000Y-96420000D02*
X167175000Y-95035000D01*
X164625000Y-95935000D02*
X164660000Y-95900000D01*
%TO.N,Net-(C3-Pad2)*%
X138750000Y-87675000D02*
X139575000Y-88500000D01*
X142610000Y-88500000D02*
X142800000Y-88310000D01*
X139575000Y-88500000D02*
X142610000Y-88500000D01*
X137200000Y-87670000D02*
X138745000Y-87670000D01*
%TO.N,/XOUT*%
X143110000Y-86980000D02*
X147864500Y-86980000D01*
X142800000Y-87290000D02*
X143110000Y-86980000D01*
%TO.N,/FLASH_SS*%
X166402000Y-75680000D02*
X166402000Y-74380000D01*
X167802000Y-75580000D02*
X166502000Y-75580000D01*
X166407000Y-78292500D02*
X166407000Y-75685000D01*
%TO.N,/GPIO0*%
X153972182Y-80800000D02*
X153590000Y-81182182D01*
X162520000Y-74380000D02*
X156100000Y-80800000D01*
X153590000Y-83156000D02*
X153702000Y-83268000D01*
X156100000Y-80800000D02*
X153972182Y-80800000D01*
X165382000Y-74380000D02*
X162520000Y-74380000D01*
X153590000Y-81182182D02*
X153590000Y-83156000D01*
X153702000Y-83268000D02*
X153702000Y-83942500D01*
%TO.N,+1V1*%
X155703360Y-88150000D02*
X156200000Y-88150000D01*
X146520000Y-87380000D02*
X147864500Y-87380000D01*
X152302000Y-92802000D02*
X152300000Y-92800000D01*
X152102000Y-82317000D02*
X152102000Y-83942500D01*
X152300000Y-92800000D02*
X151702000Y-92202000D01*
X154739500Y-88580000D02*
X155273360Y-88580000D01*
X152100000Y-82315000D02*
X152102000Y-82317000D01*
X152100000Y-81525000D02*
X152100000Y-82315000D01*
X151702000Y-92202000D02*
X151702000Y-90817500D01*
X155273360Y-88580000D02*
X155703360Y-88150000D01*
X145380000Y-87700000D02*
X146200000Y-87700000D01*
X146200000Y-87700000D02*
X146520000Y-87380000D01*
X152302000Y-93720000D02*
X152302000Y-92802000D01*
%TO.N,/PS1_CS*%
X151702000Y-83218691D02*
X151702000Y-83942500D01*
X151450000Y-79637182D02*
X151450000Y-82966691D01*
X151450000Y-82966691D02*
X151702000Y-83218691D01*
X154102000Y-78452500D02*
X152634682Y-78452500D01*
X152634682Y-78452500D02*
X151450000Y-79637182D01*
%TO.N,/PS1_CMD*%
X151302000Y-83313665D02*
X151302000Y-83942500D01*
X150225292Y-78452500D02*
X151100000Y-79327208D01*
X151100000Y-79327208D02*
X151100000Y-83111665D01*
X151100000Y-83111665D02*
X151302000Y-83313665D01*
X147002000Y-78452500D02*
X150225292Y-78452500D01*
%TO.N,/PS1_DATA*%
X150250318Y-78972500D02*
X150750000Y-79472182D01*
X146414500Y-78972500D02*
X150250318Y-78972500D01*
X150750000Y-83256640D02*
X150902000Y-83408640D01*
X150902000Y-83408640D02*
X150902000Y-83942500D01*
X150750000Y-79472182D02*
X150750000Y-83256640D01*
X145902000Y-78460000D02*
X146414500Y-78972500D01*
%TO.N,/Left Button*%
X148601409Y-81298591D02*
X148601409Y-81301409D01*
X148601409Y-81301409D02*
X149702000Y-82402000D01*
X149702000Y-82402000D02*
X149702000Y-83942500D01*
%TO.N,/Right Button*%
X147200000Y-80675000D02*
X149302000Y-82777000D01*
X149302000Y-82777000D02*
X149302000Y-83942500D01*
%TO.N,/OLED_SCK*%
X148902000Y-83102000D02*
X147500000Y-81700000D01*
X152200000Y-120200000D02*
X153300000Y-121300000D01*
X135837998Y-81700000D02*
X132938841Y-84599157D01*
X133000000Y-84660316D02*
X133000000Y-109600000D01*
X143600000Y-120200000D02*
X152200000Y-120200000D01*
X148902000Y-83942500D02*
X148902000Y-83102000D01*
X132938841Y-84599157D02*
X133000000Y-84660316D01*
X133000000Y-109600000D02*
X143600000Y-120200000D01*
X147500000Y-81700000D02*
X135837998Y-81700000D01*
%TO.N,/OLED_MOSI*%
X148502000Y-83196974D02*
X148502000Y-83942500D01*
X153755635Y-122400000D02*
X154400000Y-121755635D01*
X143197487Y-119302513D02*
X133350000Y-109455026D01*
X154400000Y-120844365D02*
X152858148Y-119302513D01*
X151860000Y-122400000D02*
X153755635Y-122400000D01*
X150760000Y-121300000D02*
X151860000Y-122400000D01*
X152858148Y-119302513D02*
X143197487Y-119302513D01*
X133350000Y-84682972D02*
X135982972Y-82050000D01*
X154400000Y-121755635D02*
X154400000Y-120844365D01*
X135982972Y-82050000D02*
X147355026Y-82050000D01*
X147355026Y-82050000D02*
X148502000Y-83196974D01*
X133350000Y-109455026D02*
X133350000Y-84682972D01*
%TO.N,/OLED_D{slash}C*%
X160300000Y-122600000D02*
X160300000Y-119094974D01*
X160150000Y-122750000D02*
X160300000Y-122600000D01*
X149670000Y-122750000D02*
X160150000Y-122750000D01*
X145880000Y-84580000D02*
X147864500Y-84580000D01*
X159005026Y-117800000D02*
X142189948Y-117800000D01*
X143700000Y-82400000D02*
X145880000Y-84580000D01*
X133700000Y-84827946D02*
X136127946Y-82400000D01*
X148220000Y-121300000D02*
X149670000Y-122750000D01*
X133700000Y-109310052D02*
X133700000Y-84827946D01*
X142189948Y-117800000D02*
X133700000Y-109310052D01*
X136127946Y-82400000D02*
X143700000Y-82400000D01*
X160300000Y-119094974D02*
X159005026Y-117800000D01*
%TO.N,/OLED_CS*%
X145680000Y-121300000D02*
X147480000Y-123100000D01*
X140984922Y-116100000D02*
X134050000Y-109165078D01*
X143300000Y-82750000D02*
X145530000Y-84980000D01*
X145500000Y-117400000D02*
X144200000Y-116100000D01*
X160294975Y-123100000D02*
X160650000Y-122744974D01*
X147480000Y-123100000D02*
X160294975Y-123100000D01*
X160650000Y-122744974D02*
X160650000Y-118950000D01*
X145530000Y-84980000D02*
X147864500Y-84980000D01*
X159100000Y-117400000D02*
X145500000Y-117400000D01*
X134050000Y-84972920D02*
X136272920Y-82750000D01*
X136272920Y-82750000D02*
X143300000Y-82750000D01*
X144200000Y-116100000D02*
X140984922Y-116100000D01*
X160650000Y-118950000D02*
X159100000Y-117400000D01*
X134050000Y-109165078D02*
X134050000Y-84972920D01*
%TO.N,/XIN*%
X141050000Y-85925000D02*
X142445000Y-85925000D01*
X143100000Y-86580000D02*
X142800000Y-86280000D01*
X142445000Y-85925000D02*
X142800000Y-86280000D01*
X147864500Y-86580000D02*
X143100000Y-86580000D01*
%TO.N,/SWCLK*%
X145200000Y-88750000D02*
X145975000Y-88750000D01*
X146945000Y-87780000D02*
X147864500Y-87780000D01*
X145975000Y-88750000D02*
X146945000Y-87780000D01*
%TO.N,/SWD*%
X145875000Y-89300000D02*
X145990686Y-89300000D01*
X147110686Y-88180000D02*
X147864500Y-88180000D01*
X145990686Y-89300000D02*
X147110686Y-88180000D01*
%TO.N,/SD_MISO*%
X137340000Y-101940000D02*
X138311974Y-101940000D01*
X137590000Y-101930000D02*
X138321974Y-101930000D01*
X148902000Y-91349974D02*
X148902000Y-90817500D01*
X138321974Y-101930000D02*
X148902000Y-91349974D01*
%TO.N,/SD_CS*%
X149302000Y-91444949D02*
X141775000Y-98971948D01*
X141775000Y-105125000D02*
X139500000Y-107400000D01*
X139500000Y-107400000D02*
X138020000Y-107400000D01*
X141775000Y-98971948D02*
X141775000Y-105125000D01*
X149302000Y-90817500D02*
X149302000Y-91444949D01*
%TO.N,/SD_SCK*%
X145100000Y-96141922D02*
X149702000Y-91539922D01*
X145100000Y-101650000D02*
X145100000Y-96141922D01*
X149702000Y-91539922D02*
X149702000Y-90817500D01*
X139760000Y-104140000D02*
X140450000Y-103450000D01*
X139750000Y-104130000D02*
X137590000Y-104130000D01*
X139760000Y-104140000D02*
X139750000Y-104130000D01*
%TO.N,/SD_MOSI*%
X145750000Y-101550000D02*
X145750000Y-95986896D01*
X150102000Y-91634896D02*
X150102000Y-90817500D01*
X140065026Y-106340000D02*
X141175000Y-105230026D01*
X141175000Y-105230026D02*
X141175000Y-104225000D01*
X140065026Y-106340000D02*
X140055026Y-106330000D01*
X145750000Y-95986896D02*
X150102000Y-91634896D01*
X140055026Y-106330000D02*
X137590000Y-106330000D01*
X146100000Y-101900000D02*
X145750000Y-101550000D01*
%TO.N,/SD_DETECT*%
X150800000Y-102000000D02*
X150800000Y-100900000D01*
X150800000Y-100900000D02*
X150175000Y-100275000D01*
D49*
X148570000Y-103050000D02*
X149750000Y-103050000D01*
D48*
X150175000Y-100275000D02*
X150175000Y-92056870D01*
X150175000Y-92056870D02*
X150502000Y-91729870D01*
X150502000Y-91729870D02*
X150502000Y-90817500D01*
X149750000Y-103050000D02*
X150800000Y-102000000D01*
%TO.N,/VREG_AVDD*%
X157082000Y-91780000D02*
X156472000Y-91170000D01*
X155729500Y-91170000D02*
X154739500Y-90180000D01*
X158192000Y-91780000D02*
X157082000Y-91780000D01*
X156472000Y-91170000D02*
X155729500Y-91170000D01*
%TO.N,/QSPI_SD3*%
X158281370Y-85497058D02*
X157198426Y-86580000D01*
X160589797Y-85497059D02*
X160589797Y-85497058D01*
X164436999Y-86980000D02*
X162072738Y-86980000D01*
X165137000Y-85467500D02*
X165137000Y-86279999D01*
X165137000Y-86279999D02*
X164436999Y-86980000D01*
X162072738Y-86980000D02*
X160589797Y-85497059D01*
X160589797Y-85497058D02*
X158281370Y-85497058D01*
X157198426Y-86580000D02*
X154739500Y-86580000D01*
%TO.N,/QSPI_SCLK*%
X163867000Y-85467500D02*
X163867000Y-86279999D01*
X163566999Y-86580000D02*
X162238424Y-86580000D01*
X160755482Y-85097058D02*
X158115685Y-85097058D01*
X163867000Y-86279999D02*
X163566999Y-86580000D01*
X160755482Y-85097058D02*
X162238424Y-86580000D01*
X157032741Y-86180000D02*
X154739500Y-86180000D01*
X158115685Y-85097058D02*
X157032741Y-86180000D01*
%TO.N,/QSPI_SD0*%
X155273360Y-85780000D02*
X154739500Y-85780000D01*
X162564500Y-85500000D02*
X161724110Y-85500000D01*
X160921167Y-84697058D02*
X157950000Y-84697058D01*
X157950000Y-84697058D02*
X156867056Y-85780000D01*
X161724110Y-85500000D02*
X160921167Y-84697058D01*
X156867056Y-85780000D02*
X155273360Y-85780000D01*
%TO.N,/QSPI_SD2*%
X163867000Y-78292500D02*
X163867000Y-79104999D01*
X154739500Y-85380000D02*
X156701370Y-85380000D01*
X163867000Y-79104999D02*
X163421999Y-79550000D01*
X159081372Y-79550000D02*
X157550000Y-81081372D01*
X157549999Y-84531372D02*
X156701370Y-85380000D01*
X157550000Y-81081372D02*
X157549999Y-84531372D01*
X163421999Y-79550000D02*
X159081372Y-79550000D01*
%TO.N,/QSPI_SD1*%
X161065686Y-77000000D02*
X157150000Y-80915686D01*
X156535685Y-84980000D02*
X155271974Y-84980000D01*
X155271974Y-84980000D02*
X154739500Y-84980000D01*
X165137000Y-77480001D02*
X164656999Y-77000000D01*
X164656999Y-77000000D02*
X161065686Y-77000000D01*
X157150000Y-80915686D02*
X157150000Y-84365686D01*
X165137000Y-78292500D02*
X165137000Y-77480001D01*
X157150000Y-84365686D02*
X156535685Y-84980000D01*
%TD*%
%TA.AperFunction,Conductor*%
%TO.N,GND*%
G36*
X155287303Y-89682269D02*
G01*
X155308280Y-89688988D01*
X155328701Y-89699233D01*
X155655164Y-89932296D01*
X155750000Y-90000000D01*
X157258017Y-90028505D01*
X157286216Y-90034672D01*
X157297036Y-90039395D01*
X157335976Y-90079336D01*
X157339961Y-90089135D01*
X157345412Y-90116574D01*
X157349518Y-90810438D01*
X157344052Y-90838790D01*
X157339803Y-90849222D01*
X157299996Y-90889505D01*
X157290006Y-90893713D01*
X157260878Y-90899515D01*
X156624081Y-90896059D01*
X156609847Y-90894598D01*
X156593447Y-90891289D01*
X156588931Y-90890230D01*
X156511564Y-90869500D01*
X156511562Y-90869500D01*
X155899342Y-90869500D01*
X155871024Y-90863867D01*
X155845895Y-90853458D01*
X155821889Y-90837418D01*
X155678378Y-90693907D01*
X155671150Y-90685505D01*
X155664630Y-90676665D01*
X155658740Y-90667283D01*
X155531854Y-90426881D01*
X155531853Y-90426880D01*
X155390269Y-90158627D01*
X155383886Y-90141884D01*
X155379669Y-90124861D01*
X155377500Y-90107075D01*
X155377500Y-90105327D01*
X155377500Y-90105326D01*
X155362966Y-90032260D01*
X155307601Y-89949399D01*
X155301558Y-89945361D01*
X155282005Y-89932296D01*
X155281997Y-89932291D01*
X155280293Y-89931152D01*
X155280223Y-89931047D01*
X155261889Y-89910732D01*
X155261838Y-89910778D01*
X155256837Y-89905133D01*
X155255960Y-89904162D01*
X155255937Y-89904117D01*
X155255934Y-89904115D01*
X155255934Y-89904114D01*
X155243801Y-89895699D01*
X155243796Y-89895697D01*
X155239653Y-89895665D01*
X155225797Y-89894244D01*
X155209875Y-89891076D01*
X155209803Y-89891062D01*
X155209798Y-89891061D01*
X155209798Y-89891060D01*
X155180740Y-89885281D01*
X155151674Y-89879500D01*
X154588719Y-89879500D01*
X154560404Y-89873868D01*
X154549995Y-89869557D01*
X154509946Y-89829513D01*
X154505629Y-89819091D01*
X154500000Y-89790781D01*
X154500000Y-89769218D01*
X154505629Y-89740909D01*
X154509943Y-89730494D01*
X154549982Y-89690448D01*
X154560411Y-89686128D01*
X154588719Y-89680500D01*
X155151669Y-89680500D01*
X155151674Y-89680500D01*
X155151678Y-89680499D01*
X155153628Y-89680306D01*
X155157010Y-89679804D01*
X155164185Y-89679098D01*
X155171431Y-89678742D01*
X155264730Y-89678742D01*
X155287303Y-89682269D01*
G37*
%TD.AperFunction*%
%TD*%
%TA.AperFunction,Conductor*%
%TO.N,GND*%
G36*
X149843039Y-59769685D02*
G01*
X149888794Y-59822489D01*
X149900000Y-59874000D01*
X149900000Y-63426000D01*
X149880315Y-63493039D01*
X149827511Y-63538794D01*
X149776000Y-63550000D01*
X145824000Y-63550000D01*
X145756961Y-63530315D01*
X145711206Y-63477511D01*
X145700000Y-63426000D01*
X145700000Y-61924000D01*
X145719685Y-61856961D01*
X145772489Y-61811206D01*
X145824000Y-61800000D01*
X148500000Y-61800000D01*
X148500000Y-59874000D01*
X148519685Y-59806961D01*
X148572489Y-59761206D01*
X148624000Y-59750000D01*
X149776000Y-59750000D01*
X149843039Y-59769685D01*
G37*
%TD.AperFunction*%
%TD*%
%TA.AperFunction,Conductor*%
%TO.N,+3V3*%
G36*
X152443039Y-68669685D02*
G01*
X152488794Y-68722489D01*
X152500000Y-68774000D01*
X152500000Y-70636500D01*
X152480315Y-70703539D01*
X152427511Y-70749294D01*
X152376000Y-70760500D01*
X152175302Y-70760500D01*
X152139008Y-70763356D01*
X152139002Y-70763357D01*
X151983609Y-70808504D01*
X151983606Y-70808505D01*
X151963324Y-70820500D01*
X151913442Y-70850000D01*
X151900000Y-70850000D01*
X151900000Y-70857949D01*
X151867060Y-70877430D01*
X151867058Y-70877430D01*
X151844320Y-70890878D01*
X151844312Y-70890884D01*
X151729884Y-71005311D01*
X151729881Y-71005315D01*
X151647505Y-71144606D01*
X151647504Y-71144609D01*
X151602357Y-71300002D01*
X151602356Y-71300008D01*
X151599500Y-71336302D01*
X151599500Y-71805697D01*
X151602356Y-71841991D01*
X151602357Y-71841997D01*
X151647504Y-71997390D01*
X151647505Y-71997393D01*
X151729881Y-72136684D01*
X151729887Y-72136692D01*
X151844307Y-72251112D01*
X151850476Y-72255897D01*
X151848645Y-72258257D01*
X151886786Y-72299077D01*
X151900000Y-72354778D01*
X151900000Y-72450000D01*
X152276000Y-72450000D01*
X152343039Y-72469685D01*
X152388794Y-72522489D01*
X152400000Y-72574000D01*
X152400000Y-73031484D01*
X152393706Y-73070488D01*
X152360001Y-73172203D01*
X152360000Y-73172204D01*
X152349500Y-73274983D01*
X152349500Y-74325001D01*
X152349501Y-74325019D01*
X152360000Y-74427796D01*
X152372357Y-74465084D01*
X152393706Y-74529513D01*
X152400000Y-74568515D01*
X152400000Y-76826000D01*
X152380315Y-76893039D01*
X152327511Y-76938794D01*
X152276000Y-76950000D01*
X148674000Y-76950000D01*
X148606961Y-76930315D01*
X148561206Y-76877511D01*
X148550000Y-76826000D01*
X148550000Y-70508158D01*
X148569685Y-70441119D01*
X148622489Y-70395364D01*
X148691647Y-70385420D01*
X148755203Y-70414445D01*
X148789354Y-70462668D01*
X148819948Y-70540248D01*
X148910432Y-70659568D01*
X149029752Y-70750052D01*
X149169060Y-70804988D01*
X149256597Y-70815500D01*
X149843402Y-70815499D01*
X149930940Y-70804988D01*
X150070248Y-70750052D01*
X150189568Y-70659568D01*
X150280052Y-70540248D01*
X150334988Y-70400940D01*
X150345500Y-70313403D01*
X150345499Y-69274499D01*
X150365183Y-69207461D01*
X150417987Y-69161706D01*
X150469499Y-69150500D01*
X150573920Y-69150500D01*
X150671462Y-69131096D01*
X150718913Y-69121658D01*
X150855495Y-69065084D01*
X150978416Y-68982951D01*
X151082951Y-68878416D01*
X151165084Y-68755495D01*
X151177075Y-68726544D01*
X151220914Y-68672145D01*
X151287208Y-68650079D01*
X151291635Y-68650000D01*
X152376000Y-68650000D01*
X152443039Y-68669685D01*
G37*
%TD.AperFunction*%
%TD*%
%TA.AperFunction,Conductor*%
%TO.N,+1V1*%
G36*
X153578326Y-85121674D02*
G01*
X153600000Y-85174000D01*
X153600000Y-89323686D01*
X153578326Y-89376012D01*
X153563000Y-89387772D01*
X153473390Y-89439508D01*
X153389508Y-89523390D01*
X153366640Y-89563000D01*
X153321707Y-89597479D01*
X153302554Y-89600000D01*
X149124000Y-89600000D01*
X149071674Y-89578326D01*
X149050000Y-89526000D01*
X149050000Y-85799446D01*
X149401500Y-85799446D01*
X149401500Y-88960540D01*
X149401502Y-88960556D01*
X149411509Y-89029256D01*
X149411511Y-89029262D01*
X149463325Y-89135250D01*
X149463326Y-89135251D01*
X149546749Y-89218674D01*
X149652739Y-89270489D01*
X149721451Y-89280500D01*
X152882548Y-89280499D01*
X152934387Y-89272947D01*
X152951256Y-89270490D01*
X152951257Y-89270489D01*
X152951261Y-89270489D01*
X153057251Y-89218674D01*
X153140674Y-89135251D01*
X153192489Y-89029261D01*
X153202500Y-88960549D01*
X153202499Y-85799452D01*
X153192489Y-85730739D01*
X153140674Y-85624749D01*
X153057251Y-85541326D01*
X153057250Y-85541325D01*
X152951262Y-85489511D01*
X152916905Y-85484505D01*
X152882549Y-85479500D01*
X152882548Y-85479500D01*
X149721459Y-85479500D01*
X149721443Y-85479502D01*
X149652743Y-85489509D01*
X149652737Y-85489511D01*
X149546749Y-85541325D01*
X149463325Y-85624749D01*
X149411511Y-85730737D01*
X149411511Y-85730738D01*
X149401500Y-85799446D01*
X149050000Y-85799446D01*
X149050000Y-85347445D01*
X149071674Y-85295119D01*
X149086995Y-85283362D01*
X149126613Y-85260489D01*
X149210489Y-85176613D01*
X149233360Y-85137000D01*
X149278293Y-85102521D01*
X149297446Y-85100000D01*
X153526000Y-85100000D01*
X153578326Y-85121674D01*
G37*
%TD.AperFunction*%
%TD*%
%TA.AperFunction,Conductor*%
%TO.N,/PS1_3V5*%
G36*
X152093106Y-59705023D02*
G01*
X152108104Y-59709427D01*
X152123094Y-59719057D01*
X152140175Y-59724067D01*
X152166855Y-59747172D01*
X152168042Y-59748541D01*
X152195518Y-59803402D01*
X152197163Y-59810960D01*
X152200000Y-59837331D01*
X152200000Y-63650000D01*
X152958171Y-63650000D01*
X152993106Y-63655023D01*
X153008104Y-63659427D01*
X153066855Y-63697172D01*
X153066879Y-63697200D01*
X153066882Y-63697202D01*
X153066883Y-63697204D01*
X153068042Y-63698541D01*
X153095518Y-63753402D01*
X153097163Y-63760960D01*
X153100000Y-63787331D01*
X153100000Y-63878666D01*
X153098131Y-63900112D01*
X153096493Y-63909440D01*
X153095092Y-63912271D01*
X153094976Y-63913604D01*
X153093693Y-63917973D01*
X153092725Y-63917688D01*
X153088611Y-63933807D01*
X153089297Y-63934063D01*
X153088234Y-63936911D01*
X153087605Y-63937750D01*
X153087159Y-63939500D01*
X153085922Y-63942209D01*
X153084689Y-63941646D01*
X153075752Y-63953587D01*
X153072906Y-63963294D01*
X153067554Y-63967934D01*
X153065511Y-63972065D01*
X153058999Y-63975969D01*
X153049899Y-63988127D01*
X153050773Y-63989137D01*
X153049717Y-63990051D01*
X153047807Y-63990922D01*
X153046410Y-63992790D01*
X153043970Y-63994618D01*
X153042885Y-63993170D01*
X153033525Y-63997443D01*
X153020119Y-64009069D01*
X152986258Y-64019024D01*
X152984822Y-64019231D01*
X152967130Y-64020500D01*
X152942497Y-64020500D01*
X152917350Y-64017923D01*
X152891099Y-64012486D01*
X152880187Y-64009409D01*
X152880134Y-64009592D01*
X152876389Y-64008504D01*
X152859942Y-64003725D01*
X152721003Y-63963358D01*
X152720997Y-63963357D01*
X152720996Y-63963356D01*
X152720994Y-63963356D01*
X152684704Y-63960500D01*
X152684697Y-63960500D01*
X152684690Y-63960500D01*
X152275310Y-63960500D01*
X152275302Y-63960500D01*
X152275294Y-63960500D01*
X152239004Y-63963356D01*
X152239002Y-63963356D01*
X152239001Y-63963357D01*
X152238995Y-63963358D01*
X152083616Y-64008502D01*
X152083602Y-64008506D01*
X151944319Y-64090877D01*
X151944301Y-64090891D01*
X151829891Y-64205301D01*
X151829877Y-64205319D01*
X151747506Y-64344602D01*
X151747502Y-64344616D01*
X151702358Y-64499995D01*
X151702357Y-64500001D01*
X151702356Y-64500002D01*
X151702356Y-64500004D01*
X151699500Y-64536294D01*
X151699500Y-65005704D01*
X151702356Y-65041994D01*
X151702356Y-65041996D01*
X151702357Y-65041997D01*
X151702358Y-65042003D01*
X151747502Y-65197382D01*
X151747506Y-65197396D01*
X151829877Y-65336679D01*
X151829891Y-65336697D01*
X151944309Y-65451115D01*
X151981600Y-65473168D01*
X152083605Y-65533494D01*
X152110077Y-65541185D01*
X152228208Y-65575506D01*
X152229404Y-65575974D01*
X152238260Y-65578435D01*
X152238980Y-65578640D01*
X152239000Y-65578641D01*
X152239002Y-65578642D01*
X152239005Y-65578642D01*
X152239007Y-65578643D01*
X152275310Y-65581500D01*
X152275318Y-65581500D01*
X152684682Y-65581500D01*
X152684690Y-65581500D01*
X152720993Y-65578643D01*
X152720995Y-65578642D01*
X152720997Y-65578642D01*
X152721003Y-65578640D01*
X152721017Y-65578639D01*
X152721745Y-65578433D01*
X152730598Y-65575972D01*
X152731790Y-65575506D01*
X152754895Y-65568793D01*
X152876395Y-65533494D01*
X152876396Y-65533492D01*
X152882925Y-65531596D01*
X152882980Y-65531580D01*
X152887621Y-65530233D01*
X152889774Y-65529788D01*
X152890280Y-65529462D01*
X152897565Y-65527350D01*
X152901000Y-65527361D01*
X152914465Y-65523703D01*
X152916636Y-65523391D01*
X152921022Y-65522761D01*
X152938660Y-65521500D01*
X152958170Y-65521500D01*
X152993106Y-65526523D01*
X153008104Y-65530927D01*
X153023094Y-65540557D01*
X153040175Y-65545567D01*
X153066855Y-65568672D01*
X153068042Y-65570041D01*
X153095518Y-65624902D01*
X153097163Y-65632460D01*
X153100000Y-65658831D01*
X153100000Y-67991670D01*
X153094975Y-68026614D01*
X153090570Y-68041612D01*
X153080939Y-68056601D01*
X153075932Y-68073675D01*
X153052827Y-68100355D01*
X153051458Y-68101542D01*
X152996597Y-68129018D01*
X152989039Y-68130663D01*
X152962668Y-68133500D01*
X151392330Y-68133500D01*
X151357389Y-68128475D01*
X151342390Y-68124070D01*
X151327408Y-68114449D01*
X151310367Y-68109459D01*
X151283677Y-68086366D01*
X151283176Y-68085789D01*
X151282685Y-68085222D01*
X151253615Y-68021689D01*
X151254521Y-67980800D01*
X151255595Y-67975153D01*
X151256967Y-67967933D01*
X151263428Y-67945607D01*
X151284988Y-67890940D01*
X151295500Y-67803403D01*
X151295499Y-66596598D01*
X151284988Y-66509060D01*
X151230052Y-66369752D01*
X151139568Y-66250432D01*
X151139566Y-66250429D01*
X151027001Y-66165068D01*
X151023802Y-66162278D01*
X151020249Y-66159948D01*
X151020247Y-66159947D01*
X150950592Y-66132479D01*
X150880936Y-66105010D01*
X150845047Y-66100701D01*
X150839376Y-66100020D01*
X150839375Y-66100019D01*
X150809632Y-66096448D01*
X150793403Y-66094500D01*
X150793399Y-66094500D01*
X150206609Y-66094500D01*
X150206603Y-66094500D01*
X150119061Y-66105011D01*
X150064126Y-66126674D01*
X149979753Y-66159946D01*
X149979748Y-66159949D01*
X149860432Y-66250432D01*
X149769949Y-66369748D01*
X149769946Y-66369753D01*
X149715010Y-66509062D01*
X149709232Y-66557190D01*
X149709232Y-66557191D01*
X149704500Y-66596597D01*
X149704500Y-66596602D01*
X149704500Y-66596603D01*
X149704500Y-67803396D01*
X149704501Y-67803402D01*
X149715012Y-67890940D01*
X149739928Y-67954124D01*
X149742002Y-67963055D01*
X149741938Y-67964156D01*
X149743032Y-67967933D01*
X149744405Y-67975153D01*
X149741271Y-67975748D01*
X149740937Y-67981553D01*
X149742441Y-67997601D01*
X149745095Y-68006629D01*
X149743724Y-68011301D01*
X149744857Y-68023389D01*
X149742116Y-68034642D01*
X149740071Y-68041606D01*
X149730441Y-68056594D01*
X149725432Y-68073675D01*
X149702327Y-68100355D01*
X149700958Y-68101542D01*
X149646097Y-68129018D01*
X149638539Y-68130663D01*
X149612168Y-68133500D01*
X148291830Y-68133500D01*
X148256889Y-68128475D01*
X148241890Y-68124070D01*
X148226902Y-68114440D01*
X148209824Y-68109432D01*
X148183144Y-68086327D01*
X148181957Y-68084958D01*
X148154477Y-68030083D01*
X148152832Y-68022521D01*
X148150000Y-67996168D01*
X148150000Y-64341829D01*
X148155023Y-64306893D01*
X148159427Y-64291895D01*
X148169057Y-64276904D01*
X148174067Y-64259824D01*
X148197172Y-64233144D01*
X148198541Y-64231957D01*
X148253420Y-64204477D01*
X148260979Y-64202833D01*
X148287332Y-64200000D01*
X150800000Y-64200000D01*
X150800000Y-59841829D01*
X150805023Y-59806893D01*
X150809427Y-59791895D01*
X150847172Y-59733144D01*
X150847200Y-59733119D01*
X150847199Y-59733119D01*
X150848541Y-59731956D01*
X150903420Y-59704477D01*
X150910979Y-59702833D01*
X150937332Y-59700000D01*
X152058170Y-59700000D01*
X152093106Y-59705023D01*
G37*
%TD.AperFunction*%
%TD*%
%TA.AperFunction,Conductor*%
%TO.N,/VREG_LX*%
G36*
X155142645Y-89282630D02*
G01*
X155150514Y-89283441D01*
X155158358Y-89284678D01*
X155616533Y-89382441D01*
X155616533Y-89382440D01*
X155616534Y-89382441D01*
X155616534Y-89382440D01*
X155624204Y-89384077D01*
X155624208Y-89384078D01*
X155632846Y-89385921D01*
X155642704Y-89382430D01*
X157515562Y-89381705D01*
X157562450Y-89398432D01*
X157678376Y-89493280D01*
X157799426Y-89592321D01*
X157806416Y-89596270D01*
X157808199Y-89597278D01*
X157826961Y-89612382D01*
X158262914Y-90100000D01*
X158262915Y-90100000D01*
X158262916Y-90100000D01*
X158661281Y-90100000D01*
X158689591Y-90105629D01*
X158700003Y-90109942D01*
X158740053Y-90149985D01*
X158740056Y-90149992D01*
X158744367Y-90160400D01*
X158750000Y-90188718D01*
X158750000Y-90759252D01*
X158744367Y-90787570D01*
X158740056Y-90797978D01*
X158740055Y-90797978D01*
X158740055Y-90797980D01*
X158740053Y-90797983D01*
X158720029Y-90818004D01*
X158700008Y-90838026D01*
X158700005Y-90838027D01*
X158700004Y-90838028D01*
X158690498Y-90841965D01*
X158660183Y-90847570D01*
X158072936Y-90831691D01*
X158044781Y-90825295D01*
X158026118Y-90816967D01*
X157990033Y-90782378D01*
X157694382Y-90188718D01*
X157478160Y-89754548D01*
X157473286Y-89742025D01*
X157469417Y-89728574D01*
X157467962Y-89722577D01*
X157457288Y-89668909D01*
X157456929Y-89665270D01*
X157456923Y-89665249D01*
X157456213Y-89662418D01*
X157455867Y-89661771D01*
X157455867Y-89661769D01*
X157455866Y-89661768D01*
X157455866Y-89661766D01*
X157455859Y-89661755D01*
X157454149Y-89658555D01*
X157454148Y-89658554D01*
X157454140Y-89658538D01*
X157451821Y-89655712D01*
X157411559Y-89595457D01*
X157411556Y-89595453D01*
X157411553Y-89595449D01*
X157411552Y-89595448D01*
X157411548Y-89595445D01*
X157408977Y-89592873D01*
X157408993Y-89592856D01*
X157403781Y-89587822D01*
X157390247Y-89572450D01*
X157379547Y-89556536D01*
X157371000Y-89539373D01*
X156274445Y-89537564D01*
X156274384Y-89537564D01*
X155649165Y-89537564D01*
X155644856Y-89537438D01*
X155640552Y-89537186D01*
X155636256Y-89536810D01*
X155423353Y-89511853D01*
X155401761Y-89505845D01*
X155401760Y-89505850D01*
X155401719Y-89505833D01*
X155401380Y-89505739D01*
X155400418Y-89505302D01*
X155370961Y-89493280D01*
X155353872Y-89487807D01*
X155349988Y-89486563D01*
X155349986Y-89486562D01*
X155349975Y-89486559D01*
X155319018Y-89479229D01*
X155296465Y-89475706D01*
X155296440Y-89475703D01*
X155264742Y-89473242D01*
X155264730Y-89473242D01*
X155171431Y-89473242D01*
X155164837Y-89473404D01*
X155161338Y-89473490D01*
X155154096Y-89473846D01*
X155145735Y-89474462D01*
X155144062Y-89474586D01*
X155143470Y-89474644D01*
X155136224Y-89475000D01*
X154697541Y-89475000D01*
X154683981Y-89469383D01*
X154669305Y-89469401D01*
X154658854Y-89458975D01*
X154645215Y-89453326D01*
X154629208Y-89429401D01*
X154624979Y-89419226D01*
X154619312Y-89390999D01*
X154619271Y-89373274D01*
X154624837Y-89344949D01*
X154629147Y-89334474D01*
X154669009Y-89294373D01*
X154679342Y-89290049D01*
X154707543Y-89284315D01*
X155134710Y-89282242D01*
X155142645Y-89282630D01*
G37*
%TD.AperFunction*%
%TD*%
%TA.AperFunction,Conductor*%
%TO.N,+3V3*%
G36*
X153952218Y-84615396D02*
G01*
X153980517Y-84621111D01*
X153991032Y-84625502D01*
X154030881Y-84665460D01*
X154035131Y-84675717D01*
X154040767Y-84703815D01*
X154057237Y-90033672D01*
X154051691Y-90062009D01*
X154047403Y-90072452D01*
X154007514Y-90112609D01*
X153997147Y-90116947D01*
X153968892Y-90122681D01*
X148651951Y-90144990D01*
X148623611Y-90139476D01*
X148613036Y-90135148D01*
X148572928Y-90095519D01*
X148568613Y-90085329D01*
X148562760Y-90057325D01*
X148562657Y-90048392D01*
X148531519Y-87340685D01*
X148699500Y-87340685D01*
X148699500Y-87459313D01*
X148730197Y-87573877D01*
X148730200Y-87573886D01*
X148789507Y-87676609D01*
X148822826Y-87709928D01*
X148844500Y-87762254D01*
X148844500Y-89526000D01*
X148845145Y-89529241D01*
X148860141Y-89604635D01*
X148860144Y-89604645D01*
X148881814Y-89656962D01*
X148881816Y-89656966D01*
X148881817Y-89656967D01*
X148918445Y-89715261D01*
X148993033Y-89768183D01*
X149045359Y-89789857D01*
X149124000Y-89805500D01*
X151457746Y-89805500D01*
X151510072Y-89827174D01*
X151573387Y-89890489D01*
X151676114Y-89949799D01*
X151676115Y-89949799D01*
X151676117Y-89949800D01*
X151733402Y-89965149D01*
X151786015Y-89979247D01*
X151789706Y-89980500D01*
X151909311Y-89980500D01*
X151919574Y-89980500D01*
X151928462Y-89975367D01*
X152023886Y-89949799D01*
X152126613Y-89890489D01*
X152189928Y-89827174D01*
X152242254Y-89805500D01*
X153302545Y-89805500D01*
X153302554Y-89805500D01*
X153329371Y-89803743D01*
X153348524Y-89801222D01*
X153363683Y-89798646D01*
X153446809Y-89760512D01*
X153491742Y-89726033D01*
X153544610Y-89665747D01*
X153549079Y-89658004D01*
X153560837Y-89642679D01*
X153592683Y-89610833D01*
X153608000Y-89599081D01*
X153665749Y-89565741D01*
X153688100Y-89550806D01*
X153703426Y-89539046D01*
X153715261Y-89529241D01*
X153768183Y-89454653D01*
X153789857Y-89402327D01*
X153805500Y-89323686D01*
X153805500Y-88858547D01*
X153815414Y-88821547D01*
X153871798Y-88723887D01*
X153871799Y-88723886D01*
X153897367Y-88628462D01*
X153902500Y-88619573D01*
X153902500Y-88489704D01*
X153901244Y-88486007D01*
X153871800Y-88376117D01*
X153871798Y-88376112D01*
X153815414Y-88278451D01*
X153805500Y-88241451D01*
X153805500Y-85174001D01*
X153794824Y-85120332D01*
X153789857Y-85095359D01*
X153768183Y-85043033D01*
X153731555Y-84984739D01*
X153708667Y-84968499D01*
X153656966Y-84931816D01*
X153604645Y-84910144D01*
X153604635Y-84910141D01*
X153551974Y-84899666D01*
X153526000Y-84894500D01*
X153525998Y-84894500D01*
X152382254Y-84894500D01*
X152329937Y-84872835D01*
X152329928Y-84872826D01*
X152326613Y-84869511D01*
X152326610Y-84869509D01*
X152326609Y-84869508D01*
X152326607Y-84869506D01*
X152223886Y-84810200D01*
X152223877Y-84810197D01*
X152109313Y-84779500D01*
X152109311Y-84779500D01*
X152109309Y-84779500D01*
X151990691Y-84779500D01*
X151990689Y-84779500D01*
X151940168Y-84793036D01*
X151876112Y-84810200D01*
X151773393Y-84869505D01*
X151773390Y-84869507D01*
X151773390Y-84869508D01*
X151770071Y-84872826D01*
X151717747Y-84894500D01*
X149297438Y-84894500D01*
X149270640Y-84896256D01*
X149270626Y-84896257D01*
X149251491Y-84898776D01*
X149251476Y-84898778D01*
X149239902Y-84900744D01*
X149236316Y-84901354D01*
X149153191Y-84939487D01*
X149108257Y-84973967D01*
X149108254Y-84973970D01*
X149055396Y-85034243D01*
X149055390Y-85034251D01*
X149050917Y-85041999D01*
X149039160Y-85057320D01*
X149007321Y-85089159D01*
X148991998Y-85100917D01*
X148984275Y-85105375D01*
X148984255Y-85105388D01*
X148984250Y-85105390D01*
X148984247Y-85105393D01*
X148972995Y-85112910D01*
X148961884Y-85120335D01*
X148961880Y-85120338D01*
X148946575Y-85132082D01*
X148934742Y-85141886D01*
X148934738Y-85141890D01*
X148881816Y-85216478D01*
X148860144Y-85268799D01*
X148860141Y-85268809D01*
X148844500Y-85347446D01*
X148844500Y-87037746D01*
X148822827Y-87090071D01*
X148789505Y-87123393D01*
X148730200Y-87226112D01*
X148730197Y-87226121D01*
X148699500Y-87340685D01*
X148531519Y-87340685D01*
X148531473Y-87336692D01*
X148501030Y-84689566D01*
X148506335Y-84661191D01*
X148510529Y-84650726D01*
X148550113Y-84610224D01*
X148560081Y-84605960D01*
X148589179Y-84600000D01*
X148600000Y-84600000D01*
X153952218Y-84615396D01*
G37*
%TD.AperFunction*%
%TD*%
%TA.AperFunction,Conductor*%
%TO.N,+1V1*%
G36*
X157215624Y-87857812D02*
G01*
X158709094Y-88604547D01*
X158746203Y-88647334D01*
X158750000Y-88670735D01*
X158750000Y-89376000D01*
X158728326Y-89428326D01*
X158676000Y-89450000D01*
X157976416Y-89450000D01*
X157929556Y-89433273D01*
X157400000Y-89000000D01*
X156824000Y-89000000D01*
X156771674Y-88978326D01*
X156750000Y-88926000D01*
X156750000Y-88500000D01*
X156124000Y-88500000D01*
X156071674Y-88478326D01*
X156050000Y-88426000D01*
X156050000Y-87924000D01*
X156071674Y-87871674D01*
X156124000Y-87850000D01*
X157182530Y-87850000D01*
X157215624Y-87857812D01*
G37*
%TD.AperFunction*%
%TD*%
M02*
