%TF.GenerationSoftware,KiCad,Pcbnew,10.0.4*%
%TF.CreationDate,2026-08-16T14:59:16+02:00*%
%TF.ProjectId,PS-microCard PCB,50532d6d-6963-4726-9f43-617264205043,rev?*%
%TF.SameCoordinates,Original*%
%TF.FileFunction,Legend,Top*%
%TF.FilePolarity,Positive*%
%FSLAX46Y46*%
G04 Gerber Fmt 4.6, Leading zero omitted, Abs format (unit mm)*
G04 Created by KiCad (PCBNEW 10.0.4) date 2026-08-16 14:59:16*
%MOMM*%
%LPD*%
G01*
G04 APERTURE LIST*
%ADD10C,0.200000*%
%ADD11C,0.127000*%
%ADD12C,0.120000*%
%ADD13C,0.152400*%
%ADD14C,0.191421*%
G04 APERTURE END LIST*
%TO.C,J2*%
D10*
X162875000Y-116550000D02*
G75*
G02*
X162675000Y-116550000I-100000J0D01*
G01*
X162675000Y-116550000D02*
G75*
G02*
X162875000Y-116550000I100000J0D01*
G01*
D11*
X167775000Y-121650000D02*
X167775000Y-122000000D01*
X167775000Y-117700000D02*
X167775000Y-119450000D01*
X167545000Y-117700000D02*
X167775000Y-117700000D01*
X160375000Y-122000000D02*
X160375000Y-121650000D01*
X160375000Y-119450000D02*
X160375000Y-117700000D01*
X160375000Y-117700000D02*
X160605000Y-117700000D01*
%TO.C,R15*%
D12*
X154822000Y-78096141D02*
X154822000Y-77788859D01*
X155582000Y-78096141D02*
X155582000Y-77788859D01*
%TO.C,C7*%
X145940000Y-90542164D02*
X145940000Y-90757836D01*
X146660000Y-90542164D02*
X146660000Y-90757836D01*
%TO.C,R16*%
X155922000Y-77788859D02*
X155922000Y-78096141D01*
X156682000Y-77788859D02*
X156682000Y-78096141D01*
%TO.C,R10*%
X152596359Y-105470000D02*
X152903641Y-105470000D01*
X152596359Y-106230000D02*
X152903641Y-106230000D01*
%TO.C,C17*%
X149740000Y-81657836D02*
X149740000Y-81442164D01*
X150460000Y-81657836D02*
X150460000Y-81442164D01*
%TO.C,U6*%
D13*
X135351000Y-108616600D02*
X135351000Y-108845200D01*
X135351000Y-108845200D02*
X135351000Y-109454800D01*
X135351000Y-109454800D02*
X135351000Y-109683400D01*
X135351000Y-108845200D02*
G75*
G02*
X135351000Y-109454800I0J-304800D01*
G01*
%TO.C,R19*%
D12*
X162970000Y-75656359D02*
X162970000Y-75963641D01*
X163730000Y-75656359D02*
X163730000Y-75963641D01*
%TO.C,C14*%
X153790000Y-93022164D02*
X153790000Y-93237836D01*
X154510000Y-93022164D02*
X154510000Y-93237836D01*
%TO.C,C27*%
X151232836Y-69535000D02*
X151017164Y-69535000D01*
X151232836Y-70255000D02*
X151017164Y-70255000D01*
%TO.C,S1*%
D11*
X137170000Y-90600000D02*
X138530000Y-90600000D01*
X137170000Y-92500000D02*
X138530000Y-92500000D01*
D10*
X135750000Y-90950000D02*
G75*
G02*
X135550000Y-90950000I-100000J0D01*
G01*
X135550000Y-90950000D02*
G75*
G02*
X135750000Y-90950000I100000J0D01*
G01*
%TO.C,C10*%
D12*
X154790000Y-93022164D02*
X154790000Y-93237836D01*
X155510000Y-93022164D02*
X155510000Y-93237836D01*
%TO.C,R5*%
X142420000Y-88153641D02*
X142420000Y-87846359D01*
X143180000Y-88153641D02*
X143180000Y-87846359D01*
%TO.C,R6*%
X159203641Y-86320000D02*
X158896359Y-86320000D01*
X159203641Y-87080000D02*
X158896359Y-87080000D01*
%TO.C,R3*%
X167370000Y-75953641D02*
X167370000Y-75646359D01*
X168130000Y-75953641D02*
X168130000Y-75646359D01*
%TO.C,C22*%
X152942164Y-115440000D02*
X153157836Y-115440000D01*
X152942164Y-116160000D02*
X153157836Y-116160000D01*
%TO.C,C31*%
X154765000Y-98882836D02*
X154765000Y-98667164D01*
X155485000Y-98882836D02*
X155485000Y-98667164D01*
%TO.C,L2*%
X134490000Y-111415000D02*
X134490000Y-112440000D01*
X134490000Y-111415000D02*
X135515000Y-111415000D01*
X134490000Y-115635000D02*
X134490000Y-114610000D01*
X134490000Y-115635000D02*
X135515000Y-115635000D01*
X139260000Y-111415000D02*
X138235000Y-111415000D01*
X139260000Y-111415000D02*
X139260000Y-112440000D01*
X139260000Y-115635000D02*
X138235000Y-115635000D01*
X139260000Y-115635000D02*
X139260000Y-114610000D01*
%TO.C,R26*%
X140203641Y-105495000D02*
X139896359Y-105495000D01*
X140203641Y-106255000D02*
X139896359Y-106255000D01*
%TO.C,R1*%
X165643641Y-73620000D02*
X165336359Y-73620000D01*
X165643641Y-74380000D02*
X165336359Y-74380000D01*
%TO.C,U2*%
X147692000Y-83770000D02*
X148142000Y-83770000D01*
X147692000Y-84220000D02*
X147692000Y-83770000D01*
X147692000Y-90540000D02*
X147692000Y-90990000D01*
X147692000Y-90990000D02*
X148142000Y-90990000D01*
X154912000Y-84220000D02*
X154912000Y-83770000D01*
X154912000Y-90540000D02*
X154912000Y-90990000D01*
X154912000Y-90990000D02*
X154462000Y-90990000D01*
%TO.C,U1*%
X161742000Y-79120000D02*
X162012000Y-79120000D01*
X161742000Y-84640000D02*
X161742000Y-79120000D01*
X162012000Y-84640000D02*
X161742000Y-84640000D01*
X166992000Y-79120000D02*
X167262000Y-79120000D01*
X167262000Y-79120000D02*
X167262000Y-84640000D01*
X167262000Y-84640000D02*
X166992000Y-84640000D01*
X167002000Y-78290000D02*
X167472000Y-77950000D01*
X167472000Y-78630000D01*
X167002000Y-78290000D01*
G36*
X167472000Y-78630000D02*
G01*
X167002000Y-78290000D01*
X167472000Y-77950000D01*
X167472000Y-78630000D01*
G37*
%TO.C,R27*%
X150278641Y-75445000D02*
X149971359Y-75445000D01*
X150278641Y-76205000D02*
X149971359Y-76205000D01*
%TO.C,TP13*%
X159400000Y-74650000D02*
G75*
G02*
X158000000Y-74650000I-700000J0D01*
G01*
X158000000Y-74650000D02*
G75*
G02*
X159400000Y-74650000I700000J0D01*
G01*
%TO.C,C30*%
X157517164Y-98065000D02*
X157732836Y-98065000D01*
X157517164Y-98785000D02*
X157732836Y-98785000D01*
%TO.C,C19*%
X162286252Y-105290000D02*
X161763748Y-105290000D01*
X162286252Y-106760000D02*
X161763748Y-106760000D01*
%TO.C,C20*%
X162117164Y-115165000D02*
X162332836Y-115165000D01*
X162117164Y-115885000D02*
X162332836Y-115885000D01*
%TO.C,S2*%
D11*
X166555000Y-88170000D02*
X165195000Y-88170000D01*
X166555000Y-90070000D02*
X165195000Y-90070000D01*
D10*
X168175000Y-89720000D02*
G75*
G02*
X167975000Y-89720000I-100000J0D01*
G01*
X167975000Y-89720000D02*
G75*
G02*
X168175000Y-89720000I100000J0D01*
G01*
%TO.C,R11*%
D12*
X137253641Y-93020000D02*
X136946359Y-93020000D01*
X137253641Y-93780000D02*
X136946359Y-93780000D01*
%TO.C,R14*%
X153722000Y-78096141D02*
X153722000Y-77788859D01*
X154482000Y-78096141D02*
X154482000Y-77788859D01*
%TO.C,R4*%
X158846359Y-91920000D02*
X159153641Y-91920000D01*
X158846359Y-92680000D02*
X159153641Y-92680000D01*
%TO.C,C35*%
X139582836Y-110165000D02*
X139367164Y-110165000D01*
X139582836Y-110885000D02*
X139367164Y-110885000D01*
%TO.C,R22*%
X145995000Y-98746359D02*
X145995000Y-99053641D01*
X146755000Y-98746359D02*
X146755000Y-99053641D01*
%TO.C,C3*%
X136840000Y-88257836D02*
X136840000Y-88042164D01*
X137560000Y-88257836D02*
X137560000Y-88042164D01*
%TO.C,C33*%
X153715000Y-98882836D02*
X153715000Y-98667164D01*
X154435000Y-98882836D02*
X154435000Y-98667164D01*
%TO.C,C23*%
X164640000Y-101357836D02*
X164640000Y-101142164D01*
X165360000Y-101357836D02*
X165360000Y-101142164D01*
%TO.C,R23*%
X152295000Y-98661359D02*
X152295000Y-98968641D01*
X153055000Y-98661359D02*
X153055000Y-98968641D01*
%TO.C,C15*%
X145007836Y-87290000D02*
X144792164Y-87290000D01*
X145007836Y-88010000D02*
X144792164Y-88010000D01*
%TO.C,R20*%
X160421359Y-93435000D02*
X160728641Y-93435000D01*
X160421359Y-94195000D02*
X160728641Y-94195000D01*
%TO.C,C5*%
X166842164Y-86890000D02*
X167057836Y-86890000D01*
X166842164Y-87610000D02*
X167057836Y-87610000D01*
%TO.C,R9*%
X160371359Y-94495000D02*
X160678641Y-94495000D01*
X160371359Y-95255000D02*
X160678641Y-95255000D01*
%TO.C,R12*%
X145522000Y-77796359D02*
X145522000Y-78103641D01*
X146282000Y-77796359D02*
X146282000Y-78103641D01*
%TO.C,C24*%
X153488748Y-113315000D02*
X154011252Y-113315000D01*
X153488748Y-114785000D02*
X154011252Y-114785000D01*
%TO.C,R21*%
X161895000Y-93161359D02*
X161895000Y-93468641D01*
X162655000Y-93161359D02*
X162655000Y-93468641D01*
%TO.C,U3*%
D11*
X161375000Y-112260000D02*
X161375000Y-111600000D01*
X162490000Y-111130000D02*
X163160000Y-111130000D01*
X164275000Y-111600000D02*
X164275000Y-112260000D01*
D10*
X161875000Y-114340000D02*
G75*
G02*
X161675000Y-114340000I-100000J0D01*
G01*
X161675000Y-114340000D02*
G75*
G02*
X161875000Y-114340000I100000J0D01*
G01*
%TO.C,R24*%
D12*
X151220000Y-98968641D02*
X151220000Y-98661359D01*
X151980000Y-98968641D02*
X151980000Y-98661359D01*
%TO.C,U4*%
D11*
X161075000Y-97130000D02*
X161075000Y-101530000D01*
X164075000Y-97130000D02*
X164075000Y-101530000D01*
D10*
X164060000Y-94890000D02*
G75*
G02*
X163860000Y-94890000I-100000J0D01*
G01*
X163860000Y-94890000D02*
G75*
G02*
X164060000Y-94890000I100000J0D01*
G01*
%TO.C,TP12*%
D12*
X157100000Y-74650000D02*
G75*
G02*
X155700000Y-74650000I-700000J0D01*
G01*
X155700000Y-74650000D02*
G75*
G02*
X157100000Y-74650000I700000J0D01*
G01*
%TO.C,U7*%
D11*
X149060000Y-72045000D02*
X149060000Y-73645000D01*
X152190000Y-73645000D02*
X152190000Y-72045000D01*
D10*
X151675000Y-70445000D02*
G75*
G02*
X151475000Y-70445000I-100000J0D01*
G01*
X151475000Y-70445000D02*
G75*
G02*
X151675000Y-70445000I100000J0D01*
G01*
%TO.C,R28*%
D12*
X148956359Y-76570000D02*
X149263641Y-76570000D01*
X148956359Y-77330000D02*
X149263641Y-77330000D01*
%TO.C,C13*%
X152092000Y-93022164D02*
X152092000Y-93237836D01*
X152812000Y-93022164D02*
X152812000Y-93237836D01*
%TO.C,C28*%
X163317164Y-103715000D02*
X163532836Y-103715000D01*
X163317164Y-104435000D02*
X163532836Y-104435000D01*
%TO.C,C34*%
X143915000Y-99007836D02*
X143915000Y-98792164D01*
X144635000Y-99007836D02*
X144635000Y-98792164D01*
%TO.C,TP10*%
X146850000Y-74350000D02*
G75*
G02*
X145450000Y-74350000I-700000J0D01*
G01*
X145450000Y-74350000D02*
G75*
G02*
X146850000Y-74350000I700000J0D01*
G01*
%TO.C,R2*%
X165643641Y-74920000D02*
X165336359Y-74920000D01*
X165643641Y-75680000D02*
X165336359Y-75680000D01*
%TO.C,C26*%
X151992164Y-75465000D02*
X152207836Y-75465000D01*
X151992164Y-76185000D02*
X152207836Y-76185000D01*
%TO.C,C11*%
X151990000Y-81157836D02*
X151990000Y-80942164D01*
X152710000Y-81157836D02*
X152710000Y-80942164D01*
%TO.C,C21*%
X162482836Y-108565000D02*
X162267164Y-108565000D01*
X162482836Y-109285000D02*
X162267164Y-109285000D01*
%TO.C,R13*%
X146622000Y-78096141D02*
X146622000Y-77788859D01*
X147382000Y-78096141D02*
X147382000Y-77788859D01*
%TO.C,C9*%
X146007836Y-85540000D02*
X145792164Y-85540000D01*
X146007836Y-86260000D02*
X145792164Y-86260000D01*
%TO.C,C6*%
X156040000Y-92442164D02*
X156040000Y-92657836D01*
X156760000Y-92442164D02*
X156760000Y-92657836D01*
%TO.C,TP9*%
X144450000Y-74350000D02*
G75*
G02*
X143050000Y-74350000I-700000J0D01*
G01*
X143050000Y-74350000D02*
G75*
G02*
X144450000Y-74350000I700000J0D01*
G01*
%TO.C,C18*%
X155542164Y-82140000D02*
X155757836Y-82140000D01*
X155542164Y-82860000D02*
X155757836Y-82860000D01*
%TO.C,R8*%
X149953641Y-115520000D02*
X149646359Y-115520000D01*
X149953641Y-116280000D02*
X149646359Y-116280000D01*
%TO.C,C2*%
X142440000Y-85312164D02*
X142440000Y-85527836D01*
X143160000Y-85312164D02*
X143160000Y-85527836D01*
%TO.C,R25*%
X137821359Y-105520000D02*
X138128641Y-105520000D01*
X137821359Y-106280000D02*
X138128641Y-106280000D01*
%TO.C,R7*%
X159203641Y-87370000D02*
X158896359Y-87370000D01*
X159203641Y-88130000D02*
X158896359Y-88130000D01*
%TO.C,Y1*%
D11*
X139815000Y-85550000D02*
X139985000Y-85550000D01*
X139815000Y-88050000D02*
X139985000Y-88050000D01*
D10*
X138850000Y-88945000D02*
G75*
G02*
X138650000Y-88945000I-100000J0D01*
G01*
X138650000Y-88945000D02*
G75*
G02*
X138850000Y-88945000I100000J0D01*
G01*
%TO.C,C12*%
D12*
X150940000Y-93022164D02*
X150940000Y-93237836D01*
X151660000Y-93022164D02*
X151660000Y-93237836D01*
%TO.C,C25*%
X160982836Y-103665000D02*
X160767164Y-103665000D01*
X160982836Y-104385000D02*
X160767164Y-104385000D01*
%TO.C,L1*%
D14*
X160495710Y-89400000D02*
G75*
G02*
X160304290Y-89400000I-95710J0D01*
G01*
X160304290Y-89400000D02*
G75*
G02*
X160495710Y-89400000I95710J0D01*
G01*
%TO.C,C32*%
D12*
X144965000Y-98792164D02*
X144965000Y-99007836D01*
X145685000Y-98792164D02*
X145685000Y-99007836D01*
%TO.C,C36*%
X138082836Y-104190000D02*
X137867164Y-104190000D01*
X138082836Y-104910000D02*
X137867164Y-104910000D01*
%TO.C,TP11*%
X154800000Y-74650000D02*
G75*
G02*
X153400000Y-74650000I-700000J0D01*
G01*
X153400000Y-74650000D02*
G75*
G02*
X154800000Y-74650000I700000J0D01*
G01*
%TD*%
M02*
