%TF.GenerationSoftware,KiCad,Pcbnew,10.0.4*%
%TF.CreationDate,2026-08-16T14:59:17+02:00*%
%TF.ProjectId,PS-microCard PCB,50532d6d-6963-4726-9f43-617264205043,rev?*%
%TF.SameCoordinates,Original*%
%TF.FileFunction,Soldermask,Top*%
%TF.FilePolarity,Negative*%
%FSLAX46Y46*%
G04 Gerber Fmt 4.6, Leading zero omitted, Abs format (unit mm)*
G04 Created by KiCad (PCBNEW 10.0.4) date 2026-08-16 14:59:17*
%MOMM*%
%LPD*%
G01*
G04 APERTURE LIST*
G04 Aperture macros list*
%AMRoundRect*
0 Rectangle with rounded corners*
0 $1 Rounding radius*
0 $2 $3 $4 $5 $6 $7 $8 $9 X,Y pos of 4 corners*
0 Add a 4 corners polygon primitive as box body*
4,1,4,$2,$3,$4,$5,$6,$7,$8,$9,$2,$3,0*
0 Add four circle primitives for the rounded corners*
1,1,$1+$1,$2,$3*
1,1,$1+$1,$4,$5*
1,1,$1+$1,$6,$7*
1,1,$1+$1,$8,$9*
0 Add four rect primitives between the rounded corners*
20,1,$1+$1,$2,$3,$4,$5,0*
20,1,$1+$1,$4,$5,$6,$7,0*
20,1,$1+$1,$6,$7,$8,$9,0*
20,1,$1+$1,$8,$9,$2,$3,0*%
%AMFreePoly0*
4,1,18,-0.437500,0.050000,-0.433694,0.069134,-0.422855,0.085355,-0.406634,0.096194,-0.387500,0.100000,0.387500,0.100000,0.437500,0.050000,0.437500,-0.050000,0.433694,-0.069134,0.422855,-0.085355,0.406634,-0.096194,0.387500,-0.100000,-0.387500,-0.100000,-0.406634,-0.096194,-0.422855,-0.085355,-0.433694,-0.069134,-0.437500,-0.050000,-0.437500,0.050000,-0.437500,0.050000,$1*%
%AMFreePoly1*
4,1,18,-0.437500,0.050000,-0.433694,0.069134,-0.422855,0.085355,-0.406634,0.096194,-0.387500,0.100000,0.387500,0.100000,0.406634,0.096194,0.422855,0.085355,0.433694,0.069134,0.437500,0.050000,0.437500,-0.050000,0.387500,-0.100000,-0.387500,-0.100000,-0.406634,-0.096194,-0.422855,-0.085355,-0.433694,-0.069134,-0.437500,-0.050000,-0.437500,0.050000,-0.437500,0.050000,$1*%
%AMFreePoly2*
4,1,18,-0.100000,0.387500,-0.050000,0.437500,0.050000,0.437500,0.069134,0.433694,0.085355,0.422855,0.096194,0.406634,0.100000,0.387500,0.100000,-0.387500,0.096194,-0.406634,0.085355,-0.422855,0.069134,-0.433694,0.050000,-0.437500,-0.050000,-0.437500,-0.069134,-0.433694,-0.085355,-0.422855,-0.096194,-0.406634,-0.100000,-0.387500,-0.100000,0.387500,-0.100000,0.387500,$1*%
%AMFreePoly3*
4,1,18,-0.100000,0.387500,-0.096194,0.406634,-0.085355,0.422855,-0.069134,0.433694,-0.050000,0.437500,0.050000,0.437500,0.100000,0.387500,0.100000,-0.387500,0.096194,-0.406634,0.085355,-0.422855,0.069134,-0.433694,0.050000,-0.437500,-0.050000,-0.437500,-0.069134,-0.433694,-0.085355,-0.422855,-0.096194,-0.406634,-0.100000,-0.387500,-0.100000,0.387500,-0.100000,0.387500,$1*%
%AMFreePoly4*
4,1,18,-0.437500,0.050000,-0.433694,0.069134,-0.422855,0.085355,-0.406634,0.096194,-0.387500,0.100000,0.387500,0.100000,0.406634,0.096194,0.422855,0.085355,0.433694,0.069134,0.437500,0.050000,0.437500,-0.050000,0.433694,-0.069134,0.422855,-0.085355,0.406634,-0.096194,0.387500,-0.100000,-0.387500,-0.100000,-0.437500,-0.050000,-0.437500,0.050000,-0.437500,0.050000,$1*%
%AMFreePoly5*
4,1,18,-0.437500,0.050000,-0.387500,0.100000,0.387500,0.100000,0.406634,0.096194,0.422855,0.085355,0.433694,0.069134,0.437500,0.050000,0.437500,-0.050000,0.433694,-0.069134,0.422855,-0.085355,0.406634,-0.096194,0.387500,-0.100000,-0.387500,-0.100000,-0.406634,-0.096194,-0.422855,-0.085355,-0.433694,-0.069134,-0.437500,-0.050000,-0.437500,0.050000,-0.437500,0.050000,$1*%
%AMFreePoly6*
4,1,18,-0.100000,0.387500,-0.096194,0.406634,-0.085355,0.422855,-0.069134,0.433694,-0.050000,0.437500,0.050000,0.437500,0.069134,0.433694,0.085355,0.422855,0.096194,0.406634,0.100000,0.387500,0.100000,-0.387500,0.050000,-0.437500,-0.050000,-0.437500,-0.069134,-0.433694,-0.085355,-0.422855,-0.096194,-0.406634,-0.100000,-0.387500,-0.100000,0.387500,-0.100000,0.387500,$1*%
%AMFreePoly7*
4,1,18,-0.100000,0.387500,-0.096194,0.406634,-0.085355,0.422855,-0.069134,0.433694,-0.050000,0.437500,0.050000,0.437500,0.069134,0.433694,0.085355,0.422855,0.096194,0.406634,0.100000,0.387500,0.100000,-0.387500,0.096194,-0.406634,0.085355,-0.422855,0.069134,-0.433694,0.050000,-0.437500,-0.050000,-0.437500,-0.100000,-0.387500,-0.100000,0.387500,-0.100000,0.387500,$1*%
G04 Aperture macros list end*
%ADD10C,0.010000*%
%ADD11O,1.504000X1.154000*%
%ADD12RoundRect,0.102000X-0.750000X-0.775000X0.750000X-0.775000X0.750000X0.775000X-0.750000X0.775000X0*%
%ADD13RoundRect,0.102000X-0.200000X-0.675000X0.200000X-0.675000X0.200000X0.675000X-0.200000X0.675000X0*%
%ADD14RoundRect,0.135000X0.185000X-0.135000X0.185000X0.135000X-0.185000X0.135000X-0.185000X-0.135000X0*%
%ADD15R,1.400000X6.500000*%
%ADD16RoundRect,0.140000X-0.170000X0.140000X-0.170000X-0.140000X0.170000X-0.140000X0.170000X0.140000X0*%
%ADD17RoundRect,0.135000X-0.185000X0.135000X-0.185000X-0.135000X0.185000X-0.135000X0.185000X0.135000X0*%
%ADD18RoundRect,0.135000X-0.135000X-0.185000X0.135000X-0.185000X0.135000X0.185000X-0.135000X0.185000X0*%
%ADD19RoundRect,0.140000X0.170000X-0.140000X0.170000X0.140000X-0.170000X0.140000X-0.170000X-0.140000X0*%
%ADD20RoundRect,0.102000X0.279400X-0.635000X0.279400X0.635000X-0.279400X0.635000X-0.279400X-0.635000X0*%
%ADD21RoundRect,0.140000X0.140000X0.170000X-0.140000X0.170000X-0.140000X-0.170000X0.140000X-0.170000X0*%
%ADD22RoundRect,0.102000X-0.275000X-0.285000X0.275000X-0.285000X0.275000X0.285000X-0.275000X0.285000X0*%
%ADD23RoundRect,0.135000X0.135000X0.185000X-0.135000X0.185000X-0.135000X-0.185000X0.135000X-0.185000X0*%
%ADD24RoundRect,0.140000X-0.140000X-0.170000X0.140000X-0.170000X0.140000X0.170000X-0.140000X0.170000X0*%
%ADD25R,1.500000X3.600000*%
%ADD26FreePoly0,270.000000*%
%ADD27RoundRect,0.050000X-0.050000X0.387500X-0.050000X-0.387500X0.050000X-0.387500X0.050000X0.387500X0*%
%ADD28FreePoly1,270.000000*%
%ADD29FreePoly2,270.000000*%
%ADD30RoundRect,0.050000X-0.387500X0.050000X-0.387500X-0.050000X0.387500X-0.050000X0.387500X0.050000X0*%
%ADD31FreePoly3,270.000000*%
%ADD32FreePoly4,270.000000*%
%ADD33FreePoly5,270.000000*%
%ADD34FreePoly6,270.000000*%
%ADD35FreePoly7,270.000000*%
%ADD36RoundRect,0.153000X-1.547000X-1.547000X1.547000X-1.547000X1.547000X1.547000X-1.547000X1.547000X0*%
%ADD37RoundRect,0.162500X-0.162500X0.650000X-0.162500X-0.650000X0.162500X-0.650000X0.162500X0.650000X0*%
%ADD38C,1.000000*%
%ADD39RoundRect,0.250000X0.250000X0.475000X-0.250000X0.475000X-0.250000X-0.475000X0.250000X-0.475000X0*%
%ADD40RoundRect,0.102000X0.275000X0.285000X-0.275000X0.285000X-0.275000X-0.285000X0.275000X-0.285000X0*%
%ADD41RoundRect,0.250000X-0.250000X-0.475000X0.250000X-0.475000X0.250000X0.475000X-0.250000X0.475000X0*%
%ADD42RoundRect,0.249500X0.147500X-0.457500X0.147500X0.457500X-0.147500X0.457500X-0.147500X-0.457500X0*%
%ADD43R,0.530000X0.470000*%
%ADD44RoundRect,0.153250X-0.153750X0.733750X-0.153750X-0.733750X0.153750X-0.733750X0.153750X0.733750X0*%
%ADD45RoundRect,0.175750X-0.221250X0.531250X-0.221250X-0.531250X0.221250X-0.531250X0.221250X0.531250X0*%
%ADD46R,1.400000X7.300000*%
%ADD47RoundRect,0.102000X0.650000X-0.525000X0.650000X0.525000X-0.650000X0.525000X-0.650000X-0.525000X0*%
%ADD48R,1.700000X0.700000*%
G04 APERTURE END LIST*
D10*
%TO.C,J2*%
X166275000Y-119675000D02*
X167520000Y-119675000D01*
X167551000Y-119676000D01*
X167583000Y-119678000D01*
X167614000Y-119682000D01*
X167645000Y-119688000D01*
X167675000Y-119695000D01*
X167705000Y-119704000D01*
X167735000Y-119715000D01*
X167764000Y-119727000D01*
X167792000Y-119740000D01*
X167820000Y-119755000D01*
X167847000Y-119772000D01*
X167873000Y-119790000D01*
X167898000Y-119809000D01*
X167921000Y-119829000D01*
X167944000Y-119851000D01*
X167966000Y-119874000D01*
X167986000Y-119897000D01*
X168005000Y-119922000D01*
X168023000Y-119948000D01*
X168040000Y-119975000D01*
X168055000Y-120003000D01*
X168068000Y-120031000D01*
X168080000Y-120060000D01*
X168091000Y-120090000D01*
X168100000Y-120120000D01*
X168107000Y-120150000D01*
X168113000Y-120181000D01*
X168117000Y-120212000D01*
X168119000Y-120244000D01*
X168120000Y-120275000D01*
X168120000Y-120825000D01*
X168119000Y-120856000D01*
X168117000Y-120888000D01*
X168113000Y-120919000D01*
X168107000Y-120950000D01*
X168100000Y-120980000D01*
X168091000Y-121010000D01*
X168080000Y-121040000D01*
X168068000Y-121069000D01*
X168055000Y-121097000D01*
X168040000Y-121125000D01*
X168023000Y-121152000D01*
X168005000Y-121178000D01*
X167986000Y-121203000D01*
X167966000Y-121226000D01*
X167944000Y-121249000D01*
X167921000Y-121271000D01*
X167898000Y-121291000D01*
X167873000Y-121310000D01*
X167847000Y-121328000D01*
X167820000Y-121345000D01*
X167792000Y-121360000D01*
X167764000Y-121373000D01*
X167735000Y-121385000D01*
X167705000Y-121396000D01*
X167675000Y-121405000D01*
X167645000Y-121412000D01*
X167614000Y-121418000D01*
X167583000Y-121422000D01*
X167551000Y-121424000D01*
X167520000Y-121425000D01*
X166275000Y-121425000D01*
X166275000Y-119675000D01*
G36*
X167551000Y-119676000D02*
G01*
X167583000Y-119678000D01*
X167614000Y-119682000D01*
X167645000Y-119688000D01*
X167675000Y-119695000D01*
X167705000Y-119704000D01*
X167735000Y-119715000D01*
X167764000Y-119727000D01*
X167792000Y-119740000D01*
X167820000Y-119755000D01*
X167847000Y-119772000D01*
X167873000Y-119790000D01*
X167898000Y-119809000D01*
X167921000Y-119829000D01*
X167944000Y-119851000D01*
X167966000Y-119874000D01*
X167986000Y-119897000D01*
X168005000Y-119922000D01*
X168023000Y-119948000D01*
X168040000Y-119975000D01*
X168055000Y-120003000D01*
X168068000Y-120031000D01*
X168080000Y-120060000D01*
X168091000Y-120090000D01*
X168100000Y-120120000D01*
X168107000Y-120150000D01*
X168113000Y-120181000D01*
X168117000Y-120212000D01*
X168119000Y-120244000D01*
X168120000Y-120275000D01*
X168120000Y-120825000D01*
X168119000Y-120856000D01*
X168117000Y-120888000D01*
X168113000Y-120919000D01*
X168107000Y-120950000D01*
X168100000Y-120980000D01*
X168091000Y-121010000D01*
X168080000Y-121040000D01*
X168068000Y-121069000D01*
X168055000Y-121097000D01*
X168040000Y-121125000D01*
X168023000Y-121152000D01*
X168005000Y-121178000D01*
X167986000Y-121203000D01*
X167966000Y-121226000D01*
X167944000Y-121249000D01*
X167921000Y-121271000D01*
X167898000Y-121291000D01*
X167873000Y-121310000D01*
X167847000Y-121328000D01*
X167820000Y-121345000D01*
X167792000Y-121360000D01*
X167764000Y-121373000D01*
X167735000Y-121385000D01*
X167705000Y-121396000D01*
X167675000Y-121405000D01*
X167645000Y-121412000D01*
X167614000Y-121418000D01*
X167583000Y-121422000D01*
X167551000Y-121424000D01*
X167520000Y-121425000D01*
X166275000Y-121425000D01*
X166275000Y-119675000D01*
X167520000Y-119675000D01*
X167551000Y-119676000D01*
G37*
X161875000Y-121425000D02*
X160630000Y-121425000D01*
X160599000Y-121424000D01*
X160567000Y-121422000D01*
X160536000Y-121418000D01*
X160505000Y-121412000D01*
X160475000Y-121405000D01*
X160445000Y-121396000D01*
X160415000Y-121385000D01*
X160386000Y-121373000D01*
X160358000Y-121360000D01*
X160330000Y-121345000D01*
X160303000Y-121328000D01*
X160277000Y-121310000D01*
X160252000Y-121291000D01*
X160229000Y-121271000D01*
X160206000Y-121249000D01*
X160184000Y-121226000D01*
X160164000Y-121203000D01*
X160145000Y-121178000D01*
X160127000Y-121152000D01*
X160110000Y-121125000D01*
X160095000Y-121097000D01*
X160082000Y-121069000D01*
X160070000Y-121040000D01*
X160059000Y-121010000D01*
X160050000Y-120980000D01*
X160043000Y-120950000D01*
X160037000Y-120919000D01*
X160033000Y-120888000D01*
X160031000Y-120856000D01*
X160030000Y-120825000D01*
X160030000Y-120275000D01*
X160031000Y-120244000D01*
X160033000Y-120212000D01*
X160037000Y-120181000D01*
X160043000Y-120150000D01*
X160050000Y-120120000D01*
X160059000Y-120090000D01*
X160070000Y-120060000D01*
X160082000Y-120031000D01*
X160095000Y-120003000D01*
X160110000Y-119975000D01*
X160127000Y-119948000D01*
X160145000Y-119922000D01*
X160164000Y-119897000D01*
X160184000Y-119874000D01*
X160206000Y-119851000D01*
X160229000Y-119829000D01*
X160252000Y-119809000D01*
X160277000Y-119790000D01*
X160303000Y-119772000D01*
X160330000Y-119755000D01*
X160358000Y-119740000D01*
X160386000Y-119727000D01*
X160415000Y-119715000D01*
X160445000Y-119704000D01*
X160475000Y-119695000D01*
X160505000Y-119688000D01*
X160536000Y-119682000D01*
X160567000Y-119678000D01*
X160599000Y-119676000D01*
X160630000Y-119675000D01*
X161875000Y-119675000D01*
X161875000Y-121425000D01*
G36*
X161875000Y-121425000D02*
G01*
X160630000Y-121425000D01*
X160599000Y-121424000D01*
X160567000Y-121422000D01*
X160536000Y-121418000D01*
X160505000Y-121412000D01*
X160475000Y-121405000D01*
X160445000Y-121396000D01*
X160415000Y-121385000D01*
X160386000Y-121373000D01*
X160358000Y-121360000D01*
X160330000Y-121345000D01*
X160303000Y-121328000D01*
X160277000Y-121310000D01*
X160252000Y-121291000D01*
X160229000Y-121271000D01*
X160206000Y-121249000D01*
X160184000Y-121226000D01*
X160164000Y-121203000D01*
X160145000Y-121178000D01*
X160127000Y-121152000D01*
X160110000Y-121125000D01*
X160095000Y-121097000D01*
X160082000Y-121069000D01*
X160070000Y-121040000D01*
X160059000Y-121010000D01*
X160050000Y-120980000D01*
X160043000Y-120950000D01*
X160037000Y-120919000D01*
X160033000Y-120888000D01*
X160031000Y-120856000D01*
X160030000Y-120825000D01*
X160030000Y-120275000D01*
X160031000Y-120244000D01*
X160033000Y-120212000D01*
X160037000Y-120181000D01*
X160043000Y-120150000D01*
X160050000Y-120120000D01*
X160059000Y-120090000D01*
X160070000Y-120060000D01*
X160082000Y-120031000D01*
X160095000Y-120003000D01*
X160110000Y-119975000D01*
X160127000Y-119948000D01*
X160145000Y-119922000D01*
X160164000Y-119897000D01*
X160184000Y-119874000D01*
X160206000Y-119851000D01*
X160229000Y-119829000D01*
X160252000Y-119809000D01*
X160277000Y-119790000D01*
X160303000Y-119772000D01*
X160330000Y-119755000D01*
X160358000Y-119740000D01*
X160386000Y-119727000D01*
X160415000Y-119715000D01*
X160445000Y-119704000D01*
X160475000Y-119695000D01*
X160505000Y-119688000D01*
X160536000Y-119682000D01*
X160567000Y-119678000D01*
X160599000Y-119676000D01*
X160630000Y-119675000D01*
X161875000Y-119675000D01*
X161875000Y-121425000D01*
G37*
%TD*%
D11*
%TO.C,J2*%
X166575000Y-117850000D03*
X161575000Y-117850000D03*
D12*
X163075000Y-120550000D03*
X165075000Y-120550000D03*
D13*
X165375000Y-117875000D03*
X164725000Y-117875000D03*
X164075000Y-117875000D03*
X163425000Y-117875000D03*
X162775000Y-117875000D03*
%TD*%
D14*
%TO.C,R15*%
X155202000Y-78452500D03*
X155202000Y-77432500D03*
%TD*%
D15*
%TO.C,TP2*%
X141202000Y-57680000D03*
%TD*%
D16*
%TO.C,C7*%
X146300000Y-90170000D03*
X146300000Y-91130000D03*
%TD*%
D17*
%TO.C,R16*%
X156302000Y-77432500D03*
X156302000Y-78452500D03*
%TD*%
D18*
%TO.C,R10*%
X152240000Y-105850000D03*
X153260000Y-105850000D03*
%TD*%
D19*
%TO.C,C17*%
X150100000Y-82030000D03*
X150100000Y-81070000D03*
%TD*%
D20*
%TO.C,U6*%
X135935200Y-110445400D03*
X136875000Y-110445400D03*
X137814800Y-110445400D03*
X137814800Y-107854600D03*
X136875000Y-107854600D03*
X135935200Y-107854600D03*
%TD*%
D15*
%TO.C,TP3*%
X157202000Y-57680000D03*
%TD*%
D17*
%TO.C,R19*%
X163350000Y-75300000D03*
X163350000Y-76320000D03*
%TD*%
D16*
%TO.C,C14*%
X154150000Y-92650000D03*
X154150000Y-93610000D03*
%TD*%
D21*
%TO.C,C27*%
X151605000Y-69895000D03*
X150645000Y-69895000D03*
%TD*%
D22*
%TO.C,S1*%
X136575000Y-90970000D03*
X139125000Y-90970000D03*
X136575000Y-92130000D03*
X139125000Y-92130000D03*
%TD*%
D16*
%TO.C,C10*%
X155150000Y-92650000D03*
X155150000Y-93610000D03*
%TD*%
D14*
%TO.C,R5*%
X142800000Y-88510000D03*
X142800000Y-87490000D03*
%TD*%
D23*
%TO.C,R6*%
X159560000Y-86700000D03*
X158540000Y-86700000D03*
%TD*%
D14*
%TO.C,R3*%
X167750000Y-76310000D03*
X167750000Y-75290000D03*
%TD*%
D24*
%TO.C,C22*%
X152570000Y-115800000D03*
X153530000Y-115800000D03*
%TD*%
D19*
%TO.C,C31*%
X155125000Y-99255000D03*
X155125000Y-98295000D03*
%TD*%
D25*
%TO.C,L2*%
X138400000Y-113525000D03*
X135350000Y-113525000D03*
%TD*%
D23*
%TO.C,R26*%
X140560000Y-105875000D03*
X139540000Y-105875000D03*
%TD*%
%TO.C,R1*%
X166000000Y-74000000D03*
X164980000Y-74000000D03*
%TD*%
D26*
%TO.C,U2*%
X154102000Y-83942500D03*
D27*
X153702000Y-83942500D03*
X153302000Y-83942500D03*
X152902000Y-83942500D03*
X152502000Y-83942500D03*
X152102000Y-83942500D03*
X151702000Y-83942500D03*
X151302000Y-83942500D03*
X150902000Y-83942500D03*
X150502000Y-83942500D03*
X150102000Y-83942500D03*
X149702000Y-83942500D03*
X149302000Y-83942500D03*
X148902000Y-83942500D03*
D28*
X148502000Y-83942500D03*
D29*
X147864500Y-84580000D03*
D30*
X147864500Y-84980000D03*
X147864500Y-85380000D03*
X147864500Y-85780000D03*
X147864500Y-86180000D03*
X147864500Y-86580000D03*
X147864500Y-86980000D03*
X147864500Y-87380000D03*
X147864500Y-87780000D03*
X147864500Y-88180000D03*
X147864500Y-88580000D03*
X147864500Y-88980000D03*
X147864500Y-89380000D03*
X147864500Y-89780000D03*
D31*
X147864500Y-90180000D03*
D32*
X148502000Y-90817500D03*
D27*
X148902000Y-90817500D03*
X149302000Y-90817500D03*
X149702000Y-90817500D03*
X150102000Y-90817500D03*
X150502000Y-90817500D03*
X150902000Y-90817500D03*
X151302000Y-90817500D03*
X151702000Y-90817500D03*
X152102000Y-90817500D03*
X152502000Y-90817500D03*
X152902000Y-90817500D03*
X153302000Y-90817500D03*
X153702000Y-90817500D03*
D33*
X154102000Y-90817500D03*
D34*
X154739500Y-90180000D03*
D30*
X154739500Y-89780000D03*
X154739500Y-89380000D03*
X154739500Y-88980000D03*
X154739500Y-88580000D03*
X154739500Y-88180000D03*
X154739500Y-87780000D03*
X154739500Y-87380000D03*
X154739500Y-86980000D03*
X154739500Y-86580000D03*
X154739500Y-86180000D03*
X154739500Y-85780000D03*
X154739500Y-85380000D03*
X154739500Y-84980000D03*
D35*
X154739500Y-84580000D03*
D36*
X151302000Y-87380000D03*
%TD*%
D37*
%TO.C,U1*%
X166407000Y-78292500D03*
X165137000Y-78292500D03*
X163867000Y-78292500D03*
X162597000Y-78292500D03*
X162597000Y-85467500D03*
X163867000Y-85467500D03*
X165137000Y-85467500D03*
X166407000Y-85467500D03*
%TD*%
D23*
%TO.C,R27*%
X150635000Y-75825000D03*
X149615000Y-75825000D03*
%TD*%
D38*
%TO.C,TP13*%
X158700000Y-74650000D03*
%TD*%
D24*
%TO.C,C30*%
X157145000Y-98425000D03*
X158105000Y-98425000D03*
%TD*%
D39*
%TO.C,C19*%
X162975000Y-106025000D03*
X161075000Y-106025000D03*
%TD*%
D24*
%TO.C,C20*%
X161745000Y-115525000D03*
X162705000Y-115525000D03*
%TD*%
D40*
%TO.C,S2*%
X167150000Y-89700000D03*
X164600000Y-89700000D03*
X167150000Y-88540000D03*
X164600000Y-88540000D03*
%TD*%
D23*
%TO.C,R11*%
X137610000Y-93400000D03*
X136590000Y-93400000D03*
%TD*%
D14*
%TO.C,R14*%
X154102000Y-78452500D03*
X154102000Y-77432500D03*
%TD*%
D18*
%TO.C,R4*%
X158490000Y-92300000D03*
X159510000Y-92300000D03*
%TD*%
D21*
%TO.C,C35*%
X139955000Y-110525000D03*
X138995000Y-110525000D03*
%TD*%
D17*
%TO.C,R22*%
X146375000Y-98390000D03*
X146375000Y-99410000D03*
%TD*%
D19*
%TO.C,C3*%
X137200000Y-88630000D03*
X137200000Y-87670000D03*
%TD*%
D15*
%TO.C,TP4*%
X159502000Y-57680000D03*
%TD*%
D19*
%TO.C,C33*%
X154075000Y-99255000D03*
X154075000Y-98295000D03*
%TD*%
%TO.C,C23*%
X165000000Y-101730000D03*
X165000000Y-100770000D03*
%TD*%
D17*
%TO.C,R23*%
X152675000Y-98305000D03*
X152675000Y-99325000D03*
%TD*%
D21*
%TO.C,C15*%
X145380000Y-87650000D03*
X144420000Y-87650000D03*
%TD*%
D18*
%TO.C,R20*%
X160065000Y-93815000D03*
X161085000Y-93815000D03*
%TD*%
D24*
%TO.C,C5*%
X166470000Y-87250000D03*
X167430000Y-87250000D03*
%TD*%
D18*
%TO.C,R9*%
X160015000Y-94875000D03*
X161035000Y-94875000D03*
%TD*%
D17*
%TO.C,R12*%
X145902000Y-77440000D03*
X145902000Y-78460000D03*
%TD*%
D41*
%TO.C,C24*%
X152800000Y-114050000D03*
X154700000Y-114050000D03*
%TD*%
D17*
%TO.C,R21*%
X162275000Y-92805000D03*
X162275000Y-93825000D03*
%TD*%
D42*
%TO.C,U3*%
X161875000Y-113185000D03*
X162825000Y-113185000D03*
X163775000Y-113185000D03*
X163775000Y-110675000D03*
X161875000Y-110675000D03*
%TD*%
D43*
%TO.C,C1*%
X156300000Y-89465000D03*
X156300000Y-90495000D03*
%TD*%
D14*
%TO.C,R24*%
X151600000Y-99325000D03*
X151600000Y-98305000D03*
%TD*%
D44*
%TO.C,U4*%
X163550000Y-96460000D03*
X162900000Y-96460000D03*
X162250000Y-96460000D03*
X161600000Y-96460000D03*
X161600000Y-102200000D03*
X162250000Y-102200000D03*
X162900000Y-102200000D03*
X163550000Y-102200000D03*
%TD*%
D38*
%TO.C,TP12*%
X156400000Y-74650000D03*
%TD*%
D45*
%TO.C,U7*%
X151575000Y-71590000D03*
X150625000Y-71590000D03*
X149675000Y-71590000D03*
X149675000Y-74100000D03*
X151575000Y-74100000D03*
%TD*%
D18*
%TO.C,R28*%
X148600000Y-76950000D03*
X149620000Y-76950000D03*
%TD*%
D16*
%TO.C,C13*%
X152452000Y-92650000D03*
X152452000Y-93610000D03*
%TD*%
D24*
%TO.C,C28*%
X162945000Y-104075000D03*
X163905000Y-104075000D03*
%TD*%
D19*
%TO.C,C34*%
X144275000Y-99380000D03*
X144275000Y-98420000D03*
%TD*%
D38*
%TO.C,TP10*%
X146150000Y-74350000D03*
%TD*%
D23*
%TO.C,R2*%
X166000000Y-75300000D03*
X164980000Y-75300000D03*
%TD*%
D24*
%TO.C,C26*%
X151620000Y-75825000D03*
X152580000Y-75825000D03*
%TD*%
D15*
%TO.C,TP5*%
X161802000Y-57680000D03*
%TD*%
D43*
%TO.C,C4*%
X157440000Y-89465000D03*
X157440000Y-90495000D03*
%TD*%
D19*
%TO.C,C11*%
X152350000Y-81530000D03*
X152350000Y-80570000D03*
%TD*%
D21*
%TO.C,C21*%
X162855000Y-108925000D03*
X161895000Y-108925000D03*
%TD*%
D46*
%TO.C,TP8*%
X151502000Y-57480000D03*
%TD*%
D14*
%TO.C,R13*%
X147002000Y-78452500D03*
X147002000Y-77432500D03*
%TD*%
D21*
%TO.C,C9*%
X146380000Y-85900000D03*
X145420000Y-85900000D03*
%TD*%
D16*
%TO.C,C6*%
X156400000Y-92070000D03*
X156400000Y-93030000D03*
%TD*%
D38*
%TO.C,TP9*%
X143750000Y-74350000D03*
%TD*%
D15*
%TO.C,TP1*%
X138902000Y-57680000D03*
%TD*%
D24*
%TO.C,C18*%
X155170000Y-82500000D03*
X156130000Y-82500000D03*
%TD*%
D23*
%TO.C,R8*%
X150310000Y-115900000D03*
X149290000Y-115900000D03*
%TD*%
D16*
%TO.C,C2*%
X142800000Y-84940000D03*
X142800000Y-85900000D03*
%TD*%
D18*
%TO.C,R25*%
X137465000Y-105900000D03*
X138485000Y-105900000D03*
%TD*%
D23*
%TO.C,R7*%
X159560000Y-87750000D03*
X158540000Y-87750000D03*
%TD*%
D46*
%TO.C,TP6*%
X146902000Y-57480000D03*
%TD*%
D47*
%TO.C,Y1*%
X138750000Y-87675000D03*
X141050000Y-87675000D03*
X141050000Y-85925000D03*
X138750000Y-85925000D03*
%TD*%
D16*
%TO.C,C12*%
X151300000Y-92650000D03*
X151300000Y-93610000D03*
%TD*%
D21*
%TO.C,C25*%
X161355000Y-104025000D03*
X160395000Y-104025000D03*
%TD*%
D48*
%TO.C,L1*%
X159100000Y-89600000D03*
X159100000Y-91000000D03*
%TD*%
D16*
%TO.C,C32*%
X145325000Y-98420000D03*
X145325000Y-99380000D03*
%TD*%
D21*
%TO.C,C36*%
X138455000Y-104550000D03*
X137495000Y-104550000D03*
%TD*%
D38*
%TO.C,TP11*%
X154100000Y-74650000D03*
%TD*%
D46*
%TO.C,TP7*%
X149202000Y-57480000D03*
%TD*%
M02*
