%TF.GenerationSoftware,KiCad,Pcbnew,10.0.4*%
%TF.CreationDate,2026-08-16T14:59:16+02:00*%
%TF.ProjectId,PS-microCard PCB,50532d6d-6963-4726-9f43-617264205043,rev?*%
%TF.SameCoordinates,Original*%
%TF.FileFunction,Copper,L3,Inr*%
%TF.FilePolarity,Positive*%
%FSLAX46Y46*%
G04 Gerber Fmt 4.6, Leading zero omitted, Abs format (unit mm)*
G04 Created by KiCad (PCBNEW 10.0.4) date 2026-08-16 14:59:16*
%MOMM*%
%LPD*%
G01*
G04 APERTURE LIST*
G04 Aperture macros list*
%AMFreePoly0*
4,1,123,-0.054808,0.779996,-0.028808,0.778996,-0.028617,0.778985,-0.002617,0.776985,-0.002427,0.776967,0.023573,0.773967,0.023944,0.773910,0.049944,0.768910,0.050167,0.768862,0.075167,0.762862,0.075300,0.762828,0.101300,0.755828,0.101756,0.755682,0.125756,0.746682,0.125923,0.746615,0.149923,0.736615,0.150083,0.736545,0.174083,0.725545,0.174460,0.725353,0.197460,0.712353,
0.197684,0.712218,0.241684,0.684218,0.242030,0.683977,0.263030,0.667977,0.263238,0.667810,0.283238,0.650810,0.283439,0.650630,0.302439,0.632630,0.302630,0.632439,0.320630,0.613439,0.320810,0.613238,0.337810,0.593238,0.337977,0.593030,0.353977,0.572030,0.354218,0.571684,0.382218,0.527684,0.382353,0.527460,0.395353,0.504460,0.395545,0.504083,0.406545,0.480083,
0.406615,0.479923,0.416615,0.455923,0.416682,0.455756,0.425682,0.431756,0.425828,0.431300,0.432828,0.405300,0.432862,0.405167,0.438862,0.380167,0.438910,0.379944,0.443910,0.353944,0.443967,0.353573,0.446967,0.327573,0.446985,0.327383,0.448985,0.301383,0.448996,0.301192,0.449996,0.275192,0.450000,0.275000,0.450000,-0.275000,0.449996,-0.275192,0.448996,-0.301192,
0.448985,-0.301383,0.446985,-0.327383,0.446967,-0.327573,0.443967,-0.353573,0.443910,-0.353944,0.438910,-0.379944,0.438862,-0.380167,0.432862,-0.405167,0.432828,-0.405300,0.425828,-0.431300,0.425682,-0.431756,0.416682,-0.455756,0.416615,-0.455923,0.406615,-0.479923,0.406545,-0.480083,0.395545,-0.504083,0.395353,-0.504460,0.382353,-0.527460,0.382218,-0.527684,0.354218,-0.571684,
0.353977,-0.572030,0.337977,-0.593030,0.337810,-0.593238,0.320810,-0.613238,0.320630,-0.613439,0.302630,-0.632439,0.302439,-0.632630,0.283439,-0.650630,0.283238,-0.650810,0.263238,-0.667810,0.263030,-0.667977,0.242030,-0.683977,0.241684,-0.684218,0.197684,-0.712218,0.197460,-0.712353,0.174460,-0.725353,0.174083,-0.725545,0.150083,-0.736545,0.149923,-0.736615,0.125923,-0.746615,
0.125756,-0.746682,0.101756,-0.755682,0.101300,-0.755828,0.075300,-0.762828,0.075167,-0.762862,0.050167,-0.768862,0.049944,-0.768910,0.023944,-0.773910,0.023573,-0.773967,-0.002427,-0.776967,-0.002617,-0.776985,-0.028617,-0.778985,-0.028808,-0.778996,-0.054808,-0.779996,-0.055000,-0.780000,-1.200000,-0.780000,-1.203536,-0.778536,-1.205000,-0.775000,-1.205000,0.775000,-1.203536,0.778536,
-1.200000,0.780000,-0.055000,0.780000,-0.054808,0.779996,-0.054808,0.779996,$1*%
%AMFreePoly1*
4,1,123,1.203536,0.778536,1.205000,0.775000,1.205000,-0.775000,1.203536,-0.778536,1.200000,-0.780000,0.055000,-0.780000,0.054808,-0.779996,0.028808,-0.778996,0.028617,-0.778985,0.002617,-0.776985,0.002427,-0.776967,-0.023573,-0.773967,-0.023944,-0.773910,-0.049944,-0.768910,-0.050167,-0.768862,-0.075167,-0.762862,-0.075300,-0.762828,-0.101300,-0.755828,-0.101756,-0.755682,-0.125756,-0.746682,
-0.125923,-0.746615,-0.149923,-0.736615,-0.150083,-0.736545,-0.174083,-0.725545,-0.174460,-0.725353,-0.197460,-0.712353,-0.197684,-0.712218,-0.241684,-0.684218,-0.242030,-0.683977,-0.263030,-0.667977,-0.263238,-0.667810,-0.283238,-0.650810,-0.283439,-0.650630,-0.302439,-0.632630,-0.302630,-0.632439,-0.320630,-0.613439,-0.320810,-0.613238,-0.337810,-0.593238,-0.337977,-0.593030,-0.353977,-0.572030,
-0.354218,-0.571684,-0.382218,-0.527684,-0.382353,-0.527460,-0.395353,-0.504460,-0.395545,-0.504083,-0.406545,-0.480083,-0.406615,-0.479923,-0.416615,-0.455923,-0.416682,-0.455756,-0.425682,-0.431756,-0.425828,-0.431300,-0.432828,-0.405300,-0.432862,-0.405167,-0.438862,-0.380167,-0.438910,-0.379944,-0.443910,-0.353944,-0.443967,-0.353573,-0.446967,-0.327573,-0.446985,-0.327383,-0.448985,-0.301383,
-0.448996,-0.301192,-0.449996,-0.275192,-0.450000,-0.275000,-0.450000,0.275000,-0.449996,0.275192,-0.448996,0.301192,-0.448985,0.301383,-0.446985,0.327383,-0.446967,0.327573,-0.443967,0.353573,-0.443910,0.353944,-0.438910,0.379944,-0.438862,0.380167,-0.432862,0.405167,-0.432828,0.405300,-0.425828,0.431300,-0.425682,0.431756,-0.416682,0.455756,-0.416615,0.455923,-0.406615,0.479923,
-0.406545,0.480083,-0.395545,0.504083,-0.395353,0.504460,-0.382353,0.527460,-0.382218,0.527684,-0.354218,0.571684,-0.353977,0.572030,-0.337977,0.593030,-0.337810,0.593238,-0.320810,0.613238,-0.320630,0.613439,-0.302630,0.632439,-0.302439,0.632630,-0.283439,0.650630,-0.283238,0.650810,-0.263238,0.667810,-0.263030,0.667977,-0.242030,0.683977,-0.241684,0.684218,-0.197684,0.712218,
-0.197460,0.712353,-0.174460,0.725353,-0.174083,0.725545,-0.150083,0.736545,-0.149923,0.736615,-0.125923,0.746615,-0.125756,0.746682,-0.101756,0.755682,-0.101300,0.755828,-0.075300,0.762828,-0.075167,0.762862,-0.050167,0.768862,-0.049944,0.768910,-0.023944,0.773910,-0.023573,0.773967,0.002427,0.776967,0.002617,0.776985,0.028617,0.778985,0.028808,0.778996,0.054808,0.779996,
0.055000,0.780000,1.200000,0.780000,1.203536,0.778536,1.203536,0.778536,$1*%
G04 Aperture macros list end*
%TA.AperFunction,ComponentPad*%
%ADD10O,1.300000X0.950000*%
%TD*%
%TA.AperFunction,ComponentPad*%
%ADD11FreePoly0,0.000000*%
%TD*%
%TA.AperFunction,ComponentPad*%
%ADD12FreePoly1,0.000000*%
%TD*%
%TA.AperFunction,ViaPad*%
%ADD13C,0.500000*%
%TD*%
G04 APERTURE END LIST*
D10*
%TO.N,GND*%
%TO.C,J2*%
X166575000Y-117850000D03*
X161575000Y-117850000D03*
D11*
X167575000Y-120550000D03*
D12*
X160575000Y-120550000D03*
%TD*%
D13*
%TO.N,+3V3*%
X164250000Y-106025000D03*
X148850000Y-84900000D03*
X160400000Y-92300000D03*
X167750000Y-77150000D03*
X148500000Y-115900000D03*
X138950000Y-109350000D03*
X154100000Y-97475000D03*
X151600000Y-100100000D03*
X153800000Y-87500000D03*
X153800000Y-86750000D03*
X152675000Y-100100000D03*
X165750000Y-87250000D03*
X152550000Y-117050000D03*
X153750000Y-89850000D03*
X152250000Y-105000000D03*
%TD*%
%TA.AperFunction,Conductor*%
%TO.N,+3V3*%
G36*
X147880130Y-76060433D02*
G01*
X147947066Y-76080454D01*
X147992555Y-76133488D01*
X147994064Y-76136978D01*
X148023533Y-76208124D01*
X148023538Y-76208133D01*
X148094723Y-76314668D01*
X148094726Y-76314672D01*
X148185327Y-76405273D01*
X148185331Y-76405276D01*
X148291866Y-76476461D01*
X148291872Y-76476464D01*
X148291873Y-76476465D01*
X148410256Y-76525501D01*
X148410260Y-76525501D01*
X148410261Y-76525502D01*
X148535928Y-76550500D01*
X148535931Y-76550500D01*
X148664071Y-76550500D01*
X148748615Y-76533682D01*
X148789744Y-76525501D01*
X148908127Y-76476465D01*
X149014669Y-76405276D01*
X149105276Y-76314669D01*
X149176465Y-76208127D01*
X149202939Y-76144211D01*
X149246777Y-76089811D01*
X149313071Y-76067745D01*
X149318065Y-76067668D01*
X151933195Y-76080826D01*
X152000128Y-76100846D01*
X152045617Y-76153880D01*
X152055213Y-76223087D01*
X152035669Y-76273711D01*
X152023539Y-76291865D01*
X152023533Y-76291875D01*
X151974499Y-76410255D01*
X151974497Y-76410261D01*
X151949500Y-76535928D01*
X151949500Y-76535931D01*
X151949500Y-76664069D01*
X151949500Y-76664071D01*
X151949499Y-76664071D01*
X151974497Y-76789738D01*
X151974501Y-76789751D01*
X151976266Y-76794012D01*
X151983732Y-76863482D01*
X151952454Y-76925959D01*
X151909157Y-76956020D01*
X151866873Y-76973535D01*
X151866866Y-76973538D01*
X151760331Y-77044723D01*
X151760327Y-77044726D01*
X151669726Y-77135327D01*
X151669723Y-77135331D01*
X151598538Y-77241866D01*
X151598533Y-77241875D01*
X151549499Y-77360255D01*
X151549497Y-77360261D01*
X151524500Y-77485928D01*
X151524500Y-77485931D01*
X151524500Y-77614069D01*
X151524500Y-77614071D01*
X151524499Y-77614071D01*
X151549497Y-77739738D01*
X151549499Y-77739744D01*
X151598533Y-77858124D01*
X151598538Y-77858133D01*
X151669723Y-77964668D01*
X151669726Y-77964672D01*
X151760327Y-78055273D01*
X151760331Y-78055276D01*
X151866866Y-78126461D01*
X151866872Y-78126464D01*
X151866873Y-78126465D01*
X151985256Y-78175501D01*
X151985260Y-78175501D01*
X151985261Y-78175502D01*
X152110928Y-78200500D01*
X152110931Y-78200500D01*
X152239071Y-78200500D01*
X152323615Y-78183682D01*
X152364744Y-78175501D01*
X152483127Y-78126465D01*
X152589669Y-78055276D01*
X152680276Y-77964669D01*
X152751465Y-77858127D01*
X152800501Y-77739744D01*
X152825500Y-77614069D01*
X152825500Y-77485931D01*
X152825500Y-77485928D01*
X152800502Y-77360261D01*
X152800501Y-77360260D01*
X152800501Y-77360256D01*
X152798734Y-77355992D01*
X152791266Y-77286524D01*
X152822541Y-77224044D01*
X152865842Y-77193980D01*
X152908127Y-77176465D01*
X153014669Y-77105276D01*
X153105276Y-77014669D01*
X153176465Y-76908127D01*
X153225501Y-76789744D01*
X153250500Y-76664069D01*
X153250500Y-76535931D01*
X153250500Y-76535928D01*
X153225502Y-76410261D01*
X153225501Y-76410260D01*
X153225501Y-76410256D01*
X153176465Y-76291873D01*
X153176460Y-76291865D01*
X153168835Y-76280453D01*
X153147958Y-76213775D01*
X153166443Y-76146395D01*
X153218423Y-76099705D01*
X153272558Y-76087565D01*
X163406128Y-76138552D01*
X163473063Y-76158572D01*
X163518552Y-76211606D01*
X163529500Y-76262549D01*
X163529500Y-76384069D01*
X163529500Y-76384071D01*
X163529499Y-76384071D01*
X163554497Y-76509738D01*
X163554499Y-76509744D01*
X163603533Y-76628124D01*
X163603538Y-76628133D01*
X163674723Y-76734668D01*
X163674726Y-76734672D01*
X163765327Y-76825273D01*
X163765331Y-76825276D01*
X163871866Y-76896461D01*
X163871872Y-76896464D01*
X163871873Y-76896465D01*
X163990256Y-76945501D01*
X163990260Y-76945501D01*
X163990261Y-76945502D01*
X164115928Y-76970500D01*
X164115931Y-76970500D01*
X164244071Y-76970500D01*
X164328615Y-76953682D01*
X164369744Y-76945501D01*
X164488127Y-76896465D01*
X164594669Y-76825276D01*
X164685276Y-76734669D01*
X164756465Y-76628127D01*
X164805501Y-76509744D01*
X164830500Y-76384069D01*
X164830500Y-76270343D01*
X164850185Y-76203304D01*
X164902989Y-76157549D01*
X164955118Y-76146346D01*
X168277637Y-76163063D01*
X168344576Y-76183084D01*
X168390065Y-76236118D01*
X168401013Y-76287065D01*
X168399636Y-119421371D01*
X168379949Y-119488410D01*
X168327144Y-119534163D01*
X168257985Y-119544104D01*
X168194430Y-119515077D01*
X168194237Y-119514910D01*
X168188862Y-119510221D01*
X168188842Y-119510204D01*
X168188832Y-119510195D01*
X168168855Y-119493215D01*
X168163047Y-119488410D01*
X168158527Y-119484670D01*
X168158111Y-119484335D01*
X168147415Y-119475955D01*
X168147414Y-119475954D01*
X168126424Y-119459961D01*
X168109661Y-119447725D01*
X168108960Y-119447235D01*
X168090773Y-119435100D01*
X168046720Y-119407066D01*
X168035626Y-119400208D01*
X168035189Y-119399945D01*
X168035141Y-119399917D01*
X168023656Y-119393224D01*
X168000656Y-119380224D01*
X168000636Y-119380213D01*
X167981824Y-119370099D01*
X167981057Y-119369708D01*
X167981047Y-119369703D01*
X167961786Y-119360377D01*
X167937786Y-119349377D01*
X167937764Y-119349367D01*
X167929282Y-119345573D01*
X167928856Y-119345387D01*
X167921306Y-119342169D01*
X167897320Y-119332175D01*
X167897297Y-119332166D01*
X167897269Y-119332154D01*
X167888161Y-119328462D01*
X167888142Y-119328454D01*
X167888084Y-119328431D01*
X167887861Y-119328343D01*
X167880068Y-119325347D01*
X167855992Y-119316318D01*
X167833273Y-119308410D01*
X167832365Y-119308118D01*
X167809020Y-119301225D01*
X167783057Y-119294235D01*
X167776847Y-119292606D01*
X167776599Y-119292543D01*
X167776533Y-119292526D01*
X167769304Y-119290734D01*
X167744304Y-119284734D01*
X167732705Y-119282094D01*
X167732689Y-119282090D01*
X167732669Y-119282086D01*
X167732243Y-119281994D01*
X167721388Y-119279783D01*
X167695361Y-119274777D01*
X167676623Y-119271538D01*
X167675897Y-119271427D01*
X167657112Y-119268901D01*
X167657100Y-119268899D01*
X167657088Y-119268898D01*
X167639728Y-119266895D01*
X167631037Y-119265892D01*
X167622256Y-119264957D01*
X167621859Y-119264918D01*
X167611573Y-119264020D01*
X167585555Y-119262019D01*
X167575668Y-119261355D01*
X167575418Y-119261341D01*
X167565766Y-119260877D01*
X167539895Y-119259882D01*
X167535171Y-119259748D01*
X167529597Y-119259591D01*
X167529555Y-119259590D01*
X167529547Y-119259590D01*
X167529204Y-119259583D01*
X167520969Y-119259508D01*
X167520000Y-119259500D01*
X166375000Y-119259500D01*
X166374998Y-119259500D01*
X166320956Y-119262397D01*
X166181555Y-119297978D01*
X166181547Y-119297981D01*
X166174478Y-119300909D01*
X166174473Y-119300911D01*
X166072828Y-119356414D01*
X166071402Y-119353802D01*
X166018622Y-119372415D01*
X165950627Y-119356339D01*
X165902117Y-119306053D01*
X165888000Y-119248592D01*
X165888000Y-119198428D01*
X165863002Y-119072761D01*
X165863001Y-119072760D01*
X165863001Y-119072756D01*
X165813965Y-118954373D01*
X165813964Y-118954372D01*
X165813961Y-118954366D01*
X165770739Y-118889680D01*
X165749861Y-118823003D01*
X165768345Y-118755622D01*
X165820324Y-118708932D01*
X165889294Y-118697756D01*
X165931533Y-118713527D01*
X165932560Y-118711608D01*
X165937931Y-118714479D01*
X166115452Y-118788010D01*
X166115457Y-118788012D01*
X166291369Y-118823003D01*
X166303917Y-118825499D01*
X166303920Y-118825500D01*
X166303922Y-118825500D01*
X166846080Y-118825500D01*
X166846081Y-118825499D01*
X167034543Y-118788012D01*
X167212073Y-118714477D01*
X167371845Y-118607720D01*
X167507720Y-118471845D01*
X167614477Y-118312073D01*
X167688012Y-118134543D01*
X167725500Y-117946078D01*
X167725500Y-117753922D01*
X167725500Y-117753919D01*
X167725499Y-117753917D01*
X167688013Y-117565464D01*
X167688012Y-117565457D01*
X167614477Y-117387927D01*
X167507720Y-117228155D01*
X167507717Y-117228151D01*
X167371848Y-117092282D01*
X167371844Y-117092279D01*
X167212070Y-116985521D01*
X167212068Y-116985520D01*
X167034547Y-116911989D01*
X167034535Y-116911986D01*
X166846081Y-116874500D01*
X166846078Y-116874500D01*
X166303922Y-116874500D01*
X166303919Y-116874500D01*
X166115464Y-116911986D01*
X166115452Y-116911989D01*
X165937931Y-116985520D01*
X165937929Y-116985521D01*
X165778155Y-117092279D01*
X165778151Y-117092282D01*
X165642282Y-117228151D01*
X165642279Y-117228155D01*
X165535521Y-117387929D01*
X165535520Y-117387931D01*
X165461989Y-117565452D01*
X165461986Y-117565464D01*
X165424500Y-117753917D01*
X165424500Y-117946082D01*
X165461986Y-118134535D01*
X165461989Y-118134547D01*
X165535520Y-118312068D01*
X165535521Y-118312070D01*
X165642283Y-118471850D01*
X165644319Y-118474331D01*
X165644978Y-118475884D01*
X165645664Y-118476910D01*
X165645469Y-118477039D01*
X165671631Y-118538641D01*
X165659837Y-118607509D01*
X165612684Y-118659068D01*
X165545141Y-118676948D01*
X165501012Y-118667554D01*
X165427248Y-118637000D01*
X165427238Y-118636997D01*
X165301571Y-118612000D01*
X165301569Y-118612000D01*
X165173431Y-118612000D01*
X165173429Y-118612000D01*
X165047761Y-118636997D01*
X165047755Y-118636999D01*
X164929375Y-118686033D01*
X164929366Y-118686038D01*
X164822831Y-118757223D01*
X164822827Y-118757226D01*
X164732226Y-118847827D01*
X164732223Y-118847831D01*
X164661038Y-118954366D01*
X164661033Y-118954375D01*
X164611999Y-119072755D01*
X164611997Y-119072761D01*
X164587000Y-119198428D01*
X164587000Y-119198431D01*
X164587000Y-119326569D01*
X164587000Y-119326571D01*
X164586999Y-119326571D01*
X164611997Y-119452238D01*
X164611999Y-119452244D01*
X164661033Y-119570624D01*
X164661038Y-119570633D01*
X164732223Y-119677168D01*
X164732226Y-119677172D01*
X164822827Y-119767773D01*
X164822831Y-119767776D01*
X164929366Y-119838961D01*
X164929372Y-119838964D01*
X164929373Y-119838965D01*
X165047756Y-119888001D01*
X165047760Y-119888001D01*
X165047761Y-119888002D01*
X165173428Y-119913000D01*
X165173431Y-119913000D01*
X165301571Y-119913000D01*
X165393451Y-119894723D01*
X165427244Y-119888001D01*
X165545627Y-119838965D01*
X165652169Y-119767776D01*
X165652179Y-119767765D01*
X165656834Y-119763947D01*
X165721144Y-119736634D01*
X165790012Y-119748425D01*
X165841572Y-119795576D01*
X165859500Y-119859800D01*
X165859500Y-121325002D01*
X165862397Y-121379043D01*
X165897978Y-121518444D01*
X165897981Y-121518452D01*
X165900909Y-121525521D01*
X165900911Y-121525526D01*
X165952695Y-121620362D01*
X166050740Y-121725672D01*
X166050740Y-121725673D01*
X166174474Y-121799089D01*
X166176545Y-121799947D01*
X166181548Y-121802019D01*
X166232584Y-121820024D01*
X166375000Y-121840500D01*
X166375003Y-121840500D01*
X167519988Y-121840500D01*
X167520000Y-121840500D01*
X167529213Y-121840416D01*
X167529597Y-121840409D01*
X167539812Y-121840120D01*
X167539876Y-121840117D01*
X167539895Y-121840117D01*
X167565766Y-121839122D01*
X167565790Y-121839120D01*
X167565812Y-121839120D01*
X167575373Y-121838661D01*
X167575756Y-121838639D01*
X167585537Y-121837982D01*
X167611537Y-121835982D01*
X167611559Y-121835980D01*
X167611573Y-121835979D01*
X167617744Y-121835440D01*
X167621883Y-121835079D01*
X167622262Y-121835042D01*
X167631088Y-121834102D01*
X167657088Y-121831102D01*
X167675910Y-121828571D01*
X167676652Y-121828457D01*
X167695350Y-121825224D01*
X167695355Y-121825223D01*
X167695361Y-121825222D01*
X167699079Y-121824506D01*
X167721350Y-121820224D01*
X167732259Y-121818002D01*
X167732705Y-121817906D01*
X167744304Y-121815266D01*
X167769304Y-121809266D01*
X167776533Y-121807474D01*
X167776799Y-121807406D01*
X167783017Y-121805775D01*
X167809017Y-121798775D01*
X167832373Y-121791879D01*
X167833284Y-121791586D01*
X167856004Y-121783677D01*
X167880004Y-121774677D01*
X167887826Y-121771670D01*
X167888161Y-121771538D01*
X167897269Y-121767846D01*
X167921269Y-121757846D01*
X167923822Y-121756757D01*
X167928856Y-121754612D01*
X167928899Y-121754592D01*
X167928930Y-121754580D01*
X167929251Y-121754440D01*
X167937786Y-121750623D01*
X167961786Y-121739623D01*
X167981047Y-121730297D01*
X167981801Y-121729912D01*
X167981810Y-121729906D01*
X167981824Y-121729900D01*
X167989690Y-121725671D01*
X168000656Y-121719776D01*
X168023656Y-121706776D01*
X168035141Y-121700083D01*
X168035589Y-121699814D01*
X168046760Y-121692908D01*
X168090760Y-121664908D01*
X168108972Y-121652756D01*
X168109663Y-121652273D01*
X168126415Y-121640045D01*
X168147415Y-121624045D01*
X168158111Y-121615665D01*
X168158527Y-121615330D01*
X168168862Y-121606779D01*
X168188862Y-121589779D01*
X168194051Y-121585252D01*
X168257509Y-121556017D01*
X168326700Y-121565730D01*
X168379656Y-121611309D01*
X168399563Y-121678283D01*
X168399564Y-121678699D01*
X168399514Y-123275504D01*
X168379827Y-123342543D01*
X168327022Y-123388296D01*
X168275514Y-123399500D01*
X133023837Y-123399500D01*
X132956798Y-123379815D01*
X132911043Y-123327011D01*
X132899837Y-123275694D01*
X132899837Y-123275504D01*
X132898020Y-122114071D01*
X142049499Y-122114071D01*
X142074497Y-122239738D01*
X142074499Y-122239744D01*
X142123533Y-122358124D01*
X142123538Y-122358133D01*
X142194723Y-122464668D01*
X142194726Y-122464672D01*
X142285327Y-122555273D01*
X142285331Y-122555276D01*
X142391866Y-122626461D01*
X142391872Y-122626464D01*
X142391873Y-122626465D01*
X142510256Y-122675501D01*
X142510260Y-122675501D01*
X142510261Y-122675502D01*
X142635928Y-122700500D01*
X142635931Y-122700500D01*
X142764071Y-122700500D01*
X142848615Y-122683682D01*
X142889744Y-122675501D01*
X143008127Y-122626465D01*
X143114669Y-122555276D01*
X143205276Y-122464669D01*
X143276465Y-122358127D01*
X143325501Y-122239744D01*
X143350500Y-122114069D01*
X143350500Y-121985931D01*
X143350500Y-121985928D01*
X143325502Y-121860261D01*
X143325501Y-121860260D01*
X143325501Y-121860256D01*
X143281742Y-121754612D01*
X143276466Y-121741875D01*
X143276461Y-121741866D01*
X143205276Y-121635331D01*
X143205273Y-121635327D01*
X143114672Y-121544726D01*
X143114668Y-121544723D01*
X143008133Y-121473538D01*
X143008124Y-121473533D01*
X142889744Y-121424499D01*
X142889738Y-121424497D01*
X142764071Y-121399500D01*
X142764069Y-121399500D01*
X142635931Y-121399500D01*
X142635929Y-121399500D01*
X142510261Y-121424497D01*
X142510255Y-121424499D01*
X142391875Y-121473533D01*
X142391866Y-121473538D01*
X142285331Y-121544723D01*
X142285327Y-121544726D01*
X142194726Y-121635327D01*
X142194723Y-121635331D01*
X142123538Y-121741866D01*
X142123533Y-121741875D01*
X142074499Y-121860255D01*
X142074497Y-121860261D01*
X142049500Y-121985928D01*
X142049500Y-121985931D01*
X142049500Y-122114069D01*
X142049500Y-122114071D01*
X142049499Y-122114071D01*
X132898020Y-122114071D01*
X132896456Y-121114071D01*
X158399499Y-121114071D01*
X158424497Y-121239738D01*
X158424499Y-121239744D01*
X158473533Y-121358124D01*
X158473538Y-121358133D01*
X158544723Y-121464668D01*
X158544726Y-121464672D01*
X158635327Y-121555273D01*
X158635331Y-121555276D01*
X158741866Y-121626461D01*
X158741872Y-121626464D01*
X158741873Y-121626465D01*
X158860256Y-121675501D01*
X158860260Y-121675501D01*
X158860261Y-121675502D01*
X158985928Y-121700500D01*
X158985931Y-121700500D01*
X159114071Y-121700500D01*
X159198615Y-121683682D01*
X159239744Y-121675501D01*
X159358127Y-121626465D01*
X159464669Y-121555276D01*
X159555276Y-121464669D01*
X159592596Y-121408814D01*
X159646208Y-121364009D01*
X159715532Y-121355300D01*
X159778560Y-121385454D01*
X159798845Y-121408879D01*
X159802234Y-121413958D01*
X159802725Y-121414661D01*
X159814961Y-121431424D01*
X159830954Y-121452414D01*
X159830955Y-121452415D01*
X159839335Y-121463111D01*
X159839670Y-121463527D01*
X159848221Y-121473862D01*
X159865221Y-121493862D01*
X159873760Y-121503651D01*
X159873779Y-121503672D01*
X159874140Y-121504076D01*
X159883765Y-121514526D01*
X159901743Y-121533504D01*
X159906621Y-121538514D01*
X159911298Y-121543319D01*
X159911681Y-121543702D01*
X159916663Y-121548552D01*
X159921495Y-121553256D01*
X159940473Y-121571234D01*
X159950923Y-121580859D01*
X159950948Y-121580881D01*
X159951349Y-121581240D01*
X159961138Y-121589779D01*
X159981138Y-121606779D01*
X159991473Y-121615330D01*
X159991889Y-121615665D01*
X159997884Y-121620362D01*
X160002585Y-121624045D01*
X160023575Y-121640038D01*
X160040338Y-121652274D01*
X160041039Y-121652764D01*
X160059226Y-121664899D01*
X160103279Y-121692933D01*
X160114373Y-121699791D01*
X160114810Y-121700054D01*
X160114833Y-121700067D01*
X160114859Y-121700083D01*
X160126344Y-121706776D01*
X160149344Y-121719776D01*
X160149363Y-121719786D01*
X160168175Y-121729900D01*
X160168199Y-121729912D01*
X160168953Y-121730297D01*
X160188214Y-121739623D01*
X160212214Y-121750623D01*
X160216962Y-121752746D01*
X160220717Y-121754426D01*
X160221143Y-121754612D01*
X160228693Y-121757830D01*
X160228731Y-121757846D01*
X160252731Y-121767846D01*
X160261839Y-121771538D01*
X160262174Y-121771670D01*
X160269996Y-121774677D01*
X160293996Y-121783677D01*
X160316716Y-121791586D01*
X160317627Y-121791879D01*
X160317634Y-121791881D01*
X160340979Y-121798774D01*
X160353058Y-121802026D01*
X160366983Y-121805775D01*
X160373201Y-121807406D01*
X160373467Y-121807474D01*
X160380696Y-121809266D01*
X160405696Y-121815266D01*
X160417295Y-121817906D01*
X160417741Y-121818002D01*
X160428650Y-121820224D01*
X160444722Y-121823314D01*
X160454638Y-121825222D01*
X160454650Y-121825224D01*
X160473348Y-121828457D01*
X160474090Y-121828571D01*
X160492912Y-121831102D01*
X160518912Y-121834102D01*
X160527738Y-121835042D01*
X160528117Y-121835079D01*
X160528140Y-121835081D01*
X160538426Y-121835979D01*
X160538448Y-121835980D01*
X160538463Y-121835982D01*
X160564463Y-121837982D01*
X160574244Y-121838639D01*
X160574627Y-121838661D01*
X160584188Y-121839120D01*
X160584204Y-121839120D01*
X160584233Y-121839122D01*
X160610104Y-121840117D01*
X160610126Y-121840117D01*
X160610188Y-121840120D01*
X160620403Y-121840409D01*
X160620787Y-121840416D01*
X160630000Y-121840500D01*
X160630012Y-121840500D01*
X161775002Y-121840500D01*
X161780796Y-121840189D01*
X161829041Y-121837603D01*
X161968452Y-121802019D01*
X161975523Y-121799090D01*
X162070364Y-121747303D01*
X162175671Y-121649261D01*
X162175672Y-121649259D01*
X162175673Y-121649259D01*
X162249089Y-121525525D01*
X162249091Y-121525521D01*
X162252019Y-121518452D01*
X162270024Y-121467416D01*
X162290500Y-121325000D01*
X162290500Y-119892969D01*
X162310185Y-119825930D01*
X162362989Y-119780175D01*
X162432147Y-119770231D01*
X162495703Y-119799256D01*
X162517601Y-119824077D01*
X162527549Y-119838965D01*
X162544725Y-119864671D01*
X162635327Y-119955273D01*
X162635331Y-119955276D01*
X162741866Y-120026461D01*
X162741872Y-120026464D01*
X162741873Y-120026465D01*
X162860256Y-120075501D01*
X162860260Y-120075501D01*
X162860261Y-120075502D01*
X162985928Y-120100500D01*
X162985931Y-120100500D01*
X163114071Y-120100500D01*
X163198615Y-120083682D01*
X163239744Y-120075501D01*
X163358127Y-120026465D01*
X163464669Y-119955276D01*
X163555276Y-119864669D01*
X163626465Y-119758127D01*
X163675501Y-119639744D01*
X163684218Y-119595923D01*
X163700500Y-119514071D01*
X163700500Y-119385928D01*
X163675502Y-119260261D01*
X163675501Y-119260260D01*
X163675501Y-119260256D01*
X163675345Y-119259880D01*
X163626466Y-119141875D01*
X163626461Y-119141866D01*
X163555276Y-119035331D01*
X163555273Y-119035327D01*
X163464672Y-118944726D01*
X163464668Y-118944723D01*
X163358133Y-118873538D01*
X163358124Y-118873533D01*
X163239744Y-118824499D01*
X163239738Y-118824497D01*
X163114071Y-118799500D01*
X163114069Y-118799500D01*
X162985931Y-118799500D01*
X162985929Y-118799500D01*
X162860261Y-118824497D01*
X162860255Y-118824499D01*
X162741875Y-118873533D01*
X162741866Y-118873538D01*
X162635331Y-118944723D01*
X162635327Y-118944726D01*
X162544726Y-119035327D01*
X162544723Y-119035331D01*
X162473538Y-119141866D01*
X162473533Y-119141875D01*
X162424502Y-119260248D01*
X162424497Y-119260261D01*
X162399499Y-119385928D01*
X162398903Y-119391991D01*
X162396532Y-119391757D01*
X162379815Y-119448690D01*
X162327011Y-119494445D01*
X162257853Y-119504389D01*
X162194297Y-119475364D01*
X162184744Y-119466146D01*
X162116839Y-119393210D01*
X162099261Y-119374329D01*
X162099260Y-119374328D01*
X162099259Y-119374327D01*
X162099259Y-119374326D01*
X161975525Y-119300910D01*
X161968452Y-119297981D01*
X161968431Y-119297973D01*
X161917417Y-119279976D01*
X161840386Y-119268901D01*
X161775000Y-119259500D01*
X160630000Y-119259500D01*
X160629039Y-119259508D01*
X160620795Y-119259583D01*
X160620452Y-119259590D01*
X160620441Y-119259590D01*
X160620403Y-119259591D01*
X160615211Y-119259737D01*
X160610104Y-119259882D01*
X160584233Y-119260877D01*
X160574581Y-119261341D01*
X160574331Y-119261355D01*
X160564444Y-119262019D01*
X160538426Y-119264020D01*
X160528140Y-119264918D01*
X160527743Y-119264957D01*
X160518962Y-119265892D01*
X160501578Y-119267898D01*
X160492912Y-119268898D01*
X160492905Y-119268898D01*
X160492887Y-119268901D01*
X160474102Y-119271427D01*
X160473376Y-119271538D01*
X160454638Y-119274777D01*
X160428611Y-119279783D01*
X160417756Y-119281994D01*
X160417330Y-119282086D01*
X160417295Y-119282094D01*
X160405696Y-119284734D01*
X160380696Y-119290734D01*
X160373467Y-119292526D01*
X160373416Y-119292538D01*
X160373400Y-119292543D01*
X160373152Y-119292606D01*
X160366942Y-119294235D01*
X160340979Y-119301225D01*
X160317634Y-119308118D01*
X160316726Y-119308410D01*
X160294007Y-119316318D01*
X160269931Y-119325347D01*
X160262138Y-119328343D01*
X160261915Y-119328431D01*
X160252679Y-119332175D01*
X160228693Y-119342169D01*
X160221143Y-119345387D01*
X160220717Y-119345573D01*
X160212235Y-119349367D01*
X160188218Y-119360375D01*
X160168942Y-119369708D01*
X160168175Y-119370099D01*
X160149363Y-119380213D01*
X160149344Y-119380224D01*
X160126344Y-119393224D01*
X160120518Y-119396618D01*
X160114810Y-119399945D01*
X160114373Y-119400208D01*
X160103279Y-119407066D01*
X160059226Y-119435100D01*
X160041039Y-119447235D01*
X160040338Y-119447725D01*
X160023575Y-119459961D01*
X160002585Y-119475954D01*
X159991910Y-119484318D01*
X159991463Y-119484678D01*
X159981144Y-119493215D01*
X159961157Y-119510204D01*
X159951327Y-119518779D01*
X159950923Y-119519140D01*
X159940473Y-119528765D01*
X159921495Y-119546743D01*
X159911653Y-119556325D01*
X159911325Y-119556653D01*
X159901743Y-119566495D01*
X159883765Y-119585473D01*
X159874140Y-119595923D01*
X159873779Y-119596327D01*
X159865204Y-119606157D01*
X159848215Y-119626144D01*
X159839678Y-119636463D01*
X159839318Y-119636910D01*
X159830954Y-119647585D01*
X159814961Y-119668575D01*
X159802725Y-119685338D01*
X159802235Y-119686039D01*
X159790100Y-119704226D01*
X159762066Y-119748279D01*
X159755208Y-119759373D01*
X159754945Y-119759810D01*
X159752535Y-119763947D01*
X159748224Y-119771344D01*
X159748210Y-119771369D01*
X159735213Y-119794363D01*
X159725099Y-119813175D01*
X159724708Y-119813942D01*
X159715375Y-119833218D01*
X159704367Y-119857235D01*
X159700573Y-119865717D01*
X159700387Y-119866143D01*
X159697169Y-119873693D01*
X159687175Y-119897679D01*
X159683431Y-119906915D01*
X159683343Y-119907138D01*
X159680347Y-119914931D01*
X159671318Y-119939007D01*
X159663410Y-119961726D01*
X159663118Y-119962634D01*
X159656225Y-119985979D01*
X159649235Y-120011942D01*
X159647638Y-120018030D01*
X159647598Y-120018183D01*
X159647594Y-120018201D01*
X159647526Y-120018467D01*
X159645734Y-120025696D01*
X159645550Y-120026465D01*
X159639734Y-120050697D01*
X159637086Y-120062330D01*
X159636994Y-120062756D01*
X159634783Y-120073611D01*
X159629777Y-120099638D01*
X159626538Y-120118376D01*
X159626427Y-120119102D01*
X159623901Y-120137887D01*
X159620892Y-120163962D01*
X159619957Y-120172743D01*
X159619918Y-120173140D01*
X159619020Y-120183426D01*
X159617019Y-120209444D01*
X159616355Y-120219331D01*
X159616341Y-120219581D01*
X159615877Y-120229233D01*
X159614882Y-120255104D01*
X159614590Y-120265452D01*
X159614583Y-120265795D01*
X159614500Y-120275011D01*
X159614500Y-120412849D01*
X159594815Y-120479888D01*
X159542011Y-120525643D01*
X159472853Y-120535587D01*
X159421610Y-120515952D01*
X159358131Y-120473537D01*
X159358124Y-120473533D01*
X159239744Y-120424499D01*
X159239738Y-120424497D01*
X159114071Y-120399500D01*
X159114069Y-120399500D01*
X158985931Y-120399500D01*
X158985929Y-120399500D01*
X158860261Y-120424497D01*
X158860255Y-120424499D01*
X158741875Y-120473533D01*
X158741866Y-120473538D01*
X158635331Y-120544723D01*
X158635327Y-120544726D01*
X158544726Y-120635327D01*
X158544723Y-120635331D01*
X158473538Y-120741866D01*
X158473533Y-120741875D01*
X158424499Y-120860255D01*
X158424497Y-120860261D01*
X158399500Y-120985928D01*
X158399500Y-120985931D01*
X158399500Y-121114069D01*
X158399500Y-121114071D01*
X158399499Y-121114071D01*
X132896456Y-121114071D01*
X132895439Y-120464071D01*
X154049499Y-120464071D01*
X154074497Y-120589738D01*
X154074499Y-120589744D01*
X154123533Y-120708124D01*
X154123538Y-120708133D01*
X154194723Y-120814668D01*
X154194726Y-120814672D01*
X154285327Y-120905273D01*
X154285331Y-120905276D01*
X154391866Y-120976461D01*
X154391872Y-120976464D01*
X154391873Y-120976465D01*
X154510256Y-121025501D01*
X154510260Y-121025501D01*
X154510261Y-121025502D01*
X154635928Y-121050500D01*
X154635931Y-121050500D01*
X154764071Y-121050500D01*
X154848615Y-121033682D01*
X154889744Y-121025501D01*
X155008127Y-120976465D01*
X155114669Y-120905276D01*
X155114672Y-120905273D01*
X155127788Y-120892158D01*
X155205273Y-120814672D01*
X155205276Y-120814669D01*
X155276465Y-120708127D01*
X155325501Y-120589744D01*
X155340180Y-120515952D01*
X155350500Y-120464071D01*
X155350500Y-120335928D01*
X155325502Y-120210261D01*
X155325501Y-120210260D01*
X155325501Y-120210256D01*
X155287431Y-120118348D01*
X155276466Y-120091875D01*
X155276461Y-120091866D01*
X155205276Y-119985331D01*
X155205273Y-119985327D01*
X155114672Y-119894726D01*
X155114668Y-119894723D01*
X155008133Y-119823538D01*
X155008124Y-119823533D01*
X154889744Y-119774499D01*
X154889738Y-119774497D01*
X154764071Y-119749500D01*
X154764069Y-119749500D01*
X154635931Y-119749500D01*
X154635929Y-119749500D01*
X154510261Y-119774497D01*
X154510255Y-119774499D01*
X154391875Y-119823533D01*
X154391866Y-119823538D01*
X154285331Y-119894723D01*
X154285327Y-119894726D01*
X154194726Y-119985327D01*
X154194723Y-119985331D01*
X154123538Y-120091866D01*
X154123533Y-120091875D01*
X154074499Y-120210255D01*
X154074497Y-120210261D01*
X154049500Y-120335928D01*
X154049500Y-120335931D01*
X154049500Y-120464069D01*
X154049500Y-120464071D01*
X154049499Y-120464071D01*
X132895439Y-120464071D01*
X132891200Y-117753917D01*
X160424500Y-117753917D01*
X160424500Y-117946082D01*
X160461986Y-118134535D01*
X160461989Y-118134547D01*
X160535520Y-118312068D01*
X160535521Y-118312070D01*
X160642279Y-118471844D01*
X160642282Y-118471848D01*
X160778151Y-118607717D01*
X160778155Y-118607720D01*
X160937927Y-118714477D01*
X160937928Y-118714477D01*
X160937929Y-118714478D01*
X160937931Y-118714479D01*
X161115452Y-118788010D01*
X161115457Y-118788012D01*
X161291369Y-118823003D01*
X161303917Y-118825499D01*
X161303920Y-118825500D01*
X161303922Y-118825500D01*
X161846080Y-118825500D01*
X161846081Y-118825499D01*
X162034543Y-118788012D01*
X162212073Y-118714477D01*
X162371845Y-118607720D01*
X162507720Y-118471845D01*
X162614477Y-118312073D01*
X162688012Y-118134543D01*
X162725500Y-117946078D01*
X162725500Y-117753922D01*
X162725500Y-117753919D01*
X162725499Y-117753917D01*
X162688013Y-117565464D01*
X162688012Y-117565457D01*
X162614477Y-117387927D01*
X162507720Y-117228155D01*
X162507717Y-117228151D01*
X162371848Y-117092282D01*
X162371844Y-117092279D01*
X162212070Y-116985521D01*
X162212068Y-116985520D01*
X162034547Y-116911989D01*
X162034535Y-116911986D01*
X161846081Y-116874500D01*
X161846078Y-116874500D01*
X161303922Y-116874500D01*
X161303919Y-116874500D01*
X161115464Y-116911986D01*
X161115452Y-116911989D01*
X160937931Y-116985520D01*
X160937929Y-116985521D01*
X160778155Y-117092279D01*
X160778151Y-117092282D01*
X160642282Y-117228151D01*
X160642279Y-117228155D01*
X160535521Y-117387929D01*
X160535520Y-117387931D01*
X160461989Y-117565452D01*
X160461986Y-117565464D01*
X160424500Y-117753917D01*
X132891200Y-117753917D01*
X132889636Y-116754071D01*
X149659499Y-116754071D01*
X149684497Y-116879738D01*
X149684499Y-116879744D01*
X149733533Y-116998124D01*
X149733538Y-116998133D01*
X149804723Y-117104668D01*
X149804726Y-117104672D01*
X149895327Y-117195273D01*
X149895331Y-117195276D01*
X150001866Y-117266461D01*
X150001872Y-117266464D01*
X150001873Y-117266465D01*
X150120256Y-117315501D01*
X150120260Y-117315501D01*
X150120261Y-117315502D01*
X150245928Y-117340500D01*
X150245931Y-117340500D01*
X150374071Y-117340500D01*
X150458615Y-117323682D01*
X150499744Y-117315501D01*
X150618127Y-117266465D01*
X150724669Y-117195276D01*
X150815276Y-117104669D01*
X150886465Y-116998127D01*
X150935501Y-116879744D01*
X150960500Y-116754069D01*
X150960500Y-116625931D01*
X150960500Y-116625928D01*
X150935502Y-116500261D01*
X150935501Y-116500260D01*
X150935501Y-116500256D01*
X150886465Y-116381873D01*
X150886464Y-116381872D01*
X150886461Y-116381866D01*
X150815276Y-116275331D01*
X150815273Y-116275327D01*
X150724672Y-116184726D01*
X150724668Y-116184723D01*
X150618133Y-116113538D01*
X150618124Y-116113533D01*
X150499744Y-116064499D01*
X150499738Y-116064497D01*
X150374071Y-116039500D01*
X150374069Y-116039500D01*
X150245931Y-116039500D01*
X150245929Y-116039500D01*
X150120261Y-116064497D01*
X150120255Y-116064499D01*
X150001875Y-116113533D01*
X150001866Y-116113538D01*
X149895331Y-116184723D01*
X149895327Y-116184726D01*
X149804726Y-116275327D01*
X149804723Y-116275331D01*
X149733538Y-116381866D01*
X149733533Y-116381875D01*
X149684499Y-116500255D01*
X149684497Y-116500261D01*
X149659500Y-116625928D01*
X149659500Y-116625931D01*
X149659500Y-116754069D01*
X149659500Y-116754071D01*
X149659499Y-116754071D01*
X132889636Y-116754071D01*
X132888244Y-115864071D01*
X153749499Y-115864071D01*
X153774497Y-115989738D01*
X153774499Y-115989744D01*
X153823533Y-116108124D01*
X153823538Y-116108133D01*
X153894723Y-116214668D01*
X153894726Y-116214672D01*
X153985327Y-116305273D01*
X153985331Y-116305276D01*
X154091866Y-116376461D01*
X154091872Y-116376464D01*
X154091873Y-116376465D01*
X154210256Y-116425501D01*
X154210260Y-116425501D01*
X154210261Y-116425502D01*
X154335928Y-116450500D01*
X154335931Y-116450500D01*
X154464071Y-116450500D01*
X154548615Y-116433682D01*
X154589744Y-116425501D01*
X154708127Y-116376465D01*
X154814669Y-116305276D01*
X154905276Y-116214669D01*
X154976465Y-116108127D01*
X155025501Y-115989744D01*
X155050500Y-115864069D01*
X155050500Y-115735931D01*
X155050500Y-115735928D01*
X155025502Y-115610261D01*
X155025501Y-115610260D01*
X155025501Y-115610256D01*
X154976465Y-115491873D01*
X154976464Y-115491872D01*
X154976461Y-115491866D01*
X154905276Y-115385331D01*
X154905273Y-115385327D01*
X154814672Y-115294726D01*
X154814668Y-115294723D01*
X154708133Y-115223538D01*
X154708124Y-115223533D01*
X154589744Y-115174499D01*
X154589738Y-115174497D01*
X154464071Y-115149500D01*
X154464069Y-115149500D01*
X154335931Y-115149500D01*
X154335929Y-115149500D01*
X154210261Y-115174497D01*
X154210255Y-115174499D01*
X154091875Y-115223533D01*
X154091866Y-115223538D01*
X153985331Y-115294723D01*
X153985327Y-115294726D01*
X153894726Y-115385327D01*
X153894723Y-115385331D01*
X153823538Y-115491866D01*
X153823533Y-115491875D01*
X153774499Y-115610255D01*
X153774497Y-115610261D01*
X153749500Y-115735928D01*
X153749500Y-115735931D01*
X153749500Y-115864069D01*
X153749500Y-115864071D01*
X153749499Y-115864071D01*
X132888244Y-115864071D01*
X132886054Y-114464071D01*
X155349499Y-114464071D01*
X155374497Y-114589738D01*
X155374499Y-114589744D01*
X155423533Y-114708124D01*
X155423538Y-114708133D01*
X155494723Y-114814668D01*
X155494726Y-114814672D01*
X155585327Y-114905273D01*
X155585331Y-114905276D01*
X155691866Y-114976461D01*
X155691872Y-114976464D01*
X155691873Y-114976465D01*
X155810256Y-115025501D01*
X155810260Y-115025501D01*
X155810261Y-115025502D01*
X155935928Y-115050500D01*
X155935931Y-115050500D01*
X156064071Y-115050500D01*
X156148615Y-115033682D01*
X156189744Y-115025501D01*
X156265565Y-114994095D01*
X163054523Y-114994095D01*
X163079521Y-115119762D01*
X163079523Y-115119768D01*
X163128557Y-115238148D01*
X163128562Y-115238157D01*
X163199747Y-115344692D01*
X163199750Y-115344696D01*
X163290351Y-115435297D01*
X163290355Y-115435300D01*
X163396890Y-115506485D01*
X163396896Y-115506488D01*
X163396897Y-115506489D01*
X163515280Y-115555525D01*
X163515284Y-115555525D01*
X163515285Y-115555526D01*
X163640952Y-115580524D01*
X163640955Y-115580524D01*
X163769095Y-115580524D01*
X163853639Y-115563706D01*
X163894768Y-115555525D01*
X164013151Y-115506489D01*
X164119693Y-115435300D01*
X164210300Y-115344693D01*
X164281489Y-115238151D01*
X164330525Y-115119768D01*
X164349276Y-115025502D01*
X164355524Y-114994095D01*
X164355524Y-114865952D01*
X164330526Y-114740285D01*
X164330525Y-114740284D01*
X164330525Y-114740280D01*
X164281489Y-114621897D01*
X164281488Y-114621896D01*
X164281485Y-114621890D01*
X164210300Y-114515355D01*
X164210297Y-114515351D01*
X164119696Y-114424750D01*
X164119692Y-114424747D01*
X164013157Y-114353562D01*
X164013148Y-114353557D01*
X163894768Y-114304523D01*
X163894762Y-114304521D01*
X163769095Y-114279524D01*
X163769093Y-114279524D01*
X163640955Y-114279524D01*
X163640953Y-114279524D01*
X163515285Y-114304521D01*
X163515279Y-114304523D01*
X163396899Y-114353557D01*
X163396890Y-114353562D01*
X163290355Y-114424747D01*
X163290351Y-114424750D01*
X163199750Y-114515351D01*
X163199747Y-114515355D01*
X163128562Y-114621890D01*
X163128557Y-114621899D01*
X163079523Y-114740279D01*
X163079521Y-114740285D01*
X163054524Y-114865952D01*
X163054524Y-114865955D01*
X163054524Y-114994093D01*
X163054524Y-114994095D01*
X163054523Y-114994095D01*
X156265565Y-114994095D01*
X156308127Y-114976465D01*
X156414669Y-114905276D01*
X156505276Y-114814669D01*
X156509777Y-114807931D01*
X156521110Y-114790973D01*
X156521110Y-114790972D01*
X156576461Y-114708133D01*
X156576461Y-114708132D01*
X156576465Y-114708127D01*
X156625501Y-114589744D01*
X156650500Y-114464069D01*
X156650500Y-114335931D01*
X156650500Y-114335928D01*
X156625502Y-114210261D01*
X156625501Y-114210260D01*
X156625501Y-114210256D01*
X156576465Y-114091873D01*
X156576464Y-114091872D01*
X156576461Y-114091866D01*
X156505276Y-113985331D01*
X156505273Y-113985327D01*
X156414672Y-113894726D01*
X156414668Y-113894723D01*
X156308133Y-113823538D01*
X156308124Y-113823533D01*
X156189744Y-113774499D01*
X156189738Y-113774497D01*
X156064071Y-113749500D01*
X156064069Y-113749500D01*
X155935931Y-113749500D01*
X155935929Y-113749500D01*
X155810261Y-113774497D01*
X155810255Y-113774499D01*
X155691875Y-113823533D01*
X155691866Y-113823538D01*
X155585331Y-113894723D01*
X155585327Y-113894726D01*
X155494726Y-113985327D01*
X155494723Y-113985331D01*
X155423538Y-114091866D01*
X155423533Y-114091875D01*
X155374499Y-114210255D01*
X155374497Y-114210261D01*
X155349500Y-114335928D01*
X155349500Y-114335931D01*
X155349500Y-114464069D01*
X155349500Y-114464071D01*
X155349499Y-114464071D01*
X132886054Y-114464071D01*
X132882183Y-111989071D01*
X136199499Y-111989071D01*
X136224497Y-112114738D01*
X136224499Y-112114744D01*
X136273533Y-112233124D01*
X136273538Y-112233133D01*
X136344723Y-112339668D01*
X136344726Y-112339672D01*
X136435327Y-112430273D01*
X136435331Y-112430276D01*
X136541866Y-112501461D01*
X136541872Y-112501464D01*
X136541873Y-112501465D01*
X136660256Y-112550501D01*
X136660260Y-112550501D01*
X136660261Y-112550502D01*
X136785928Y-112575500D01*
X136785931Y-112575500D01*
X136914071Y-112575500D01*
X136998615Y-112558682D01*
X137039744Y-112550501D01*
X137158127Y-112501465D01*
X137264669Y-112430276D01*
X137355276Y-112339669D01*
X137426465Y-112233127D01*
X137475501Y-112114744D01*
X137500500Y-111989071D01*
X160074499Y-111989071D01*
X160099497Y-112114738D01*
X160099499Y-112114744D01*
X160148533Y-112233124D01*
X160148538Y-112233133D01*
X160219723Y-112339668D01*
X160219726Y-112339672D01*
X160310327Y-112430273D01*
X160310331Y-112430276D01*
X160416866Y-112501461D01*
X160416872Y-112501464D01*
X160416873Y-112501465D01*
X160535256Y-112550501D01*
X160535260Y-112550501D01*
X160535261Y-112550502D01*
X160660928Y-112575500D01*
X160660931Y-112575500D01*
X160789071Y-112575500D01*
X160873615Y-112558682D01*
X160914744Y-112550501D01*
X161033127Y-112501465D01*
X161139669Y-112430276D01*
X161230276Y-112339669D01*
X161301465Y-112233127D01*
X161350501Y-112114744D01*
X161375500Y-111989069D01*
X161375500Y-111860931D01*
X161375500Y-111860928D01*
X161350502Y-111735261D01*
X161350501Y-111735260D01*
X161350501Y-111735256D01*
X161301465Y-111616873D01*
X161301464Y-111616872D01*
X161301461Y-111616866D01*
X161230276Y-111510331D01*
X161230273Y-111510327D01*
X161139672Y-111419726D01*
X161139668Y-111419723D01*
X161033133Y-111348538D01*
X161033124Y-111348533D01*
X160914744Y-111299499D01*
X160914738Y-111299497D01*
X160789071Y-111274500D01*
X160789069Y-111274500D01*
X160660931Y-111274500D01*
X160660929Y-111274500D01*
X160535261Y-111299497D01*
X160535255Y-111299499D01*
X160416875Y-111348533D01*
X160416866Y-111348538D01*
X160310331Y-111419723D01*
X160310327Y-111419726D01*
X160219726Y-111510327D01*
X160219723Y-111510331D01*
X160148538Y-111616866D01*
X160148533Y-111616875D01*
X160099499Y-111735255D01*
X160099497Y-111735261D01*
X160074500Y-111860928D01*
X160074500Y-111860931D01*
X160074500Y-111989069D01*
X160074500Y-111989071D01*
X160074499Y-111989071D01*
X137500500Y-111989071D01*
X137500500Y-111989069D01*
X137500500Y-111860931D01*
X137500500Y-111860928D01*
X137475502Y-111735261D01*
X137475501Y-111735260D01*
X137475501Y-111735256D01*
X137426465Y-111616873D01*
X137426464Y-111616872D01*
X137426461Y-111616866D01*
X137355276Y-111510331D01*
X137355273Y-111510327D01*
X137264672Y-111419726D01*
X137264668Y-111419723D01*
X137158133Y-111348538D01*
X137158124Y-111348533D01*
X137039744Y-111299499D01*
X137039738Y-111299497D01*
X136914071Y-111274500D01*
X136914069Y-111274500D01*
X136785931Y-111274500D01*
X136785929Y-111274500D01*
X136660261Y-111299497D01*
X136660255Y-111299499D01*
X136541875Y-111348533D01*
X136541866Y-111348538D01*
X136435331Y-111419723D01*
X136435327Y-111419726D01*
X136344726Y-111510327D01*
X136344723Y-111510331D01*
X136273538Y-111616866D01*
X136273533Y-111616875D01*
X136224499Y-111735255D01*
X136224497Y-111735261D01*
X136199500Y-111860928D01*
X136199500Y-111860931D01*
X136199500Y-111989069D01*
X136199500Y-111989071D01*
X136199499Y-111989071D01*
X132882183Y-111989071D01*
X132879993Y-110589071D01*
X140124499Y-110589071D01*
X140149497Y-110714738D01*
X140149499Y-110714744D01*
X140198533Y-110833124D01*
X140198538Y-110833133D01*
X140269723Y-110939668D01*
X140269726Y-110939672D01*
X140360327Y-111030273D01*
X140360331Y-111030276D01*
X140466866Y-111101461D01*
X140466872Y-111101464D01*
X140466873Y-111101465D01*
X140585256Y-111150501D01*
X140585260Y-111150501D01*
X140585261Y-111150502D01*
X140710928Y-111175500D01*
X140710931Y-111175500D01*
X140839071Y-111175500D01*
X140923615Y-111158682D01*
X140964744Y-111150501D01*
X141083127Y-111101465D01*
X141189669Y-111030276D01*
X141280276Y-110939669D01*
X141351465Y-110833127D01*
X141400501Y-110714744D01*
X141425500Y-110589069D01*
X141425500Y-110460931D01*
X141425500Y-110460928D01*
X141400502Y-110335261D01*
X141400501Y-110335260D01*
X141400501Y-110335256D01*
X141351465Y-110216873D01*
X141351464Y-110216872D01*
X141351461Y-110216866D01*
X141280276Y-110110331D01*
X141280273Y-110110327D01*
X141189672Y-110019726D01*
X141189668Y-110019723D01*
X141083133Y-109948538D01*
X141083124Y-109948533D01*
X140964744Y-109899499D01*
X140964738Y-109899497D01*
X140839071Y-109874500D01*
X140839069Y-109874500D01*
X140710931Y-109874500D01*
X140710929Y-109874500D01*
X140585261Y-109899497D01*
X140585255Y-109899499D01*
X140466875Y-109948533D01*
X140466866Y-109948538D01*
X140360331Y-110019723D01*
X140360327Y-110019726D01*
X140269726Y-110110327D01*
X140269723Y-110110331D01*
X140198538Y-110216866D01*
X140198533Y-110216875D01*
X140149499Y-110335255D01*
X140149497Y-110335261D01*
X140124500Y-110460928D01*
X140124500Y-110460931D01*
X140124500Y-110589069D01*
X140124500Y-110589071D01*
X140124499Y-110589071D01*
X132879993Y-110589071D01*
X132877490Y-108989071D01*
X162949499Y-108989071D01*
X162974497Y-109114738D01*
X162974499Y-109114744D01*
X163023533Y-109233124D01*
X163023538Y-109233133D01*
X163094723Y-109339668D01*
X163094726Y-109339672D01*
X163185327Y-109430273D01*
X163185331Y-109430276D01*
X163291866Y-109501461D01*
X163291872Y-109501464D01*
X163291873Y-109501465D01*
X163410256Y-109550501D01*
X163410260Y-109550501D01*
X163410261Y-109550502D01*
X163535928Y-109575500D01*
X163535931Y-109575500D01*
X163664071Y-109575500D01*
X163748615Y-109558682D01*
X163789744Y-109550501D01*
X163908127Y-109501465D01*
X164014669Y-109430276D01*
X164105276Y-109339669D01*
X164176465Y-109233127D01*
X164225501Y-109114744D01*
X164250500Y-108989069D01*
X164250500Y-108860931D01*
X164250500Y-108860928D01*
X164225502Y-108735261D01*
X164225501Y-108735260D01*
X164225501Y-108735256D01*
X164176465Y-108616873D01*
X164176464Y-108616872D01*
X164176461Y-108616866D01*
X164105276Y-108510331D01*
X164105273Y-108510327D01*
X164014672Y-108419726D01*
X164014668Y-108419723D01*
X163908133Y-108348538D01*
X163908124Y-108348533D01*
X163789744Y-108299499D01*
X163789738Y-108299497D01*
X163664071Y-108274500D01*
X163664069Y-108274500D01*
X163535931Y-108274500D01*
X163535929Y-108274500D01*
X163410261Y-108299497D01*
X163410255Y-108299499D01*
X163291875Y-108348533D01*
X163291866Y-108348538D01*
X163185331Y-108419723D01*
X163185327Y-108419726D01*
X163094726Y-108510327D01*
X163094723Y-108510331D01*
X163023538Y-108616866D01*
X163023533Y-108616875D01*
X162974499Y-108735255D01*
X162974497Y-108735261D01*
X162949500Y-108860928D01*
X162949500Y-108860931D01*
X162949500Y-108989069D01*
X162949500Y-108989071D01*
X162949499Y-108989071D01*
X132877490Y-108989071D01*
X132874440Y-107039071D01*
X159349499Y-107039071D01*
X159374497Y-107164738D01*
X159374499Y-107164744D01*
X159423533Y-107283124D01*
X159423538Y-107283133D01*
X159494723Y-107389668D01*
X159494726Y-107389672D01*
X159585327Y-107480273D01*
X159585331Y-107480276D01*
X159691866Y-107551461D01*
X159691872Y-107551464D01*
X159691873Y-107551465D01*
X159810256Y-107600501D01*
X159810260Y-107600501D01*
X159810261Y-107600502D01*
X159935928Y-107625500D01*
X159935931Y-107625500D01*
X160064071Y-107625500D01*
X160148615Y-107608682D01*
X160189744Y-107600501D01*
X160308127Y-107551465D01*
X160414669Y-107480276D01*
X160505276Y-107389669D01*
X160576465Y-107283127D01*
X160605069Y-107214071D01*
X164399499Y-107214071D01*
X164424497Y-107339738D01*
X164424499Y-107339744D01*
X164473533Y-107458124D01*
X164473538Y-107458133D01*
X164544723Y-107564668D01*
X164544726Y-107564672D01*
X164635327Y-107655273D01*
X164635331Y-107655276D01*
X164741866Y-107726461D01*
X164741872Y-107726464D01*
X164741873Y-107726465D01*
X164860256Y-107775501D01*
X164860260Y-107775501D01*
X164860261Y-107775502D01*
X164985928Y-107800500D01*
X164985931Y-107800500D01*
X165114071Y-107800500D01*
X165198615Y-107783682D01*
X165239744Y-107775501D01*
X165358127Y-107726465D01*
X165464669Y-107655276D01*
X165555276Y-107564669D01*
X165626465Y-107458127D01*
X165675501Y-107339744D01*
X165700500Y-107214069D01*
X165700500Y-107085931D01*
X165700500Y-107085928D01*
X165675502Y-106960261D01*
X165675501Y-106960260D01*
X165675501Y-106960256D01*
X165626465Y-106841873D01*
X165626464Y-106841872D01*
X165626461Y-106841866D01*
X165555276Y-106735331D01*
X165555273Y-106735327D01*
X165464672Y-106644726D01*
X165464668Y-106644723D01*
X165358133Y-106573538D01*
X165358124Y-106573533D01*
X165239744Y-106524499D01*
X165239738Y-106524497D01*
X165114071Y-106499500D01*
X165114069Y-106499500D01*
X164985931Y-106499500D01*
X164985929Y-106499500D01*
X164860261Y-106524497D01*
X164860255Y-106524499D01*
X164741875Y-106573533D01*
X164741866Y-106573538D01*
X164635331Y-106644723D01*
X164635327Y-106644726D01*
X164544726Y-106735327D01*
X164544723Y-106735331D01*
X164473538Y-106841866D01*
X164473533Y-106841875D01*
X164424499Y-106960255D01*
X164424497Y-106960261D01*
X164399500Y-107085928D01*
X164399500Y-107085931D01*
X164399500Y-107214069D01*
X164399500Y-107214071D01*
X164399499Y-107214071D01*
X160605069Y-107214071D01*
X160625501Y-107164744D01*
X160630421Y-107140005D01*
X160647203Y-107055647D01*
X160647203Y-107055646D01*
X160650499Y-107039073D01*
X160650500Y-107039071D01*
X160650500Y-106910928D01*
X160625502Y-106785261D01*
X160625501Y-106785260D01*
X160625501Y-106785256D01*
X160576465Y-106666873D01*
X160576464Y-106666872D01*
X160576461Y-106666866D01*
X160505276Y-106560331D01*
X160505273Y-106560327D01*
X160414672Y-106469726D01*
X160414668Y-106469723D01*
X160308133Y-106398538D01*
X160308124Y-106398533D01*
X160189744Y-106349499D01*
X160189738Y-106349497D01*
X160064071Y-106324500D01*
X160064069Y-106324500D01*
X159935931Y-106324500D01*
X159935929Y-106324500D01*
X159810261Y-106349497D01*
X159810255Y-106349499D01*
X159691875Y-106398533D01*
X159691866Y-106398538D01*
X159585331Y-106469723D01*
X159585327Y-106469726D01*
X159494726Y-106560327D01*
X159494723Y-106560331D01*
X159423538Y-106666866D01*
X159423533Y-106666875D01*
X159374499Y-106785255D01*
X159374497Y-106785261D01*
X159349500Y-106910928D01*
X159349500Y-106910931D01*
X159349500Y-107039069D01*
X159349500Y-107039071D01*
X159349499Y-107039071D01*
X132874440Y-107039071D01*
X132873306Y-106314071D01*
X149749499Y-106314071D01*
X149774497Y-106439738D01*
X149774499Y-106439744D01*
X149823533Y-106558124D01*
X149823538Y-106558133D01*
X149894723Y-106664668D01*
X149894726Y-106664672D01*
X149985327Y-106755273D01*
X149985331Y-106755276D01*
X150091866Y-106826461D01*
X150091872Y-106826464D01*
X150091873Y-106826465D01*
X150210256Y-106875501D01*
X150210260Y-106875501D01*
X150210261Y-106875502D01*
X150335928Y-106900500D01*
X150335931Y-106900500D01*
X150464071Y-106900500D01*
X150548615Y-106883682D01*
X150589744Y-106875501D01*
X150708127Y-106826465D01*
X150814669Y-106755276D01*
X150905276Y-106664669D01*
X150976465Y-106558127D01*
X151025501Y-106439744D01*
X151042304Y-106355273D01*
X151050500Y-106314071D01*
X151050500Y-106185928D01*
X151025502Y-106060261D01*
X151025501Y-106060260D01*
X151025501Y-106060256D01*
X150976465Y-105941873D01*
X150976464Y-105941872D01*
X150976461Y-105941866D01*
X150957889Y-105914071D01*
X153899499Y-105914071D01*
X153924497Y-106039738D01*
X153924499Y-106039744D01*
X153973533Y-106158124D01*
X153973538Y-106158133D01*
X154044723Y-106264668D01*
X154044726Y-106264672D01*
X154135327Y-106355273D01*
X154135331Y-106355276D01*
X154241866Y-106426461D01*
X154241872Y-106426464D01*
X154241873Y-106426465D01*
X154360256Y-106475501D01*
X154360260Y-106475501D01*
X154360261Y-106475502D01*
X154485928Y-106500500D01*
X154485931Y-106500500D01*
X154614071Y-106500500D01*
X154698615Y-106483682D01*
X154739744Y-106475501D01*
X154858127Y-106426465D01*
X154964669Y-106355276D01*
X155005874Y-106314071D01*
X155499499Y-106314071D01*
X155524497Y-106439738D01*
X155524499Y-106439744D01*
X155573533Y-106558124D01*
X155573538Y-106558133D01*
X155644723Y-106664668D01*
X155644726Y-106664672D01*
X155735327Y-106755273D01*
X155735331Y-106755276D01*
X155841866Y-106826461D01*
X155841872Y-106826464D01*
X155841873Y-106826465D01*
X155960256Y-106875501D01*
X155960260Y-106875501D01*
X155960261Y-106875502D01*
X156085928Y-106900500D01*
X156085931Y-106900500D01*
X156214071Y-106900500D01*
X156298615Y-106883682D01*
X156339744Y-106875501D01*
X156458127Y-106826465D01*
X156458133Y-106826461D01*
X156495136Y-106801737D01*
X156527814Y-106779901D01*
X156564669Y-106755276D01*
X156655276Y-106664669D01*
X156726465Y-106558127D01*
X156775501Y-106439744D01*
X156792304Y-106355273D01*
X156800500Y-106314071D01*
X156800500Y-106185928D01*
X156775502Y-106060261D01*
X156775501Y-106060260D01*
X156775501Y-106060256D01*
X156726465Y-105941873D01*
X156726464Y-105941872D01*
X156726461Y-105941866D01*
X156655276Y-105835331D01*
X156655273Y-105835327D01*
X156564672Y-105744726D01*
X156564668Y-105744723D01*
X156458133Y-105673538D01*
X156458124Y-105673533D01*
X156339744Y-105624499D01*
X156339738Y-105624497D01*
X156214071Y-105599500D01*
X156214069Y-105599500D01*
X156085931Y-105599500D01*
X156085929Y-105599500D01*
X155960261Y-105624497D01*
X155960255Y-105624499D01*
X155841875Y-105673533D01*
X155841866Y-105673538D01*
X155735331Y-105744723D01*
X155735327Y-105744726D01*
X155644726Y-105835327D01*
X155644723Y-105835331D01*
X155573538Y-105941866D01*
X155573533Y-105941875D01*
X155524499Y-106060255D01*
X155524497Y-106060261D01*
X155499500Y-106185928D01*
X155499500Y-106185931D01*
X155499500Y-106314069D01*
X155499500Y-106314071D01*
X155499499Y-106314071D01*
X155005874Y-106314071D01*
X155055276Y-106264669D01*
X155126465Y-106158127D01*
X155175501Y-106039744D01*
X155194969Y-105941875D01*
X155200500Y-105914071D01*
X155200500Y-105785928D01*
X155175502Y-105660261D01*
X155175501Y-105660260D01*
X155175501Y-105660256D01*
X155126465Y-105541873D01*
X155126464Y-105541872D01*
X155126461Y-105541866D01*
X155055276Y-105435331D01*
X155055273Y-105435327D01*
X154964672Y-105344726D01*
X154964668Y-105344723D01*
X154858133Y-105273538D01*
X154858124Y-105273533D01*
X154739744Y-105224499D01*
X154739738Y-105224497D01*
X154614071Y-105199500D01*
X154614069Y-105199500D01*
X154485931Y-105199500D01*
X154485929Y-105199500D01*
X154360261Y-105224497D01*
X154360255Y-105224499D01*
X154241875Y-105273533D01*
X154241866Y-105273538D01*
X154135331Y-105344723D01*
X154135327Y-105344726D01*
X154044726Y-105435327D01*
X154044723Y-105435331D01*
X153973538Y-105541866D01*
X153973533Y-105541875D01*
X153924499Y-105660255D01*
X153924497Y-105660261D01*
X153899500Y-105785928D01*
X153899500Y-105785931D01*
X153899500Y-105914069D01*
X153899500Y-105914071D01*
X153899499Y-105914071D01*
X150957889Y-105914071D01*
X150914229Y-105848730D01*
X150914228Y-105848729D01*
X150905274Y-105835328D01*
X150814672Y-105744726D01*
X150814668Y-105744723D01*
X150708133Y-105673538D01*
X150708124Y-105673533D01*
X150589744Y-105624499D01*
X150589738Y-105624497D01*
X150464071Y-105599500D01*
X150464069Y-105599500D01*
X150335931Y-105599500D01*
X150335929Y-105599500D01*
X150210261Y-105624497D01*
X150210255Y-105624499D01*
X150091875Y-105673533D01*
X150091866Y-105673538D01*
X149985331Y-105744723D01*
X149985327Y-105744726D01*
X149894726Y-105835327D01*
X149894723Y-105835331D01*
X149823538Y-105941866D01*
X149823533Y-105941875D01*
X149774499Y-106060255D01*
X149774497Y-106060261D01*
X149749500Y-106185928D01*
X149749500Y-106185931D01*
X149749500Y-106314069D01*
X149749500Y-106314071D01*
X149749499Y-106314071D01*
X132873306Y-106314071D01*
X132870178Y-104314071D01*
X135499499Y-104314071D01*
X135524497Y-104439738D01*
X135524499Y-104439744D01*
X135573533Y-104558124D01*
X135573538Y-104558133D01*
X135644723Y-104664668D01*
X135644726Y-104664672D01*
X135735327Y-104755273D01*
X135735331Y-104755276D01*
X135841866Y-104826461D01*
X135841872Y-104826464D01*
X135841873Y-104826465D01*
X135960256Y-104875501D01*
X135960260Y-104875501D01*
X135960261Y-104875502D01*
X136085928Y-104900500D01*
X136085931Y-104900500D01*
X136214071Y-104900500D01*
X136298615Y-104883682D01*
X136339744Y-104875501D01*
X136458127Y-104826465D01*
X136564669Y-104755276D01*
X136655276Y-104664669D01*
X136689084Y-104614071D01*
X138574499Y-104614071D01*
X138599497Y-104739738D01*
X138599499Y-104739744D01*
X138648533Y-104858124D01*
X138648538Y-104858133D01*
X138719723Y-104964668D01*
X138719726Y-104964672D01*
X138810327Y-105055273D01*
X138810331Y-105055276D01*
X138916866Y-105126461D01*
X138916872Y-105126464D01*
X138916873Y-105126465D01*
X139035256Y-105175501D01*
X139035260Y-105175501D01*
X139035261Y-105175502D01*
X139160928Y-105200500D01*
X139160931Y-105200500D01*
X139289071Y-105200500D01*
X139373615Y-105183682D01*
X139414744Y-105175501D01*
X139533127Y-105126465D01*
X139639669Y-105055276D01*
X139730276Y-104964669D01*
X139801465Y-104858127D01*
X139850501Y-104739744D01*
X139875500Y-104614069D01*
X139875500Y-104485931D01*
X139875500Y-104485928D01*
X139850502Y-104360261D01*
X139850501Y-104360260D01*
X139850501Y-104360256D01*
X139801465Y-104241873D01*
X139801464Y-104241872D01*
X139801461Y-104241866D01*
X139732775Y-104139071D01*
X164083551Y-104139071D01*
X164108549Y-104264738D01*
X164108551Y-104264744D01*
X164157585Y-104383124D01*
X164157590Y-104383133D01*
X164228775Y-104489668D01*
X164228778Y-104489672D01*
X164319379Y-104580273D01*
X164319383Y-104580276D01*
X164425918Y-104651461D01*
X164425924Y-104651464D01*
X164425925Y-104651465D01*
X164544308Y-104700501D01*
X164544312Y-104700501D01*
X164544313Y-104700502D01*
X164669980Y-104725500D01*
X164669983Y-104725500D01*
X164798123Y-104725500D01*
X164882667Y-104708682D01*
X164923796Y-104700501D01*
X165042179Y-104651465D01*
X165148721Y-104580276D01*
X165239328Y-104489669D01*
X165310517Y-104383127D01*
X165359553Y-104264744D01*
X165384552Y-104139069D01*
X165384552Y-104010931D01*
X165384552Y-104010928D01*
X165359554Y-103885261D01*
X165359553Y-103885260D01*
X165359553Y-103885256D01*
X165316069Y-103780276D01*
X165310518Y-103766875D01*
X165310513Y-103766866D01*
X165239328Y-103660331D01*
X165239325Y-103660327D01*
X165148724Y-103569726D01*
X165148720Y-103569723D01*
X165042185Y-103498538D01*
X165042176Y-103498533D01*
X164923796Y-103449499D01*
X164923790Y-103449497D01*
X164798123Y-103424500D01*
X164798121Y-103424500D01*
X164669983Y-103424500D01*
X164669981Y-103424500D01*
X164544313Y-103449497D01*
X164544307Y-103449499D01*
X164425927Y-103498533D01*
X164425918Y-103498538D01*
X164319383Y-103569723D01*
X164319379Y-103569726D01*
X164228778Y-103660327D01*
X164228775Y-103660331D01*
X164157590Y-103766866D01*
X164157585Y-103766875D01*
X164108551Y-103885255D01*
X164108549Y-103885261D01*
X164083552Y-104010928D01*
X164083552Y-104010931D01*
X164083552Y-104139069D01*
X164083552Y-104139071D01*
X164083551Y-104139071D01*
X139732775Y-104139071D01*
X139730276Y-104135331D01*
X139730273Y-104135327D01*
X139639672Y-104044726D01*
X139639668Y-104044723D01*
X139533133Y-103973538D01*
X139533124Y-103973533D01*
X139414744Y-103924499D01*
X139414738Y-103924497D01*
X139289071Y-103899500D01*
X139289069Y-103899500D01*
X139160931Y-103899500D01*
X139160929Y-103899500D01*
X139035261Y-103924497D01*
X139035255Y-103924499D01*
X138916875Y-103973533D01*
X138916866Y-103973538D01*
X138810331Y-104044723D01*
X138810327Y-104044726D01*
X138719726Y-104135327D01*
X138719723Y-104135331D01*
X138648538Y-104241866D01*
X138648533Y-104241875D01*
X138599499Y-104360255D01*
X138599497Y-104360261D01*
X138574500Y-104485928D01*
X138574500Y-104485931D01*
X138574500Y-104614069D01*
X138574500Y-104614071D01*
X138574499Y-104614071D01*
X136689084Y-104614071D01*
X136726465Y-104558127D01*
X136775501Y-104439744D01*
X136800500Y-104314069D01*
X136800500Y-104185931D01*
X136800500Y-104185928D01*
X136775502Y-104060261D01*
X136775501Y-104060260D01*
X136775501Y-104060256D01*
X136726465Y-103941873D01*
X136726464Y-103941872D01*
X136726461Y-103941866D01*
X136655276Y-103835331D01*
X136655273Y-103835327D01*
X136564672Y-103744726D01*
X136564668Y-103744723D01*
X136458133Y-103673538D01*
X136458124Y-103673533D01*
X136339744Y-103624499D01*
X136339738Y-103624497D01*
X136214071Y-103599500D01*
X136214069Y-103599500D01*
X136085931Y-103599500D01*
X136085929Y-103599500D01*
X135960261Y-103624497D01*
X135960255Y-103624499D01*
X135841875Y-103673533D01*
X135841866Y-103673538D01*
X135735331Y-103744723D01*
X135735327Y-103744726D01*
X135644726Y-103835327D01*
X135644723Y-103835331D01*
X135573538Y-103941866D01*
X135573533Y-103941875D01*
X135524499Y-104060255D01*
X135524497Y-104060261D01*
X135499500Y-104185928D01*
X135499500Y-104185931D01*
X135499500Y-104314069D01*
X135499500Y-104314071D01*
X135499499Y-104314071D01*
X132870178Y-104314071D01*
X132868653Y-103339071D01*
X159724499Y-103339071D01*
X159749497Y-103464738D01*
X159749499Y-103464744D01*
X159798533Y-103583124D01*
X159798538Y-103583133D01*
X159869723Y-103689668D01*
X159869726Y-103689672D01*
X159960327Y-103780273D01*
X159960331Y-103780276D01*
X160066866Y-103851461D01*
X160066872Y-103851464D01*
X160066873Y-103851465D01*
X160185256Y-103900501D01*
X160185260Y-103900501D01*
X160185261Y-103900502D01*
X160310928Y-103925500D01*
X160310931Y-103925500D01*
X160439071Y-103925500D01*
X160523615Y-103908682D01*
X160564744Y-103900501D01*
X160683127Y-103851465D01*
X160789669Y-103780276D01*
X160880276Y-103689669D01*
X160951465Y-103583127D01*
X161000501Y-103464744D01*
X161025500Y-103339069D01*
X161025500Y-103210931D01*
X161025500Y-103210928D01*
X161000502Y-103085261D01*
X161000501Y-103085260D01*
X161000501Y-103085256D01*
X160951465Y-102966873D01*
X160951464Y-102966872D01*
X160951461Y-102966866D01*
X160880276Y-102860331D01*
X160880273Y-102860327D01*
X160789672Y-102769726D01*
X160789668Y-102769723D01*
X160683133Y-102698538D01*
X160683124Y-102698533D01*
X160564744Y-102649499D01*
X160564738Y-102649497D01*
X160439071Y-102624500D01*
X160439069Y-102624500D01*
X160310931Y-102624500D01*
X160310929Y-102624500D01*
X160185261Y-102649497D01*
X160185255Y-102649499D01*
X160066875Y-102698533D01*
X160066866Y-102698538D01*
X159960331Y-102769723D01*
X159960327Y-102769726D01*
X159869726Y-102860327D01*
X159869723Y-102860331D01*
X159798538Y-102966866D01*
X159798533Y-102966875D01*
X159749499Y-103085255D01*
X159749497Y-103085261D01*
X159724500Y-103210928D01*
X159724500Y-103210931D01*
X159724500Y-103339069D01*
X159724500Y-103339071D01*
X159724499Y-103339071D01*
X132868653Y-103339071D01*
X132866033Y-101664071D01*
X133599499Y-101664071D01*
X133624497Y-101789738D01*
X133624499Y-101789744D01*
X133673533Y-101908124D01*
X133673538Y-101908133D01*
X133744723Y-102014668D01*
X133744726Y-102014672D01*
X133835327Y-102105273D01*
X133835331Y-102105276D01*
X133941866Y-102176461D01*
X133941872Y-102176464D01*
X133941873Y-102176465D01*
X134060256Y-102225501D01*
X134060260Y-102225501D01*
X134060261Y-102225502D01*
X134185928Y-102250500D01*
X134185931Y-102250500D01*
X134314071Y-102250500D01*
X134398615Y-102233682D01*
X134439744Y-102225501D01*
X134558127Y-102176465D01*
X134664669Y-102105276D01*
X134755276Y-102014669D01*
X134826465Y-101908127D01*
X134875501Y-101789744D01*
X134887331Y-101730273D01*
X134900500Y-101664071D01*
X134900500Y-101535928D01*
X134875502Y-101410261D01*
X134875501Y-101410260D01*
X134875501Y-101410256D01*
X134826465Y-101291873D01*
X134826464Y-101291872D01*
X134826461Y-101291866D01*
X134824593Y-101289071D01*
X141799499Y-101289071D01*
X141824497Y-101414738D01*
X141824499Y-101414744D01*
X141873533Y-101533124D01*
X141873538Y-101533133D01*
X141944723Y-101639668D01*
X141944726Y-101639672D01*
X142035327Y-101730273D01*
X142035331Y-101730276D01*
X142141866Y-101801461D01*
X142141872Y-101801464D01*
X142141873Y-101801465D01*
X142260256Y-101850501D01*
X142260260Y-101850501D01*
X142260261Y-101850502D01*
X142385928Y-101875500D01*
X142385931Y-101875500D01*
X142514071Y-101875500D01*
X142598615Y-101858682D01*
X142639744Y-101850501D01*
X142727694Y-101814071D01*
X148199499Y-101814071D01*
X148224497Y-101939738D01*
X148224499Y-101939744D01*
X148273533Y-102058124D01*
X148273538Y-102058133D01*
X148344723Y-102164668D01*
X148344726Y-102164672D01*
X148435327Y-102255273D01*
X148435331Y-102255276D01*
X148541866Y-102326461D01*
X148541875Y-102326466D01*
X148556170Y-102332387D01*
X148660256Y-102375501D01*
X148660260Y-102375501D01*
X148660261Y-102375502D01*
X148785928Y-102400500D01*
X148785931Y-102400500D01*
X148914071Y-102400500D01*
X148998615Y-102383682D01*
X149039744Y-102375501D01*
X149158127Y-102326465D01*
X149264669Y-102255276D01*
X149355276Y-102164669D01*
X149426465Y-102058127D01*
X149475501Y-101939744D01*
X149485581Y-101889071D01*
X149949499Y-101889071D01*
X149974497Y-102014738D01*
X149974499Y-102014744D01*
X150023533Y-102133124D01*
X150023538Y-102133133D01*
X150094723Y-102239668D01*
X150094726Y-102239672D01*
X150185327Y-102330273D01*
X150185331Y-102330276D01*
X150291866Y-102401461D01*
X150291872Y-102401464D01*
X150291873Y-102401465D01*
X150410256Y-102450501D01*
X150410260Y-102450501D01*
X150410261Y-102450502D01*
X150535928Y-102475500D01*
X150535931Y-102475500D01*
X150664071Y-102475500D01*
X150748615Y-102458682D01*
X150789744Y-102450501D01*
X150908127Y-102401465D01*
X151014669Y-102330276D01*
X151105276Y-102239669D01*
X151176465Y-102133127D01*
X151225501Y-102014744D01*
X151239429Y-101944724D01*
X151250500Y-101889071D01*
X151250500Y-101864071D01*
X156574499Y-101864071D01*
X156599497Y-101989738D01*
X156599499Y-101989744D01*
X156648533Y-102108124D01*
X156648538Y-102108133D01*
X156719723Y-102214668D01*
X156719726Y-102214672D01*
X156810327Y-102305273D01*
X156810331Y-102305276D01*
X156916866Y-102376461D01*
X156916872Y-102376464D01*
X156916873Y-102376465D01*
X157035256Y-102425501D01*
X157035260Y-102425501D01*
X157035261Y-102425502D01*
X157160928Y-102450500D01*
X157160931Y-102450500D01*
X157289071Y-102450500D01*
X157373615Y-102433682D01*
X157414744Y-102425501D01*
X157533127Y-102376465D01*
X157639669Y-102305276D01*
X157730276Y-102214669D01*
X157797493Y-102114071D01*
X158099499Y-102114071D01*
X158124497Y-102239738D01*
X158124499Y-102239744D01*
X158173533Y-102358124D01*
X158173538Y-102358133D01*
X158244723Y-102464668D01*
X158244726Y-102464672D01*
X158335327Y-102555273D01*
X158335331Y-102555276D01*
X158441866Y-102626461D01*
X158441872Y-102626464D01*
X158441873Y-102626465D01*
X158560256Y-102675501D01*
X158560260Y-102675501D01*
X158560261Y-102675502D01*
X158685928Y-102700500D01*
X158685931Y-102700500D01*
X158814071Y-102700500D01*
X158898615Y-102683682D01*
X158939744Y-102675501D01*
X159058127Y-102626465D01*
X159164669Y-102555276D01*
X159205874Y-102514071D01*
X164349499Y-102514071D01*
X164374497Y-102639738D01*
X164374499Y-102639744D01*
X164423533Y-102758124D01*
X164423538Y-102758133D01*
X164494723Y-102864668D01*
X164494726Y-102864672D01*
X164585327Y-102955273D01*
X164585331Y-102955276D01*
X164691866Y-103026461D01*
X164691872Y-103026464D01*
X164691873Y-103026465D01*
X164810256Y-103075501D01*
X164810260Y-103075501D01*
X164810261Y-103075502D01*
X164935928Y-103100500D01*
X164935931Y-103100500D01*
X165064071Y-103100500D01*
X165148615Y-103083682D01*
X165189744Y-103075501D01*
X165308127Y-103026465D01*
X165414669Y-102955276D01*
X165505276Y-102864669D01*
X165576465Y-102758127D01*
X165625501Y-102639744D01*
X165650500Y-102514069D01*
X165650500Y-102385931D01*
X165650500Y-102385928D01*
X165625502Y-102260261D01*
X165625501Y-102260260D01*
X165625501Y-102260256D01*
X165576465Y-102141873D01*
X165576464Y-102141872D01*
X165576461Y-102141866D01*
X165505276Y-102035331D01*
X165505273Y-102035327D01*
X165414672Y-101944726D01*
X165414668Y-101944723D01*
X165308133Y-101873538D01*
X165308124Y-101873533D01*
X165189744Y-101824499D01*
X165189738Y-101824497D01*
X165064071Y-101799500D01*
X165064069Y-101799500D01*
X164935931Y-101799500D01*
X164935929Y-101799500D01*
X164810261Y-101824497D01*
X164810255Y-101824499D01*
X164691875Y-101873533D01*
X164691866Y-101873538D01*
X164585331Y-101944723D01*
X164585327Y-101944726D01*
X164494726Y-102035327D01*
X164494723Y-102035331D01*
X164423538Y-102141866D01*
X164423533Y-102141875D01*
X164374499Y-102260255D01*
X164374497Y-102260261D01*
X164349500Y-102385928D01*
X164349500Y-102385931D01*
X164349500Y-102514069D01*
X164349500Y-102514071D01*
X164349499Y-102514071D01*
X159205874Y-102514071D01*
X159255276Y-102464669D01*
X159326465Y-102358127D01*
X159375501Y-102239744D01*
X159394969Y-102141875D01*
X159400500Y-102114071D01*
X159400500Y-102014709D01*
X159420185Y-101947670D01*
X159472989Y-101901915D01*
X159542147Y-101891971D01*
X159548661Y-101893086D01*
X159585931Y-101900500D01*
X159714071Y-101900500D01*
X159798615Y-101883682D01*
X159839744Y-101875501D01*
X159958127Y-101826465D01*
X160064669Y-101755276D01*
X160155276Y-101664669D01*
X160226465Y-101558127D01*
X160275501Y-101439744D01*
X160286326Y-101385327D01*
X160300500Y-101314071D01*
X160300500Y-101185928D01*
X160275502Y-101060261D01*
X160275501Y-101060260D01*
X160275501Y-101060256D01*
X160226465Y-100941873D01*
X160226464Y-100941872D01*
X160226461Y-100941866D01*
X160155276Y-100835331D01*
X160155273Y-100835327D01*
X160064672Y-100744726D01*
X160064668Y-100744723D01*
X159958133Y-100673538D01*
X159958124Y-100673533D01*
X159839744Y-100624499D01*
X159839738Y-100624497D01*
X159714071Y-100599500D01*
X159714069Y-100599500D01*
X159585931Y-100599500D01*
X159585929Y-100599500D01*
X159460261Y-100624497D01*
X159460255Y-100624499D01*
X159341875Y-100673533D01*
X159341866Y-100673538D01*
X159235331Y-100744723D01*
X159235327Y-100744726D01*
X159144726Y-100835327D01*
X159144723Y-100835331D01*
X159073538Y-100941866D01*
X159073533Y-100941875D01*
X159024499Y-101060255D01*
X159024497Y-101060261D01*
X158999500Y-101185928D01*
X158999500Y-101285290D01*
X158979815Y-101352329D01*
X158927011Y-101398084D01*
X158857853Y-101408028D01*
X158851308Y-101406907D01*
X158814071Y-101399500D01*
X158814069Y-101399500D01*
X158685931Y-101399500D01*
X158685929Y-101399500D01*
X158560261Y-101424497D01*
X158560255Y-101424499D01*
X158441875Y-101473533D01*
X158441866Y-101473538D01*
X158335331Y-101544723D01*
X158335327Y-101544726D01*
X158244726Y-101635327D01*
X158244723Y-101635331D01*
X158173538Y-101741866D01*
X158173533Y-101741875D01*
X158124499Y-101860255D01*
X158124497Y-101860261D01*
X158121494Y-101875358D01*
X158121489Y-101875387D01*
X158099500Y-101985931D01*
X158099500Y-102114069D01*
X158099500Y-102114071D01*
X158099499Y-102114071D01*
X157797493Y-102114071D01*
X157801465Y-102108127D01*
X157850501Y-101989744D01*
X157875500Y-101864069D01*
X157875500Y-101735931D01*
X157875500Y-101735928D01*
X157850502Y-101610261D01*
X157850501Y-101610260D01*
X157850501Y-101610256D01*
X157801465Y-101491873D01*
X157801464Y-101491872D01*
X157801461Y-101491866D01*
X157730276Y-101385331D01*
X157730273Y-101385327D01*
X157639672Y-101294726D01*
X157639668Y-101294723D01*
X157533133Y-101223538D01*
X157533124Y-101223533D01*
X157414744Y-101174499D01*
X157414738Y-101174497D01*
X157289071Y-101149500D01*
X157289069Y-101149500D01*
X157160931Y-101149500D01*
X157160929Y-101149500D01*
X157035261Y-101174497D01*
X157035255Y-101174499D01*
X156916875Y-101223533D01*
X156916866Y-101223538D01*
X156810331Y-101294723D01*
X156810327Y-101294726D01*
X156719726Y-101385327D01*
X156719723Y-101385331D01*
X156648538Y-101491866D01*
X156648533Y-101491875D01*
X156599499Y-101610255D01*
X156599497Y-101610261D01*
X156574500Y-101735928D01*
X156574500Y-101735931D01*
X156574500Y-101864069D01*
X156574500Y-101864071D01*
X156574499Y-101864071D01*
X151250500Y-101864071D01*
X151250500Y-101760928D01*
X151250499Y-101760926D01*
X151249128Y-101754030D01*
X151225502Y-101635261D01*
X151225501Y-101635260D01*
X151225501Y-101635256D01*
X151176465Y-101516873D01*
X151176464Y-101516872D01*
X151176461Y-101516866D01*
X151105276Y-101410331D01*
X151105273Y-101410327D01*
X151014672Y-101319726D01*
X151014668Y-101319723D01*
X150908133Y-101248538D01*
X150908124Y-101248533D01*
X150789744Y-101199499D01*
X150789738Y-101199497D01*
X150664071Y-101174500D01*
X150664069Y-101174500D01*
X150535931Y-101174500D01*
X150535929Y-101174500D01*
X150410261Y-101199497D01*
X150410255Y-101199499D01*
X150291875Y-101248533D01*
X150291866Y-101248538D01*
X150185331Y-101319723D01*
X150185327Y-101319726D01*
X150094726Y-101410327D01*
X150094723Y-101410331D01*
X150023538Y-101516866D01*
X150023533Y-101516875D01*
X149974499Y-101635255D01*
X149974497Y-101635261D01*
X149949500Y-101760928D01*
X149949500Y-101760931D01*
X149949500Y-101889069D01*
X149949500Y-101889071D01*
X149949499Y-101889071D01*
X149485581Y-101889071D01*
X149498034Y-101826466D01*
X149500500Y-101814071D01*
X149500500Y-101685928D01*
X149475502Y-101560261D01*
X149475501Y-101560260D01*
X149475501Y-101560256D01*
X149426465Y-101441873D01*
X149426464Y-101441872D01*
X149426461Y-101441866D01*
X149355276Y-101335331D01*
X149355273Y-101335327D01*
X149264672Y-101244726D01*
X149264668Y-101244723D01*
X149158133Y-101173538D01*
X149158124Y-101173533D01*
X149039744Y-101124499D01*
X149039738Y-101124497D01*
X148914071Y-101099500D01*
X148914069Y-101099500D01*
X148785931Y-101099500D01*
X148785929Y-101099500D01*
X148660261Y-101124497D01*
X148660255Y-101124499D01*
X148541875Y-101173533D01*
X148541866Y-101173538D01*
X148435331Y-101244723D01*
X148435327Y-101244726D01*
X148344726Y-101335327D01*
X148344723Y-101335331D01*
X148273538Y-101441866D01*
X148273533Y-101441875D01*
X148224499Y-101560255D01*
X148224497Y-101560261D01*
X148199500Y-101685928D01*
X148199500Y-101685931D01*
X148199500Y-101814069D01*
X148199500Y-101814071D01*
X148199499Y-101814071D01*
X142727694Y-101814071D01*
X142758127Y-101801465D01*
X142864669Y-101730276D01*
X142955276Y-101639669D01*
X143026465Y-101533127D01*
X143075501Y-101414744D01*
X143083682Y-101373615D01*
X143100500Y-101289071D01*
X143100500Y-101160928D01*
X143075502Y-101035261D01*
X143075501Y-101035260D01*
X143075501Y-101035256D01*
X143026465Y-100916873D01*
X143026464Y-100916872D01*
X143026461Y-100916866D01*
X142955276Y-100810331D01*
X142955273Y-100810327D01*
X142864672Y-100719726D01*
X142864668Y-100719723D01*
X142758133Y-100648538D01*
X142758124Y-100648533D01*
X142639744Y-100599499D01*
X142639738Y-100599497D01*
X142514071Y-100574500D01*
X142514069Y-100574500D01*
X142385931Y-100574500D01*
X142385929Y-100574500D01*
X142260261Y-100599497D01*
X142260255Y-100599499D01*
X142141875Y-100648533D01*
X142141866Y-100648538D01*
X142035331Y-100719723D01*
X142035327Y-100719726D01*
X141944726Y-100810327D01*
X141944723Y-100810331D01*
X141873538Y-100916866D01*
X141873533Y-100916875D01*
X141824499Y-101035255D01*
X141824497Y-101035261D01*
X141799500Y-101160928D01*
X141799500Y-101160931D01*
X141799500Y-101289069D01*
X141799500Y-101289071D01*
X141799499Y-101289071D01*
X134824593Y-101289071D01*
X134780934Y-101223730D01*
X134755276Y-101185331D01*
X134755273Y-101185327D01*
X134664672Y-101094726D01*
X134664668Y-101094723D01*
X134558133Y-101023538D01*
X134558124Y-101023533D01*
X134439744Y-100974499D01*
X134439738Y-100974497D01*
X134314071Y-100949500D01*
X134314069Y-100949500D01*
X134185931Y-100949500D01*
X134185929Y-100949500D01*
X134060261Y-100974497D01*
X134060255Y-100974499D01*
X133941875Y-101023533D01*
X133941866Y-101023538D01*
X133835331Y-101094723D01*
X133835327Y-101094726D01*
X133744726Y-101185327D01*
X133744723Y-101185331D01*
X133673538Y-101291866D01*
X133673533Y-101291875D01*
X133624499Y-101410255D01*
X133624497Y-101410261D01*
X133599500Y-101535928D01*
X133599500Y-101535931D01*
X133599500Y-101664069D01*
X133599500Y-101664071D01*
X133599499Y-101664071D01*
X132866033Y-101664071D01*
X132863843Y-100264071D01*
X143649499Y-100264071D01*
X143674497Y-100389738D01*
X143674499Y-100389744D01*
X143723533Y-100508124D01*
X143723538Y-100508133D01*
X143794723Y-100614668D01*
X143794726Y-100614672D01*
X143885327Y-100705273D01*
X143885331Y-100705276D01*
X143991866Y-100776461D01*
X143991872Y-100776464D01*
X143991873Y-100776465D01*
X144110256Y-100825501D01*
X144110260Y-100825501D01*
X144110261Y-100825502D01*
X144235928Y-100850500D01*
X144235931Y-100850500D01*
X144364071Y-100850500D01*
X144448615Y-100833682D01*
X144489744Y-100825501D01*
X144608127Y-100776465D01*
X144714669Y-100705276D01*
X144724814Y-100695130D01*
X144786133Y-100661643D01*
X144855825Y-100666622D01*
X144900180Y-100695126D01*
X144935327Y-100730273D01*
X144935331Y-100730276D01*
X145041866Y-100801461D01*
X145041872Y-100801464D01*
X145041873Y-100801465D01*
X145160256Y-100850501D01*
X145160260Y-100850501D01*
X145160261Y-100850502D01*
X145285928Y-100875500D01*
X145285931Y-100875500D01*
X145414071Y-100875500D01*
X145498615Y-100858682D01*
X145539744Y-100850501D01*
X145658127Y-100801465D01*
X145764669Y-100730276D01*
X145787317Y-100707627D01*
X145848636Y-100674142D01*
X145918328Y-100679124D01*
X145954719Y-100702510D01*
X145955621Y-100701411D01*
X145960331Y-100705276D01*
X146066866Y-100776461D01*
X146066872Y-100776464D01*
X146066873Y-100776465D01*
X146185256Y-100825501D01*
X146185260Y-100825501D01*
X146185261Y-100825502D01*
X146310928Y-100850500D01*
X146310931Y-100850500D01*
X146439071Y-100850500D01*
X146523615Y-100833682D01*
X146564744Y-100825501D01*
X146683127Y-100776465D01*
X146789669Y-100705276D01*
X146880276Y-100614669D01*
X146951465Y-100508127D01*
X147000501Y-100389744D01*
X147023869Y-100272268D01*
X147025500Y-100264071D01*
X147025500Y-100135928D01*
X147000502Y-100010261D01*
X147000501Y-100010260D01*
X147000501Y-100010256D01*
X146951465Y-99891873D01*
X146951464Y-99891872D01*
X146951461Y-99891866D01*
X146880276Y-99785331D01*
X146880273Y-99785327D01*
X146789672Y-99694726D01*
X146789668Y-99694723D01*
X146683133Y-99623538D01*
X146683124Y-99623533D01*
X146564744Y-99574499D01*
X146564738Y-99574497D01*
X146439071Y-99549500D01*
X146439069Y-99549500D01*
X146310931Y-99549500D01*
X146310929Y-99549500D01*
X146185261Y-99574497D01*
X146185255Y-99574499D01*
X146066875Y-99623533D01*
X146066866Y-99623538D01*
X145960331Y-99694723D01*
X145960327Y-99694726D01*
X145937681Y-99717373D01*
X145876358Y-99750858D01*
X145806666Y-99745874D01*
X145770280Y-99722489D01*
X145769379Y-99723589D01*
X145764668Y-99719723D01*
X145658133Y-99648538D01*
X145658124Y-99648533D01*
X145539744Y-99599499D01*
X145539738Y-99599497D01*
X145414071Y-99574500D01*
X145414069Y-99574500D01*
X145285931Y-99574500D01*
X145285929Y-99574500D01*
X145160261Y-99599497D01*
X145160255Y-99599499D01*
X145041875Y-99648533D01*
X145041866Y-99648538D01*
X144935331Y-99719723D01*
X144935327Y-99719726D01*
X144925181Y-99729873D01*
X144863858Y-99763358D01*
X144794166Y-99758374D01*
X144749819Y-99729873D01*
X144714672Y-99694726D01*
X144714668Y-99694723D01*
X144608133Y-99623538D01*
X144608124Y-99623533D01*
X144489744Y-99574499D01*
X144489738Y-99574497D01*
X144364071Y-99549500D01*
X144364069Y-99549500D01*
X144235931Y-99549500D01*
X144235929Y-99549500D01*
X144110261Y-99574497D01*
X144110255Y-99574499D01*
X143991875Y-99623533D01*
X143991866Y-99623538D01*
X143885331Y-99694723D01*
X143885327Y-99694726D01*
X143794726Y-99785327D01*
X143794723Y-99785331D01*
X143723538Y-99891866D01*
X143723533Y-99891875D01*
X143674499Y-100010255D01*
X143674497Y-100010261D01*
X143649500Y-100135928D01*
X143649500Y-100135931D01*
X143649500Y-100264069D01*
X143649500Y-100264071D01*
X143649499Y-100264071D01*
X132863843Y-100264071D01*
X132862709Y-99539071D01*
X147449499Y-99539071D01*
X147474497Y-99664738D01*
X147474499Y-99664744D01*
X147523533Y-99783124D01*
X147523538Y-99783133D01*
X147594723Y-99889668D01*
X147594726Y-99889672D01*
X147685327Y-99980273D01*
X147685331Y-99980276D01*
X147791866Y-100051461D01*
X147791872Y-100051464D01*
X147791873Y-100051465D01*
X147910256Y-100100501D01*
X147910260Y-100100501D01*
X147910261Y-100100502D01*
X148035928Y-100125500D01*
X148035931Y-100125500D01*
X148164071Y-100125500D01*
X148248615Y-100108682D01*
X148289744Y-100100501D01*
X148408127Y-100051465D01*
X148514669Y-99980276D01*
X148605276Y-99889669D01*
X148655802Y-99814050D01*
X148709413Y-99769246D01*
X148778738Y-99760539D01*
X148841766Y-99790693D01*
X148873465Y-99835489D01*
X148922922Y-99954890D01*
X148922927Y-99954899D01*
X148994112Y-100061434D01*
X148994115Y-100061438D01*
X149084716Y-100152039D01*
X149084720Y-100152042D01*
X149191255Y-100223227D01*
X149191261Y-100223230D01*
X149191262Y-100223231D01*
X149309645Y-100272267D01*
X149309649Y-100272267D01*
X149309650Y-100272268D01*
X149435317Y-100297266D01*
X149435320Y-100297266D01*
X149563460Y-100297266D01*
X149648004Y-100280448D01*
X149689133Y-100272267D01*
X149807516Y-100223231D01*
X149914058Y-100152042D01*
X150004665Y-100061435D01*
X150019608Y-100039071D01*
X153424499Y-100039071D01*
X153449497Y-100164738D01*
X153449499Y-100164744D01*
X153498533Y-100283124D01*
X153498538Y-100283133D01*
X153569723Y-100389668D01*
X153569726Y-100389672D01*
X153660327Y-100480273D01*
X153660331Y-100480276D01*
X153766866Y-100551461D01*
X153766875Y-100551466D01*
X153793692Y-100562574D01*
X153885256Y-100600501D01*
X153885260Y-100600501D01*
X153885261Y-100600502D01*
X154010928Y-100625500D01*
X154010931Y-100625500D01*
X154139071Y-100625500D01*
X154223615Y-100608682D01*
X154264744Y-100600501D01*
X154383127Y-100551465D01*
X154489669Y-100480276D01*
X154489671Y-100480273D01*
X154494373Y-100476415D01*
X154495713Y-100478048D01*
X154548610Y-100449148D01*
X154618303Y-100454114D01*
X154662680Y-100482626D01*
X154685327Y-100505273D01*
X154685331Y-100505276D01*
X154791866Y-100576461D01*
X154791872Y-100576464D01*
X154791873Y-100576465D01*
X154910256Y-100625501D01*
X154910260Y-100625501D01*
X154910261Y-100625502D01*
X155035928Y-100650500D01*
X155035931Y-100650500D01*
X155164071Y-100650500D01*
X155248615Y-100633682D01*
X155289744Y-100625501D01*
X155408127Y-100576465D01*
X155514669Y-100505276D01*
X155605276Y-100414669D01*
X155676465Y-100308127D01*
X155725501Y-100189744D01*
X155740554Y-100114071D01*
X157299499Y-100114071D01*
X157324497Y-100239738D01*
X157324499Y-100239744D01*
X157373533Y-100358124D01*
X157373538Y-100358133D01*
X157444723Y-100464668D01*
X157444726Y-100464672D01*
X157535327Y-100555273D01*
X157535331Y-100555276D01*
X157641866Y-100626461D01*
X157641872Y-100626464D01*
X157641873Y-100626465D01*
X157760256Y-100675501D01*
X157760260Y-100675501D01*
X157760261Y-100675502D01*
X157885928Y-100700500D01*
X157885931Y-100700500D01*
X158014071Y-100700500D01*
X158121530Y-100679124D01*
X158139744Y-100675501D01*
X158258127Y-100626465D01*
X158364669Y-100555276D01*
X158455276Y-100464669D01*
X158526465Y-100358127D01*
X158575501Y-100239744D01*
X158590421Y-100164738D01*
X158600500Y-100114071D01*
X158600500Y-99985928D01*
X158575502Y-99860261D01*
X158575501Y-99860260D01*
X158575501Y-99860256D01*
X158526465Y-99741873D01*
X158526464Y-99741872D01*
X158526461Y-99741866D01*
X158455276Y-99635331D01*
X158455273Y-99635327D01*
X158364672Y-99544726D01*
X158364668Y-99544723D01*
X158258133Y-99473538D01*
X158258124Y-99473533D01*
X158139744Y-99424499D01*
X158139738Y-99424497D01*
X158014071Y-99399500D01*
X158014069Y-99399500D01*
X157885931Y-99399500D01*
X157885929Y-99399500D01*
X157760261Y-99424497D01*
X157760255Y-99424499D01*
X157641875Y-99473533D01*
X157641866Y-99473538D01*
X157535331Y-99544723D01*
X157535327Y-99544726D01*
X157444726Y-99635327D01*
X157444723Y-99635331D01*
X157373538Y-99741866D01*
X157373533Y-99741875D01*
X157324499Y-99860255D01*
X157324497Y-99860261D01*
X157299500Y-99985928D01*
X157299500Y-99985931D01*
X157299500Y-100114069D01*
X157299500Y-100114071D01*
X157299499Y-100114071D01*
X155740554Y-100114071D01*
X155750500Y-100064069D01*
X155750500Y-99935931D01*
X155750500Y-99935928D01*
X155725502Y-99810261D01*
X155725501Y-99810260D01*
X155725501Y-99810256D01*
X155676465Y-99691873D01*
X155676464Y-99691872D01*
X155676461Y-99691866D01*
X155605276Y-99585331D01*
X155605273Y-99585327D01*
X155514672Y-99494726D01*
X155514668Y-99494723D01*
X155408133Y-99423538D01*
X155408124Y-99423533D01*
X155289744Y-99374499D01*
X155289738Y-99374497D01*
X155164071Y-99349500D01*
X155164069Y-99349500D01*
X155035931Y-99349500D01*
X155035929Y-99349500D01*
X154910261Y-99374497D01*
X154910255Y-99374499D01*
X154791875Y-99423533D01*
X154791866Y-99423538D01*
X154685334Y-99494721D01*
X154680627Y-99498585D01*
X154679293Y-99496960D01*
X154626327Y-99525865D01*
X154556637Y-99520863D01*
X154512319Y-99492373D01*
X154489672Y-99469726D01*
X154489668Y-99469723D01*
X154383133Y-99398538D01*
X154383124Y-99398533D01*
X154264744Y-99349499D01*
X154264738Y-99349497D01*
X154139071Y-99324500D01*
X154139069Y-99324500D01*
X154010931Y-99324500D01*
X154010929Y-99324500D01*
X153885261Y-99349497D01*
X153885255Y-99349499D01*
X153766875Y-99398533D01*
X153766866Y-99398538D01*
X153660331Y-99469723D01*
X153660327Y-99469726D01*
X153569726Y-99560327D01*
X153569723Y-99560331D01*
X153498538Y-99666866D01*
X153498533Y-99666875D01*
X153449499Y-99785255D01*
X153449497Y-99785261D01*
X153424500Y-99910928D01*
X153424500Y-99910931D01*
X153424500Y-100039069D01*
X153424500Y-100039071D01*
X153424499Y-100039071D01*
X150019608Y-100039071D01*
X150075854Y-99954893D01*
X150124890Y-99836510D01*
X150143715Y-99741873D01*
X150149889Y-99710837D01*
X150149889Y-99582694D01*
X150124891Y-99457027D01*
X150124890Y-99457026D01*
X150124890Y-99457022D01*
X150075854Y-99338639D01*
X150075853Y-99338638D01*
X150075850Y-99338632D01*
X150004665Y-99232097D01*
X150004662Y-99232093D01*
X149914061Y-99141492D01*
X149914057Y-99141489D01*
X149807522Y-99070304D01*
X149807513Y-99070299D01*
X149689133Y-99021265D01*
X149689127Y-99021263D01*
X149563460Y-98996266D01*
X149563458Y-98996266D01*
X149435320Y-98996266D01*
X149435318Y-98996266D01*
X149309650Y-99021263D01*
X149309644Y-99021265D01*
X149191264Y-99070299D01*
X149191255Y-99070304D01*
X149084720Y-99141489D01*
X149084716Y-99141492D01*
X148994115Y-99232093D01*
X148943586Y-99307715D01*
X148889973Y-99352519D01*
X148820648Y-99361226D01*
X148757621Y-99331071D01*
X148725923Y-99286275D01*
X148676468Y-99166879D01*
X148676461Y-99166866D01*
X148605276Y-99060331D01*
X148605273Y-99060327D01*
X148514672Y-98969726D01*
X148514668Y-98969723D01*
X148408133Y-98898538D01*
X148408124Y-98898533D01*
X148289744Y-98849499D01*
X148289738Y-98849497D01*
X148164071Y-98824500D01*
X148164069Y-98824500D01*
X148035931Y-98824500D01*
X148035929Y-98824500D01*
X147910261Y-98849497D01*
X147910255Y-98849499D01*
X147791875Y-98898533D01*
X147791866Y-98898538D01*
X147685331Y-98969723D01*
X147685327Y-98969726D01*
X147594726Y-99060327D01*
X147594723Y-99060331D01*
X147523538Y-99166866D01*
X147523533Y-99166875D01*
X147474499Y-99285255D01*
X147474497Y-99285261D01*
X147449500Y-99410928D01*
X147449500Y-99410931D01*
X147449500Y-99539069D01*
X147449500Y-99539071D01*
X147449499Y-99539071D01*
X132862709Y-99539071D01*
X132860128Y-97889071D01*
X135849499Y-97889071D01*
X135874497Y-98014738D01*
X135874499Y-98014744D01*
X135923533Y-98133124D01*
X135923538Y-98133133D01*
X135994723Y-98239668D01*
X135994726Y-98239672D01*
X136085327Y-98330273D01*
X136085331Y-98330276D01*
X136191866Y-98401461D01*
X136191875Y-98401466D01*
X136218692Y-98412574D01*
X136310256Y-98450501D01*
X136310260Y-98450501D01*
X136310261Y-98450502D01*
X136435928Y-98475500D01*
X136435931Y-98475500D01*
X136564071Y-98475500D01*
X136648615Y-98458682D01*
X136689744Y-98450501D01*
X136808127Y-98401465D01*
X136914669Y-98330276D01*
X137005276Y-98239669D01*
X137076465Y-98133127D01*
X137125501Y-98014744D01*
X137139289Y-97945428D01*
X137150500Y-97889071D01*
X137150500Y-97760928D01*
X137125502Y-97635261D01*
X137125501Y-97635260D01*
X137125501Y-97635256D01*
X137076465Y-97516873D01*
X137076464Y-97516872D01*
X137076461Y-97516866D01*
X137074593Y-97514071D01*
X140174499Y-97514071D01*
X140199497Y-97639738D01*
X140199499Y-97639744D01*
X140248533Y-97758124D01*
X140248538Y-97758133D01*
X140319723Y-97864668D01*
X140319726Y-97864672D01*
X140410327Y-97955273D01*
X140410331Y-97955276D01*
X140516866Y-98026461D01*
X140516875Y-98026466D01*
X140526076Y-98030277D01*
X140635256Y-98075501D01*
X140635260Y-98075501D01*
X140635261Y-98075502D01*
X140760928Y-98100500D01*
X140760931Y-98100500D01*
X140889071Y-98100500D01*
X140973615Y-98083682D01*
X141014744Y-98075501D01*
X141133127Y-98026465D01*
X141239669Y-97955276D01*
X141330276Y-97864669D01*
X141401465Y-97758127D01*
X141450501Y-97639744D01*
X141470527Y-97539071D01*
X143649499Y-97539071D01*
X143674497Y-97664738D01*
X143674499Y-97664744D01*
X143723533Y-97783124D01*
X143723538Y-97783133D01*
X143794723Y-97889668D01*
X143794726Y-97889672D01*
X143885327Y-97980273D01*
X143885331Y-97980276D01*
X143991866Y-98051461D01*
X143991872Y-98051464D01*
X143991873Y-98051465D01*
X144110256Y-98100501D01*
X144110260Y-98100501D01*
X144110261Y-98100502D01*
X144235928Y-98125500D01*
X144235931Y-98125500D01*
X144364071Y-98125500D01*
X144448615Y-98108682D01*
X144489744Y-98100501D01*
X144608127Y-98051465D01*
X144714669Y-97980276D01*
X144721010Y-97973935D01*
X144782331Y-97940447D01*
X144852023Y-97945428D01*
X144877586Y-97958510D01*
X144941866Y-98001461D01*
X144941872Y-98001464D01*
X144941873Y-98001465D01*
X145060256Y-98050501D01*
X145060260Y-98050501D01*
X145060261Y-98050502D01*
X145185928Y-98075500D01*
X145185931Y-98075500D01*
X145314071Y-98075500D01*
X145398615Y-98058682D01*
X145439744Y-98050501D01*
X145558127Y-98001465D01*
X145664669Y-97930276D01*
X145676987Y-97917957D01*
X145738307Y-97884473D01*
X145807999Y-97889455D01*
X145863934Y-97931325D01*
X145867770Y-97936745D01*
X145869724Y-97939670D01*
X145960327Y-98030273D01*
X145960331Y-98030276D01*
X146066866Y-98101461D01*
X146066872Y-98101464D01*
X146066873Y-98101465D01*
X146185256Y-98150501D01*
X146185260Y-98150501D01*
X146185261Y-98150502D01*
X146310928Y-98175500D01*
X146310931Y-98175500D01*
X146439071Y-98175500D01*
X146523615Y-98158682D01*
X146564744Y-98150501D01*
X146683127Y-98101465D01*
X146789669Y-98030276D01*
X146855874Y-97964071D01*
X149449499Y-97964071D01*
X149474497Y-98089738D01*
X149474499Y-98089744D01*
X149523533Y-98208124D01*
X149523538Y-98208133D01*
X149594723Y-98314668D01*
X149594726Y-98314672D01*
X149685327Y-98405273D01*
X149685331Y-98405276D01*
X149791866Y-98476461D01*
X149791872Y-98476464D01*
X149791873Y-98476465D01*
X149910256Y-98525501D01*
X149910260Y-98525501D01*
X149910261Y-98525502D01*
X150035928Y-98550500D01*
X150035931Y-98550500D01*
X150164071Y-98550500D01*
X150248615Y-98533682D01*
X150289744Y-98525501D01*
X150408127Y-98476465D01*
X150514669Y-98405276D01*
X150605276Y-98314669D01*
X150676465Y-98208127D01*
X150725501Y-98089744D01*
X150743062Y-98001461D01*
X150750500Y-97964071D01*
X150750500Y-97835928D01*
X150725502Y-97710261D01*
X150725501Y-97710260D01*
X150725501Y-97710256D01*
X150676465Y-97591873D01*
X150676464Y-97591872D01*
X150676461Y-97591866D01*
X150641185Y-97539071D01*
X150949499Y-97539071D01*
X150974497Y-97664738D01*
X150974499Y-97664744D01*
X151023533Y-97783124D01*
X151023538Y-97783133D01*
X151094723Y-97889668D01*
X151094726Y-97889672D01*
X151185327Y-97980273D01*
X151185331Y-97980276D01*
X151291866Y-98051461D01*
X151291872Y-98051464D01*
X151291873Y-98051465D01*
X151410256Y-98100501D01*
X151410260Y-98100501D01*
X151410261Y-98100502D01*
X151535928Y-98125500D01*
X151535931Y-98125500D01*
X151664071Y-98125500D01*
X151748615Y-98108682D01*
X151789744Y-98100501D01*
X151908127Y-98051465D01*
X152014669Y-97980276D01*
X152036435Y-97958510D01*
X152062319Y-97932627D01*
X152123642Y-97899142D01*
X152193334Y-97904126D01*
X152237681Y-97932627D01*
X152260327Y-97955273D01*
X152260331Y-97955276D01*
X152366866Y-98026461D01*
X152366875Y-98026466D01*
X152376076Y-98030277D01*
X152485256Y-98075501D01*
X152485260Y-98075501D01*
X152485261Y-98075502D01*
X152610928Y-98100500D01*
X152610931Y-98100500D01*
X152739071Y-98100500D01*
X152823615Y-98083682D01*
X152864744Y-98075501D01*
X152983127Y-98026465D01*
X153089669Y-97955276D01*
X153180276Y-97864669D01*
X153251465Y-97758127D01*
X153300501Y-97639744D01*
X153310581Y-97589071D01*
X154624499Y-97589071D01*
X154649497Y-97714738D01*
X154649499Y-97714744D01*
X154698533Y-97833124D01*
X154698538Y-97833133D01*
X154769723Y-97939668D01*
X154769726Y-97939672D01*
X154860327Y-98030273D01*
X154860331Y-98030276D01*
X154966866Y-98101461D01*
X154966872Y-98101464D01*
X154966873Y-98101465D01*
X155085256Y-98150501D01*
X155085260Y-98150501D01*
X155085261Y-98150502D01*
X155210928Y-98175500D01*
X155210931Y-98175500D01*
X155339071Y-98175500D01*
X155423615Y-98158682D01*
X155464744Y-98150501D01*
X155583127Y-98101465D01*
X155689669Y-98030276D01*
X155746948Y-97972996D01*
X155808269Y-97939513D01*
X155877961Y-97944497D01*
X155933895Y-97986368D01*
X155937730Y-97991787D01*
X155969726Y-98039672D01*
X156060327Y-98130273D01*
X156060331Y-98130276D01*
X156166866Y-98201461D01*
X156166875Y-98201466D01*
X156182949Y-98208124D01*
X156285256Y-98250501D01*
X156285260Y-98250501D01*
X156285261Y-98250502D01*
X156410928Y-98275500D01*
X156410931Y-98275500D01*
X156539071Y-98275500D01*
X156623615Y-98258682D01*
X156664744Y-98250501D01*
X156783127Y-98201465D01*
X156889669Y-98130276D01*
X156980276Y-98039669D01*
X157051465Y-97933127D01*
X157066890Y-97895885D01*
X157110729Y-97841484D01*
X157177023Y-97819418D01*
X157244723Y-97836696D01*
X157284552Y-97874447D01*
X157294721Y-97889666D01*
X157294726Y-97889672D01*
X157385327Y-97980273D01*
X157385331Y-97980276D01*
X157491866Y-98051461D01*
X157491872Y-98051464D01*
X157491873Y-98051465D01*
X157610256Y-98100501D01*
X157610260Y-98100501D01*
X157610261Y-98100502D01*
X157735928Y-98125500D01*
X157735931Y-98125500D01*
X157864071Y-98125500D01*
X157948615Y-98108682D01*
X157989744Y-98100501D01*
X158108127Y-98051465D01*
X158214669Y-97980276D01*
X158305276Y-97889669D01*
X158376465Y-97783127D01*
X158384358Y-97764071D01*
X162249499Y-97764071D01*
X162274497Y-97889738D01*
X162274499Y-97889744D01*
X162323533Y-98008124D01*
X162323538Y-98008133D01*
X162394723Y-98114668D01*
X162394726Y-98114672D01*
X162485327Y-98205273D01*
X162485331Y-98205276D01*
X162591866Y-98276461D01*
X162591872Y-98276464D01*
X162591873Y-98276465D01*
X162710256Y-98325501D01*
X162710260Y-98325501D01*
X162710261Y-98325502D01*
X162835928Y-98350500D01*
X162835931Y-98350500D01*
X162964071Y-98350500D01*
X163065754Y-98330273D01*
X163089744Y-98325501D01*
X163208127Y-98276465D01*
X163314669Y-98205276D01*
X163405276Y-98114669D01*
X163476465Y-98008127D01*
X163525501Y-97889744D01*
X163546710Y-97783124D01*
X163550500Y-97764071D01*
X163550500Y-97635928D01*
X163525502Y-97510261D01*
X163525501Y-97510260D01*
X163525501Y-97510256D01*
X163476465Y-97391873D01*
X163476464Y-97391872D01*
X163476461Y-97391866D01*
X163405276Y-97285331D01*
X163405273Y-97285327D01*
X163314672Y-97194726D01*
X163314668Y-97194723D01*
X163208133Y-97123538D01*
X163208124Y-97123533D01*
X163089744Y-97074499D01*
X163089738Y-97074497D01*
X162964071Y-97049500D01*
X162964069Y-97049500D01*
X162835931Y-97049500D01*
X162835929Y-97049500D01*
X162710261Y-97074497D01*
X162710255Y-97074499D01*
X162591875Y-97123533D01*
X162591866Y-97123538D01*
X162485331Y-97194723D01*
X162485327Y-97194726D01*
X162394726Y-97285327D01*
X162394723Y-97285331D01*
X162323538Y-97391866D01*
X162323533Y-97391875D01*
X162274499Y-97510255D01*
X162274497Y-97510261D01*
X162249500Y-97635928D01*
X162249500Y-97635931D01*
X162249500Y-97764069D01*
X162249500Y-97764071D01*
X162249499Y-97764071D01*
X158384358Y-97764071D01*
X158425501Y-97664744D01*
X158430475Y-97639738D01*
X158437257Y-97605647D01*
X158450500Y-97539071D01*
X158450500Y-97410928D01*
X158425502Y-97285261D01*
X158425501Y-97285260D01*
X158425501Y-97285256D01*
X158376465Y-97166873D01*
X158376464Y-97166872D01*
X158376461Y-97166866D01*
X158305276Y-97060331D01*
X158305273Y-97060327D01*
X158214672Y-96969726D01*
X158214668Y-96969723D01*
X158108133Y-96898538D01*
X158108124Y-96898533D01*
X157989744Y-96849499D01*
X157989738Y-96849497D01*
X157864071Y-96824500D01*
X157864069Y-96824500D01*
X157735931Y-96824500D01*
X157735929Y-96824500D01*
X157610261Y-96849497D01*
X157610255Y-96849499D01*
X157491875Y-96898533D01*
X157491866Y-96898538D01*
X157385331Y-96969723D01*
X157385327Y-96969726D01*
X157294726Y-97060327D01*
X157294723Y-97060331D01*
X157223538Y-97166866D01*
X157223535Y-97166873D01*
X157208109Y-97204114D01*
X157164267Y-97258517D01*
X157097973Y-97280581D01*
X157030273Y-97263301D01*
X156990446Y-97225551D01*
X156980276Y-97210331D01*
X156980273Y-97210327D01*
X156889672Y-97119726D01*
X156889668Y-97119723D01*
X156783133Y-97048538D01*
X156783124Y-97048533D01*
X156664744Y-96999499D01*
X156664738Y-96999497D01*
X156539071Y-96974500D01*
X156539069Y-96974500D01*
X156410931Y-96974500D01*
X156410929Y-96974500D01*
X156285261Y-96999497D01*
X156285255Y-96999499D01*
X156166875Y-97048533D01*
X156166866Y-97048538D01*
X156060331Y-97119723D01*
X156003052Y-97177002D01*
X155941728Y-97210486D01*
X155872036Y-97205501D01*
X155816103Y-97163630D01*
X155812269Y-97158211D01*
X155780276Y-97110331D01*
X155780273Y-97110327D01*
X155689672Y-97019726D01*
X155689668Y-97019723D01*
X155583133Y-96948538D01*
X155583124Y-96948533D01*
X155464744Y-96899499D01*
X155464738Y-96899497D01*
X155339071Y-96874500D01*
X155339069Y-96874500D01*
X155210931Y-96874500D01*
X155210929Y-96874500D01*
X155085261Y-96899497D01*
X155085255Y-96899499D01*
X154966875Y-96948533D01*
X154966866Y-96948538D01*
X154860331Y-97019723D01*
X154860327Y-97019726D01*
X154769726Y-97110327D01*
X154769723Y-97110331D01*
X154698538Y-97216866D01*
X154698533Y-97216875D01*
X154649499Y-97335255D01*
X154649497Y-97335261D01*
X154624500Y-97460928D01*
X154624500Y-97460931D01*
X154624500Y-97589069D01*
X154624500Y-97589071D01*
X154624499Y-97589071D01*
X153310581Y-97589071D01*
X153324942Y-97516875D01*
X153325500Y-97514071D01*
X153325500Y-97385928D01*
X153300502Y-97260261D01*
X153300501Y-97260260D01*
X153300501Y-97260256D01*
X153260477Y-97163630D01*
X153251466Y-97141875D01*
X153251461Y-97141866D01*
X153180276Y-97035331D01*
X153180273Y-97035327D01*
X153089672Y-96944726D01*
X153089668Y-96944723D01*
X152983133Y-96873538D01*
X152983124Y-96873533D01*
X152864744Y-96824499D01*
X152864738Y-96824497D01*
X152739071Y-96799500D01*
X152739069Y-96799500D01*
X152610931Y-96799500D01*
X152610929Y-96799500D01*
X152485261Y-96824497D01*
X152485255Y-96824499D01*
X152366875Y-96873533D01*
X152366866Y-96873538D01*
X152260331Y-96944723D01*
X152260327Y-96944726D01*
X152212681Y-96992373D01*
X152151358Y-97025858D01*
X152081666Y-97020874D01*
X152037319Y-96992373D01*
X152014672Y-96969726D01*
X152014668Y-96969723D01*
X151908133Y-96898538D01*
X151908124Y-96898533D01*
X151789744Y-96849499D01*
X151789738Y-96849497D01*
X151664071Y-96824500D01*
X151664069Y-96824500D01*
X151535931Y-96824500D01*
X151535929Y-96824500D01*
X151410261Y-96849497D01*
X151410255Y-96849499D01*
X151291875Y-96898533D01*
X151291866Y-96898538D01*
X151185331Y-96969723D01*
X151185327Y-96969726D01*
X151094726Y-97060327D01*
X151094723Y-97060331D01*
X151023538Y-97166866D01*
X151023533Y-97166875D01*
X150974499Y-97285255D01*
X150974497Y-97285261D01*
X150949500Y-97410928D01*
X150949500Y-97410931D01*
X150949500Y-97539069D01*
X150949500Y-97539071D01*
X150949499Y-97539071D01*
X150641185Y-97539071D01*
X150605276Y-97485330D01*
X150514672Y-97394726D01*
X150514668Y-97394723D01*
X150408133Y-97323538D01*
X150408124Y-97323533D01*
X150289744Y-97274499D01*
X150289738Y-97274497D01*
X150164071Y-97249500D01*
X150164069Y-97249500D01*
X150035931Y-97249500D01*
X150035929Y-97249500D01*
X149910261Y-97274497D01*
X149910255Y-97274499D01*
X149791875Y-97323533D01*
X149791866Y-97323538D01*
X149685331Y-97394723D01*
X149685327Y-97394726D01*
X149594726Y-97485327D01*
X149594723Y-97485331D01*
X149523538Y-97591866D01*
X149523533Y-97591875D01*
X149474499Y-97710255D01*
X149474497Y-97710261D01*
X149449500Y-97835928D01*
X149449500Y-97835931D01*
X149449500Y-97964069D01*
X149449500Y-97964071D01*
X149449499Y-97964071D01*
X146855874Y-97964071D01*
X146880276Y-97939669D01*
X146951465Y-97833127D01*
X146966347Y-97797199D01*
X146972483Y-97782386D01*
X146972483Y-97782385D01*
X147000501Y-97714744D01*
X147016313Y-97635255D01*
X147025500Y-97589071D01*
X147025500Y-97460928D01*
X147000502Y-97335261D01*
X147000501Y-97335260D01*
X147000501Y-97335256D01*
X146951465Y-97216873D01*
X146951464Y-97216872D01*
X146951461Y-97216866D01*
X146880276Y-97110331D01*
X146880273Y-97110327D01*
X146789672Y-97019726D01*
X146789668Y-97019723D01*
X146683133Y-96948538D01*
X146683124Y-96948533D01*
X146564744Y-96899499D01*
X146564738Y-96899497D01*
X146439071Y-96874500D01*
X146439069Y-96874500D01*
X146310931Y-96874500D01*
X146310929Y-96874500D01*
X146185261Y-96899497D01*
X146185255Y-96899499D01*
X146066875Y-96948533D01*
X146066866Y-96948538D01*
X145960331Y-97019723D01*
X145948009Y-97032045D01*
X145886684Y-97065528D01*
X145816993Y-97060541D01*
X145761061Y-97018668D01*
X145757227Y-97013251D01*
X145755274Y-97010328D01*
X145664672Y-96919726D01*
X145664668Y-96919723D01*
X145558133Y-96848538D01*
X145558124Y-96848533D01*
X145439744Y-96799499D01*
X145439738Y-96799497D01*
X145314071Y-96774500D01*
X145314069Y-96774500D01*
X145185931Y-96774500D01*
X145185929Y-96774500D01*
X145060261Y-96799497D01*
X145060255Y-96799499D01*
X144941875Y-96848533D01*
X144941866Y-96848538D01*
X144835331Y-96919723D01*
X144835324Y-96919728D01*
X144828981Y-96926072D01*
X144767656Y-96959554D01*
X144697965Y-96954567D01*
X144672413Y-96941489D01*
X144608133Y-96898538D01*
X144608124Y-96898533D01*
X144489744Y-96849499D01*
X144489738Y-96849497D01*
X144364071Y-96824500D01*
X144364069Y-96824500D01*
X144235931Y-96824500D01*
X144235929Y-96824500D01*
X144110261Y-96849497D01*
X144110255Y-96849499D01*
X143991875Y-96898533D01*
X143991866Y-96898538D01*
X143885331Y-96969723D01*
X143885327Y-96969726D01*
X143794726Y-97060327D01*
X143794723Y-97060331D01*
X143723538Y-97166866D01*
X143723533Y-97166875D01*
X143674499Y-97285255D01*
X143674497Y-97285261D01*
X143649500Y-97410928D01*
X143649500Y-97410931D01*
X143649500Y-97539069D01*
X143649500Y-97539071D01*
X143649499Y-97539071D01*
X141470527Y-97539071D01*
X141474942Y-97516875D01*
X141475500Y-97514071D01*
X141475500Y-97385928D01*
X141450502Y-97260261D01*
X141450501Y-97260260D01*
X141450501Y-97260256D01*
X141410477Y-97163630D01*
X141401466Y-97141875D01*
X141401461Y-97141866D01*
X141330276Y-97035331D01*
X141330273Y-97035327D01*
X141239672Y-96944726D01*
X141239668Y-96944723D01*
X141133133Y-96873538D01*
X141133124Y-96873533D01*
X141014744Y-96824499D01*
X141014738Y-96824497D01*
X140889071Y-96799500D01*
X140889069Y-96799500D01*
X140760931Y-96799500D01*
X140760929Y-96799500D01*
X140635261Y-96824497D01*
X140635255Y-96824499D01*
X140516875Y-96873533D01*
X140516866Y-96873538D01*
X140410331Y-96944723D01*
X140410327Y-96944726D01*
X140319726Y-97035327D01*
X140319723Y-97035331D01*
X140248538Y-97141866D01*
X140248533Y-97141875D01*
X140199499Y-97260255D01*
X140199497Y-97260261D01*
X140174500Y-97385928D01*
X140174500Y-97385931D01*
X140174500Y-97514069D01*
X140174500Y-97514071D01*
X140174499Y-97514071D01*
X137074593Y-97514071D01*
X137030934Y-97448730D01*
X137005276Y-97410331D01*
X137005273Y-97410327D01*
X136914672Y-97319726D01*
X136914668Y-97319723D01*
X136808133Y-97248538D01*
X136808124Y-97248533D01*
X136689744Y-97199499D01*
X136689738Y-97199497D01*
X136564071Y-97174500D01*
X136564069Y-97174500D01*
X136435931Y-97174500D01*
X136435929Y-97174500D01*
X136310261Y-97199497D01*
X136310255Y-97199499D01*
X136191875Y-97248533D01*
X136191866Y-97248538D01*
X136085331Y-97319723D01*
X136085327Y-97319726D01*
X135994726Y-97410327D01*
X135994723Y-97410331D01*
X135923538Y-97516866D01*
X135923533Y-97516875D01*
X135874499Y-97635255D01*
X135874497Y-97635261D01*
X135849500Y-97760928D01*
X135849500Y-97760931D01*
X135849500Y-97889069D01*
X135849500Y-97889071D01*
X135849499Y-97889071D01*
X132860128Y-97889071D01*
X132855007Y-94614873D01*
X132874587Y-94547805D01*
X132927319Y-94501967D01*
X132996462Y-94491916D01*
X133060063Y-94520841D01*
X133082109Y-94545790D01*
X133094723Y-94564668D01*
X133094726Y-94564672D01*
X133185327Y-94655273D01*
X133185331Y-94655276D01*
X133291866Y-94726461D01*
X133291872Y-94726464D01*
X133291873Y-94726465D01*
X133410256Y-94775501D01*
X133410260Y-94775501D01*
X133410261Y-94775502D01*
X133535928Y-94800500D01*
X133535931Y-94800500D01*
X133664071Y-94800500D01*
X133753920Y-94782627D01*
X133789744Y-94775501D01*
X133908127Y-94726465D01*
X134014669Y-94655276D01*
X134105276Y-94564669D01*
X134176465Y-94458127D01*
X134194714Y-94414071D01*
X150649499Y-94414071D01*
X150674497Y-94539738D01*
X150674499Y-94539744D01*
X150723533Y-94658124D01*
X150723538Y-94658133D01*
X150794723Y-94764668D01*
X150794726Y-94764672D01*
X150885327Y-94855273D01*
X150885331Y-94855276D01*
X150991866Y-94926461D01*
X150991872Y-94926464D01*
X150991873Y-94926465D01*
X151110256Y-94975501D01*
X151110260Y-94975501D01*
X151110261Y-94975502D01*
X151235928Y-95000500D01*
X151235931Y-95000500D01*
X151364071Y-95000500D01*
X151448615Y-94983682D01*
X151489744Y-94975501D01*
X151608127Y-94926465D01*
X151714669Y-94855276D01*
X151745797Y-94824148D01*
X151787319Y-94782627D01*
X151848642Y-94749142D01*
X151918334Y-94754126D01*
X151962681Y-94782627D01*
X152035327Y-94855273D01*
X152035331Y-94855276D01*
X152141866Y-94926461D01*
X152141872Y-94926464D01*
X152141873Y-94926465D01*
X152260256Y-94975501D01*
X152260260Y-94975501D01*
X152260261Y-94975502D01*
X152385928Y-95000500D01*
X152385931Y-95000500D01*
X152514071Y-95000500D01*
X152598615Y-94983682D01*
X152639744Y-94975501D01*
X152758127Y-94926465D01*
X152864669Y-94855276D01*
X152955276Y-94764669D01*
X153026465Y-94658127D01*
X153075501Y-94539744D01*
X153091298Y-94460331D01*
X153100500Y-94414071D01*
X153499499Y-94414071D01*
X153524497Y-94539738D01*
X153524499Y-94539744D01*
X153573533Y-94658124D01*
X153573538Y-94658133D01*
X153644723Y-94764668D01*
X153644726Y-94764672D01*
X153735327Y-94855273D01*
X153735331Y-94855276D01*
X153841866Y-94926461D01*
X153841872Y-94926464D01*
X153841873Y-94926465D01*
X153960256Y-94975501D01*
X153960260Y-94975501D01*
X153960261Y-94975502D01*
X154085928Y-95000500D01*
X154085931Y-95000500D01*
X154214071Y-95000500D01*
X154298615Y-94983682D01*
X154339744Y-94975501D01*
X154458127Y-94926465D01*
X154564669Y-94855276D01*
X154564673Y-94855271D01*
X154569379Y-94851411D01*
X154570720Y-94853045D01*
X154623611Y-94824148D01*
X154693304Y-94829114D01*
X154729715Y-94852514D01*
X154730621Y-94851411D01*
X154735331Y-94855276D01*
X154841866Y-94926461D01*
X154841872Y-94926464D01*
X154841873Y-94926465D01*
X154960256Y-94975501D01*
X154960260Y-94975501D01*
X154960261Y-94975502D01*
X155085928Y-95000500D01*
X155085931Y-95000500D01*
X155214071Y-95000500D01*
X155298615Y-94983682D01*
X155339744Y-94975501D01*
X155427694Y-94939071D01*
X158624499Y-94939071D01*
X158649497Y-95064738D01*
X158649499Y-95064744D01*
X158698533Y-95183124D01*
X158698538Y-95183133D01*
X158769723Y-95289668D01*
X158769726Y-95289672D01*
X158860327Y-95380273D01*
X158860331Y-95380276D01*
X158966866Y-95451461D01*
X158966872Y-95451464D01*
X158966873Y-95451465D01*
X159085256Y-95500501D01*
X159085260Y-95500501D01*
X159085261Y-95500502D01*
X159210928Y-95525500D01*
X159210931Y-95525500D01*
X159339071Y-95525500D01*
X159423615Y-95508682D01*
X159464744Y-95500501D01*
X159583127Y-95451465D01*
X159689669Y-95380276D01*
X159780276Y-95289669D01*
X159851465Y-95183127D01*
X159900501Y-95064744D01*
X159925500Y-94939069D01*
X159925500Y-94810931D01*
X159925500Y-94810928D01*
X159900502Y-94685261D01*
X159900501Y-94685260D01*
X159900501Y-94685256D01*
X159851465Y-94566873D01*
X159851464Y-94566872D01*
X159851461Y-94566866D01*
X159780276Y-94460331D01*
X159780273Y-94460327D01*
X159757626Y-94437680D01*
X159724141Y-94376357D01*
X159729125Y-94306665D01*
X159757624Y-94262320D01*
X159790276Y-94229669D01*
X159861465Y-94123127D01*
X159910501Y-94004744D01*
X159922211Y-93945874D01*
X159935500Y-93879071D01*
X159935500Y-93750928D01*
X159910502Y-93625261D01*
X159910501Y-93625260D01*
X159910501Y-93625256D01*
X159861465Y-93506873D01*
X159861464Y-93506872D01*
X159861461Y-93506866D01*
X159790276Y-93400331D01*
X159790273Y-93400327D01*
X159699672Y-93309726D01*
X159699668Y-93309723D01*
X159593133Y-93238538D01*
X159593124Y-93238533D01*
X159474744Y-93189499D01*
X159474738Y-93189497D01*
X159349071Y-93164500D01*
X159349069Y-93164500D01*
X159220931Y-93164500D01*
X159220929Y-93164500D01*
X159095261Y-93189497D01*
X159095255Y-93189499D01*
X158976875Y-93238533D01*
X158976866Y-93238538D01*
X158870331Y-93309723D01*
X158870327Y-93309726D01*
X158779726Y-93400327D01*
X158779723Y-93400331D01*
X158708538Y-93506866D01*
X158708533Y-93506875D01*
X158659499Y-93625255D01*
X158659497Y-93625261D01*
X158634500Y-93750928D01*
X158634500Y-93750931D01*
X158634500Y-93879069D01*
X158634500Y-93879071D01*
X158634499Y-93879071D01*
X158659497Y-94004738D01*
X158659499Y-94004744D01*
X158708533Y-94123124D01*
X158708538Y-94123133D01*
X158779723Y-94229668D01*
X158779726Y-94229672D01*
X158802373Y-94252319D01*
X158835858Y-94313642D01*
X158830874Y-94383334D01*
X158802373Y-94427681D01*
X158769726Y-94460327D01*
X158769723Y-94460331D01*
X158698538Y-94566866D01*
X158698533Y-94566875D01*
X158649499Y-94685255D01*
X158649497Y-94685261D01*
X158624500Y-94810928D01*
X158624500Y-94810931D01*
X158624500Y-94939069D01*
X158624500Y-94939071D01*
X158624499Y-94939071D01*
X155427694Y-94939071D01*
X155458127Y-94926465D01*
X155564669Y-94855276D01*
X155655276Y-94764669D01*
X155680803Y-94726466D01*
X155726461Y-94658133D01*
X155726461Y-94658132D01*
X155726465Y-94658127D01*
X155775501Y-94539744D01*
X155791298Y-94460331D01*
X155800500Y-94414071D01*
X155800500Y-94413763D01*
X155800545Y-94413607D01*
X155801097Y-94408009D01*
X155802158Y-94408113D01*
X155820185Y-94346724D01*
X155872989Y-94300969D01*
X155942147Y-94291025D01*
X155993389Y-94310660D01*
X156091873Y-94376465D01*
X156210256Y-94425501D01*
X156210260Y-94425501D01*
X156210261Y-94425502D01*
X156335928Y-94450500D01*
X156335931Y-94450500D01*
X156464071Y-94450500D01*
X156548615Y-94433682D01*
X156589744Y-94425501D01*
X156708127Y-94376465D01*
X156814669Y-94305276D01*
X156905276Y-94214669D01*
X156976465Y-94108127D01*
X157025501Y-93989744D01*
X157047516Y-93879071D01*
X157050500Y-93864071D01*
X157050500Y-93735928D01*
X157025502Y-93610261D01*
X157025501Y-93610260D01*
X157025501Y-93610256D01*
X156976465Y-93491873D01*
X156976464Y-93491872D01*
X156976461Y-93491866D01*
X156905276Y-93385331D01*
X156905273Y-93385327D01*
X156814672Y-93294726D01*
X156814668Y-93294723D01*
X156708133Y-93223538D01*
X156708124Y-93223533D01*
X156589744Y-93174499D01*
X156589738Y-93174497D01*
X156464071Y-93149500D01*
X156464069Y-93149500D01*
X156335931Y-93149500D01*
X156335929Y-93149500D01*
X156210261Y-93174497D01*
X156210255Y-93174499D01*
X156091875Y-93223533D01*
X156091866Y-93223538D01*
X155985331Y-93294723D01*
X155985327Y-93294726D01*
X155894726Y-93385327D01*
X155894723Y-93385331D01*
X155823538Y-93491866D01*
X155823533Y-93491875D01*
X155774499Y-93610255D01*
X155774497Y-93610261D01*
X155749500Y-93735928D01*
X155749500Y-93736236D01*
X155749454Y-93736391D01*
X155748903Y-93741991D01*
X155747840Y-93741886D01*
X155729815Y-93803275D01*
X155677011Y-93849030D01*
X155607853Y-93858974D01*
X155556609Y-93839338D01*
X155458133Y-93773538D01*
X155458124Y-93773533D01*
X155339744Y-93724499D01*
X155339738Y-93724497D01*
X155214071Y-93699500D01*
X155214069Y-93699500D01*
X155085931Y-93699500D01*
X155085929Y-93699500D01*
X154960261Y-93724497D01*
X154960255Y-93724499D01*
X154841875Y-93773533D01*
X154841866Y-93773538D01*
X154735331Y-93844723D01*
X154730621Y-93848589D01*
X154729283Y-93846958D01*
X154676358Y-93875858D01*
X154606666Y-93870874D01*
X154570280Y-93847489D01*
X154569379Y-93848589D01*
X154564668Y-93844723D01*
X154458133Y-93773538D01*
X154458124Y-93773533D01*
X154339744Y-93724499D01*
X154339738Y-93724497D01*
X154214071Y-93699500D01*
X154214069Y-93699500D01*
X154085931Y-93699500D01*
X154085929Y-93699500D01*
X153960261Y-93724497D01*
X153960255Y-93724499D01*
X153841875Y-93773533D01*
X153841866Y-93773538D01*
X153735331Y-93844723D01*
X153735327Y-93844726D01*
X153644726Y-93935327D01*
X153644723Y-93935331D01*
X153573538Y-94041866D01*
X153573533Y-94041875D01*
X153524499Y-94160255D01*
X153524497Y-94160261D01*
X153499500Y-94285928D01*
X153499500Y-94285931D01*
X153499500Y-94414069D01*
X153499500Y-94414071D01*
X153499499Y-94414071D01*
X153100500Y-94414071D01*
X153100500Y-94285928D01*
X153075502Y-94160261D01*
X153075501Y-94160260D01*
X153075501Y-94160256D01*
X153037574Y-94068692D01*
X153026466Y-94041875D01*
X153026461Y-94041866D01*
X152955276Y-93935331D01*
X152955273Y-93935327D01*
X152864672Y-93844726D01*
X152864668Y-93844723D01*
X152758133Y-93773538D01*
X152758124Y-93773533D01*
X152639744Y-93724499D01*
X152639738Y-93724497D01*
X152514071Y-93699500D01*
X152514069Y-93699500D01*
X152385931Y-93699500D01*
X152385929Y-93699500D01*
X152260261Y-93724497D01*
X152260255Y-93724499D01*
X152141875Y-93773533D01*
X152141866Y-93773538D01*
X152035331Y-93844723D01*
X152035327Y-93844726D01*
X151962681Y-93917373D01*
X151901358Y-93950858D01*
X151831666Y-93945874D01*
X151787319Y-93917373D01*
X151714672Y-93844726D01*
X151714668Y-93844723D01*
X151608133Y-93773538D01*
X151608124Y-93773533D01*
X151489744Y-93724499D01*
X151489738Y-93724497D01*
X151364071Y-93699500D01*
X151364069Y-93699500D01*
X151235931Y-93699500D01*
X151235929Y-93699500D01*
X151110261Y-93724497D01*
X151110255Y-93724499D01*
X150991875Y-93773533D01*
X150991866Y-93773538D01*
X150885331Y-93844723D01*
X150885327Y-93844726D01*
X150794726Y-93935327D01*
X150794723Y-93935331D01*
X150723538Y-94041866D01*
X150723533Y-94041875D01*
X150674499Y-94160255D01*
X150674497Y-94160261D01*
X150649500Y-94285928D01*
X150649500Y-94285931D01*
X150649500Y-94414069D01*
X150649500Y-94414071D01*
X150649499Y-94414071D01*
X134194714Y-94414071D01*
X134225501Y-94339744D01*
X134235192Y-94291025D01*
X134242230Y-94255647D01*
X134242230Y-94255646D01*
X134250380Y-94214672D01*
X134250500Y-94214069D01*
X134250500Y-94085931D01*
X134250500Y-94085928D01*
X134225502Y-93960261D01*
X134225501Y-93960260D01*
X134225501Y-93960256D01*
X134185659Y-93864069D01*
X134176466Y-93841875D01*
X134176461Y-93841866D01*
X134105276Y-93735331D01*
X134105273Y-93735327D01*
X134014672Y-93644726D01*
X134014668Y-93644723D01*
X133908133Y-93573538D01*
X133908124Y-93573533D01*
X133789744Y-93524499D01*
X133789738Y-93524497D01*
X133664071Y-93499500D01*
X133664069Y-93499500D01*
X133535931Y-93499500D01*
X133535929Y-93499500D01*
X133410261Y-93524497D01*
X133410255Y-93524499D01*
X133291875Y-93573533D01*
X133291866Y-93573538D01*
X133185331Y-93644723D01*
X133185327Y-93644726D01*
X133094724Y-93735329D01*
X133080658Y-93756381D01*
X133027044Y-93801185D01*
X132957719Y-93809891D01*
X132894692Y-93779735D01*
X132857975Y-93720291D01*
X132853557Y-93687682D01*
X132853459Y-93625261D01*
X132853207Y-93464071D01*
X137749499Y-93464071D01*
X137774497Y-93589738D01*
X137774499Y-93589744D01*
X137823533Y-93708124D01*
X137823538Y-93708133D01*
X137894723Y-93814668D01*
X137894726Y-93814672D01*
X137985327Y-93905273D01*
X137985331Y-93905276D01*
X138091866Y-93976461D01*
X138091872Y-93976464D01*
X138091873Y-93976465D01*
X138210256Y-94025501D01*
X138210260Y-94025501D01*
X138210261Y-94025502D01*
X138335928Y-94050500D01*
X138335931Y-94050500D01*
X138464071Y-94050500D01*
X138548615Y-94033682D01*
X138589744Y-94025501D01*
X138708127Y-93976465D01*
X138814669Y-93905276D01*
X138905276Y-93814669D01*
X138976465Y-93708127D01*
X139025501Y-93589744D01*
X139033682Y-93548615D01*
X139050500Y-93464071D01*
X139050500Y-93335928D01*
X139025502Y-93210261D01*
X139025501Y-93210260D01*
X139025501Y-93210256D01*
X138976465Y-93091873D01*
X138976464Y-93091872D01*
X138976461Y-93091866D01*
X138905276Y-92985331D01*
X138905273Y-92985327D01*
X138814672Y-92894726D01*
X138814668Y-92894723D01*
X138768794Y-92864071D01*
X162549499Y-92864071D01*
X162574497Y-92989738D01*
X162574499Y-92989744D01*
X162623533Y-93108124D01*
X162623538Y-93108133D01*
X162694723Y-93214668D01*
X162694726Y-93214672D01*
X162785327Y-93305273D01*
X162785331Y-93305276D01*
X162891866Y-93376461D01*
X162891872Y-93376464D01*
X162891873Y-93376465D01*
X163010256Y-93425501D01*
X163010260Y-93425501D01*
X163010261Y-93425502D01*
X163135928Y-93450500D01*
X163135931Y-93450500D01*
X163264071Y-93450500D01*
X163348615Y-93433682D01*
X163389744Y-93425501D01*
X163508127Y-93376465D01*
X163614669Y-93305276D01*
X163705276Y-93214669D01*
X163776465Y-93108127D01*
X163825501Y-92989744D01*
X163844402Y-92894724D01*
X163850500Y-92864071D01*
X163850500Y-92735928D01*
X163825502Y-92610261D01*
X163825501Y-92610260D01*
X163825501Y-92610256D01*
X163776465Y-92491873D01*
X163776464Y-92491872D01*
X163776461Y-92491866D01*
X163705276Y-92385331D01*
X163705273Y-92385327D01*
X163614672Y-92294726D01*
X163614668Y-92294723D01*
X163508133Y-92223538D01*
X163508124Y-92223533D01*
X163389744Y-92174499D01*
X163389738Y-92174497D01*
X163264071Y-92149500D01*
X163264069Y-92149500D01*
X163135931Y-92149500D01*
X163135929Y-92149500D01*
X163010261Y-92174497D01*
X163010255Y-92174499D01*
X162891875Y-92223533D01*
X162891866Y-92223538D01*
X162785331Y-92294723D01*
X162785327Y-92294726D01*
X162694726Y-92385327D01*
X162694723Y-92385331D01*
X162623538Y-92491866D01*
X162623533Y-92491875D01*
X162574499Y-92610255D01*
X162574497Y-92610261D01*
X162549500Y-92735928D01*
X162549500Y-92735931D01*
X162549500Y-92864069D01*
X162549500Y-92864071D01*
X162549499Y-92864071D01*
X138768794Y-92864071D01*
X138722205Y-92832941D01*
X138708133Y-92823538D01*
X138708124Y-92823533D01*
X138589744Y-92774499D01*
X138589738Y-92774497D01*
X138464071Y-92749500D01*
X138464069Y-92749500D01*
X138335931Y-92749500D01*
X138335929Y-92749500D01*
X138210261Y-92774497D01*
X138210255Y-92774499D01*
X138091875Y-92823533D01*
X138091866Y-92823538D01*
X137985331Y-92894723D01*
X137985327Y-92894726D01*
X137894726Y-92985327D01*
X137894723Y-92985331D01*
X137823538Y-93091866D01*
X137823533Y-93091875D01*
X137774499Y-93210255D01*
X137774497Y-93210261D01*
X137749500Y-93335928D01*
X137749500Y-93335931D01*
X137749500Y-93464069D01*
X137749500Y-93464071D01*
X137749499Y-93464071D01*
X132853207Y-93464071D01*
X132853084Y-93385327D01*
X132852998Y-93330033D01*
X132852090Y-92749500D01*
X132850510Y-91739071D01*
X133874499Y-91739071D01*
X133899497Y-91864738D01*
X133899499Y-91864744D01*
X133948533Y-91983124D01*
X133948538Y-91983133D01*
X134019723Y-92089668D01*
X134019726Y-92089672D01*
X134110327Y-92180273D01*
X134110331Y-92180276D01*
X134216866Y-92251461D01*
X134216872Y-92251464D01*
X134216873Y-92251465D01*
X134335256Y-92300501D01*
X134335260Y-92300501D01*
X134335261Y-92300502D01*
X134460928Y-92325500D01*
X134460931Y-92325500D01*
X134589071Y-92325500D01*
X134673615Y-92308682D01*
X134714744Y-92300501D01*
X134833127Y-92251465D01*
X134939669Y-92180276D01*
X135030276Y-92089669D01*
X135101465Y-91983127D01*
X135109358Y-91964071D01*
X145649499Y-91964071D01*
X145674497Y-92089738D01*
X145674499Y-92089744D01*
X145723533Y-92208124D01*
X145723538Y-92208133D01*
X145794723Y-92314668D01*
X145794726Y-92314672D01*
X145885327Y-92405273D01*
X145885331Y-92405276D01*
X145991866Y-92476461D01*
X145991872Y-92476464D01*
X145991873Y-92476465D01*
X146110256Y-92525501D01*
X146110260Y-92525501D01*
X146110261Y-92525502D01*
X146235928Y-92550500D01*
X146235931Y-92550500D01*
X146364071Y-92550500D01*
X146448615Y-92533682D01*
X146489744Y-92525501D01*
X146608127Y-92476465D01*
X146714669Y-92405276D01*
X146805276Y-92314669D01*
X146876465Y-92208127D01*
X146925501Y-92089744D01*
X146950500Y-91964069D01*
X146950500Y-91839071D01*
X151724499Y-91839071D01*
X151749497Y-91964738D01*
X151749499Y-91964744D01*
X151798533Y-92083124D01*
X151798538Y-92083133D01*
X151869723Y-92189668D01*
X151869726Y-92189672D01*
X151960327Y-92280273D01*
X151960331Y-92280276D01*
X152066866Y-92351461D01*
X152066872Y-92351464D01*
X152066873Y-92351465D01*
X152185256Y-92400501D01*
X152185260Y-92400501D01*
X152185261Y-92400502D01*
X152310928Y-92425500D01*
X152310931Y-92425500D01*
X152439071Y-92425500D01*
X152540754Y-92405273D01*
X152564744Y-92400501D01*
X152683127Y-92351465D01*
X152789669Y-92280276D01*
X152880276Y-92189669D01*
X152951465Y-92083127D01*
X153000501Y-91964744D01*
X153025500Y-91839069D01*
X153025500Y-91710931D01*
X153025500Y-91710928D01*
X153000502Y-91585261D01*
X153000501Y-91585260D01*
X153000501Y-91585256D01*
X152951465Y-91466873D01*
X152951464Y-91466872D01*
X152951461Y-91466866D01*
X152880276Y-91360331D01*
X152880273Y-91360327D01*
X152834017Y-91314071D01*
X155649499Y-91314071D01*
X155674497Y-91439738D01*
X155674499Y-91439744D01*
X155723533Y-91558124D01*
X155723538Y-91558133D01*
X155794723Y-91664668D01*
X155794726Y-91664672D01*
X155885327Y-91755273D01*
X155885331Y-91755276D01*
X155991866Y-91826461D01*
X155991872Y-91826464D01*
X155991873Y-91826465D01*
X156110256Y-91875501D01*
X156110260Y-91875501D01*
X156110261Y-91875502D01*
X156235928Y-91900500D01*
X156235931Y-91900500D01*
X156364071Y-91900500D01*
X156448615Y-91883682D01*
X156489744Y-91875501D01*
X156608127Y-91826465D01*
X156714669Y-91755276D01*
X156740914Y-91729031D01*
X156787319Y-91682627D01*
X156848642Y-91649142D01*
X156918334Y-91654126D01*
X156962681Y-91682627D01*
X157035327Y-91755273D01*
X157035331Y-91755276D01*
X157141866Y-91826461D01*
X157141872Y-91826464D01*
X157141873Y-91826465D01*
X157260256Y-91875501D01*
X157260260Y-91875501D01*
X157260261Y-91875502D01*
X157385928Y-91900500D01*
X157385931Y-91900500D01*
X157514071Y-91900500D01*
X157598615Y-91883682D01*
X157639744Y-91875501D01*
X157758127Y-91826465D01*
X157864669Y-91755276D01*
X157955276Y-91664669D01*
X158026465Y-91558127D01*
X158075501Y-91439744D01*
X158091298Y-91360331D01*
X158100500Y-91314071D01*
X158100500Y-91185928D01*
X158075502Y-91060261D01*
X158075501Y-91060260D01*
X158075501Y-91060256D01*
X158026465Y-90941873D01*
X158026464Y-90941872D01*
X158026461Y-90941866D01*
X157955276Y-90835331D01*
X157955273Y-90835327D01*
X157864672Y-90744726D01*
X157864668Y-90744723D01*
X157818794Y-90714071D01*
X166499499Y-90714071D01*
X166524497Y-90839738D01*
X166524499Y-90839744D01*
X166573533Y-90958124D01*
X166573538Y-90958133D01*
X166644723Y-91064668D01*
X166644726Y-91064672D01*
X166735327Y-91155273D01*
X166735331Y-91155276D01*
X166841866Y-91226461D01*
X166841872Y-91226464D01*
X166841873Y-91226465D01*
X166960256Y-91275501D01*
X166960260Y-91275501D01*
X166960261Y-91275502D01*
X167085928Y-91300500D01*
X167085931Y-91300500D01*
X167214071Y-91300500D01*
X167298615Y-91283682D01*
X167339744Y-91275501D01*
X167458127Y-91226465D01*
X167564669Y-91155276D01*
X167655276Y-91064669D01*
X167726465Y-90958127D01*
X167775501Y-90839744D01*
X167794402Y-90744724D01*
X167800500Y-90714071D01*
X167800500Y-90585928D01*
X167775502Y-90460261D01*
X167775501Y-90460260D01*
X167775501Y-90460256D01*
X167726465Y-90341873D01*
X167726464Y-90341872D01*
X167726461Y-90341866D01*
X167655276Y-90235331D01*
X167655273Y-90235327D01*
X167564672Y-90144726D01*
X167564668Y-90144723D01*
X167458133Y-90073538D01*
X167458124Y-90073533D01*
X167339744Y-90024499D01*
X167339738Y-90024497D01*
X167214071Y-89999500D01*
X167214069Y-89999500D01*
X167085931Y-89999500D01*
X167085929Y-89999500D01*
X166960261Y-90024497D01*
X166960255Y-90024499D01*
X166841875Y-90073533D01*
X166841866Y-90073538D01*
X166735331Y-90144723D01*
X166735327Y-90144726D01*
X166644726Y-90235327D01*
X166644723Y-90235331D01*
X166573538Y-90341866D01*
X166573533Y-90341875D01*
X166524499Y-90460255D01*
X166524497Y-90460261D01*
X166499500Y-90585928D01*
X166499500Y-90585931D01*
X166499500Y-90714069D01*
X166499500Y-90714071D01*
X166499499Y-90714071D01*
X157818794Y-90714071D01*
X157772205Y-90682941D01*
X157758133Y-90673538D01*
X157758124Y-90673533D01*
X157639744Y-90624499D01*
X157639738Y-90624497D01*
X157514071Y-90599500D01*
X157514069Y-90599500D01*
X157385931Y-90599500D01*
X157385929Y-90599500D01*
X157260261Y-90624497D01*
X157260255Y-90624499D01*
X157141875Y-90673533D01*
X157141866Y-90673538D01*
X157035331Y-90744723D01*
X157035327Y-90744726D01*
X156962681Y-90817373D01*
X156901358Y-90850858D01*
X156831666Y-90845874D01*
X156787319Y-90817373D01*
X156714672Y-90744726D01*
X156714668Y-90744723D01*
X156608133Y-90673538D01*
X156608124Y-90673533D01*
X156489744Y-90624499D01*
X156489738Y-90624497D01*
X156364071Y-90599500D01*
X156364069Y-90599500D01*
X156235931Y-90599500D01*
X156235929Y-90599500D01*
X156110261Y-90624497D01*
X156110255Y-90624499D01*
X155991875Y-90673533D01*
X155991866Y-90673538D01*
X155885331Y-90744723D01*
X155885327Y-90744726D01*
X155794726Y-90835327D01*
X155794723Y-90835331D01*
X155723538Y-90941866D01*
X155723533Y-90941875D01*
X155674499Y-91060255D01*
X155674497Y-91060261D01*
X155649500Y-91185928D01*
X155649500Y-91185931D01*
X155649500Y-91314069D01*
X155649500Y-91314071D01*
X155649499Y-91314071D01*
X152834017Y-91314071D01*
X152789672Y-91269726D01*
X152789668Y-91269723D01*
X152683133Y-91198538D01*
X152683124Y-91198533D01*
X152564744Y-91149499D01*
X152564738Y-91149497D01*
X152439071Y-91124500D01*
X152439069Y-91124500D01*
X152310931Y-91124500D01*
X152310929Y-91124500D01*
X152185261Y-91149497D01*
X152185255Y-91149499D01*
X152066875Y-91198533D01*
X152066866Y-91198538D01*
X151960331Y-91269723D01*
X151960327Y-91269726D01*
X151869726Y-91360327D01*
X151869723Y-91360331D01*
X151798538Y-91466866D01*
X151798533Y-91466875D01*
X151749499Y-91585255D01*
X151749497Y-91585261D01*
X151724500Y-91710928D01*
X151724500Y-91710931D01*
X151724500Y-91839069D01*
X151724500Y-91839071D01*
X151724499Y-91839071D01*
X146950500Y-91839071D01*
X146950500Y-91835931D01*
X146950500Y-91835928D01*
X146929236Y-91729031D01*
X146925502Y-91710261D01*
X146925501Y-91710260D01*
X146925501Y-91710256D01*
X146876465Y-91591873D01*
X146876464Y-91591872D01*
X146876461Y-91591866D01*
X146805276Y-91485331D01*
X146805273Y-91485327D01*
X146714672Y-91394726D01*
X146714668Y-91394723D01*
X146608133Y-91323538D01*
X146608124Y-91323533D01*
X146489744Y-91274499D01*
X146489738Y-91274497D01*
X146364071Y-91249500D01*
X146364069Y-91249500D01*
X146235931Y-91249500D01*
X146235929Y-91249500D01*
X146110261Y-91274497D01*
X146110255Y-91274499D01*
X145991875Y-91323533D01*
X145991866Y-91323538D01*
X145885331Y-91394723D01*
X145885327Y-91394726D01*
X145794726Y-91485327D01*
X145794723Y-91485331D01*
X145723538Y-91591866D01*
X145723533Y-91591875D01*
X145674499Y-91710255D01*
X145674497Y-91710261D01*
X145649500Y-91835928D01*
X145649500Y-91835931D01*
X145649500Y-91964069D01*
X145649500Y-91964071D01*
X145649499Y-91964071D01*
X135109358Y-91964071D01*
X135150501Y-91864744D01*
X135155608Y-91839069D01*
X135162257Y-91805647D01*
X135175500Y-91739071D01*
X135175500Y-91610928D01*
X135150502Y-91485261D01*
X135150501Y-91485260D01*
X135150501Y-91485256D01*
X135101465Y-91366873D01*
X135101464Y-91366872D01*
X135101461Y-91366866D01*
X135030276Y-91260331D01*
X135030273Y-91260327D01*
X134939672Y-91169726D01*
X134939668Y-91169723D01*
X134833133Y-91098538D01*
X134833124Y-91098533D01*
X134714744Y-91049499D01*
X134714738Y-91049497D01*
X134589071Y-91024500D01*
X134589069Y-91024500D01*
X134460931Y-91024500D01*
X134460929Y-91024500D01*
X134335261Y-91049497D01*
X134335255Y-91049499D01*
X134216875Y-91098533D01*
X134216866Y-91098538D01*
X134110331Y-91169723D01*
X134110327Y-91169726D01*
X134019726Y-91260327D01*
X134019723Y-91260331D01*
X133948538Y-91366866D01*
X133948533Y-91366875D01*
X133899499Y-91485255D01*
X133899497Y-91485261D01*
X133874500Y-91610928D01*
X133874500Y-91610931D01*
X133874500Y-91739069D01*
X133874500Y-91739071D01*
X133874499Y-91739071D01*
X132850510Y-91739071D01*
X132847694Y-89939071D01*
X134024499Y-89939071D01*
X134049497Y-90064738D01*
X134049499Y-90064744D01*
X134098533Y-90183124D01*
X134098538Y-90183133D01*
X134169723Y-90289668D01*
X134169726Y-90289672D01*
X134260327Y-90380273D01*
X134260331Y-90380276D01*
X134366866Y-90451461D01*
X134366872Y-90451464D01*
X134366873Y-90451465D01*
X134485256Y-90500501D01*
X134485260Y-90500501D01*
X134485261Y-90500502D01*
X134610928Y-90525500D01*
X134610931Y-90525500D01*
X134739071Y-90525500D01*
X134823615Y-90508682D01*
X134864744Y-90500501D01*
X134983127Y-90451465D01*
X135089669Y-90380276D01*
X135180276Y-90289669D01*
X135251465Y-90183127D01*
X135300501Y-90064744D01*
X135325500Y-89939069D01*
X135325500Y-89810931D01*
X135325500Y-89810928D01*
X135300502Y-89685261D01*
X135300501Y-89685260D01*
X135300501Y-89685256D01*
X135251465Y-89566873D01*
X135251464Y-89566872D01*
X135251461Y-89566866D01*
X135180276Y-89460331D01*
X135180273Y-89460327D01*
X135134017Y-89414071D01*
X136549499Y-89414071D01*
X136574497Y-89539738D01*
X136574499Y-89539744D01*
X136623533Y-89658124D01*
X136623538Y-89658133D01*
X136694723Y-89764668D01*
X136694726Y-89764672D01*
X136785327Y-89855273D01*
X136785331Y-89855276D01*
X136891866Y-89926461D01*
X136891872Y-89926464D01*
X136891873Y-89926465D01*
X137010256Y-89975501D01*
X137010260Y-89975501D01*
X137010261Y-89975502D01*
X137135928Y-90000500D01*
X137135931Y-90000500D01*
X137264071Y-90000500D01*
X137348615Y-89983682D01*
X137389744Y-89975501D01*
X137508127Y-89926465D01*
X137614669Y-89855276D01*
X137705276Y-89764669D01*
X137776465Y-89658127D01*
X137825501Y-89539744D01*
X137841298Y-89460331D01*
X137850500Y-89414071D01*
X137850500Y-89285928D01*
X137825502Y-89160261D01*
X137825501Y-89160260D01*
X137825501Y-89160256D01*
X137785269Y-89063127D01*
X137776466Y-89041875D01*
X137776461Y-89041866D01*
X137705276Y-88935331D01*
X137705273Y-88935327D01*
X137614672Y-88844726D01*
X137614668Y-88844723D01*
X137568794Y-88814071D01*
X140399499Y-88814071D01*
X140424497Y-88939738D01*
X140424499Y-88939744D01*
X140473533Y-89058124D01*
X140473538Y-89058133D01*
X140544723Y-89164668D01*
X140544726Y-89164672D01*
X140635327Y-89255273D01*
X140635331Y-89255276D01*
X140741866Y-89326461D01*
X140741872Y-89326464D01*
X140741873Y-89326465D01*
X140860256Y-89375501D01*
X140860260Y-89375501D01*
X140860261Y-89375502D01*
X140985928Y-89400500D01*
X140985931Y-89400500D01*
X141114071Y-89400500D01*
X141203171Y-89382776D01*
X141239744Y-89375501D01*
X141358127Y-89326465D01*
X141464669Y-89255276D01*
X141555276Y-89164669D01*
X141626465Y-89058127D01*
X141675501Y-88939744D01*
X141692789Y-88852833D01*
X141700500Y-88814071D01*
X141700500Y-88685928D01*
X141675502Y-88560261D01*
X141675501Y-88560260D01*
X141675501Y-88560256D01*
X141626465Y-88441873D01*
X141626464Y-88441872D01*
X141626461Y-88441866D01*
X141555276Y-88335331D01*
X141555273Y-88335327D01*
X141464672Y-88244726D01*
X141464668Y-88244723D01*
X141358133Y-88173538D01*
X141358124Y-88173533D01*
X141239744Y-88124499D01*
X141239738Y-88124497D01*
X141114071Y-88099500D01*
X141114069Y-88099500D01*
X140985931Y-88099500D01*
X140985929Y-88099500D01*
X140860261Y-88124497D01*
X140860255Y-88124499D01*
X140741875Y-88173533D01*
X140741866Y-88173538D01*
X140635331Y-88244723D01*
X140635327Y-88244726D01*
X140544726Y-88335327D01*
X140544723Y-88335331D01*
X140473538Y-88441866D01*
X140473533Y-88441875D01*
X140424499Y-88560255D01*
X140424497Y-88560261D01*
X140399500Y-88685928D01*
X140399500Y-88685931D01*
X140399500Y-88814069D01*
X140399500Y-88814071D01*
X140399499Y-88814071D01*
X137568794Y-88814071D01*
X137522205Y-88782941D01*
X137508133Y-88773538D01*
X137508124Y-88773533D01*
X137389744Y-88724499D01*
X137389738Y-88724497D01*
X137264071Y-88699500D01*
X137264069Y-88699500D01*
X137135931Y-88699500D01*
X137135929Y-88699500D01*
X137010261Y-88724497D01*
X137010255Y-88724499D01*
X136891875Y-88773533D01*
X136891866Y-88773538D01*
X136785331Y-88844723D01*
X136785327Y-88844726D01*
X136694726Y-88935327D01*
X136694723Y-88935331D01*
X136623538Y-89041866D01*
X136623533Y-89041875D01*
X136574499Y-89160255D01*
X136574497Y-89160261D01*
X136549500Y-89285928D01*
X136549500Y-89285931D01*
X136549500Y-89414069D01*
X136549500Y-89414071D01*
X136549499Y-89414071D01*
X135134017Y-89414071D01*
X135089672Y-89369726D01*
X135089668Y-89369723D01*
X134983133Y-89298538D01*
X134983124Y-89298533D01*
X134864744Y-89249499D01*
X134864738Y-89249497D01*
X134739071Y-89224500D01*
X134739069Y-89224500D01*
X134610931Y-89224500D01*
X134610929Y-89224500D01*
X134485261Y-89249497D01*
X134485255Y-89249499D01*
X134366875Y-89298533D01*
X134366866Y-89298538D01*
X134260331Y-89369723D01*
X134260327Y-89369726D01*
X134169726Y-89460327D01*
X134169723Y-89460331D01*
X134098538Y-89566866D01*
X134098533Y-89566875D01*
X134049499Y-89685255D01*
X134049497Y-89685261D01*
X134024500Y-89810928D01*
X134024500Y-89810931D01*
X134024500Y-89939069D01*
X134024500Y-89939071D01*
X134024499Y-89939071D01*
X132847694Y-89939071D01*
X132846139Y-88944744D01*
X132844527Y-87914071D01*
X143049499Y-87914071D01*
X143074497Y-88039738D01*
X143074499Y-88039744D01*
X143123533Y-88158124D01*
X143123538Y-88158133D01*
X143194723Y-88264668D01*
X143194726Y-88264672D01*
X143285327Y-88355273D01*
X143285331Y-88355276D01*
X143391866Y-88426461D01*
X143391872Y-88426464D01*
X143391873Y-88426465D01*
X143510256Y-88475501D01*
X143510260Y-88475501D01*
X143510261Y-88475502D01*
X143635928Y-88500500D01*
X143635931Y-88500500D01*
X143764071Y-88500500D01*
X143863954Y-88480631D01*
X143889744Y-88475501D01*
X144008127Y-88426465D01*
X144114669Y-88355276D01*
X144205276Y-88264669D01*
X144276465Y-88158127D01*
X144325501Y-88039744D01*
X144339725Y-87968238D01*
X144350500Y-87914071D01*
X144350500Y-87785928D01*
X144325502Y-87660261D01*
X144325501Y-87660260D01*
X144325501Y-87660256D01*
X144287574Y-87568692D01*
X144277376Y-87544071D01*
X145569499Y-87544071D01*
X145594497Y-87669738D01*
X145594499Y-87669744D01*
X145643533Y-87788124D01*
X145643538Y-87788133D01*
X145714723Y-87894668D01*
X145714726Y-87894672D01*
X145805327Y-87985273D01*
X145805331Y-87985276D01*
X145911866Y-88056461D01*
X145911872Y-88056464D01*
X145911873Y-88056465D01*
X146030256Y-88105501D01*
X146030260Y-88105501D01*
X146030261Y-88105502D01*
X146155928Y-88130500D01*
X146155931Y-88130500D01*
X146284071Y-88130500D01*
X146368615Y-88113682D01*
X146409744Y-88105501D01*
X146528127Y-88056465D01*
X146634669Y-87985276D01*
X146725276Y-87894669D01*
X146796465Y-87788127D01*
X146845501Y-87669744D01*
X146855459Y-87619684D01*
X146870500Y-87544071D01*
X146870500Y-87464071D01*
X148499499Y-87464071D01*
X148524497Y-87589738D01*
X148524499Y-87589744D01*
X148573533Y-87708124D01*
X148573538Y-87708133D01*
X148644723Y-87814668D01*
X148644726Y-87814672D01*
X148735327Y-87905273D01*
X148735331Y-87905276D01*
X148841866Y-87976461D01*
X148841875Y-87976466D01*
X148868692Y-87987574D01*
X148960256Y-88025501D01*
X148960260Y-88025501D01*
X148960261Y-88025502D01*
X149085928Y-88050500D01*
X149085931Y-88050500D01*
X149214071Y-88050500D01*
X149314613Y-88030500D01*
X149339744Y-88025501D01*
X149458127Y-87976465D01*
X149484575Y-87958792D01*
X149498896Y-87954308D01*
X149510977Y-87945401D01*
X149531564Y-87944078D01*
X149551251Y-87937914D01*
X149566864Y-87941810D01*
X149580703Y-87940922D01*
X149604888Y-87951301D01*
X149613681Y-87953496D01*
X149618120Y-87955961D01*
X149618873Y-87956465D01*
X149619473Y-87956713D01*
X149623771Y-87959101D01*
X149647608Y-87983287D01*
X149671853Y-88007102D01*
X149672084Y-88008120D01*
X149672817Y-88008864D01*
X149679801Y-88042129D01*
X149687314Y-88075239D01*
X149686958Y-88076219D01*
X149687173Y-88077242D01*
X149675062Y-88109005D01*
X149663483Y-88140919D01*
X149662604Y-88141680D01*
X149662281Y-88142528D01*
X149657892Y-88145763D01*
X149622018Y-88176853D01*
X149618872Y-88178534D01*
X149512331Y-88249723D01*
X149512327Y-88249726D01*
X149421726Y-88340327D01*
X149421723Y-88340331D01*
X149350538Y-88446866D01*
X149350533Y-88446875D01*
X149301499Y-88565255D01*
X149301497Y-88565261D01*
X149276500Y-88690928D01*
X149276500Y-88690931D01*
X149276500Y-88819069D01*
X149276500Y-88819071D01*
X149276499Y-88819071D01*
X149301497Y-88944738D01*
X149301499Y-88944744D01*
X149350533Y-89063124D01*
X149350538Y-89063133D01*
X149421723Y-89169668D01*
X149421726Y-89169672D01*
X149512327Y-89260273D01*
X149512331Y-89260276D01*
X149618866Y-89331461D01*
X149618872Y-89331464D01*
X149618873Y-89331465D01*
X149737256Y-89380501D01*
X149737260Y-89380501D01*
X149737261Y-89380502D01*
X149862928Y-89405500D01*
X149862931Y-89405500D01*
X149991071Y-89405500D01*
X150092000Y-89385423D01*
X150116744Y-89380501D01*
X150235127Y-89331465D01*
X150341669Y-89260276D01*
X150432276Y-89169669D01*
X150503465Y-89063127D01*
X150503466Y-89063123D01*
X150505138Y-89059997D01*
X150506448Y-89058662D01*
X150506850Y-89058062D01*
X150506963Y-89058138D01*
X150554097Y-89010149D01*
X150622234Y-88994684D01*
X150687915Y-89018512D01*
X150723862Y-89059997D01*
X150725536Y-89063130D01*
X150796723Y-89169668D01*
X150796726Y-89169672D01*
X150887327Y-89260273D01*
X150887335Y-89260279D01*
X150994390Y-89331811D01*
X151039196Y-89385423D01*
X151049500Y-89434913D01*
X151049500Y-89544069D01*
X151049500Y-89544071D01*
X151049499Y-89544071D01*
X151074497Y-89669738D01*
X151074499Y-89669744D01*
X151123533Y-89788124D01*
X151123538Y-89788133D01*
X151194723Y-89894668D01*
X151194726Y-89894672D01*
X151285327Y-89985273D01*
X151285331Y-89985276D01*
X151391866Y-90056461D01*
X151391872Y-90056464D01*
X151391873Y-90056465D01*
X151510256Y-90105501D01*
X151510260Y-90105501D01*
X151510261Y-90105502D01*
X151635928Y-90130500D01*
X151635931Y-90130500D01*
X151764071Y-90130500D01*
X151848615Y-90113682D01*
X151889744Y-90105501D01*
X152008127Y-90056465D01*
X152114669Y-89985276D01*
X152205276Y-89894669D01*
X152276465Y-89788127D01*
X152325501Y-89669744D01*
X152333682Y-89628615D01*
X152350500Y-89544071D01*
X152350500Y-89504393D01*
X152370185Y-89437354D01*
X152422989Y-89391599D01*
X152492147Y-89381655D01*
X152498692Y-89382776D01*
X152612928Y-89405500D01*
X152612931Y-89405500D01*
X152741071Y-89405500D01*
X152842000Y-89385423D01*
X152866744Y-89380501D01*
X152985127Y-89331465D01*
X153091669Y-89260276D01*
X153135518Y-89216426D01*
X153196838Y-89182941D01*
X153247391Y-89182490D01*
X153337929Y-89200500D01*
X153337931Y-89200500D01*
X153466071Y-89200500D01*
X153556609Y-89182490D01*
X153591744Y-89175501D01*
X153710127Y-89126465D01*
X153816669Y-89055276D01*
X153907276Y-88964669D01*
X153978465Y-88858127D01*
X154027501Y-88739744D01*
X154052500Y-88614071D01*
X156449499Y-88614071D01*
X156474497Y-88739738D01*
X156474499Y-88739744D01*
X156523533Y-88858124D01*
X156523538Y-88858133D01*
X156594723Y-88964668D01*
X156594726Y-88964672D01*
X156685327Y-89055273D01*
X156685331Y-89055276D01*
X156791866Y-89126461D01*
X156791872Y-89126464D01*
X156791873Y-89126465D01*
X156910256Y-89175501D01*
X156910260Y-89175501D01*
X156910261Y-89175502D01*
X157035928Y-89200500D01*
X157035931Y-89200500D01*
X157164071Y-89200500D01*
X157254609Y-89182490D01*
X157289744Y-89175501D01*
X157363140Y-89145098D01*
X157432609Y-89137630D01*
X157458047Y-89145099D01*
X157518647Y-89170201D01*
X157518651Y-89170201D01*
X157518652Y-89170202D01*
X157644319Y-89195200D01*
X157644322Y-89195200D01*
X157772462Y-89195200D01*
X157857006Y-89178382D01*
X157898135Y-89170201D01*
X158016518Y-89121165D01*
X158123060Y-89049976D01*
X158213667Y-88959369D01*
X158284856Y-88852827D01*
X158333892Y-88734444D01*
X158343543Y-88685928D01*
X158358891Y-88608771D01*
X158358891Y-88480628D01*
X158333893Y-88354961D01*
X158333892Y-88354960D01*
X158333892Y-88354956D01*
X158287051Y-88241873D01*
X158284857Y-88236575D01*
X158284852Y-88236566D01*
X158213667Y-88130031D01*
X158213664Y-88130027D01*
X158123063Y-88039426D01*
X158123059Y-88039423D01*
X158016524Y-87968238D01*
X158016515Y-87968233D01*
X157898135Y-87919199D01*
X157898129Y-87919197D01*
X157772462Y-87894200D01*
X157772460Y-87894200D01*
X157644322Y-87894200D01*
X157644320Y-87894200D01*
X157518652Y-87919197D01*
X157518642Y-87919200D01*
X157445250Y-87949600D01*
X157375780Y-87957069D01*
X157350347Y-87949601D01*
X157312907Y-87934093D01*
X157289744Y-87924499D01*
X157289742Y-87924498D01*
X157289738Y-87924497D01*
X157164071Y-87899500D01*
X157164069Y-87899500D01*
X157035931Y-87899500D01*
X157035929Y-87899500D01*
X156910261Y-87924497D01*
X156910255Y-87924499D01*
X156791875Y-87973533D01*
X156791866Y-87973538D01*
X156685331Y-88044723D01*
X156685327Y-88044726D01*
X156594726Y-88135327D01*
X156594723Y-88135331D01*
X156523538Y-88241866D01*
X156523533Y-88241875D01*
X156474499Y-88360255D01*
X156474497Y-88360261D01*
X156449500Y-88485928D01*
X156449500Y-88485931D01*
X156449500Y-88614069D01*
X156449500Y-88614071D01*
X156449499Y-88614071D01*
X154052500Y-88614071D01*
X154052500Y-88614069D01*
X154052500Y-88485931D01*
X154052500Y-88485928D01*
X154027502Y-88360261D01*
X154027501Y-88360260D01*
X154027501Y-88360256D01*
X153978465Y-88241873D01*
X153978464Y-88241872D01*
X153978461Y-88241866D01*
X153907276Y-88135331D01*
X153907273Y-88135327D01*
X153816672Y-88044726D01*
X153816668Y-88044723D01*
X153710133Y-87973538D01*
X153710124Y-87973533D01*
X153591744Y-87924499D01*
X153591738Y-87924497D01*
X153466071Y-87899500D01*
X153466069Y-87899500D01*
X153344218Y-87899500D01*
X153277179Y-87879815D01*
X153231424Y-87827011D01*
X153221480Y-87757853D01*
X153241117Y-87706608D01*
X153253460Y-87688135D01*
X153253463Y-87688130D01*
X153253465Y-87688127D01*
X153302501Y-87569744D01*
X153313576Y-87514071D01*
X163949499Y-87514071D01*
X163974497Y-87639738D01*
X163974499Y-87639744D01*
X164023533Y-87758124D01*
X164023538Y-87758133D01*
X164094723Y-87864668D01*
X164094726Y-87864672D01*
X164185327Y-87955273D01*
X164185331Y-87955276D01*
X164291866Y-88026461D01*
X164291872Y-88026464D01*
X164291873Y-88026465D01*
X164410256Y-88075501D01*
X164410260Y-88075501D01*
X164410261Y-88075502D01*
X164535928Y-88100500D01*
X164535931Y-88100500D01*
X164664071Y-88100500D01*
X164748615Y-88083682D01*
X164789744Y-88075501D01*
X164908127Y-88026465D01*
X165014669Y-87955276D01*
X165105276Y-87864669D01*
X165176465Y-87758127D01*
X165225501Y-87639744D01*
X165239425Y-87569744D01*
X165250500Y-87514071D01*
X165250500Y-87385928D01*
X165225502Y-87260261D01*
X165225501Y-87260260D01*
X165225501Y-87260256D01*
X165176465Y-87141873D01*
X165176464Y-87141872D01*
X165176461Y-87141866D01*
X165105276Y-87035331D01*
X165105273Y-87035327D01*
X165014672Y-86944726D01*
X165014668Y-86944723D01*
X164908133Y-86873538D01*
X164908124Y-86873533D01*
X164789744Y-86824499D01*
X164789738Y-86824497D01*
X164664071Y-86799500D01*
X164664069Y-86799500D01*
X164535931Y-86799500D01*
X164535929Y-86799500D01*
X164410261Y-86824497D01*
X164410255Y-86824499D01*
X164291875Y-86873533D01*
X164291866Y-86873538D01*
X164185331Y-86944723D01*
X164185327Y-86944726D01*
X164094726Y-87035327D01*
X164094723Y-87035331D01*
X164023538Y-87141866D01*
X164023533Y-87141875D01*
X163974499Y-87260255D01*
X163974497Y-87260261D01*
X163949500Y-87385928D01*
X163949500Y-87385931D01*
X163949500Y-87514069D01*
X163949500Y-87514071D01*
X163949499Y-87514071D01*
X153313576Y-87514071D01*
X153313576Y-87514069D01*
X153327500Y-87444071D01*
X153327500Y-87315928D01*
X153302502Y-87190261D01*
X153302501Y-87190260D01*
X153302501Y-87190256D01*
X153253465Y-87071873D01*
X153253463Y-87071870D01*
X153253461Y-87071866D01*
X153182276Y-86965331D01*
X153182273Y-86965327D01*
X153091672Y-86874726D01*
X153091668Y-86874723D01*
X152985130Y-86803536D01*
X152981997Y-86801862D01*
X152980662Y-86800551D01*
X152980062Y-86800150D01*
X152980138Y-86800036D01*
X152932149Y-86752903D01*
X152916684Y-86684766D01*
X152940512Y-86619085D01*
X152981997Y-86583138D01*
X152985123Y-86581466D01*
X152985127Y-86581465D01*
X153091669Y-86510276D01*
X153182276Y-86419669D01*
X153253465Y-86313127D01*
X153302501Y-86194744D01*
X153310682Y-86153615D01*
X153327500Y-86069071D01*
X153327500Y-85964071D01*
X156349499Y-85964071D01*
X156374497Y-86089738D01*
X156374499Y-86089744D01*
X156423533Y-86208124D01*
X156423538Y-86208133D01*
X156494723Y-86314668D01*
X156494726Y-86314672D01*
X156585327Y-86405273D01*
X156585331Y-86405276D01*
X156691866Y-86476461D01*
X156691872Y-86476464D01*
X156691873Y-86476465D01*
X156810256Y-86525501D01*
X156810260Y-86525501D01*
X156810261Y-86525502D01*
X156935928Y-86550500D01*
X156935931Y-86550500D01*
X157064071Y-86550500D01*
X157148615Y-86533682D01*
X157189744Y-86525501D01*
X157308127Y-86476465D01*
X157326676Y-86464071D01*
X166799499Y-86464071D01*
X166824497Y-86589738D01*
X166824499Y-86589744D01*
X166873533Y-86708124D01*
X166873538Y-86708133D01*
X166944723Y-86814668D01*
X166944726Y-86814672D01*
X167035327Y-86905273D01*
X167035331Y-86905276D01*
X167141866Y-86976461D01*
X167141872Y-86976464D01*
X167141873Y-86976465D01*
X167260256Y-87025501D01*
X167260260Y-87025501D01*
X167260261Y-87025502D01*
X167385928Y-87050500D01*
X167385931Y-87050500D01*
X167514071Y-87050500D01*
X167598615Y-87033682D01*
X167639744Y-87025501D01*
X167758127Y-86976465D01*
X167864669Y-86905276D01*
X167955276Y-86814669D01*
X168026465Y-86708127D01*
X168075501Y-86589744D01*
X168098034Y-86476466D01*
X168100500Y-86464071D01*
X168100500Y-86335928D01*
X168075502Y-86210261D01*
X168075501Y-86210260D01*
X168075501Y-86210256D01*
X168026465Y-86091873D01*
X168026464Y-86091872D01*
X168026461Y-86091866D01*
X167955276Y-85985331D01*
X167955273Y-85985327D01*
X167864672Y-85894726D01*
X167864668Y-85894723D01*
X167758133Y-85823538D01*
X167758124Y-85823533D01*
X167639744Y-85774499D01*
X167639738Y-85774497D01*
X167514071Y-85749500D01*
X167514069Y-85749500D01*
X167385931Y-85749500D01*
X167385929Y-85749500D01*
X167260261Y-85774497D01*
X167260255Y-85774499D01*
X167141875Y-85823533D01*
X167141866Y-85823538D01*
X167035331Y-85894723D01*
X167035327Y-85894726D01*
X166944726Y-85985327D01*
X166944723Y-85985331D01*
X166873538Y-86091866D01*
X166873533Y-86091875D01*
X166824499Y-86210255D01*
X166824497Y-86210261D01*
X166799500Y-86335928D01*
X166799500Y-86335931D01*
X166799500Y-86464069D01*
X166799500Y-86464071D01*
X166799499Y-86464071D01*
X157326676Y-86464071D01*
X157414669Y-86405276D01*
X157505276Y-86314669D01*
X157521393Y-86290548D01*
X157541172Y-86260948D01*
X157541173Y-86260946D01*
X157576458Y-86208138D01*
X157576461Y-86208133D01*
X157576465Y-86208127D01*
X157625501Y-86089744D01*
X157646271Y-85985331D01*
X157650500Y-85964071D01*
X157650500Y-85835928D01*
X157625502Y-85710261D01*
X157625501Y-85710260D01*
X157625501Y-85710256D01*
X157576465Y-85591873D01*
X157576464Y-85591872D01*
X157576461Y-85591866D01*
X157505276Y-85485331D01*
X157505273Y-85485327D01*
X157414672Y-85394726D01*
X157414668Y-85394723D01*
X157308133Y-85323538D01*
X157308124Y-85323533D01*
X157189744Y-85274499D01*
X157189738Y-85274497D01*
X157064071Y-85249500D01*
X157064069Y-85249500D01*
X156935931Y-85249500D01*
X156935929Y-85249500D01*
X156810261Y-85274497D01*
X156810255Y-85274499D01*
X156691875Y-85323533D01*
X156691866Y-85323538D01*
X156585331Y-85394723D01*
X156585327Y-85394726D01*
X156494726Y-85485327D01*
X156494723Y-85485331D01*
X156423538Y-85591866D01*
X156423533Y-85591875D01*
X156374499Y-85710255D01*
X156374497Y-85710261D01*
X156349500Y-85835928D01*
X156349500Y-85835931D01*
X156349500Y-85964069D01*
X156349500Y-85964071D01*
X156349499Y-85964071D01*
X153327500Y-85964071D01*
X153327500Y-85940928D01*
X153310214Y-85854031D01*
X153310214Y-85854030D01*
X153302502Y-85815263D01*
X153302502Y-85815261D01*
X153302501Y-85815256D01*
X153259011Y-85710261D01*
X153253466Y-85696875D01*
X153253461Y-85696866D01*
X153182276Y-85590331D01*
X153182273Y-85590327D01*
X153091672Y-85499726D01*
X153091668Y-85499723D01*
X152985133Y-85428538D01*
X152985124Y-85428533D01*
X152866742Y-85379498D01*
X152866738Y-85379497D01*
X152850308Y-85376229D01*
X152788397Y-85343844D01*
X152753823Y-85283128D01*
X152750500Y-85254612D01*
X152750500Y-85215928D01*
X152725502Y-85090261D01*
X152725501Y-85090260D01*
X152725501Y-85090256D01*
X152676465Y-84971873D01*
X152676464Y-84971872D01*
X152676461Y-84971866D01*
X152605276Y-84865331D01*
X152605273Y-84865327D01*
X152514672Y-84774726D01*
X152514668Y-84774723D01*
X152408133Y-84703538D01*
X152408124Y-84703533D01*
X152289744Y-84654499D01*
X152289738Y-84654497D01*
X152164071Y-84629500D01*
X152164069Y-84629500D01*
X152035931Y-84629500D01*
X152035929Y-84629500D01*
X151910261Y-84654497D01*
X151910255Y-84654499D01*
X151791875Y-84703533D01*
X151791866Y-84703538D01*
X151685331Y-84774723D01*
X151685327Y-84774726D01*
X151594726Y-84865327D01*
X151594723Y-84865331D01*
X151523538Y-84971866D01*
X151523533Y-84971875D01*
X151474499Y-85090255D01*
X151474497Y-85090261D01*
X151449500Y-85215928D01*
X151449500Y-85230500D01*
X151429815Y-85297539D01*
X151377011Y-85343294D01*
X151325500Y-85354500D01*
X151237929Y-85354500D01*
X151112261Y-85379497D01*
X151112255Y-85379499D01*
X150993875Y-85428533D01*
X150993866Y-85428538D01*
X150887331Y-85499723D01*
X150887327Y-85499726D01*
X150796726Y-85590327D01*
X150796723Y-85590331D01*
X150725535Y-85696870D01*
X150723859Y-85700008D01*
X150722547Y-85701343D01*
X150722150Y-85701938D01*
X150722037Y-85701862D01*
X150674897Y-85749853D01*
X150606760Y-85765314D01*
X150541080Y-85741483D01*
X150505141Y-85700008D01*
X150503464Y-85696870D01*
X150432276Y-85590331D01*
X150432273Y-85590327D01*
X150341672Y-85499726D01*
X150341668Y-85499723D01*
X150235133Y-85428538D01*
X150235124Y-85428533D01*
X150116744Y-85379499D01*
X150116738Y-85379497D01*
X149991071Y-85354500D01*
X149991069Y-85354500D01*
X149862931Y-85354500D01*
X149862929Y-85354500D01*
X149737261Y-85379497D01*
X149737255Y-85379499D01*
X149618875Y-85428533D01*
X149618866Y-85428538D01*
X149512331Y-85499723D01*
X149512327Y-85499726D01*
X149421726Y-85590327D01*
X149421723Y-85590331D01*
X149350538Y-85696866D01*
X149350533Y-85696875D01*
X149301499Y-85815255D01*
X149301497Y-85815261D01*
X149276500Y-85940928D01*
X149276500Y-85940931D01*
X149276500Y-86069069D01*
X149276500Y-86069071D01*
X149276499Y-86069071D01*
X149301497Y-86194738D01*
X149301499Y-86194744D01*
X149350533Y-86313124D01*
X149350538Y-86313133D01*
X149421723Y-86419668D01*
X149421726Y-86419672D01*
X149512327Y-86510273D01*
X149512331Y-86510276D01*
X149618870Y-86581464D01*
X149622008Y-86583141D01*
X149623343Y-86584452D01*
X149623938Y-86584850D01*
X149623862Y-86584962D01*
X149625762Y-86586829D01*
X149630811Y-86588323D01*
X149650430Y-86611059D01*
X149671853Y-86632103D01*
X149673017Y-86637236D01*
X149676456Y-86641221D01*
X149680668Y-86670951D01*
X149687314Y-86700240D01*
X149685518Y-86705188D01*
X149686257Y-86710400D01*
X149673725Y-86737691D01*
X149663483Y-86765920D01*
X149658707Y-86770396D01*
X149657101Y-86773896D01*
X149642931Y-86785187D01*
X149630380Y-86796954D01*
X149622334Y-86802101D01*
X149618873Y-86803535D01*
X149591405Y-86821887D01*
X149590358Y-86822558D01*
X149557937Y-86832004D01*
X149525745Y-86842084D01*
X149524509Y-86841745D01*
X149523278Y-86842104D01*
X149490890Y-86832521D01*
X149464154Y-86825186D01*
X149463502Y-86826408D01*
X149458124Y-86823533D01*
X149339744Y-86774499D01*
X149339738Y-86774497D01*
X149214071Y-86749500D01*
X149214069Y-86749500D01*
X149085931Y-86749500D01*
X149085929Y-86749500D01*
X148960261Y-86774497D01*
X148960255Y-86774499D01*
X148841875Y-86823533D01*
X148841866Y-86823538D01*
X148735331Y-86894723D01*
X148735327Y-86894726D01*
X148644726Y-86985327D01*
X148644723Y-86985331D01*
X148573538Y-87091866D01*
X148573533Y-87091875D01*
X148524499Y-87210255D01*
X148524497Y-87210261D01*
X148499500Y-87335928D01*
X148499500Y-87335931D01*
X148499500Y-87464069D01*
X148499500Y-87464071D01*
X148499499Y-87464071D01*
X146870500Y-87464071D01*
X146870500Y-87415929D01*
X146858187Y-87354032D01*
X146858187Y-87354030D01*
X146850608Y-87315931D01*
X146845501Y-87290256D01*
X146796465Y-87171873D01*
X146796464Y-87171872D01*
X146796461Y-87171866D01*
X146725276Y-87065331D01*
X146725273Y-87065327D01*
X146634672Y-86974726D01*
X146634668Y-86974723D01*
X146528133Y-86903538D01*
X146528124Y-86903533D01*
X146409744Y-86854499D01*
X146409738Y-86854497D01*
X146284071Y-86829500D01*
X146284069Y-86829500D01*
X146155931Y-86829500D01*
X146155929Y-86829500D01*
X146030261Y-86854497D01*
X146030255Y-86854499D01*
X145911875Y-86903533D01*
X145911866Y-86903538D01*
X145805331Y-86974723D01*
X145805327Y-86974726D01*
X145714726Y-87065327D01*
X145714723Y-87065331D01*
X145643538Y-87171866D01*
X145643533Y-87171875D01*
X145594499Y-87290255D01*
X145594497Y-87290261D01*
X145569500Y-87415928D01*
X145569500Y-87415929D01*
X145569500Y-87415931D01*
X145569500Y-87544069D01*
X145569500Y-87544071D01*
X145569499Y-87544071D01*
X144277376Y-87544071D01*
X144276466Y-87541875D01*
X144276461Y-87541866D01*
X144234275Y-87478730D01*
X144205276Y-87435331D01*
X144205273Y-87435327D01*
X144114672Y-87344726D01*
X144114668Y-87344723D01*
X144008133Y-87273538D01*
X144008124Y-87273533D01*
X143889744Y-87224499D01*
X143889738Y-87224497D01*
X143764071Y-87199500D01*
X143764069Y-87199500D01*
X143635931Y-87199500D01*
X143635929Y-87199500D01*
X143510261Y-87224497D01*
X143510255Y-87224499D01*
X143391875Y-87273533D01*
X143391866Y-87273538D01*
X143285331Y-87344723D01*
X143285327Y-87344726D01*
X143194726Y-87435327D01*
X143194723Y-87435331D01*
X143123538Y-87541866D01*
X143123533Y-87541875D01*
X143074499Y-87660255D01*
X143074497Y-87660261D01*
X143049500Y-87785928D01*
X143049500Y-87785931D01*
X143049500Y-87914069D01*
X143049500Y-87914071D01*
X143049499Y-87914071D01*
X132844527Y-87914071D01*
X132844317Y-87780033D01*
X132840137Y-85108124D01*
X132839755Y-84864071D01*
X138099499Y-84864071D01*
X138124497Y-84989738D01*
X138124499Y-84989744D01*
X138173533Y-85108124D01*
X138173538Y-85108133D01*
X138244723Y-85214668D01*
X138244726Y-85214672D01*
X138335327Y-85305273D01*
X138335331Y-85305276D01*
X138441866Y-85376461D01*
X138441875Y-85376466D01*
X138468692Y-85387574D01*
X138560256Y-85425501D01*
X138560260Y-85425501D01*
X138560261Y-85425502D01*
X138685928Y-85450500D01*
X138685931Y-85450500D01*
X138814071Y-85450500D01*
X138924491Y-85428535D01*
X138939744Y-85425501D01*
X139058127Y-85376465D01*
X139164669Y-85305276D01*
X139255276Y-85214669D01*
X139326465Y-85108127D01*
X139375501Y-84989744D01*
X139383682Y-84948615D01*
X139400500Y-84864071D01*
X139400500Y-84735928D01*
X139375502Y-84610261D01*
X139375501Y-84610260D01*
X139375501Y-84610256D01*
X139326465Y-84491873D01*
X139326464Y-84491872D01*
X139326461Y-84491866D01*
X139255276Y-84385331D01*
X139255273Y-84385327D01*
X139164672Y-84294726D01*
X139164668Y-84294723D01*
X139118794Y-84264071D01*
X142149499Y-84264071D01*
X142174497Y-84389738D01*
X142174499Y-84389744D01*
X142223533Y-84508124D01*
X142223538Y-84508133D01*
X142294723Y-84614668D01*
X142294726Y-84614672D01*
X142385327Y-84705273D01*
X142385331Y-84705276D01*
X142491866Y-84776461D01*
X142491872Y-84776464D01*
X142491873Y-84776465D01*
X142610256Y-84825501D01*
X142610260Y-84825501D01*
X142610261Y-84825502D01*
X142735928Y-84850500D01*
X142735931Y-84850500D01*
X142864071Y-84850500D01*
X142948615Y-84833682D01*
X142989744Y-84825501D01*
X143108127Y-84776465D01*
X143126676Y-84764071D01*
X143924499Y-84764071D01*
X143949497Y-84889738D01*
X143949499Y-84889744D01*
X143998533Y-85008124D01*
X143998538Y-85008133D01*
X144069723Y-85114668D01*
X144069726Y-85114672D01*
X144160328Y-85205274D01*
X144160331Y-85205276D01*
X144193224Y-85227254D01*
X144238029Y-85280866D01*
X144246737Y-85350191D01*
X144216583Y-85413219D01*
X144212016Y-85418038D01*
X144144723Y-85485331D01*
X144073538Y-85591866D01*
X144073533Y-85591875D01*
X144024499Y-85710255D01*
X144024497Y-85710261D01*
X143999500Y-85835928D01*
X143999500Y-85835931D01*
X143999500Y-85964069D01*
X143999500Y-85964071D01*
X143999499Y-85964071D01*
X144024497Y-86089738D01*
X144024499Y-86089744D01*
X144073533Y-86208124D01*
X144073538Y-86208133D01*
X144144723Y-86314668D01*
X144144726Y-86314672D01*
X144235327Y-86405273D01*
X144235331Y-86405276D01*
X144341866Y-86476461D01*
X144341872Y-86476464D01*
X144341873Y-86476465D01*
X144460256Y-86525501D01*
X144460260Y-86525501D01*
X144460261Y-86525502D01*
X144585928Y-86550500D01*
X144585931Y-86550500D01*
X144714071Y-86550500D01*
X144798615Y-86533682D01*
X144839744Y-86525501D01*
X144958127Y-86476465D01*
X145064669Y-86405276D01*
X145155276Y-86314669D01*
X145226465Y-86208127D01*
X145275501Y-86089744D01*
X145296271Y-85985331D01*
X145300500Y-85964071D01*
X145300500Y-85835928D01*
X145284567Y-85755831D01*
X145290794Y-85686239D01*
X145333657Y-85631062D01*
X145399546Y-85607817D01*
X145467543Y-85623884D01*
X145475075Y-85628537D01*
X145516866Y-85656461D01*
X145516872Y-85656464D01*
X145516873Y-85656465D01*
X145635256Y-85705501D01*
X145635260Y-85705501D01*
X145635261Y-85705502D01*
X145760928Y-85730500D01*
X145760931Y-85730500D01*
X145889071Y-85730500D01*
X145973615Y-85713682D01*
X146014744Y-85705501D01*
X146133127Y-85656465D01*
X146239669Y-85585276D01*
X146330276Y-85494669D01*
X146401465Y-85388127D01*
X146450501Y-85269744D01*
X146475500Y-85144069D01*
X146475500Y-85015931D01*
X146475500Y-85015928D01*
X146450502Y-84890261D01*
X146450501Y-84890260D01*
X146450501Y-84890256D01*
X146412574Y-84798692D01*
X146401466Y-84771875D01*
X146401461Y-84771866D01*
X146330276Y-84665331D01*
X146330273Y-84665327D01*
X146239672Y-84574726D01*
X146239668Y-84574723D01*
X146133133Y-84503538D01*
X146133124Y-84503533D01*
X146014744Y-84454499D01*
X146014738Y-84454497D01*
X145889071Y-84429500D01*
X145889069Y-84429500D01*
X145760931Y-84429500D01*
X145760929Y-84429500D01*
X145635261Y-84454497D01*
X145635255Y-84454499D01*
X145516875Y-84503533D01*
X145516866Y-84503538D01*
X145410331Y-84574723D01*
X145410327Y-84574726D01*
X145410040Y-84575014D01*
X145409852Y-84575116D01*
X145405621Y-84578589D01*
X145404962Y-84577786D01*
X145348713Y-84608492D01*
X145279022Y-84603500D01*
X145223093Y-84561623D01*
X145202730Y-84515948D01*
X145202270Y-84516088D01*
X145201157Y-84512419D01*
X145200749Y-84511505D01*
X145200501Y-84510256D01*
X145151465Y-84391873D01*
X145151464Y-84391872D01*
X145151461Y-84391866D01*
X145080276Y-84285331D01*
X145080273Y-84285327D01*
X144989672Y-84194726D01*
X144989668Y-84194723D01*
X144883133Y-84123538D01*
X144883124Y-84123533D01*
X144764744Y-84074499D01*
X144764738Y-84074497D01*
X144639071Y-84049500D01*
X144639069Y-84049500D01*
X144510931Y-84049500D01*
X144510929Y-84049500D01*
X144385261Y-84074497D01*
X144385255Y-84074499D01*
X144266875Y-84123533D01*
X144266866Y-84123538D01*
X144160331Y-84194723D01*
X144160327Y-84194726D01*
X144069726Y-84285327D01*
X144069723Y-84285331D01*
X143998538Y-84391866D01*
X143998533Y-84391875D01*
X143949499Y-84510255D01*
X143949497Y-84510261D01*
X143924500Y-84635928D01*
X143924500Y-84635931D01*
X143924500Y-84764069D01*
X143924500Y-84764071D01*
X143924499Y-84764071D01*
X143126676Y-84764071D01*
X143214669Y-84705276D01*
X143305276Y-84614669D01*
X143329384Y-84578589D01*
X143341172Y-84560948D01*
X143341173Y-84560946D01*
X143376458Y-84508138D01*
X143376461Y-84508133D01*
X143376465Y-84508127D01*
X143425501Y-84389744D01*
X143444402Y-84294724D01*
X143450500Y-84264071D01*
X143450500Y-84135928D01*
X143425502Y-84010261D01*
X143425501Y-84010260D01*
X143425501Y-84010256D01*
X143376465Y-83891873D01*
X143376464Y-83891872D01*
X143376461Y-83891866D01*
X143305276Y-83785331D01*
X143305273Y-83785327D01*
X143214672Y-83694726D01*
X143214668Y-83694723D01*
X143108133Y-83623538D01*
X143108124Y-83623533D01*
X142989744Y-83574499D01*
X142989738Y-83574497D01*
X142864071Y-83549500D01*
X142864069Y-83549500D01*
X142735931Y-83549500D01*
X142735929Y-83549500D01*
X142610261Y-83574497D01*
X142610255Y-83574499D01*
X142491875Y-83623533D01*
X142491866Y-83623538D01*
X142385331Y-83694723D01*
X142385327Y-83694726D01*
X142294726Y-83785327D01*
X142294723Y-83785331D01*
X142223538Y-83891866D01*
X142223533Y-83891875D01*
X142174499Y-84010255D01*
X142174497Y-84010261D01*
X142149500Y-84135928D01*
X142149500Y-84135931D01*
X142149500Y-84264069D01*
X142149500Y-84264071D01*
X142149499Y-84264071D01*
X139118794Y-84264071D01*
X139072205Y-84232941D01*
X139058133Y-84223538D01*
X139058124Y-84223533D01*
X138939744Y-84174499D01*
X138939738Y-84174497D01*
X138814071Y-84149500D01*
X138814069Y-84149500D01*
X138685931Y-84149500D01*
X138685929Y-84149500D01*
X138560261Y-84174497D01*
X138560255Y-84174499D01*
X138441875Y-84223533D01*
X138441866Y-84223538D01*
X138335331Y-84294723D01*
X138335327Y-84294726D01*
X138244726Y-84385327D01*
X138244723Y-84385331D01*
X138173538Y-84491866D01*
X138173533Y-84491875D01*
X138124499Y-84610255D01*
X138124497Y-84610261D01*
X138099500Y-84735928D01*
X138099500Y-84735931D01*
X138099500Y-84864069D01*
X138099500Y-84864071D01*
X138099499Y-84864071D01*
X132839755Y-84864071D01*
X132835649Y-82239071D01*
X147049499Y-82239071D01*
X147074497Y-82364738D01*
X147074499Y-82364744D01*
X147123533Y-82483124D01*
X147123538Y-82483133D01*
X147194723Y-82589668D01*
X147194726Y-82589672D01*
X147285327Y-82680273D01*
X147285331Y-82680276D01*
X147391866Y-82751461D01*
X147391872Y-82751464D01*
X147391873Y-82751465D01*
X147510256Y-82800501D01*
X147510260Y-82800501D01*
X147510261Y-82800502D01*
X147635928Y-82825500D01*
X147635931Y-82825500D01*
X147764071Y-82825500D01*
X147851376Y-82808133D01*
X147889744Y-82800501D01*
X148008127Y-82751465D01*
X148069005Y-82710787D01*
X148135680Y-82689910D01*
X148203061Y-82708394D01*
X148249751Y-82760372D01*
X148259512Y-82789697D01*
X148274244Y-82863757D01*
X148274246Y-82863762D01*
X148323280Y-82982142D01*
X148323285Y-82982151D01*
X148394470Y-83088686D01*
X148394473Y-83088690D01*
X148485074Y-83179291D01*
X148485078Y-83179294D01*
X148591613Y-83250479D01*
X148591619Y-83250482D01*
X148591620Y-83250483D01*
X148710003Y-83299519D01*
X148710007Y-83299519D01*
X148710008Y-83299520D01*
X148835675Y-83324518D01*
X148835678Y-83324518D01*
X148963809Y-83324518D01*
X148963816Y-83324518D01*
X148963822Y-83324516D01*
X148965300Y-83324371D01*
X148966075Y-83324518D01*
X148969908Y-83324518D01*
X148969908Y-83325244D01*
X149033947Y-83337384D01*
X149065146Y-83360092D01*
X149135327Y-83430273D01*
X149135331Y-83430276D01*
X149241866Y-83501461D01*
X149241872Y-83501464D01*
X149241873Y-83501465D01*
X149360256Y-83550501D01*
X149360260Y-83550501D01*
X149360261Y-83550502D01*
X149485928Y-83575500D01*
X149485931Y-83575500D01*
X149614071Y-83575500D01*
X149698615Y-83558682D01*
X149739744Y-83550501D01*
X149858127Y-83501465D01*
X149964669Y-83430276D01*
X150055276Y-83339669D01*
X150126465Y-83233127D01*
X150175501Y-83114744D01*
X150200500Y-82989069D01*
X150200500Y-82860931D01*
X150200500Y-82860928D01*
X150175502Y-82735261D01*
X150175501Y-82735260D01*
X150175501Y-82735256D01*
X150126465Y-82616873D01*
X150126464Y-82616872D01*
X150126461Y-82616866D01*
X150055276Y-82510331D01*
X150055273Y-82510327D01*
X150009017Y-82464071D01*
X151699499Y-82464071D01*
X151724497Y-82589738D01*
X151724499Y-82589744D01*
X151773533Y-82708124D01*
X151773538Y-82708133D01*
X151844723Y-82814668D01*
X151844726Y-82814672D01*
X151935327Y-82905273D01*
X151935331Y-82905276D01*
X152041866Y-82976461D01*
X152041875Y-82976466D01*
X152055600Y-82982151D01*
X152160256Y-83025501D01*
X152160260Y-83025501D01*
X152160261Y-83025502D01*
X152285928Y-83050500D01*
X152285931Y-83050500D01*
X152414071Y-83050500D01*
X152498615Y-83033682D01*
X152539744Y-83025501D01*
X152658127Y-82976465D01*
X152764669Y-82905276D01*
X152855276Y-82814669D01*
X152926465Y-82708127D01*
X152975501Y-82589744D01*
X152980608Y-82564071D01*
X156299499Y-82564071D01*
X156324497Y-82689738D01*
X156324499Y-82689744D01*
X156373533Y-82808124D01*
X156373538Y-82808133D01*
X156444723Y-82914668D01*
X156444726Y-82914672D01*
X156535327Y-83005273D01*
X156535331Y-83005276D01*
X156641866Y-83076461D01*
X156641872Y-83076464D01*
X156641873Y-83076465D01*
X156760256Y-83125501D01*
X156760260Y-83125501D01*
X156760261Y-83125502D01*
X156885928Y-83150500D01*
X156885931Y-83150500D01*
X157014071Y-83150500D01*
X157098615Y-83133682D01*
X157139744Y-83125501D01*
X157258127Y-83076465D01*
X157364669Y-83005276D01*
X157455276Y-82914669D01*
X157526465Y-82808127D01*
X157575501Y-82689744D01*
X157600500Y-82564069D01*
X157600500Y-82435931D01*
X157600500Y-82435928D01*
X157575502Y-82310261D01*
X157575501Y-82310260D01*
X157575501Y-82310256D01*
X157526465Y-82191873D01*
X157526464Y-82191872D01*
X157526461Y-82191866D01*
X157455276Y-82085331D01*
X157455273Y-82085327D01*
X157364672Y-81994726D01*
X157364668Y-81994723D01*
X157258133Y-81923538D01*
X157258124Y-81923533D01*
X157139744Y-81874499D01*
X157139738Y-81874497D01*
X157014071Y-81849500D01*
X157014069Y-81849500D01*
X156885931Y-81849500D01*
X156885929Y-81849500D01*
X156760261Y-81874497D01*
X156760255Y-81874499D01*
X156641875Y-81923533D01*
X156641866Y-81923538D01*
X156535331Y-81994723D01*
X156535327Y-81994726D01*
X156444726Y-82085327D01*
X156444723Y-82085331D01*
X156373538Y-82191866D01*
X156373533Y-82191875D01*
X156324499Y-82310255D01*
X156324497Y-82310261D01*
X156299500Y-82435928D01*
X156299500Y-82435931D01*
X156299500Y-82564069D01*
X156299500Y-82564071D01*
X156299499Y-82564071D01*
X152980608Y-82564071D01*
X152991298Y-82510331D01*
X153000500Y-82464071D01*
X153000500Y-82335928D01*
X152975502Y-82210261D01*
X152975501Y-82210260D01*
X152975501Y-82210256D01*
X152926465Y-82091873D01*
X152926464Y-82091872D01*
X152926461Y-82091866D01*
X152855276Y-81985331D01*
X152855273Y-81985327D01*
X152764672Y-81894726D01*
X152764668Y-81894723D01*
X152658133Y-81823538D01*
X152658124Y-81823533D01*
X152539744Y-81774499D01*
X152539738Y-81774497D01*
X152414071Y-81749500D01*
X152414069Y-81749500D01*
X152285931Y-81749500D01*
X152285929Y-81749500D01*
X152160261Y-81774497D01*
X152160255Y-81774499D01*
X152041875Y-81823533D01*
X152041866Y-81823538D01*
X151935331Y-81894723D01*
X151935327Y-81894726D01*
X151844726Y-81985327D01*
X151844723Y-81985331D01*
X151773538Y-82091866D01*
X151773533Y-82091875D01*
X151724499Y-82210255D01*
X151724497Y-82210261D01*
X151699500Y-82335928D01*
X151699500Y-82335931D01*
X151699500Y-82464069D01*
X151699500Y-82464071D01*
X151699499Y-82464071D01*
X150009017Y-82464071D01*
X149964672Y-82419726D01*
X149964668Y-82419723D01*
X149858133Y-82348538D01*
X149858124Y-82348533D01*
X149739744Y-82299499D01*
X149739738Y-82299497D01*
X149614071Y-82274500D01*
X149614069Y-82274500D01*
X149485931Y-82274500D01*
X149485930Y-82274500D01*
X149484426Y-82274648D01*
X149483646Y-82274500D01*
X149479839Y-82274500D01*
X149479839Y-82273777D01*
X149415781Y-82261624D01*
X149384601Y-82238927D01*
X149314416Y-82168742D01*
X149314415Y-82168741D01*
X149314414Y-82168740D01*
X149207880Y-82097556D01*
X149207871Y-82097551D01*
X149089491Y-82048517D01*
X149089485Y-82048515D01*
X148963818Y-82023518D01*
X148963816Y-82023518D01*
X148835678Y-82023518D01*
X148835676Y-82023518D01*
X148710008Y-82048515D01*
X148710002Y-82048517D01*
X148591622Y-82097551D01*
X148591615Y-82097555D01*
X148530741Y-82138230D01*
X148464063Y-82159107D01*
X148396683Y-82140622D01*
X148349994Y-82088643D01*
X148340234Y-82059319D01*
X148325502Y-81985261D01*
X148325501Y-81985260D01*
X148325501Y-81985256D01*
X148276465Y-81866873D01*
X148276464Y-81866872D01*
X148276461Y-81866866D01*
X148205276Y-81760331D01*
X148205273Y-81760327D01*
X148114672Y-81669726D01*
X148114668Y-81669723D01*
X148008133Y-81598538D01*
X148008124Y-81598533D01*
X147889744Y-81549499D01*
X147889738Y-81549497D01*
X147764071Y-81524500D01*
X147764069Y-81524500D01*
X147635931Y-81524500D01*
X147635929Y-81524500D01*
X147510261Y-81549497D01*
X147510255Y-81549499D01*
X147391875Y-81598533D01*
X147391866Y-81598538D01*
X147285331Y-81669723D01*
X147285327Y-81669726D01*
X147194726Y-81760327D01*
X147194723Y-81760331D01*
X147123538Y-81866866D01*
X147123533Y-81866875D01*
X147074499Y-81985255D01*
X147074497Y-81985261D01*
X147049500Y-82110928D01*
X147049500Y-82110931D01*
X147049500Y-82239069D01*
X147049500Y-82239071D01*
X147049499Y-82239071D01*
X132835649Y-82239071D01*
X132832716Y-80364071D01*
X149449499Y-80364071D01*
X149474497Y-80489738D01*
X149474499Y-80489744D01*
X149523533Y-80608124D01*
X149523538Y-80608133D01*
X149594723Y-80714668D01*
X149594726Y-80714672D01*
X149685327Y-80805273D01*
X149685331Y-80805276D01*
X149791866Y-80876461D01*
X149791872Y-80876464D01*
X149791873Y-80876465D01*
X149910256Y-80925501D01*
X149910260Y-80925501D01*
X149910261Y-80925502D01*
X150035928Y-80950500D01*
X150035931Y-80950500D01*
X150164071Y-80950500D01*
X150248615Y-80933682D01*
X150289744Y-80925501D01*
X150408127Y-80876465D01*
X150514669Y-80805276D01*
X150605276Y-80714669D01*
X150676465Y-80608127D01*
X150725501Y-80489744D01*
X150748034Y-80376466D01*
X150750500Y-80364071D01*
X150750500Y-80235928D01*
X150725502Y-80110261D01*
X150725501Y-80110260D01*
X150725501Y-80110256D01*
X150676465Y-79991873D01*
X150676464Y-79991872D01*
X150676461Y-79991866D01*
X150605276Y-79885331D01*
X150605273Y-79885327D01*
X150584017Y-79864071D01*
X151699499Y-79864071D01*
X151724497Y-79989738D01*
X151724499Y-79989744D01*
X151773533Y-80108124D01*
X151773538Y-80108133D01*
X151844723Y-80214668D01*
X151844726Y-80214672D01*
X151935327Y-80305273D01*
X151935331Y-80305276D01*
X152041866Y-80376461D01*
X152041872Y-80376464D01*
X152041873Y-80376465D01*
X152160256Y-80425501D01*
X152160260Y-80425501D01*
X152160261Y-80425502D01*
X152285928Y-80450500D01*
X152285931Y-80450500D01*
X152414071Y-80450500D01*
X152498615Y-80433682D01*
X152539744Y-80425501D01*
X152658127Y-80376465D01*
X152764669Y-80305276D01*
X152855276Y-80214669D01*
X152926465Y-80108127D01*
X152975501Y-79989744D01*
X152996271Y-79885331D01*
X153000500Y-79864071D01*
X161949499Y-79864071D01*
X161974497Y-79989738D01*
X161974499Y-79989744D01*
X162023533Y-80108124D01*
X162023538Y-80108133D01*
X162094723Y-80214668D01*
X162094726Y-80214672D01*
X162185327Y-80305273D01*
X162185331Y-80305276D01*
X162291866Y-80376461D01*
X162291872Y-80376464D01*
X162291873Y-80376465D01*
X162410256Y-80425501D01*
X162410260Y-80425501D01*
X162410261Y-80425502D01*
X162535928Y-80450500D01*
X162535931Y-80450500D01*
X162664071Y-80450500D01*
X162748615Y-80433682D01*
X162789744Y-80425501D01*
X162908127Y-80376465D01*
X163014669Y-80305276D01*
X163105276Y-80214669D01*
X163176465Y-80108127D01*
X163225501Y-79989744D01*
X163246271Y-79885331D01*
X163250500Y-79864071D01*
X163250500Y-79735928D01*
X163225502Y-79610261D01*
X163225501Y-79610260D01*
X163225501Y-79610256D01*
X163176465Y-79491873D01*
X163176464Y-79491872D01*
X163176461Y-79491866D01*
X163105276Y-79385331D01*
X163105273Y-79385327D01*
X163014672Y-79294726D01*
X163014668Y-79294723D01*
X162908133Y-79223538D01*
X162908124Y-79223533D01*
X162789744Y-79174499D01*
X162789738Y-79174497D01*
X162664071Y-79149500D01*
X162664069Y-79149500D01*
X162535931Y-79149500D01*
X162535929Y-79149500D01*
X162410261Y-79174497D01*
X162410255Y-79174499D01*
X162291875Y-79223533D01*
X162291866Y-79223538D01*
X162185331Y-79294723D01*
X162185327Y-79294726D01*
X162094726Y-79385327D01*
X162094723Y-79385331D01*
X162023538Y-79491866D01*
X162023533Y-79491875D01*
X161974499Y-79610255D01*
X161974497Y-79610261D01*
X161949500Y-79735928D01*
X161949500Y-79735931D01*
X161949500Y-79864069D01*
X161949500Y-79864071D01*
X161949499Y-79864071D01*
X153000500Y-79864071D01*
X153000500Y-79735928D01*
X152975502Y-79610261D01*
X152975501Y-79610260D01*
X152975501Y-79610256D01*
X152926465Y-79491873D01*
X152926464Y-79491872D01*
X152926461Y-79491866D01*
X152855276Y-79385331D01*
X152855273Y-79385327D01*
X152764672Y-79294726D01*
X152764668Y-79294723D01*
X152658133Y-79223538D01*
X152658124Y-79223533D01*
X152539744Y-79174499D01*
X152539738Y-79174497D01*
X152414071Y-79149500D01*
X152414069Y-79149500D01*
X152285931Y-79149500D01*
X152285929Y-79149500D01*
X152160261Y-79174497D01*
X152160255Y-79174499D01*
X152041875Y-79223533D01*
X152041866Y-79223538D01*
X151935331Y-79294723D01*
X151935327Y-79294726D01*
X151844726Y-79385327D01*
X151844723Y-79385331D01*
X151773538Y-79491866D01*
X151773533Y-79491875D01*
X151724499Y-79610255D01*
X151724497Y-79610261D01*
X151699500Y-79735928D01*
X151699500Y-79735931D01*
X151699500Y-79864069D01*
X151699500Y-79864071D01*
X151699499Y-79864071D01*
X150584017Y-79864071D01*
X150514672Y-79794726D01*
X150514668Y-79794723D01*
X150408133Y-79723538D01*
X150408124Y-79723533D01*
X150289744Y-79674499D01*
X150289738Y-79674497D01*
X150164071Y-79649500D01*
X150164069Y-79649500D01*
X150035931Y-79649500D01*
X150035929Y-79649500D01*
X149910261Y-79674497D01*
X149910255Y-79674499D01*
X149791875Y-79723533D01*
X149791866Y-79723538D01*
X149685331Y-79794723D01*
X149685327Y-79794726D01*
X149594726Y-79885327D01*
X149594723Y-79885331D01*
X149523538Y-79991866D01*
X149523533Y-79991875D01*
X149474499Y-80110255D01*
X149474497Y-80110261D01*
X149449500Y-80235928D01*
X149449500Y-80235931D01*
X149449500Y-80364069D01*
X149449500Y-80364071D01*
X149449499Y-80364071D01*
X132832716Y-80364071D01*
X132826062Y-76109507D01*
X132845642Y-76042438D01*
X132898374Y-75996600D01*
X132950681Y-75985316D01*
X147880130Y-76060433D01*
G37*
%TD.AperFunction*%
%TD*%
M02*
