%TF.GenerationSoftware,KiCad,Pcbnew,10.0.4*%
%TF.CreationDate,2026-07-26T17:29:05+02:00*%
%TF.ProjectId,PS-microCard PCB,50532d6d-6963-4726-9f43-617264205043,rev?*%
%TF.SameCoordinates,Original*%
%TF.FileFunction,Legend,Top*%
%TF.FilePolarity,Positive*%
%FSLAX46Y46*%
G04 Gerber Fmt 4.6, Leading zero omitted, Abs format (unit mm)*
G04 Created by KiCad (PCBNEW 10.0.4) date 2026-07-26 17:29:05*
%MOMM*%
%LPD*%
G01*
G04 APERTURE LIST*
%ADD10C,0.062500*%
%ADD11C,0.120000*%
%ADD12C,0.127000*%
%ADD13C,0.200000*%
%ADD14C,0.191421*%
G04 APERTURE END LIST*
D10*
X155516666Y-70580440D02*
X155492857Y-70604250D01*
X155492857Y-70604250D02*
X155421428Y-70628059D01*
X155421428Y-70628059D02*
X155373809Y-70628059D01*
X155373809Y-70628059D02*
X155302381Y-70604250D01*
X155302381Y-70604250D02*
X155254762Y-70556630D01*
X155254762Y-70556630D02*
X155230952Y-70509011D01*
X155230952Y-70509011D02*
X155207143Y-70413773D01*
X155207143Y-70413773D02*
X155207143Y-70342345D01*
X155207143Y-70342345D02*
X155230952Y-70247107D01*
X155230952Y-70247107D02*
X155254762Y-70199488D01*
X155254762Y-70199488D02*
X155302381Y-70151869D01*
X155302381Y-70151869D02*
X155373809Y-70128059D01*
X155373809Y-70128059D02*
X155421428Y-70128059D01*
X155421428Y-70128059D02*
X155492857Y-70151869D01*
X155492857Y-70151869D02*
X155516666Y-70175678D01*
X155707143Y-70604250D02*
X155778571Y-70628059D01*
X155778571Y-70628059D02*
X155897619Y-70628059D01*
X155897619Y-70628059D02*
X155945238Y-70604250D01*
X155945238Y-70604250D02*
X155969047Y-70580440D01*
X155969047Y-70580440D02*
X155992857Y-70532821D01*
X155992857Y-70532821D02*
X155992857Y-70485202D01*
X155992857Y-70485202D02*
X155969047Y-70437583D01*
X155969047Y-70437583D02*
X155945238Y-70413773D01*
X155945238Y-70413773D02*
X155897619Y-70389964D01*
X155897619Y-70389964D02*
X155802381Y-70366154D01*
X155802381Y-70366154D02*
X155754762Y-70342345D01*
X155754762Y-70342345D02*
X155730952Y-70318535D01*
X155730952Y-70318535D02*
X155707143Y-70270916D01*
X155707143Y-70270916D02*
X155707143Y-70223297D01*
X155707143Y-70223297D02*
X155730952Y-70175678D01*
X155730952Y-70175678D02*
X155754762Y-70151869D01*
X155754762Y-70151869D02*
X155802381Y-70128059D01*
X155802381Y-70128059D02*
X155921428Y-70128059D01*
X155921428Y-70128059D02*
X155992857Y-70151869D01*
X157657143Y-70554250D02*
X157728571Y-70578059D01*
X157728571Y-70578059D02*
X157847619Y-70578059D01*
X157847619Y-70578059D02*
X157895238Y-70554250D01*
X157895238Y-70554250D02*
X157919047Y-70530440D01*
X157919047Y-70530440D02*
X157942857Y-70482821D01*
X157942857Y-70482821D02*
X157942857Y-70435202D01*
X157942857Y-70435202D02*
X157919047Y-70387583D01*
X157919047Y-70387583D02*
X157895238Y-70363773D01*
X157895238Y-70363773D02*
X157847619Y-70339964D01*
X157847619Y-70339964D02*
X157752381Y-70316154D01*
X157752381Y-70316154D02*
X157704762Y-70292345D01*
X157704762Y-70292345D02*
X157680952Y-70268535D01*
X157680952Y-70268535D02*
X157657143Y-70220916D01*
X157657143Y-70220916D02*
X157657143Y-70173297D01*
X157657143Y-70173297D02*
X157680952Y-70125678D01*
X157680952Y-70125678D02*
X157704762Y-70101869D01*
X157704762Y-70101869D02*
X157752381Y-70078059D01*
X157752381Y-70078059D02*
X157871428Y-70078059D01*
X157871428Y-70078059D02*
X157942857Y-70101869D01*
X158442856Y-70530440D02*
X158419047Y-70554250D01*
X158419047Y-70554250D02*
X158347618Y-70578059D01*
X158347618Y-70578059D02*
X158299999Y-70578059D01*
X158299999Y-70578059D02*
X158228571Y-70554250D01*
X158228571Y-70554250D02*
X158180952Y-70506630D01*
X158180952Y-70506630D02*
X158157142Y-70459011D01*
X158157142Y-70459011D02*
X158133333Y-70363773D01*
X158133333Y-70363773D02*
X158133333Y-70292345D01*
X158133333Y-70292345D02*
X158157142Y-70197107D01*
X158157142Y-70197107D02*
X158180952Y-70149488D01*
X158180952Y-70149488D02*
X158228571Y-70101869D01*
X158228571Y-70101869D02*
X158299999Y-70078059D01*
X158299999Y-70078059D02*
X158347618Y-70078059D01*
X158347618Y-70078059D02*
X158419047Y-70101869D01*
X158419047Y-70101869D02*
X158442856Y-70125678D01*
X158657142Y-70578059D02*
X158657142Y-70078059D01*
X158942856Y-70578059D02*
X158728571Y-70292345D01*
X158942856Y-70078059D02*
X158657142Y-70363773D01*
X162780953Y-69985202D02*
X163019048Y-69985202D01*
X162733334Y-70128059D02*
X162900000Y-69628059D01*
X162900000Y-69628059D02*
X163066667Y-70128059D01*
X163519047Y-70080440D02*
X163495238Y-70104250D01*
X163495238Y-70104250D02*
X163423809Y-70128059D01*
X163423809Y-70128059D02*
X163376190Y-70128059D01*
X163376190Y-70128059D02*
X163304762Y-70104250D01*
X163304762Y-70104250D02*
X163257143Y-70056630D01*
X163257143Y-70056630D02*
X163233333Y-70009011D01*
X163233333Y-70009011D02*
X163209524Y-69913773D01*
X163209524Y-69913773D02*
X163209524Y-69842345D01*
X163209524Y-69842345D02*
X163233333Y-69747107D01*
X163233333Y-69747107D02*
X163257143Y-69699488D01*
X163257143Y-69699488D02*
X163304762Y-69651869D01*
X163304762Y-69651869D02*
X163376190Y-69628059D01*
X163376190Y-69628059D02*
X163423809Y-69628059D01*
X163423809Y-69628059D02*
X163495238Y-69651869D01*
X163495238Y-69651869D02*
X163519047Y-69675678D01*
X163733333Y-70128059D02*
X163733333Y-69628059D01*
X164019047Y-70128059D02*
X163804762Y-69842345D01*
X164019047Y-69628059D02*
X163733333Y-69913773D01*
X140050000Y-69778059D02*
X140050000Y-69278059D01*
X140050000Y-69278059D02*
X140169048Y-69278059D01*
X140169048Y-69278059D02*
X140240476Y-69301869D01*
X140240476Y-69301869D02*
X140288095Y-69349488D01*
X140288095Y-69349488D02*
X140311905Y-69397107D01*
X140311905Y-69397107D02*
X140335714Y-69492345D01*
X140335714Y-69492345D02*
X140335714Y-69563773D01*
X140335714Y-69563773D02*
X140311905Y-69659011D01*
X140311905Y-69659011D02*
X140288095Y-69706630D01*
X140288095Y-69706630D02*
X140240476Y-69754250D01*
X140240476Y-69754250D02*
X140169048Y-69778059D01*
X140169048Y-69778059D02*
X140050000Y-69778059D01*
X140526191Y-69635202D02*
X140764286Y-69635202D01*
X140478572Y-69778059D02*
X140645238Y-69278059D01*
X140645238Y-69278059D02*
X140811905Y-69778059D01*
X140907143Y-69278059D02*
X141192857Y-69278059D01*
X141050000Y-69778059D02*
X141050000Y-69278059D01*
X141335714Y-69635202D02*
X141573809Y-69635202D01*
X141288095Y-69778059D02*
X141454761Y-69278059D01*
X141454761Y-69278059D02*
X141621428Y-69778059D01*
X146169047Y-67330440D02*
X146145238Y-67354250D01*
X146145238Y-67354250D02*
X146073809Y-67378059D01*
X146073809Y-67378059D02*
X146026190Y-67378059D01*
X146026190Y-67378059D02*
X145954762Y-67354250D01*
X145954762Y-67354250D02*
X145907143Y-67306630D01*
X145907143Y-67306630D02*
X145883333Y-67259011D01*
X145883333Y-67259011D02*
X145859524Y-67163773D01*
X145859524Y-67163773D02*
X145859524Y-67092345D01*
X145859524Y-67092345D02*
X145883333Y-66997107D01*
X145883333Y-66997107D02*
X145907143Y-66949488D01*
X145907143Y-66949488D02*
X145954762Y-66901869D01*
X145954762Y-66901869D02*
X146026190Y-66878059D01*
X146026190Y-66878059D02*
X146073809Y-66878059D01*
X146073809Y-66878059D02*
X146145238Y-66901869D01*
X146145238Y-66901869D02*
X146169047Y-66925678D01*
X146383333Y-67378059D02*
X146383333Y-66878059D01*
X146383333Y-66878059D02*
X146550000Y-67235202D01*
X146550000Y-67235202D02*
X146716666Y-66878059D01*
X146716666Y-66878059D02*
X146716666Y-67378059D01*
X146954762Y-67378059D02*
X146954762Y-66878059D01*
X146954762Y-66878059D02*
X147073810Y-66878059D01*
X147073810Y-66878059D02*
X147145238Y-66901869D01*
X147145238Y-66901869D02*
X147192857Y-66949488D01*
X147192857Y-66949488D02*
X147216667Y-66997107D01*
X147216667Y-66997107D02*
X147240476Y-67092345D01*
X147240476Y-67092345D02*
X147240476Y-67163773D01*
X147240476Y-67163773D02*
X147216667Y-67259011D01*
X147216667Y-67259011D02*
X147192857Y-67306630D01*
X147192857Y-67306630D02*
X147145238Y-67354250D01*
X147145238Y-67354250D02*
X147073810Y-67378059D01*
X147073810Y-67378059D02*
X146954762Y-67378059D01*
%TO.C,R15*%
D11*
X154822000Y-78096141D02*
X154822000Y-77788859D01*
X155582000Y-78096141D02*
X155582000Y-77788859D01*
%TO.C,C7*%
X145109836Y-89820000D02*
X144894164Y-89820000D01*
X145109836Y-90540000D02*
X144894164Y-90540000D01*
%TO.C,R16*%
X155922000Y-77788859D02*
X155922000Y-78096141D01*
X156682000Y-77788859D02*
X156682000Y-78096141D01*
%TO.C,C17*%
X149740000Y-81057836D02*
X149740000Y-80842164D01*
X150460000Y-81057836D02*
X150460000Y-80842164D01*
%TO.C,DATA*%
X141450000Y-68225000D02*
G75*
G02*
X140050000Y-68225000I-700000J0D01*
G01*
X140050000Y-68225000D02*
G75*
G02*
X141450000Y-68225000I700000J0D01*
G01*
%TO.C,R19*%
X163146359Y-75920000D02*
X163453641Y-75920000D01*
X163146359Y-76680000D02*
X163453641Y-76680000D01*
%TO.C,C14*%
X153242000Y-94062164D02*
X153242000Y-94277836D01*
X153962000Y-94062164D02*
X153962000Y-94277836D01*
%TO.C,C27*%
X151892164Y-64411000D02*
X152107836Y-64411000D01*
X151892164Y-65131000D02*
X152107836Y-65131000D01*
%TO.C,S1*%
D12*
X166580000Y-96050000D02*
X165220000Y-96050000D01*
X166580000Y-97950000D02*
X165220000Y-97950000D01*
D13*
X168200000Y-97600000D02*
G75*
G02*
X168000000Y-97600000I-100000J0D01*
G01*
X168000000Y-97600000D02*
G75*
G02*
X168200000Y-97600000I100000J0D01*
G01*
%TO.C,C10*%
D11*
X154242000Y-94062164D02*
X154242000Y-94277836D01*
X154962000Y-94062164D02*
X154962000Y-94277836D01*
%TO.C,R5*%
X142420000Y-87953641D02*
X142420000Y-87646359D01*
X143180000Y-87953641D02*
X143180000Y-87646359D01*
%TO.C,R3*%
X167422000Y-76243641D02*
X167422000Y-75936359D01*
X168182000Y-76243641D02*
X168182000Y-75936359D01*
%TO.C,R1*%
X166045641Y-74000000D02*
X165738359Y-74000000D01*
X166045641Y-74760000D02*
X165738359Y-74760000D01*
%TO.C,U2*%
X147692000Y-83770000D02*
X148142000Y-83770000D01*
X147692000Y-84220000D02*
X147692000Y-83770000D01*
X147692000Y-90540000D02*
X147692000Y-90990000D01*
X147692000Y-90990000D02*
X148142000Y-90990000D01*
X154912000Y-84220000D02*
X154912000Y-83770000D01*
X154912000Y-90540000D02*
X154912000Y-90990000D01*
X154912000Y-90990000D02*
X154462000Y-90990000D01*
%TO.C,U1*%
X161742000Y-79120000D02*
X162012000Y-79120000D01*
X161742000Y-84640000D02*
X161742000Y-79120000D01*
X162012000Y-84640000D02*
X161742000Y-84640000D01*
X166992000Y-79120000D02*
X167262000Y-79120000D01*
X167262000Y-79120000D02*
X167262000Y-84640000D01*
X167262000Y-84640000D02*
X166992000Y-84640000D01*
X167002000Y-78290000D02*
X167472000Y-77950000D01*
X167472000Y-78630000D01*
X167002000Y-78290000D01*
G36*
X167472000Y-78630000D02*
G01*
X167002000Y-78290000D01*
X167472000Y-77950000D01*
X167472000Y-78630000D01*
G37*
%TO.C,TP13*%
X164075000Y-68650000D02*
G75*
G02*
X162675000Y-68650000I-700000J0D01*
G01*
X162675000Y-68650000D02*
G75*
G02*
X164075000Y-68650000I700000J0D01*
G01*
%TO.C,C19*%
X152138748Y-73065000D02*
X152661252Y-73065000D01*
X152138748Y-74535000D02*
X152661252Y-74535000D01*
%TO.C,S2*%
D12*
X166580000Y-91750000D02*
X165220000Y-91750000D01*
X166580000Y-93650000D02*
X165220000Y-93650000D01*
D13*
X168200000Y-93300000D02*
G75*
G02*
X168000000Y-93300000I-100000J0D01*
G01*
X168000000Y-93300000D02*
G75*
G02*
X168200000Y-93300000I100000J0D01*
G01*
%TO.C,R11*%
D11*
X166546359Y-94620000D02*
X166853641Y-94620000D01*
X166546359Y-95380000D02*
X166853641Y-95380000D01*
%TO.C,R14*%
X153722000Y-78096141D02*
X153722000Y-77788859D01*
X154482000Y-78096141D02*
X154482000Y-77788859D01*
%TO.C,R4*%
X158548359Y-91400000D02*
X158855641Y-91400000D01*
X158548359Y-92160000D02*
X158855641Y-92160000D01*
%TO.C,C3*%
X136840000Y-88257836D02*
X136840000Y-88042164D01*
X137560000Y-88257836D02*
X137560000Y-88042164D01*
%TO.C,C15*%
X145007836Y-87340000D02*
X144792164Y-87340000D01*
X145007836Y-88060000D02*
X144792164Y-88060000D01*
%TO.C,C5*%
X166874164Y-87520000D02*
X167089836Y-87520000D01*
X166874164Y-88240000D02*
X167089836Y-88240000D01*
%TO.C,R12*%
X145522000Y-77796359D02*
X145522000Y-78103641D01*
X146282000Y-77796359D02*
X146282000Y-78103641D01*
%TO.C,J3*%
D13*
X133600000Y-99625000D02*
X134030000Y-99625000D01*
X133600000Y-112180000D02*
X133600000Y-99625000D01*
X136570000Y-99625000D02*
X148850000Y-99625000D01*
X148850000Y-99625000D02*
X148850000Y-100670000D01*
X148850000Y-108310000D02*
X148850000Y-113625000D01*
X148850000Y-113625000D02*
X135570000Y-113625000D01*
X133260000Y-108530000D02*
G75*
G02*
X133060000Y-108530000I-100000J0D01*
G01*
X133060000Y-108530000D02*
G75*
G02*
X133260000Y-108530000I100000J0D01*
G01*
%TO.C,TP12*%
D11*
X159075000Y-69175000D02*
G75*
G02*
X157675000Y-69175000I-700000J0D01*
G01*
X157675000Y-69175000D02*
G75*
G02*
X159075000Y-69175000I700000J0D01*
G01*
%TO.C,C13*%
X151942000Y-94092164D02*
X151942000Y-94307836D01*
X152662000Y-94092164D02*
X152662000Y-94307836D01*
%TO.C,C16*%
X159147164Y-86040000D02*
X159362836Y-86040000D01*
X159147164Y-86760000D02*
X159362836Y-86760000D01*
%TO.C,R2*%
X166045641Y-75300000D02*
X165738359Y-75300000D01*
X166045641Y-76060000D02*
X165738359Y-76060000D01*
%TO.C,C26*%
X151792164Y-71211000D02*
X152007836Y-71211000D01*
X151792164Y-71931000D02*
X152007836Y-71931000D01*
%TO.C,U5*%
D12*
X149050000Y-68125000D02*
X149050000Y-68785000D01*
X150835000Y-69255000D02*
X150165000Y-69255000D01*
X151950000Y-68125000D02*
X151950000Y-68785000D01*
D13*
X151903000Y-65877000D02*
G75*
G02*
X151703000Y-65877000I-100000J0D01*
G01*
X151703000Y-65877000D02*
G75*
G02*
X151903000Y-65877000I100000J0D01*
G01*
%TO.C,C11*%
D11*
X151740000Y-81152836D02*
X151740000Y-80937164D01*
X152460000Y-81152836D02*
X152460000Y-80937164D01*
%TO.C,R13*%
X146622000Y-78096141D02*
X146622000Y-77788859D01*
X147382000Y-78096141D02*
X147382000Y-77788859D01*
%TO.C,C9*%
X146007836Y-85540000D02*
X145792164Y-85540000D01*
X146007836Y-86260000D02*
X145792164Y-86260000D01*
%TO.C,C6*%
X156709836Y-91420000D02*
X156494164Y-91420000D01*
X156709836Y-92140000D02*
X156494164Y-92140000D01*
%TO.C,C18*%
X154542164Y-81990000D02*
X154757836Y-81990000D01*
X154542164Y-82710000D02*
X154757836Y-82710000D01*
%TO.C,C2*%
X142440000Y-85692164D02*
X142440000Y-85907836D01*
X143160000Y-85692164D02*
X143160000Y-85907836D01*
%TO.C,Y1*%
D12*
X139815000Y-85550000D02*
X139985000Y-85550000D01*
X139815000Y-88050000D02*
X139985000Y-88050000D01*
D13*
X138850000Y-88945000D02*
G75*
G02*
X138650000Y-88945000I-100000J0D01*
G01*
X138650000Y-88945000D02*
G75*
G02*
X138850000Y-88945000I100000J0D01*
G01*
%TO.C,C12*%
D11*
X150790000Y-94092164D02*
X150790000Y-94307836D01*
X151510000Y-94092164D02*
X151510000Y-94307836D01*
%TO.C,CMD*%
X147169830Y-65987106D02*
G75*
G02*
X145769830Y-65987106I-700000J0D01*
G01*
X145769830Y-65987106D02*
G75*
G02*
X147169830Y-65987106I700000J0D01*
G01*
%TO.C,L1*%
D14*
X160197710Y-88880000D02*
G75*
G02*
X160006290Y-88880000I-95710J0D01*
G01*
X160006290Y-88880000D02*
G75*
G02*
X160197710Y-88880000I95710J0D01*
G01*
%TO.C,C8*%
D11*
X158392164Y-87040000D02*
X158607836Y-87040000D01*
X158392164Y-87760000D02*
X158607836Y-87760000D01*
%TO.C,TP11*%
X156300000Y-69225000D02*
G75*
G02*
X154900000Y-69225000I-700000J0D01*
G01*
X154900000Y-69225000D02*
G75*
G02*
X156300000Y-69225000I700000J0D01*
G01*
%TD*%
M02*
