%TF.GenerationSoftware,KiCad,Pcbnew,10.0.4*%
%TF.CreationDate,2026-07-26T17:29:05+02:00*%
%TF.ProjectId,PS-microCard PCB,50532d6d-6963-4726-9f43-617264205043,rev?*%
%TF.SameCoordinates,Original*%
%TF.FileFunction,Copper,L2,Inr*%
%TF.FilePolarity,Positive*%
%FSLAX46Y46*%
G04 Gerber Fmt 4.6, Leading zero omitted, Abs format (unit mm)*
G04 Created by KiCad (PCBNEW 10.0.4) date 2026-07-26 17:29:05*
%MOMM*%
%LPD*%
G01*
G04 APERTURE LIST*
%TA.AperFunction,ComponentPad*%
%ADD10C,0.600000*%
%TD*%
%TA.AperFunction,ComponentPad*%
%ADD11R,1.700000X1.700000*%
%TD*%
%TA.AperFunction,ComponentPad*%
%ADD12C,1.700000*%
%TD*%
%TA.AperFunction,ViaPad*%
%ADD13C,0.500000*%
%TD*%
G04 APERTURE END LIST*
D10*
%TO.N,GND*%
%TO.C,U2*%
X152677000Y-86005000D03*
X151302000Y-86005000D03*
X149927000Y-86005000D03*
X152677000Y-87380000D03*
X151302000Y-87380000D03*
X149927000Y-87380000D03*
X152677000Y-88755000D03*
X151302000Y-88755000D03*
X149927000Y-88755000D03*
%TD*%
D11*
%TO.N,+3V3*%
%TO.C,J1*%
X158380000Y-121300000D03*
D12*
%TO.N,GND*%
X155840000Y-121300000D03*
%TO.N,/OLED_SCK*%
X153300000Y-121300000D03*
%TO.N,/OLED_MOSI*%
X150760000Y-121300000D03*
%TO.N,/OLED_D{slash}C*%
X148220000Y-121300000D03*
%TO.N,/OLED_CS*%
X145680000Y-121300000D03*
%TD*%
D13*
%TO.N,+3V3*%
X140250000Y-105250000D03*
X145500000Y-91100000D03*
X150100000Y-76025000D03*
X154600000Y-92850000D03*
X150850000Y-76025000D03*
X148850000Y-84900000D03*
X153750000Y-89800000D03*
X151600000Y-76025000D03*
X151150000Y-92900000D03*
X158380000Y-118820000D03*
X149350000Y-76025000D03*
X165670000Y-87880000D03*
X152500000Y-103350000D03*
X154200000Y-81350000D03*
X153600000Y-92850000D03*
X160050000Y-91750000D03*
%TO.N,GND*%
X155370000Y-91780000D03*
X148300000Y-62650000D03*
X160300000Y-86400000D03*
X161300000Y-103300000D03*
X143650000Y-90200000D03*
X166250000Y-99150000D03*
X137200000Y-89450000D03*
X149625000Y-79725000D03*
X135550000Y-115000000D03*
X135050000Y-101800000D03*
X154650000Y-73800000D03*
X142800000Y-84500000D03*
X154600000Y-95400000D03*
X152302000Y-95425000D03*
X156150000Y-90600000D03*
X152550000Y-107700000D03*
X143650000Y-87700000D03*
X165322000Y-95000000D03*
X135950000Y-98100000D03*
X146850000Y-107350000D03*
X139100000Y-103050000D03*
X155900000Y-118800000D03*
X149850000Y-101600000D03*
X147400000Y-62650000D03*
X153400000Y-64760000D03*
X150500000Y-68400000D03*
X153321000Y-71571000D03*
X159775981Y-87400000D03*
X138752930Y-84673577D03*
X153602000Y-95395000D03*
X160975000Y-78600000D03*
X167462000Y-88750000D03*
X144350000Y-85550000D03*
X163690532Y-93279209D03*
X156900000Y-90600000D03*
X146500000Y-62650000D03*
X151150000Y-95450000D03*
X152525000Y-79825000D03*
X149200000Y-62650000D03*
X143150000Y-116900000D03*
X155950000Y-82350000D03*
%TO.N,/RUN*%
X161500000Y-97600000D03*
X146650000Y-89600000D03*
%TO.N,+1V1*%
X153452000Y-88550000D03*
X152050000Y-85230000D03*
X157200000Y-88150000D03*
X151850000Y-89530000D03*
X149150000Y-87400000D03*
X146200000Y-87700000D03*
X156600000Y-88150000D03*
X152100000Y-82315000D03*
X152300000Y-92800000D03*
%TO.N,/Left Button*%
X148601409Y-81298591D03*
%TO.N,/Right Button*%
X147200000Y-80675000D03*
%TO.N,/SWCLK*%
X145200000Y-88750000D03*
%TO.N,/SWD*%
X145875000Y-89300000D03*
%TO.N,/SD_CS*%
X139500000Y-107400000D03*
%TO.N,/SD_SCK*%
X140450000Y-103450000D03*
X145100000Y-101650000D03*
%TO.N,/SD_MOSI*%
X146100000Y-101900000D03*
X141175000Y-104225000D03*
%TO.N,/SD_DETECT*%
X149750000Y-103050000D03*
%TD*%
%TA.AperFunction,Conductor*%
%TO.N,GND*%
G36*
X162061066Y-53846493D02*
G01*
X162066730Y-53848096D01*
X162108160Y-53846499D01*
X162110552Y-53846500D01*
X162122768Y-53847105D01*
X162199127Y-53854685D01*
X162232141Y-53862638D01*
X162295544Y-53887509D01*
X162325171Y-53904132D01*
X162379435Y-53945272D01*
X162403437Y-53969309D01*
X162403444Y-53969316D01*
X162444503Y-54023640D01*
X162461083Y-54053297D01*
X162485854Y-54116722D01*
X162493763Y-54149768D01*
X162501227Y-54226116D01*
X162501716Y-54243136D01*
X162500154Y-54282167D01*
X162500968Y-54289077D01*
X162501818Y-54303568D01*
X162501818Y-60999074D01*
X162501803Y-60999121D01*
X162501818Y-61045659D01*
X162501818Y-61094124D01*
X162501832Y-61094345D01*
X162501854Y-61166649D01*
X162501855Y-61166658D01*
X162537682Y-61403851D01*
X162542350Y-61418967D01*
X162608460Y-61633052D01*
X162608461Y-61633053D01*
X162608463Y-61633059D01*
X162712609Y-61849148D01*
X162847802Y-62047305D01*
X162847812Y-62047319D01*
X163011012Y-62223094D01*
X163011028Y-62223108D01*
X163198611Y-62372604D01*
X163198613Y-62372605D01*
X163198618Y-62372609D01*
X163406401Y-62492484D01*
X163629730Y-62580052D01*
X163863617Y-62633356D01*
X164102835Y-62651206D01*
X164102836Y-62651205D01*
X164102838Y-62651206D01*
X164102844Y-62651206D01*
X164318121Y-62635002D01*
X164342042Y-62633202D01*
X164575894Y-62579747D01*
X164799167Y-62492035D01*
X165006873Y-62372026D01*
X165194373Y-62222400D01*
X165357477Y-62046499D01*
X165492543Y-61848253D01*
X165596553Y-61632091D01*
X165657647Y-61433794D01*
X165696196Y-61375525D01*
X165760131Y-61347346D01*
X165776147Y-61346307D01*
X168277496Y-61346471D01*
X168344532Y-61366160D01*
X168390284Y-61418967D01*
X168401486Y-61470475D01*
X168400629Y-88331082D01*
X168399539Y-122507547D01*
X168399514Y-123275504D01*
X168379827Y-123342543D01*
X168327022Y-123388296D01*
X168275514Y-123399500D01*
X133023837Y-123399500D01*
X132956798Y-123379815D01*
X132911043Y-123327011D01*
X132899837Y-123275694D01*
X132898859Y-122650498D01*
X132896580Y-121193713D01*
X144329500Y-121193713D01*
X144329500Y-121406286D01*
X144362753Y-121616239D01*
X144428444Y-121818414D01*
X144524951Y-122007820D01*
X144649890Y-122179786D01*
X144800213Y-122330109D01*
X144972179Y-122455048D01*
X144972181Y-122455049D01*
X144972184Y-122455051D01*
X145161588Y-122551557D01*
X145363757Y-122617246D01*
X145573713Y-122650500D01*
X145573714Y-122650500D01*
X145786286Y-122650500D01*
X145786287Y-122650500D01*
X145996243Y-122617246D01*
X146198412Y-122551557D01*
X146387816Y-122455051D01*
X146474138Y-122392335D01*
X146559786Y-122330109D01*
X146559788Y-122330106D01*
X146559792Y-122330104D01*
X146710104Y-122179792D01*
X146710106Y-122179788D01*
X146710109Y-122179786D01*
X146835048Y-122007820D01*
X146835047Y-122007820D01*
X146835051Y-122007816D01*
X146839514Y-121999054D01*
X146887488Y-121948259D01*
X146955308Y-121931463D01*
X147021444Y-121953999D01*
X147060486Y-121999056D01*
X147064951Y-122007820D01*
X147189890Y-122179786D01*
X147340213Y-122330109D01*
X147512179Y-122455048D01*
X147512181Y-122455049D01*
X147512184Y-122455051D01*
X147701588Y-122551557D01*
X147903757Y-122617246D01*
X148113713Y-122650500D01*
X148113714Y-122650500D01*
X148326286Y-122650500D01*
X148326287Y-122650500D01*
X148536243Y-122617246D01*
X148738412Y-122551557D01*
X148927816Y-122455051D01*
X149014138Y-122392335D01*
X149099786Y-122330109D01*
X149099788Y-122330106D01*
X149099792Y-122330104D01*
X149250104Y-122179792D01*
X149250106Y-122179788D01*
X149250109Y-122179786D01*
X149375048Y-122007820D01*
X149375047Y-122007820D01*
X149375051Y-122007816D01*
X149379514Y-121999054D01*
X149427488Y-121948259D01*
X149495308Y-121931463D01*
X149561444Y-121953999D01*
X149600486Y-121999056D01*
X149604951Y-122007820D01*
X149729890Y-122179786D01*
X149880213Y-122330109D01*
X150052179Y-122455048D01*
X150052181Y-122455049D01*
X150052184Y-122455051D01*
X150241588Y-122551557D01*
X150443757Y-122617246D01*
X150653713Y-122650500D01*
X150653714Y-122650500D01*
X150866286Y-122650500D01*
X150866287Y-122650500D01*
X151076243Y-122617246D01*
X151278412Y-122551557D01*
X151467816Y-122455051D01*
X151554138Y-122392335D01*
X151639786Y-122330109D01*
X151639788Y-122330106D01*
X151639792Y-122330104D01*
X151790104Y-122179792D01*
X151790106Y-122179788D01*
X151790109Y-122179786D01*
X151915048Y-122007820D01*
X151915047Y-122007820D01*
X151915051Y-122007816D01*
X151919514Y-121999054D01*
X151967488Y-121948259D01*
X152035308Y-121931463D01*
X152101444Y-121953999D01*
X152140486Y-121999056D01*
X152144951Y-122007820D01*
X152269890Y-122179786D01*
X152420213Y-122330109D01*
X152592179Y-122455048D01*
X152592181Y-122455049D01*
X152592184Y-122455051D01*
X152781588Y-122551557D01*
X152983757Y-122617246D01*
X153193713Y-122650500D01*
X153193714Y-122650500D01*
X153406286Y-122650500D01*
X153406287Y-122650500D01*
X153616243Y-122617246D01*
X153818412Y-122551557D01*
X154007816Y-122455051D01*
X154094138Y-122392335D01*
X154179786Y-122330109D01*
X154179788Y-122330106D01*
X154179792Y-122330104D01*
X154330104Y-122179792D01*
X154330106Y-122179788D01*
X154330109Y-122179786D01*
X154397515Y-122087007D01*
X154455051Y-122007816D01*
X154459793Y-121998508D01*
X154507763Y-121947711D01*
X154575583Y-121930911D01*
X154641719Y-121953445D01*
X154680763Y-121998500D01*
X154685373Y-122007547D01*
X154724728Y-122061716D01*
X155357037Y-121429408D01*
X155374075Y-121492993D01*
X155439901Y-121607007D01*
X155532993Y-121700099D01*
X155647007Y-121765925D01*
X155710590Y-121782962D01*
X155078282Y-122415269D01*
X155078282Y-122415270D01*
X155132449Y-122454624D01*
X155321782Y-122551095D01*
X155523870Y-122616757D01*
X155733754Y-122650000D01*
X155946246Y-122650000D01*
X156156127Y-122616757D01*
X156156130Y-122616757D01*
X156358217Y-122551095D01*
X156547554Y-122454622D01*
X156601716Y-122415270D01*
X156601717Y-122415270D01*
X155969408Y-121782962D01*
X156032993Y-121765925D01*
X156147007Y-121700099D01*
X156240099Y-121607007D01*
X156305925Y-121492993D01*
X156322962Y-121429409D01*
X156993181Y-122099628D01*
X157026666Y-122160951D01*
X157029500Y-122187300D01*
X157029500Y-122197865D01*
X157029501Y-122197876D01*
X157035908Y-122257483D01*
X157086202Y-122392328D01*
X157086206Y-122392335D01*
X157172452Y-122507544D01*
X157172455Y-122507547D01*
X157287664Y-122593793D01*
X157287671Y-122593797D01*
X157422517Y-122644091D01*
X157422516Y-122644091D01*
X157429444Y-122644835D01*
X157482127Y-122650500D01*
X159277872Y-122650499D01*
X159337483Y-122644091D01*
X159472331Y-122593796D01*
X159587546Y-122507546D01*
X159673796Y-122392331D01*
X159724091Y-122257483D01*
X159730500Y-122197873D01*
X159730499Y-120402128D01*
X159724091Y-120342517D01*
X159673796Y-120207669D01*
X159673795Y-120207668D01*
X159673793Y-120207664D01*
X159587547Y-120092455D01*
X159587544Y-120092452D01*
X159472335Y-120006206D01*
X159472328Y-120006202D01*
X159337482Y-119955908D01*
X159337483Y-119955908D01*
X159277883Y-119949501D01*
X159277881Y-119949500D01*
X159277873Y-119949500D01*
X159277864Y-119949500D01*
X157482129Y-119949500D01*
X157482123Y-119949501D01*
X157422516Y-119955908D01*
X157287671Y-120006202D01*
X157287664Y-120006206D01*
X157172455Y-120092452D01*
X157172452Y-120092455D01*
X157086206Y-120207664D01*
X157086202Y-120207671D01*
X157035908Y-120342517D01*
X157029501Y-120402116D01*
X157029501Y-120402123D01*
X157029500Y-120402135D01*
X157029500Y-120412690D01*
X157009815Y-120479729D01*
X156993181Y-120500371D01*
X156322962Y-121170590D01*
X156305925Y-121107007D01*
X156240099Y-120992993D01*
X156147007Y-120899901D01*
X156032993Y-120834075D01*
X155969409Y-120817037D01*
X156601716Y-120184728D01*
X156547550Y-120145375D01*
X156358217Y-120048904D01*
X156156129Y-119983242D01*
X155946246Y-119950000D01*
X155733754Y-119950000D01*
X155523872Y-119983242D01*
X155523869Y-119983242D01*
X155321782Y-120048904D01*
X155132439Y-120145380D01*
X155078282Y-120184727D01*
X155078282Y-120184728D01*
X155710591Y-120817037D01*
X155647007Y-120834075D01*
X155532993Y-120899901D01*
X155439901Y-120992993D01*
X155374075Y-121107007D01*
X155357037Y-121170591D01*
X154724728Y-120538282D01*
X154724727Y-120538282D01*
X154685380Y-120592440D01*
X154685376Y-120592446D01*
X154680760Y-120601505D01*
X154632781Y-120652297D01*
X154564959Y-120669087D01*
X154498826Y-120646543D01*
X154459794Y-120601493D01*
X154455051Y-120592184D01*
X154455049Y-120592181D01*
X154455048Y-120592179D01*
X154330109Y-120420213D01*
X154179786Y-120269890D01*
X154007820Y-120144951D01*
X153818414Y-120048444D01*
X153818413Y-120048443D01*
X153818412Y-120048443D01*
X153616243Y-119982754D01*
X153616241Y-119982753D01*
X153616240Y-119982753D01*
X153454957Y-119957208D01*
X153406287Y-119949500D01*
X153193713Y-119949500D01*
X153145042Y-119957208D01*
X152983760Y-119982753D01*
X152781585Y-120048444D01*
X152592179Y-120144951D01*
X152420213Y-120269890D01*
X152269890Y-120420213D01*
X152144949Y-120592182D01*
X152140484Y-120600946D01*
X152092509Y-120651742D01*
X152024688Y-120668536D01*
X151958553Y-120645998D01*
X151919516Y-120600946D01*
X151915050Y-120592182D01*
X151790109Y-120420213D01*
X151639786Y-120269890D01*
X151467820Y-120144951D01*
X151278414Y-120048444D01*
X151278413Y-120048443D01*
X151278412Y-120048443D01*
X151076243Y-119982754D01*
X151076241Y-119982753D01*
X151076240Y-119982753D01*
X150914957Y-119957208D01*
X150866287Y-119949500D01*
X150653713Y-119949500D01*
X150605042Y-119957208D01*
X150443760Y-119982753D01*
X150241585Y-120048444D01*
X150052179Y-120144951D01*
X149880213Y-120269890D01*
X149729890Y-120420213D01*
X149604949Y-120592182D01*
X149600484Y-120600946D01*
X149552509Y-120651742D01*
X149484688Y-120668536D01*
X149418553Y-120645998D01*
X149379516Y-120600946D01*
X149375050Y-120592182D01*
X149250109Y-120420213D01*
X149099786Y-120269890D01*
X148927820Y-120144951D01*
X148738414Y-120048444D01*
X148738413Y-120048443D01*
X148738412Y-120048443D01*
X148536243Y-119982754D01*
X148536241Y-119982753D01*
X148536240Y-119982753D01*
X148374957Y-119957208D01*
X148326287Y-119949500D01*
X148113713Y-119949500D01*
X148065042Y-119957208D01*
X147903760Y-119982753D01*
X147701585Y-120048444D01*
X147512179Y-120144951D01*
X147340213Y-120269890D01*
X147189890Y-120420213D01*
X147064949Y-120592182D01*
X147060484Y-120600946D01*
X147012509Y-120651742D01*
X146944688Y-120668536D01*
X146878553Y-120645998D01*
X146839516Y-120600946D01*
X146835050Y-120592182D01*
X146710109Y-120420213D01*
X146559786Y-120269890D01*
X146387820Y-120144951D01*
X146198414Y-120048444D01*
X146198413Y-120048443D01*
X146198412Y-120048443D01*
X145996243Y-119982754D01*
X145996241Y-119982753D01*
X145996240Y-119982753D01*
X145834957Y-119957208D01*
X145786287Y-119949500D01*
X145573713Y-119949500D01*
X145525042Y-119957208D01*
X145363760Y-119982753D01*
X145161585Y-120048444D01*
X144972179Y-120144951D01*
X144800213Y-120269890D01*
X144649890Y-120420213D01*
X144524951Y-120592179D01*
X144428444Y-120781585D01*
X144362753Y-120983760D01*
X144329500Y-121193713D01*
X132896580Y-121193713D01*
X132892983Y-118893920D01*
X157629499Y-118893920D01*
X157658340Y-119038907D01*
X157658343Y-119038917D01*
X157714912Y-119175488D01*
X157714919Y-119175501D01*
X157797048Y-119298415D01*
X157797051Y-119298419D01*
X157901580Y-119402948D01*
X157901584Y-119402951D01*
X158024498Y-119485080D01*
X158024511Y-119485087D01*
X158161082Y-119541656D01*
X158161087Y-119541658D01*
X158161091Y-119541658D01*
X158161092Y-119541659D01*
X158306079Y-119570500D01*
X158306082Y-119570500D01*
X158453920Y-119570500D01*
X158551462Y-119551096D01*
X158598913Y-119541658D01*
X158735495Y-119485084D01*
X158858416Y-119402951D01*
X158962951Y-119298416D01*
X159045084Y-119175495D01*
X159101658Y-119038913D01*
X159130500Y-118893918D01*
X159130500Y-118746082D01*
X159130500Y-118746079D01*
X159101659Y-118601092D01*
X159101658Y-118601091D01*
X159101658Y-118601087D01*
X159101656Y-118601082D01*
X159045087Y-118464511D01*
X159045080Y-118464498D01*
X158962951Y-118341584D01*
X158962948Y-118341580D01*
X158858419Y-118237051D01*
X158858415Y-118237048D01*
X158735501Y-118154919D01*
X158735488Y-118154912D01*
X158598917Y-118098343D01*
X158598907Y-118098340D01*
X158453920Y-118069500D01*
X158453918Y-118069500D01*
X158306082Y-118069500D01*
X158306080Y-118069500D01*
X158161092Y-118098340D01*
X158161082Y-118098343D01*
X158024511Y-118154912D01*
X158024498Y-118154919D01*
X157901584Y-118237048D01*
X157901580Y-118237051D01*
X157797051Y-118341580D01*
X157797048Y-118341584D01*
X157714919Y-118464498D01*
X157714912Y-118464511D01*
X157658343Y-118601082D01*
X157658340Y-118601092D01*
X157629500Y-118746079D01*
X157629500Y-118746082D01*
X157629500Y-118893918D01*
X157629500Y-118893920D01*
X157629499Y-118893920D01*
X132892983Y-118893920D01*
X132875121Y-107473920D01*
X138749499Y-107473920D01*
X138778340Y-107618907D01*
X138778343Y-107618917D01*
X138834912Y-107755488D01*
X138834919Y-107755501D01*
X138917048Y-107878415D01*
X138917051Y-107878419D01*
X139021580Y-107982948D01*
X139021584Y-107982951D01*
X139144498Y-108065080D01*
X139144511Y-108065087D01*
X139281082Y-108121656D01*
X139281087Y-108121658D01*
X139281091Y-108121658D01*
X139281092Y-108121659D01*
X139426079Y-108150500D01*
X139426082Y-108150500D01*
X139573920Y-108150500D01*
X139671462Y-108131096D01*
X139718913Y-108121658D01*
X139855495Y-108065084D01*
X139978416Y-107982951D01*
X140082951Y-107878416D01*
X140165084Y-107755495D01*
X140221658Y-107618913D01*
X140250500Y-107473918D01*
X140250500Y-107326082D01*
X140250500Y-107326079D01*
X140221659Y-107181092D01*
X140221658Y-107181091D01*
X140221658Y-107181087D01*
X140221656Y-107181082D01*
X140165087Y-107044511D01*
X140165080Y-107044498D01*
X140082951Y-106921584D01*
X140082948Y-106921580D01*
X139978419Y-106817051D01*
X139978415Y-106817048D01*
X139855501Y-106734919D01*
X139855488Y-106734912D01*
X139718917Y-106678343D01*
X139718907Y-106678340D01*
X139573920Y-106649500D01*
X139573918Y-106649500D01*
X139426082Y-106649500D01*
X139426080Y-106649500D01*
X139281092Y-106678340D01*
X139281082Y-106678343D01*
X139144511Y-106734912D01*
X139144498Y-106734919D01*
X139021584Y-106817048D01*
X139021580Y-106817051D01*
X138917051Y-106921580D01*
X138917048Y-106921584D01*
X138834919Y-107044498D01*
X138834912Y-107044511D01*
X138778343Y-107181082D01*
X138778340Y-107181092D01*
X138749500Y-107326079D01*
X138749500Y-107326082D01*
X138749500Y-107473918D01*
X138749500Y-107473920D01*
X138749499Y-107473920D01*
X132875121Y-107473920D01*
X132871758Y-105323920D01*
X139499499Y-105323920D01*
X139528340Y-105468907D01*
X139528343Y-105468917D01*
X139584912Y-105605488D01*
X139584919Y-105605501D01*
X139667048Y-105728415D01*
X139667051Y-105728419D01*
X139771580Y-105832948D01*
X139771584Y-105832951D01*
X139894498Y-105915080D01*
X139894511Y-105915087D01*
X140031082Y-105971656D01*
X140031087Y-105971658D01*
X140031091Y-105971658D01*
X140031092Y-105971659D01*
X140176079Y-106000500D01*
X140176082Y-106000500D01*
X140323920Y-106000500D01*
X140421462Y-105981096D01*
X140468913Y-105971658D01*
X140605495Y-105915084D01*
X140728416Y-105832951D01*
X140832951Y-105728416D01*
X140915084Y-105605495D01*
X140971658Y-105468913D01*
X141000500Y-105323918D01*
X141000500Y-105176082D01*
X141000500Y-105176079D01*
X140990079Y-105123692D01*
X140996306Y-105054101D01*
X141039168Y-104998923D01*
X141105058Y-104975678D01*
X141111696Y-104975500D01*
X141248920Y-104975500D01*
X141346462Y-104956096D01*
X141393913Y-104946658D01*
X141530495Y-104890084D01*
X141653416Y-104807951D01*
X141757951Y-104703416D01*
X141840084Y-104580495D01*
X141896658Y-104443913D01*
X141925500Y-104298918D01*
X141925500Y-104151082D01*
X141925500Y-104151079D01*
X141896659Y-104006092D01*
X141896658Y-104006091D01*
X141896658Y-104006087D01*
X141864486Y-103928416D01*
X141840087Y-103869511D01*
X141840080Y-103869498D01*
X141757951Y-103746584D01*
X141757948Y-103746580D01*
X141653419Y-103642051D01*
X141653415Y-103642048D01*
X141530501Y-103559919D01*
X141530488Y-103559912D01*
X141393917Y-103503343D01*
X141393907Y-103503340D01*
X141299616Y-103484584D01*
X141237705Y-103452199D01*
X141203131Y-103391483D01*
X141200903Y-103378107D01*
X141171659Y-103231092D01*
X141171658Y-103231091D01*
X141171658Y-103231087D01*
X141127268Y-103123920D01*
X148999499Y-103123920D01*
X149028340Y-103268907D01*
X149028343Y-103268917D01*
X149084912Y-103405488D01*
X149084919Y-103405501D01*
X149167048Y-103528415D01*
X149167051Y-103528419D01*
X149271580Y-103632948D01*
X149271584Y-103632951D01*
X149394498Y-103715080D01*
X149394511Y-103715087D01*
X149531082Y-103771656D01*
X149531087Y-103771658D01*
X149531091Y-103771658D01*
X149531092Y-103771659D01*
X149676079Y-103800500D01*
X149676082Y-103800500D01*
X149823920Y-103800500D01*
X149921462Y-103781096D01*
X149968913Y-103771658D01*
X150105495Y-103715084D01*
X150228416Y-103632951D01*
X150332951Y-103528416D01*
X150402773Y-103423920D01*
X151749499Y-103423920D01*
X151778340Y-103568907D01*
X151778343Y-103568917D01*
X151834912Y-103705488D01*
X151834919Y-103705501D01*
X151917048Y-103828415D01*
X151917051Y-103828419D01*
X152021580Y-103932948D01*
X152021584Y-103932951D01*
X152144498Y-104015080D01*
X152144511Y-104015087D01*
X152281082Y-104071656D01*
X152281087Y-104071658D01*
X152281091Y-104071658D01*
X152281092Y-104071659D01*
X152426079Y-104100500D01*
X152426082Y-104100500D01*
X152573920Y-104100500D01*
X152671462Y-104081096D01*
X152718913Y-104071658D01*
X152855495Y-104015084D01*
X152978416Y-103932951D01*
X153082951Y-103828416D01*
X153165084Y-103705495D01*
X153221658Y-103568913D01*
X153234702Y-103503340D01*
X153250500Y-103423920D01*
X153250500Y-103276079D01*
X153221659Y-103131092D01*
X153221658Y-103131091D01*
X153221658Y-103131087D01*
X153206505Y-103094505D01*
X153165087Y-102994511D01*
X153165080Y-102994498D01*
X153082951Y-102871584D01*
X153082948Y-102871580D01*
X152978419Y-102767051D01*
X152978415Y-102767048D01*
X152855501Y-102684919D01*
X152855488Y-102684912D01*
X152718917Y-102628343D01*
X152718907Y-102628340D01*
X152573920Y-102599500D01*
X152573918Y-102599500D01*
X152426082Y-102599500D01*
X152426080Y-102599500D01*
X152281092Y-102628340D01*
X152281082Y-102628343D01*
X152144511Y-102684912D01*
X152144498Y-102684919D01*
X152021584Y-102767048D01*
X152021580Y-102767051D01*
X151917051Y-102871580D01*
X151917048Y-102871584D01*
X151834919Y-102994498D01*
X151834912Y-102994511D01*
X151778343Y-103131082D01*
X151778340Y-103131092D01*
X151749500Y-103276079D01*
X151749500Y-103276082D01*
X151749500Y-103423918D01*
X151749500Y-103423920D01*
X151749499Y-103423920D01*
X150402773Y-103423920D01*
X150415084Y-103405495D01*
X150471658Y-103268913D01*
X150500500Y-103123918D01*
X150500500Y-102976082D01*
X150500500Y-102976079D01*
X150471659Y-102831092D01*
X150471658Y-102831091D01*
X150471658Y-102831087D01*
X150452535Y-102784919D01*
X150415087Y-102694511D01*
X150415080Y-102694498D01*
X150332951Y-102571584D01*
X150332948Y-102571580D01*
X150228419Y-102467051D01*
X150228415Y-102467048D01*
X150105501Y-102384919D01*
X150105488Y-102384912D01*
X149968917Y-102328343D01*
X149968907Y-102328340D01*
X149823920Y-102299500D01*
X149823918Y-102299500D01*
X149676082Y-102299500D01*
X149676080Y-102299500D01*
X149531092Y-102328340D01*
X149531082Y-102328343D01*
X149394511Y-102384912D01*
X149394498Y-102384919D01*
X149271584Y-102467048D01*
X149271580Y-102467051D01*
X149167051Y-102571580D01*
X149167048Y-102571584D01*
X149084919Y-102694498D01*
X149084912Y-102694511D01*
X149028343Y-102831082D01*
X149028340Y-102831092D01*
X148999500Y-102976079D01*
X148999500Y-102976082D01*
X148999500Y-103123918D01*
X148999500Y-103123920D01*
X148999499Y-103123920D01*
X141127268Y-103123920D01*
X141115087Y-103094511D01*
X141115080Y-103094498D01*
X141077918Y-103038881D01*
X141032951Y-102971584D01*
X141032948Y-102971580D01*
X140928419Y-102867051D01*
X140928415Y-102867048D01*
X140805501Y-102784919D01*
X140805488Y-102784912D01*
X140668917Y-102728343D01*
X140668907Y-102728340D01*
X140523920Y-102699500D01*
X140523918Y-102699500D01*
X140376082Y-102699500D01*
X140376080Y-102699500D01*
X140231092Y-102728340D01*
X140231082Y-102728343D01*
X140094511Y-102784912D01*
X140094498Y-102784919D01*
X139971584Y-102867048D01*
X139971580Y-102867051D01*
X139867051Y-102971580D01*
X139867048Y-102971584D01*
X139784919Y-103094498D01*
X139784912Y-103094511D01*
X139728343Y-103231082D01*
X139728340Y-103231092D01*
X139699500Y-103376079D01*
X139699500Y-103376082D01*
X139699500Y-103523918D01*
X139699500Y-103523920D01*
X139699499Y-103523920D01*
X139728340Y-103668907D01*
X139728343Y-103668917D01*
X139784912Y-103805488D01*
X139784919Y-103805501D01*
X139867048Y-103928415D01*
X139867051Y-103928419D01*
X139971580Y-104032948D01*
X139971584Y-104032951D01*
X140094498Y-104115080D01*
X140094511Y-104115087D01*
X140231082Y-104171656D01*
X140231087Y-104171658D01*
X140305893Y-104186538D01*
X140325382Y-104190415D01*
X140343510Y-104199897D01*
X140363386Y-104204758D01*
X140373842Y-104215764D01*
X140387293Y-104222800D01*
X140397416Y-104240577D01*
X140411510Y-104255412D01*
X140417548Y-104275931D01*
X140421867Y-104283515D01*
X140422993Y-104288786D01*
X140424500Y-104296682D01*
X140424500Y-104298918D01*
X140435024Y-104351826D01*
X140435106Y-104352254D01*
X140431760Y-104386630D01*
X140428694Y-104420899D01*
X140428386Y-104421294D01*
X140428338Y-104421795D01*
X140406951Y-104448889D01*
X140385832Y-104476077D01*
X140385359Y-104476243D01*
X140385048Y-104476638D01*
X140352432Y-104487859D01*
X140319942Y-104499322D01*
X140319048Y-104499345D01*
X140318979Y-104499370D01*
X140318897Y-104499350D01*
X140313304Y-104499500D01*
X140176080Y-104499500D01*
X140031092Y-104528340D01*
X140031082Y-104528343D01*
X139894511Y-104584912D01*
X139894498Y-104584919D01*
X139771584Y-104667048D01*
X139771580Y-104667051D01*
X139667051Y-104771580D01*
X139667048Y-104771584D01*
X139584919Y-104894498D01*
X139584912Y-104894511D01*
X139528343Y-105031082D01*
X139528340Y-105031092D01*
X139499500Y-105176079D01*
X139499500Y-105176082D01*
X139499500Y-105323918D01*
X139499500Y-105323920D01*
X139499499Y-105323920D01*
X132871758Y-105323920D01*
X132866127Y-101723920D01*
X144349499Y-101723920D01*
X144378340Y-101868907D01*
X144378343Y-101868917D01*
X144434912Y-102005488D01*
X144434919Y-102005501D01*
X144517048Y-102128415D01*
X144517051Y-102128419D01*
X144621580Y-102232948D01*
X144621584Y-102232951D01*
X144744498Y-102315080D01*
X144744511Y-102315087D01*
X144822310Y-102347312D01*
X144881087Y-102371658D01*
X144881091Y-102371658D01*
X144881092Y-102371659D01*
X145026079Y-102400500D01*
X145026082Y-102400500D01*
X145173920Y-102400500D01*
X145284944Y-102378415D01*
X145318913Y-102371658D01*
X145377690Y-102347311D01*
X145447157Y-102339842D01*
X145509637Y-102371116D01*
X145512823Y-102374191D01*
X145621580Y-102482948D01*
X145621584Y-102482951D01*
X145744498Y-102565080D01*
X145744511Y-102565087D01*
X145881082Y-102621656D01*
X145881087Y-102621658D01*
X145881091Y-102621658D01*
X145881092Y-102621659D01*
X146026079Y-102650500D01*
X146026082Y-102650500D01*
X146173920Y-102650500D01*
X146285321Y-102628340D01*
X146318913Y-102621658D01*
X146455495Y-102565084D01*
X146578416Y-102482951D01*
X146682951Y-102378416D01*
X146765084Y-102255495D01*
X146821658Y-102118913D01*
X146850500Y-101973918D01*
X146850500Y-101826082D01*
X146850500Y-101826079D01*
X146821659Y-101681092D01*
X146821658Y-101681091D01*
X146821658Y-101681087D01*
X146778164Y-101576082D01*
X146765087Y-101544511D01*
X146765080Y-101544498D01*
X146682951Y-101421584D01*
X146682948Y-101421580D01*
X146578419Y-101317051D01*
X146578415Y-101317048D01*
X146455501Y-101234919D01*
X146455488Y-101234912D01*
X146318917Y-101178343D01*
X146318907Y-101178340D01*
X146173920Y-101149500D01*
X146173918Y-101149500D01*
X146026082Y-101149500D01*
X146026080Y-101149500D01*
X145881092Y-101178340D01*
X145881082Y-101178343D01*
X145822309Y-101202688D01*
X145752840Y-101210157D01*
X145690361Y-101178881D01*
X145687176Y-101175808D01*
X145578419Y-101067051D01*
X145578415Y-101067048D01*
X145455501Y-100984919D01*
X145455488Y-100984912D01*
X145318917Y-100928343D01*
X145318907Y-100928340D01*
X145173920Y-100899500D01*
X145173918Y-100899500D01*
X145026082Y-100899500D01*
X145026080Y-100899500D01*
X144881092Y-100928340D01*
X144881082Y-100928343D01*
X144744511Y-100984912D01*
X144744498Y-100984919D01*
X144621584Y-101067048D01*
X144621580Y-101067051D01*
X144517051Y-101171580D01*
X144517048Y-101171584D01*
X144434919Y-101294498D01*
X144434912Y-101294511D01*
X144378343Y-101431082D01*
X144378340Y-101431092D01*
X144349500Y-101576079D01*
X144349500Y-101576082D01*
X144349500Y-101723918D01*
X144349500Y-101723920D01*
X144349499Y-101723920D01*
X132866127Y-101723920D01*
X132859792Y-97673920D01*
X160749499Y-97673920D01*
X160778340Y-97818907D01*
X160778343Y-97818917D01*
X160834912Y-97955488D01*
X160834919Y-97955501D01*
X160917048Y-98078415D01*
X160917051Y-98078419D01*
X161021580Y-98182948D01*
X161021584Y-98182951D01*
X161144498Y-98265080D01*
X161144511Y-98265087D01*
X161281082Y-98321656D01*
X161281087Y-98321658D01*
X161281091Y-98321658D01*
X161281092Y-98321659D01*
X161426079Y-98350500D01*
X161426082Y-98350500D01*
X161573920Y-98350500D01*
X161671462Y-98331096D01*
X161718913Y-98321658D01*
X161855495Y-98265084D01*
X161978416Y-98182951D01*
X162082951Y-98078416D01*
X162165084Y-97955495D01*
X162221658Y-97818913D01*
X162250500Y-97673918D01*
X162250500Y-97526082D01*
X162250500Y-97526079D01*
X162221659Y-97381092D01*
X162221658Y-97381091D01*
X162221658Y-97381087D01*
X162221656Y-97381082D01*
X162165087Y-97244511D01*
X162165080Y-97244498D01*
X162082951Y-97121584D01*
X162082948Y-97121580D01*
X161978419Y-97017051D01*
X161978415Y-97017048D01*
X161855501Y-96934919D01*
X161855488Y-96934912D01*
X161718917Y-96878343D01*
X161718907Y-96878340D01*
X161573920Y-96849500D01*
X161573918Y-96849500D01*
X161426082Y-96849500D01*
X161426080Y-96849500D01*
X161281092Y-96878340D01*
X161281082Y-96878343D01*
X161144511Y-96934912D01*
X161144498Y-96934919D01*
X161021584Y-97017048D01*
X161021580Y-97017051D01*
X160917051Y-97121580D01*
X160917048Y-97121584D01*
X160834919Y-97244498D01*
X160834912Y-97244511D01*
X160778343Y-97381082D01*
X160778340Y-97381092D01*
X160749500Y-97526079D01*
X160749500Y-97526082D01*
X160749500Y-97673918D01*
X160749500Y-97673920D01*
X160749499Y-97673920D01*
X132859792Y-97673920D01*
X132853499Y-93650500D01*
X132852441Y-92973920D01*
X150399499Y-92973920D01*
X150428340Y-93118907D01*
X150428343Y-93118917D01*
X150484912Y-93255488D01*
X150484919Y-93255501D01*
X150567048Y-93378415D01*
X150567051Y-93378419D01*
X150671580Y-93482948D01*
X150671584Y-93482951D01*
X150794498Y-93565080D01*
X150794511Y-93565087D01*
X150931082Y-93621656D01*
X150931087Y-93621658D01*
X150931091Y-93621658D01*
X150931092Y-93621659D01*
X151076079Y-93650500D01*
X151076082Y-93650500D01*
X151223920Y-93650500D01*
X151321462Y-93631096D01*
X151368913Y-93621658D01*
X151505495Y-93565084D01*
X151628416Y-93482951D01*
X151693776Y-93417590D01*
X151755096Y-93384106D01*
X151824788Y-93389090D01*
X151850347Y-93402170D01*
X151944498Y-93465080D01*
X151944511Y-93465087D01*
X152065216Y-93515084D01*
X152081087Y-93521658D01*
X152081091Y-93521658D01*
X152081092Y-93521659D01*
X152226079Y-93550500D01*
X152226082Y-93550500D01*
X152373920Y-93550500D01*
X152471462Y-93531096D01*
X152518913Y-93521658D01*
X152655495Y-93465084D01*
X152778416Y-93382951D01*
X152837326Y-93324040D01*
X152898645Y-93290557D01*
X152968337Y-93295541D01*
X153010905Y-93325944D01*
X153012741Y-93324109D01*
X153121580Y-93432948D01*
X153121584Y-93432951D01*
X153244498Y-93515080D01*
X153244511Y-93515087D01*
X153365206Y-93565080D01*
X153381087Y-93571658D01*
X153381091Y-93571658D01*
X153381092Y-93571659D01*
X153526079Y-93600500D01*
X153526082Y-93600500D01*
X153673920Y-93600500D01*
X153771462Y-93581096D01*
X153818913Y-93571658D01*
X153955495Y-93515084D01*
X154031111Y-93464559D01*
X154097786Y-93443682D01*
X154165166Y-93462166D01*
X154168848Y-93464531D01*
X154244505Y-93515084D01*
X154244507Y-93515085D01*
X154244511Y-93515087D01*
X154365206Y-93565080D01*
X154381087Y-93571658D01*
X154381091Y-93571658D01*
X154381092Y-93571659D01*
X154526079Y-93600500D01*
X154526082Y-93600500D01*
X154673920Y-93600500D01*
X154771462Y-93581096D01*
X154818913Y-93571658D01*
X154955495Y-93515084D01*
X155078416Y-93432951D01*
X155182951Y-93328416D01*
X155265084Y-93205495D01*
X155321658Y-93068913D01*
X155350500Y-92923918D01*
X155350500Y-92776082D01*
X155350500Y-92776079D01*
X155321659Y-92631092D01*
X155321658Y-92631091D01*
X155321658Y-92631087D01*
X155285792Y-92544498D01*
X155265087Y-92494511D01*
X155265080Y-92494498D01*
X155182951Y-92371584D01*
X155182948Y-92371580D01*
X155078419Y-92267051D01*
X155078415Y-92267048D01*
X154955501Y-92184919D01*
X154955488Y-92184912D01*
X154818917Y-92128343D01*
X154818907Y-92128340D01*
X154673920Y-92099500D01*
X154673918Y-92099500D01*
X154526082Y-92099500D01*
X154526080Y-92099500D01*
X154381092Y-92128340D01*
X154381082Y-92128343D01*
X154244511Y-92184912D01*
X154244498Y-92184919D01*
X154168891Y-92235439D01*
X154102213Y-92256317D01*
X154034833Y-92237832D01*
X154031109Y-92235439D01*
X153955501Y-92184919D01*
X153955488Y-92184912D01*
X153818917Y-92128343D01*
X153818907Y-92128340D01*
X153673920Y-92099500D01*
X153673918Y-92099500D01*
X153526082Y-92099500D01*
X153526080Y-92099500D01*
X153381092Y-92128340D01*
X153381082Y-92128343D01*
X153244511Y-92184912D01*
X153244498Y-92184919D01*
X153121584Y-92267048D01*
X153062675Y-92325957D01*
X153001351Y-92359441D01*
X152931660Y-92354456D01*
X152888985Y-92324164D01*
X152887259Y-92325891D01*
X152778419Y-92217051D01*
X152778415Y-92217048D01*
X152655501Y-92134919D01*
X152655488Y-92134912D01*
X152518917Y-92078343D01*
X152518907Y-92078340D01*
X152373920Y-92049500D01*
X152373918Y-92049500D01*
X152226082Y-92049500D01*
X152226080Y-92049500D01*
X152081092Y-92078340D01*
X152081082Y-92078343D01*
X151944511Y-92134912D01*
X151944498Y-92134919D01*
X151821584Y-92217048D01*
X151756223Y-92282409D01*
X151694899Y-92315893D01*
X151625208Y-92310908D01*
X151599651Y-92297829D01*
X151505501Y-92234919D01*
X151505488Y-92234912D01*
X151368917Y-92178343D01*
X151368907Y-92178340D01*
X151223920Y-92149500D01*
X151223918Y-92149500D01*
X151076082Y-92149500D01*
X151076080Y-92149500D01*
X150931092Y-92178340D01*
X150931082Y-92178343D01*
X150794511Y-92234912D01*
X150794498Y-92234919D01*
X150671584Y-92317048D01*
X150671580Y-92317051D01*
X150567051Y-92421580D01*
X150567048Y-92421584D01*
X150484919Y-92544498D01*
X150484912Y-92544511D01*
X150428343Y-92681082D01*
X150428340Y-92681092D01*
X150399500Y-92826079D01*
X150399500Y-92826082D01*
X150399500Y-92973918D01*
X150399500Y-92973920D01*
X150399499Y-92973920D01*
X132852441Y-92973920D01*
X132852200Y-92820184D01*
X132850683Y-91850500D01*
X132849625Y-91173920D01*
X144749499Y-91173920D01*
X144778340Y-91318907D01*
X144778343Y-91318917D01*
X144834912Y-91455488D01*
X144834919Y-91455501D01*
X144917048Y-91578415D01*
X144917051Y-91578419D01*
X145021580Y-91682948D01*
X145021584Y-91682951D01*
X145144498Y-91765080D01*
X145144511Y-91765087D01*
X145281082Y-91821656D01*
X145281087Y-91821658D01*
X145281091Y-91821658D01*
X145281092Y-91821659D01*
X145426079Y-91850500D01*
X145426082Y-91850500D01*
X145573920Y-91850500D01*
X145707541Y-91823920D01*
X159299499Y-91823920D01*
X159328340Y-91968907D01*
X159328343Y-91968917D01*
X159384912Y-92105488D01*
X159384919Y-92105501D01*
X159467048Y-92228415D01*
X159467051Y-92228419D01*
X159571580Y-92332948D01*
X159571584Y-92332951D01*
X159694498Y-92415080D01*
X159694511Y-92415087D01*
X159831082Y-92471656D01*
X159831087Y-92471658D01*
X159831091Y-92471658D01*
X159831092Y-92471659D01*
X159976079Y-92500500D01*
X159976082Y-92500500D01*
X160123920Y-92500500D01*
X160221462Y-92481096D01*
X160268913Y-92471658D01*
X160405495Y-92415084D01*
X160528416Y-92332951D01*
X160632951Y-92228416D01*
X160715084Y-92105495D01*
X160771658Y-91968913D01*
X160781096Y-91921462D01*
X160800500Y-91823920D01*
X160800500Y-91676079D01*
X160771659Y-91531092D01*
X160771658Y-91531091D01*
X160771658Y-91531087D01*
X160771656Y-91531082D01*
X160715087Y-91394511D01*
X160715080Y-91394498D01*
X160632951Y-91271584D01*
X160632948Y-91271580D01*
X160528419Y-91167051D01*
X160528415Y-91167048D01*
X160405501Y-91084919D01*
X160405488Y-91084912D01*
X160268917Y-91028343D01*
X160268907Y-91028340D01*
X160123920Y-90999500D01*
X160123918Y-90999500D01*
X159976082Y-90999500D01*
X159976080Y-90999500D01*
X159831092Y-91028340D01*
X159831082Y-91028343D01*
X159694511Y-91084912D01*
X159694498Y-91084919D01*
X159571584Y-91167048D01*
X159571580Y-91167051D01*
X159467051Y-91271580D01*
X159467048Y-91271584D01*
X159384919Y-91394498D01*
X159384912Y-91394511D01*
X159328343Y-91531082D01*
X159328340Y-91531092D01*
X159299500Y-91676079D01*
X159299500Y-91676082D01*
X159299500Y-91823918D01*
X159299500Y-91823920D01*
X159299499Y-91823920D01*
X145707541Y-91823920D01*
X145707551Y-91823918D01*
X145718913Y-91821658D01*
X145855495Y-91765084D01*
X145978416Y-91682951D01*
X145985288Y-91676079D01*
X146079059Y-91582309D01*
X146082948Y-91578419D01*
X146082951Y-91578416D01*
X146165084Y-91455495D01*
X146221658Y-91318913D01*
X146250500Y-91173918D01*
X146250500Y-91026082D01*
X146250500Y-91026079D01*
X146221659Y-90881092D01*
X146221658Y-90881091D01*
X146221658Y-90881087D01*
X146221656Y-90881082D01*
X146165087Y-90744511D01*
X146165080Y-90744498D01*
X146082951Y-90621584D01*
X146082948Y-90621580D01*
X145978419Y-90517051D01*
X145978415Y-90517048D01*
X145855501Y-90434919D01*
X145855488Y-90434912D01*
X145718917Y-90378343D01*
X145718907Y-90378340D01*
X145573920Y-90349500D01*
X145573918Y-90349500D01*
X145426082Y-90349500D01*
X145426080Y-90349500D01*
X145281092Y-90378340D01*
X145281082Y-90378343D01*
X145144511Y-90434912D01*
X145144498Y-90434919D01*
X145021584Y-90517048D01*
X145021580Y-90517051D01*
X144917051Y-90621580D01*
X144917048Y-90621584D01*
X144834919Y-90744498D01*
X144834912Y-90744511D01*
X144778343Y-90881082D01*
X144778340Y-90881092D01*
X144749500Y-91026079D01*
X144749500Y-91026082D01*
X144749500Y-91173918D01*
X144749500Y-91173920D01*
X144749499Y-91173920D01*
X132849625Y-91173920D01*
X132845949Y-88823920D01*
X144449499Y-88823920D01*
X144478340Y-88968907D01*
X144478343Y-88968917D01*
X144534912Y-89105488D01*
X144534919Y-89105501D01*
X144617048Y-89228415D01*
X144617051Y-89228419D01*
X144721580Y-89332948D01*
X144721584Y-89332951D01*
X144844498Y-89415080D01*
X144844511Y-89415087D01*
X144943483Y-89456082D01*
X144981087Y-89471658D01*
X145082471Y-89491825D01*
X145144382Y-89524210D01*
X145172841Y-89565989D01*
X145209914Y-89655491D01*
X145209919Y-89655501D01*
X145292048Y-89778415D01*
X145292051Y-89778419D01*
X145396580Y-89882948D01*
X145396584Y-89882951D01*
X145519498Y-89965080D01*
X145519511Y-89965087D01*
X145656082Y-90021656D01*
X145656087Y-90021658D01*
X145656091Y-90021658D01*
X145656092Y-90021659D01*
X145801079Y-90050500D01*
X145801082Y-90050500D01*
X145948920Y-90050500D01*
X145959153Y-90048464D01*
X146028745Y-90054688D01*
X146071031Y-90082399D01*
X146171580Y-90182948D01*
X146171584Y-90182951D01*
X146294498Y-90265080D01*
X146294511Y-90265087D01*
X146431082Y-90321656D01*
X146431087Y-90321658D01*
X146431091Y-90321658D01*
X146431092Y-90321659D01*
X146576079Y-90350500D01*
X146576082Y-90350500D01*
X146723920Y-90350500D01*
X146821462Y-90331096D01*
X146868913Y-90321658D01*
X147005495Y-90265084D01*
X147128416Y-90182951D01*
X147232951Y-90078416D01*
X147315084Y-89955495D01*
X147371658Y-89818913D01*
X147381096Y-89771462D01*
X147400500Y-89673920D01*
X147400500Y-89603920D01*
X151099499Y-89603920D01*
X151128340Y-89748907D01*
X151128343Y-89748917D01*
X151184912Y-89885488D01*
X151184919Y-89885501D01*
X151267048Y-90008415D01*
X151267051Y-90008419D01*
X151371580Y-90112948D01*
X151371584Y-90112951D01*
X151494498Y-90195080D01*
X151494511Y-90195087D01*
X151631082Y-90251656D01*
X151631087Y-90251658D01*
X151631091Y-90251658D01*
X151631092Y-90251659D01*
X151776079Y-90280500D01*
X151776082Y-90280500D01*
X151923920Y-90280500D01*
X152021462Y-90261096D01*
X152068913Y-90251658D01*
X152205495Y-90195084D01*
X152328416Y-90112951D01*
X152432951Y-90008416D01*
X152515084Y-89885495D01*
X152571658Y-89748913D01*
X152581096Y-89701462D01*
X152600500Y-89603920D01*
X152600500Y-89456079D01*
X152571659Y-89311092D01*
X152571658Y-89311091D01*
X152571658Y-89311087D01*
X152552678Y-89265264D01*
X152515087Y-89174511D01*
X152515080Y-89174498D01*
X152432951Y-89051584D01*
X152432948Y-89051580D01*
X152328419Y-88947051D01*
X152328415Y-88947048D01*
X152205501Y-88864919D01*
X152205488Y-88864912D01*
X152068917Y-88808343D01*
X152068907Y-88808340D01*
X151923920Y-88779500D01*
X151923918Y-88779500D01*
X151776082Y-88779500D01*
X151776080Y-88779500D01*
X151631092Y-88808340D01*
X151631082Y-88808343D01*
X151494511Y-88864912D01*
X151494498Y-88864919D01*
X151371584Y-88947048D01*
X151371580Y-88947051D01*
X151267051Y-89051580D01*
X151267048Y-89051584D01*
X151184919Y-89174498D01*
X151184912Y-89174511D01*
X151128343Y-89311082D01*
X151128340Y-89311092D01*
X151099500Y-89456079D01*
X151099500Y-89456082D01*
X151099500Y-89603918D01*
X151099500Y-89603920D01*
X151099499Y-89603920D01*
X147400500Y-89603920D01*
X147400500Y-89526079D01*
X147400499Y-89526077D01*
X147390177Y-89474181D01*
X147371659Y-89381092D01*
X147371658Y-89381091D01*
X147371658Y-89381087D01*
X147352398Y-89334588D01*
X147315087Y-89244511D01*
X147315080Y-89244498D01*
X147232951Y-89121584D01*
X147232948Y-89121580D01*
X147128419Y-89017051D01*
X147128415Y-89017048D01*
X147005501Y-88934919D01*
X147005488Y-88934912D01*
X146868917Y-88878343D01*
X146868907Y-88878340D01*
X146723920Y-88849500D01*
X146723918Y-88849500D01*
X146576082Y-88849500D01*
X146576075Y-88849500D01*
X146565835Y-88851537D01*
X146496243Y-88845307D01*
X146453968Y-88817600D01*
X146353419Y-88717051D01*
X146353415Y-88717048D01*
X146276683Y-88665777D01*
X146241702Y-88623920D01*
X152701499Y-88623920D01*
X152730340Y-88768907D01*
X152730343Y-88768917D01*
X152786912Y-88905488D01*
X152786919Y-88905501D01*
X152869048Y-89028415D01*
X152869051Y-89028419D01*
X152973581Y-89132949D01*
X152973584Y-89132951D01*
X153091369Y-89211652D01*
X153136174Y-89265264D01*
X153144881Y-89334588D01*
X153125581Y-89383644D01*
X153084918Y-89444500D01*
X153084912Y-89444511D01*
X153028343Y-89581082D01*
X153028340Y-89581092D01*
X152999500Y-89726079D01*
X152999500Y-89726082D01*
X152999500Y-89873918D01*
X152999500Y-89873920D01*
X152999499Y-89873920D01*
X153028340Y-90018907D01*
X153028343Y-90018917D01*
X153084912Y-90155488D01*
X153084919Y-90155501D01*
X153167048Y-90278415D01*
X153167051Y-90278419D01*
X153271580Y-90382948D01*
X153271584Y-90382951D01*
X153394498Y-90465080D01*
X153394511Y-90465087D01*
X153531082Y-90521656D01*
X153531087Y-90521658D01*
X153531091Y-90521658D01*
X153531092Y-90521659D01*
X153676079Y-90550500D01*
X153676082Y-90550500D01*
X153823920Y-90550500D01*
X153921462Y-90531096D01*
X153968913Y-90521658D01*
X154105495Y-90465084D01*
X154228416Y-90382951D01*
X154332951Y-90278416D01*
X154415084Y-90155495D01*
X154471658Y-90018913D01*
X154498199Y-89885488D01*
X154500500Y-89873920D01*
X154500500Y-89726079D01*
X154471659Y-89581092D01*
X154471658Y-89581091D01*
X154471658Y-89581087D01*
X154434685Y-89491825D01*
X154415087Y-89444511D01*
X154415080Y-89444498D01*
X154332951Y-89321584D01*
X154332948Y-89321580D01*
X154228419Y-89217051D01*
X154228411Y-89217045D01*
X154110631Y-89138347D01*
X154065825Y-89084735D01*
X154057118Y-89015410D01*
X154076417Y-88966356D01*
X154117084Y-88905495D01*
X154173658Y-88768913D01*
X154194174Y-88665777D01*
X154202500Y-88623920D01*
X154202500Y-88476079D01*
X154173659Y-88331092D01*
X154173658Y-88331091D01*
X154173658Y-88331087D01*
X154173656Y-88331082D01*
X154129268Y-88223920D01*
X155849499Y-88223920D01*
X155878340Y-88368907D01*
X155878343Y-88368917D01*
X155934912Y-88505488D01*
X155934919Y-88505501D01*
X156017048Y-88628415D01*
X156017051Y-88628419D01*
X156121580Y-88732948D01*
X156121584Y-88732951D01*
X156244498Y-88815080D01*
X156244511Y-88815087D01*
X156369759Y-88866966D01*
X156381087Y-88871658D01*
X156381091Y-88871658D01*
X156381092Y-88871659D01*
X156526079Y-88900500D01*
X156526082Y-88900500D01*
X156673920Y-88900500D01*
X156785321Y-88878340D01*
X156818913Y-88871658D01*
X156852547Y-88857725D01*
X156922016Y-88850257D01*
X156947452Y-88857725D01*
X156981087Y-88871658D01*
X156981091Y-88871658D01*
X156981092Y-88871659D01*
X157126079Y-88900500D01*
X157126082Y-88900500D01*
X157273920Y-88900500D01*
X157385321Y-88878340D01*
X157418913Y-88871658D01*
X157555495Y-88815084D01*
X157678416Y-88732951D01*
X157782951Y-88628416D01*
X157865084Y-88505495D01*
X157921658Y-88368913D01*
X157938758Y-88282948D01*
X157950500Y-88223920D01*
X157950500Y-88076079D01*
X157926200Y-87953920D01*
X164919499Y-87953920D01*
X164948340Y-88098907D01*
X164948343Y-88098917D01*
X165004912Y-88235488D01*
X165004919Y-88235501D01*
X165087048Y-88358415D01*
X165087051Y-88358419D01*
X165191580Y-88462948D01*
X165191584Y-88462951D01*
X165314498Y-88545080D01*
X165314511Y-88545087D01*
X165451082Y-88601656D01*
X165451087Y-88601658D01*
X165451091Y-88601658D01*
X165451092Y-88601659D01*
X165596079Y-88630500D01*
X165596082Y-88630500D01*
X165743920Y-88630500D01*
X165841462Y-88611096D01*
X165888913Y-88601658D01*
X166025495Y-88545084D01*
X166148416Y-88462951D01*
X166252951Y-88358416D01*
X166335084Y-88235495D01*
X166391658Y-88098913D01*
X166414725Y-87982951D01*
X166420500Y-87953920D01*
X166420500Y-87806079D01*
X166391659Y-87661092D01*
X166391658Y-87661091D01*
X166391658Y-87661087D01*
X166391656Y-87661082D01*
X166335087Y-87524511D01*
X166335080Y-87524498D01*
X166252951Y-87401584D01*
X166252948Y-87401580D01*
X166148419Y-87297051D01*
X166148415Y-87297048D01*
X166025501Y-87214919D01*
X166025488Y-87214912D01*
X165888917Y-87158343D01*
X165888907Y-87158340D01*
X165743920Y-87129500D01*
X165743918Y-87129500D01*
X165596082Y-87129500D01*
X165596080Y-87129500D01*
X165451092Y-87158340D01*
X165451082Y-87158343D01*
X165314511Y-87214912D01*
X165314498Y-87214919D01*
X165191584Y-87297048D01*
X165191580Y-87297051D01*
X165087051Y-87401580D01*
X165087048Y-87401584D01*
X165004919Y-87524498D01*
X165004912Y-87524511D01*
X164948343Y-87661082D01*
X164948340Y-87661092D01*
X164919500Y-87806079D01*
X164919500Y-87806082D01*
X164919500Y-87953918D01*
X164919500Y-87953920D01*
X164919499Y-87953920D01*
X157926200Y-87953920D01*
X157921659Y-87931092D01*
X157921658Y-87931091D01*
X157921658Y-87931087D01*
X157916617Y-87918917D01*
X157887012Y-87847442D01*
X157865085Y-87794508D01*
X157865084Y-87794505D01*
X157865082Y-87794502D01*
X157865080Y-87794498D01*
X157782951Y-87671584D01*
X157782948Y-87671580D01*
X157678419Y-87567051D01*
X157678415Y-87567048D01*
X157555501Y-87484919D01*
X157555488Y-87484912D01*
X157418917Y-87428343D01*
X157418907Y-87428340D01*
X157273920Y-87399500D01*
X157273918Y-87399500D01*
X157126082Y-87399500D01*
X157126080Y-87399500D01*
X156981092Y-87428340D01*
X156981086Y-87428342D01*
X156947451Y-87442274D01*
X156877981Y-87449741D01*
X156852549Y-87442274D01*
X156818913Y-87428342D01*
X156818907Y-87428340D01*
X156673920Y-87399500D01*
X156673918Y-87399500D01*
X156526082Y-87399500D01*
X156526080Y-87399500D01*
X156381092Y-87428340D01*
X156381082Y-87428343D01*
X156244511Y-87484912D01*
X156244498Y-87484919D01*
X156121584Y-87567048D01*
X156121580Y-87567051D01*
X156017051Y-87671580D01*
X156017048Y-87671584D01*
X155934919Y-87794498D01*
X155934912Y-87794511D01*
X155878343Y-87931082D01*
X155878340Y-87931092D01*
X155849500Y-88076079D01*
X155849500Y-88076082D01*
X155849500Y-88223918D01*
X155849500Y-88223920D01*
X155849499Y-88223920D01*
X154129268Y-88223920D01*
X154117087Y-88194511D01*
X154117080Y-88194498D01*
X154079918Y-88138881D01*
X154034951Y-88071584D01*
X154034948Y-88071580D01*
X153930419Y-87967051D01*
X153930415Y-87967048D01*
X153807501Y-87884919D01*
X153807488Y-87884912D01*
X153670917Y-87828343D01*
X153670907Y-87828340D01*
X153525920Y-87799500D01*
X153525918Y-87799500D01*
X153378082Y-87799500D01*
X153378080Y-87799500D01*
X153233092Y-87828340D01*
X153233082Y-87828343D01*
X153096511Y-87884912D01*
X153096498Y-87884919D01*
X152973584Y-87967048D01*
X152973580Y-87967051D01*
X152869051Y-88071580D01*
X152869048Y-88071584D01*
X152786919Y-88194498D01*
X152786912Y-88194511D01*
X152730343Y-88331082D01*
X152730340Y-88331092D01*
X152701500Y-88476079D01*
X152701500Y-88476082D01*
X152701500Y-88623918D01*
X152701500Y-88623920D01*
X152701499Y-88623920D01*
X146241702Y-88623920D01*
X146231878Y-88612165D01*
X146223171Y-88542840D01*
X146253326Y-88479812D01*
X146312769Y-88443093D01*
X146321372Y-88441060D01*
X146418913Y-88421658D01*
X146546251Y-88368913D01*
X146555488Y-88365087D01*
X146555488Y-88365086D01*
X146555495Y-88365084D01*
X146678416Y-88282951D01*
X146782951Y-88178416D01*
X146865084Y-88055495D01*
X146921658Y-87918913D01*
X146944103Y-87806079D01*
X146950500Y-87773920D01*
X146950500Y-87626079D01*
X146921659Y-87481092D01*
X146921658Y-87481091D01*
X146921658Y-87481087D01*
X146918689Y-87473920D01*
X148399499Y-87473920D01*
X148428340Y-87618907D01*
X148428343Y-87618917D01*
X148484912Y-87755488D01*
X148484919Y-87755501D01*
X148567048Y-87878415D01*
X148567051Y-87878419D01*
X148671580Y-87982948D01*
X148671584Y-87982951D01*
X148794498Y-88065080D01*
X148794511Y-88065087D01*
X148876185Y-88098917D01*
X148931087Y-88121658D01*
X148931091Y-88121658D01*
X148931092Y-88121659D01*
X149076079Y-88150500D01*
X149076082Y-88150500D01*
X149223920Y-88150500D01*
X149321462Y-88131096D01*
X149368913Y-88121658D01*
X149505495Y-88065084D01*
X149628416Y-87982951D01*
X149732951Y-87878416D01*
X149815084Y-87755495D01*
X149871658Y-87618913D01*
X149890436Y-87524511D01*
X149900500Y-87473920D01*
X149900500Y-87326079D01*
X149871659Y-87181092D01*
X149871658Y-87181091D01*
X149871658Y-87181087D01*
X149850290Y-87129500D01*
X149815087Y-87044511D01*
X149815080Y-87044498D01*
X149732951Y-86921584D01*
X149732948Y-86921580D01*
X149628419Y-86817051D01*
X149628415Y-86817048D01*
X149505501Y-86734919D01*
X149505488Y-86734912D01*
X149368917Y-86678343D01*
X149368907Y-86678340D01*
X149223920Y-86649500D01*
X149223918Y-86649500D01*
X149076082Y-86649500D01*
X149076080Y-86649500D01*
X148931092Y-86678340D01*
X148931082Y-86678343D01*
X148794511Y-86734912D01*
X148794498Y-86734919D01*
X148671584Y-86817048D01*
X148671580Y-86817051D01*
X148567051Y-86921580D01*
X148567048Y-86921584D01*
X148484919Y-87044498D01*
X148484912Y-87044511D01*
X148428343Y-87181082D01*
X148428340Y-87181092D01*
X148399500Y-87326079D01*
X148399500Y-87326082D01*
X148399500Y-87473918D01*
X148399500Y-87473920D01*
X148399499Y-87473920D01*
X146918689Y-87473920D01*
X146865084Y-87344505D01*
X146865080Y-87344498D01*
X146782951Y-87221584D01*
X146782948Y-87221580D01*
X146678419Y-87117051D01*
X146678415Y-87117048D01*
X146555501Y-87034919D01*
X146555488Y-87034912D01*
X146418917Y-86978343D01*
X146418907Y-86978340D01*
X146273920Y-86949500D01*
X146273918Y-86949500D01*
X146126082Y-86949500D01*
X146126080Y-86949500D01*
X145981092Y-86978340D01*
X145981082Y-86978343D01*
X145844511Y-87034912D01*
X145844498Y-87034919D01*
X145721584Y-87117048D01*
X145721580Y-87117051D01*
X145617051Y-87221580D01*
X145617048Y-87221584D01*
X145534919Y-87344498D01*
X145534912Y-87344511D01*
X145478343Y-87481082D01*
X145478340Y-87481092D01*
X145449500Y-87626079D01*
X145449500Y-87626082D01*
X145449500Y-87773918D01*
X145449500Y-87773920D01*
X145449499Y-87773920D01*
X145467248Y-87863143D01*
X145461021Y-87932735D01*
X145418158Y-87987912D01*
X145352269Y-88011157D01*
X145321440Y-88008952D01*
X145273922Y-87999500D01*
X145273918Y-87999500D01*
X145126082Y-87999500D01*
X145126080Y-87999500D01*
X144981092Y-88028340D01*
X144981082Y-88028343D01*
X144844511Y-88084912D01*
X144844498Y-88084919D01*
X144721584Y-88167048D01*
X144721580Y-88167051D01*
X144617051Y-88271580D01*
X144617048Y-88271584D01*
X144534919Y-88394498D01*
X144534912Y-88394511D01*
X144478343Y-88531082D01*
X144478340Y-88531092D01*
X144449500Y-88676079D01*
X144449500Y-88676082D01*
X144449500Y-88823918D01*
X144449500Y-88823920D01*
X144449499Y-88823920D01*
X132845949Y-88823920D01*
X132839927Y-84973920D01*
X148099499Y-84973920D01*
X148128340Y-85118907D01*
X148128343Y-85118917D01*
X148184912Y-85255488D01*
X148184919Y-85255501D01*
X148267048Y-85378415D01*
X148267051Y-85378419D01*
X148371580Y-85482948D01*
X148371584Y-85482951D01*
X148494498Y-85565080D01*
X148494511Y-85565087D01*
X148631082Y-85621656D01*
X148631087Y-85621658D01*
X148631091Y-85621658D01*
X148631092Y-85621659D01*
X148776079Y-85650500D01*
X148776082Y-85650500D01*
X148923920Y-85650500D01*
X149021462Y-85631096D01*
X149068913Y-85621658D01*
X149205495Y-85565084D01*
X149328416Y-85482951D01*
X149432951Y-85378416D01*
X149482728Y-85303920D01*
X151299499Y-85303920D01*
X151328340Y-85448907D01*
X151328343Y-85448917D01*
X151384912Y-85585488D01*
X151384919Y-85585501D01*
X151467048Y-85708415D01*
X151467051Y-85708419D01*
X151571580Y-85812948D01*
X151571584Y-85812951D01*
X151694498Y-85895080D01*
X151694511Y-85895087D01*
X151831082Y-85951656D01*
X151831087Y-85951658D01*
X151831091Y-85951658D01*
X151831092Y-85951659D01*
X151976079Y-85980500D01*
X151976082Y-85980500D01*
X152123920Y-85980500D01*
X152221462Y-85961096D01*
X152268913Y-85951658D01*
X152405495Y-85895084D01*
X152528416Y-85812951D01*
X152632951Y-85708416D01*
X152715084Y-85585495D01*
X152723539Y-85565084D01*
X152771656Y-85448917D01*
X152771658Y-85448913D01*
X152781096Y-85401462D01*
X152800500Y-85303920D01*
X152800500Y-85156079D01*
X152771659Y-85011092D01*
X152771658Y-85011091D01*
X152771658Y-85011087D01*
X152756262Y-84973918D01*
X152715087Y-84874511D01*
X152715080Y-84874498D01*
X152632951Y-84751584D01*
X152632948Y-84751580D01*
X152528419Y-84647051D01*
X152528415Y-84647048D01*
X152405501Y-84564919D01*
X152405488Y-84564912D01*
X152268917Y-84508343D01*
X152268907Y-84508340D01*
X152123920Y-84479500D01*
X152123918Y-84479500D01*
X151976082Y-84479500D01*
X151976080Y-84479500D01*
X151831092Y-84508340D01*
X151831082Y-84508343D01*
X151694511Y-84564912D01*
X151694498Y-84564919D01*
X151571584Y-84647048D01*
X151571580Y-84647051D01*
X151467051Y-84751580D01*
X151467048Y-84751584D01*
X151384919Y-84874498D01*
X151384912Y-84874511D01*
X151328343Y-85011082D01*
X151328340Y-85011092D01*
X151299500Y-85156079D01*
X151299500Y-85156082D01*
X151299500Y-85303918D01*
X151299500Y-85303920D01*
X151299499Y-85303920D01*
X149482728Y-85303920D01*
X149515084Y-85255495D01*
X149571658Y-85118913D01*
X149581096Y-85071462D01*
X149600500Y-84973920D01*
X149600500Y-84826079D01*
X149571659Y-84681092D01*
X149571658Y-84681091D01*
X149571658Y-84681087D01*
X149523540Y-84564919D01*
X149515087Y-84544511D01*
X149515080Y-84544498D01*
X149432951Y-84421584D01*
X149432948Y-84421580D01*
X149328419Y-84317051D01*
X149328415Y-84317048D01*
X149205501Y-84234919D01*
X149205488Y-84234912D01*
X149068917Y-84178343D01*
X149068907Y-84178340D01*
X148923920Y-84149500D01*
X148923918Y-84149500D01*
X148776082Y-84149500D01*
X148776080Y-84149500D01*
X148631092Y-84178340D01*
X148631082Y-84178343D01*
X148494511Y-84234912D01*
X148494498Y-84234919D01*
X148371584Y-84317048D01*
X148371580Y-84317051D01*
X148267051Y-84421580D01*
X148267048Y-84421584D01*
X148184919Y-84544498D01*
X148184912Y-84544511D01*
X148128343Y-84681082D01*
X148128340Y-84681092D01*
X148099500Y-84826079D01*
X148099500Y-84826082D01*
X148099500Y-84973918D01*
X148099500Y-84973920D01*
X148099499Y-84973920D01*
X132839927Y-84973920D01*
X132835883Y-82388920D01*
X151349499Y-82388920D01*
X151378340Y-82533907D01*
X151378343Y-82533917D01*
X151434912Y-82670488D01*
X151434919Y-82670501D01*
X151517048Y-82793415D01*
X151517051Y-82793419D01*
X151621580Y-82897948D01*
X151621584Y-82897951D01*
X151744498Y-82980080D01*
X151744511Y-82980087D01*
X151881082Y-83036656D01*
X151881087Y-83036658D01*
X151881091Y-83036658D01*
X151881092Y-83036659D01*
X152026079Y-83065500D01*
X152026082Y-83065500D01*
X152173920Y-83065500D01*
X152271462Y-83046096D01*
X152318913Y-83036658D01*
X152455495Y-82980084D01*
X152578416Y-82897951D01*
X152682951Y-82793416D01*
X152765084Y-82670495D01*
X152821658Y-82533913D01*
X152850500Y-82388918D01*
X152850500Y-82241082D01*
X152850500Y-82241079D01*
X152821659Y-82096092D01*
X152821658Y-82096091D01*
X152821658Y-82096087D01*
X152811539Y-82071658D01*
X152765087Y-81959511D01*
X152765080Y-81959498D01*
X152682951Y-81836584D01*
X152682948Y-81836580D01*
X152578419Y-81732051D01*
X152578415Y-81732048D01*
X152455501Y-81649919D01*
X152455488Y-81649912D01*
X152318917Y-81593343D01*
X152318907Y-81593340D01*
X152173920Y-81564500D01*
X152173918Y-81564500D01*
X152026082Y-81564500D01*
X152026080Y-81564500D01*
X151881092Y-81593340D01*
X151881082Y-81593343D01*
X151744511Y-81649912D01*
X151744498Y-81649919D01*
X151621584Y-81732048D01*
X151621580Y-81732051D01*
X151517051Y-81836580D01*
X151517048Y-81836584D01*
X151434919Y-81959498D01*
X151434912Y-81959511D01*
X151378343Y-82096082D01*
X151378340Y-82096092D01*
X151349500Y-82241079D01*
X151349500Y-82241082D01*
X151349500Y-82388918D01*
X151349500Y-82388920D01*
X151349499Y-82388920D01*
X132835883Y-82388920D01*
X132833318Y-80748920D01*
X146449499Y-80748920D01*
X146478340Y-80893907D01*
X146478343Y-80893917D01*
X146534912Y-81030488D01*
X146534919Y-81030501D01*
X146617048Y-81153415D01*
X146617051Y-81153419D01*
X146721580Y-81257948D01*
X146721584Y-81257951D01*
X146844498Y-81340080D01*
X146844511Y-81340087D01*
X146981082Y-81396656D01*
X146981087Y-81396658D01*
X146981091Y-81396658D01*
X146981092Y-81396659D01*
X147126079Y-81425500D01*
X147126082Y-81425500D01*
X147273920Y-81425500D01*
X147371462Y-81406096D01*
X147418913Y-81396658D01*
X147555495Y-81340084D01*
X147658019Y-81271579D01*
X147724695Y-81250702D01*
X147792075Y-81269186D01*
X147838766Y-81321165D01*
X147849068Y-81366571D01*
X147850312Y-81366449D01*
X147850908Y-81372511D01*
X147879749Y-81517498D01*
X147879752Y-81517508D01*
X147936321Y-81654079D01*
X147936328Y-81654092D01*
X148018457Y-81777006D01*
X148018460Y-81777010D01*
X148122989Y-81881539D01*
X148122993Y-81881542D01*
X148245907Y-81963671D01*
X148245920Y-81963678D01*
X148370034Y-82015087D01*
X148382496Y-82020249D01*
X148382500Y-82020249D01*
X148382501Y-82020250D01*
X148527488Y-82049091D01*
X148527491Y-82049091D01*
X148675329Y-82049091D01*
X148772871Y-82029687D01*
X148820322Y-82020249D01*
X148956904Y-81963675D01*
X149079825Y-81881542D01*
X149184360Y-81777007D01*
X149266493Y-81654086D01*
X149323067Y-81517504D01*
X149341368Y-81425500D01*
X149341682Y-81423920D01*
X153449499Y-81423920D01*
X153478340Y-81568907D01*
X153478343Y-81568917D01*
X153534912Y-81705488D01*
X153534919Y-81705501D01*
X153617048Y-81828415D01*
X153617051Y-81828419D01*
X153721580Y-81932948D01*
X153721584Y-81932951D01*
X153844498Y-82015080D01*
X153844511Y-82015087D01*
X153926605Y-82049091D01*
X153981087Y-82071658D01*
X153981091Y-82071658D01*
X153981092Y-82071659D01*
X154126079Y-82100500D01*
X154126082Y-82100500D01*
X154273920Y-82100500D01*
X154371462Y-82081096D01*
X154418913Y-82071658D01*
X154543026Y-82020249D01*
X154555488Y-82015087D01*
X154555488Y-82015086D01*
X154555495Y-82015084D01*
X154678416Y-81932951D01*
X154782951Y-81828416D01*
X154865084Y-81705495D01*
X154921658Y-81568913D01*
X154931885Y-81517498D01*
X154950500Y-81423920D01*
X154950500Y-81276079D01*
X154921659Y-81131092D01*
X154921658Y-81131091D01*
X154921658Y-81131087D01*
X154879989Y-81030488D01*
X154865087Y-80994511D01*
X154865080Y-80994498D01*
X154782951Y-80871584D01*
X154782948Y-80871580D01*
X154678419Y-80767051D01*
X154678415Y-80767048D01*
X154555501Y-80684919D01*
X154555488Y-80684912D01*
X154418917Y-80628343D01*
X154418907Y-80628340D01*
X154273920Y-80599500D01*
X154273918Y-80599500D01*
X154126082Y-80599500D01*
X154126080Y-80599500D01*
X153981092Y-80628340D01*
X153981082Y-80628343D01*
X153844511Y-80684912D01*
X153844498Y-80684919D01*
X153721584Y-80767048D01*
X153721580Y-80767051D01*
X153617051Y-80871580D01*
X153617048Y-80871584D01*
X153534919Y-80994498D01*
X153534912Y-80994511D01*
X153478343Y-81131082D01*
X153478340Y-81131092D01*
X153449500Y-81276079D01*
X153449500Y-81276082D01*
X153449500Y-81423918D01*
X153449500Y-81423920D01*
X153449499Y-81423920D01*
X149341682Y-81423920D01*
X149351909Y-81372511D01*
X149351909Y-81224670D01*
X149323068Y-81079683D01*
X149323067Y-81079682D01*
X149323067Y-81079678D01*
X149287790Y-80994511D01*
X149266496Y-80943102D01*
X149266489Y-80943089D01*
X149184360Y-80820175D01*
X149184357Y-80820171D01*
X149079828Y-80715642D01*
X149079824Y-80715639D01*
X148956910Y-80633510D01*
X148956897Y-80633503D01*
X148820326Y-80576934D01*
X148820316Y-80576931D01*
X148675329Y-80548091D01*
X148675327Y-80548091D01*
X148527491Y-80548091D01*
X148527489Y-80548091D01*
X148382501Y-80576931D01*
X148382491Y-80576934D01*
X148245920Y-80633503D01*
X148245907Y-80633510D01*
X148143391Y-80702010D01*
X148076713Y-80722888D01*
X148009333Y-80704403D01*
X147962643Y-80652425D01*
X147952340Y-80607019D01*
X147951097Y-80607142D01*
X147950500Y-80601079D01*
X147921659Y-80456092D01*
X147921658Y-80456091D01*
X147921658Y-80456087D01*
X147921656Y-80456082D01*
X147865087Y-80319511D01*
X147865080Y-80319498D01*
X147782951Y-80196584D01*
X147782948Y-80196580D01*
X147678419Y-80092051D01*
X147678415Y-80092048D01*
X147555501Y-80009919D01*
X147555488Y-80009912D01*
X147418917Y-79953343D01*
X147418907Y-79953340D01*
X147273920Y-79924500D01*
X147273918Y-79924500D01*
X147126082Y-79924500D01*
X147126080Y-79924500D01*
X146981092Y-79953340D01*
X146981082Y-79953343D01*
X146844511Y-80009912D01*
X146844498Y-80009919D01*
X146721584Y-80092048D01*
X146721580Y-80092051D01*
X146617051Y-80196580D01*
X146617048Y-80196584D01*
X146534919Y-80319498D01*
X146534912Y-80319511D01*
X146478343Y-80456082D01*
X146478340Y-80456092D01*
X146449500Y-80601079D01*
X146449500Y-80601082D01*
X146449500Y-80748918D01*
X146449500Y-80748920D01*
X146449499Y-80748920D01*
X132833318Y-80748920D01*
X132826045Y-76098920D01*
X148599499Y-76098920D01*
X148628340Y-76243907D01*
X148628343Y-76243917D01*
X148684912Y-76380488D01*
X148684919Y-76380501D01*
X148767048Y-76503415D01*
X148767051Y-76503419D01*
X148871580Y-76607948D01*
X148871584Y-76607951D01*
X148994498Y-76690080D01*
X148994511Y-76690087D01*
X149131082Y-76746656D01*
X149131087Y-76746658D01*
X149131091Y-76746658D01*
X149131092Y-76746659D01*
X149276079Y-76775500D01*
X149276082Y-76775500D01*
X149423920Y-76775500D01*
X149521462Y-76756096D01*
X149568913Y-76746658D01*
X149677548Y-76701659D01*
X149747016Y-76694191D01*
X149772449Y-76701658D01*
X149881087Y-76746658D01*
X149881091Y-76746658D01*
X149881092Y-76746659D01*
X150026079Y-76775500D01*
X150026082Y-76775500D01*
X150173920Y-76775500D01*
X150271462Y-76756096D01*
X150318913Y-76746658D01*
X150427548Y-76701659D01*
X150497016Y-76694191D01*
X150522449Y-76701658D01*
X150631087Y-76746658D01*
X150631091Y-76746658D01*
X150631092Y-76746659D01*
X150776079Y-76775500D01*
X150776082Y-76775500D01*
X150923920Y-76775500D01*
X151021462Y-76756096D01*
X151068913Y-76746658D01*
X151177548Y-76701659D01*
X151247016Y-76694191D01*
X151272449Y-76701658D01*
X151381087Y-76746658D01*
X151381091Y-76746658D01*
X151381092Y-76746659D01*
X151526079Y-76775500D01*
X151526082Y-76775500D01*
X151673920Y-76775500D01*
X151771462Y-76756096D01*
X151818913Y-76746658D01*
X151955495Y-76690084D01*
X152078416Y-76607951D01*
X152182951Y-76503416D01*
X152265084Y-76380495D01*
X152321658Y-76243913D01*
X152350500Y-76098918D01*
X152350500Y-75951082D01*
X152350500Y-75951079D01*
X152321659Y-75806092D01*
X152321658Y-75806091D01*
X152321658Y-75806087D01*
X152321656Y-75806082D01*
X152265087Y-75669511D01*
X152265080Y-75669498D01*
X152182951Y-75546584D01*
X152182948Y-75546580D01*
X152078419Y-75442051D01*
X152078415Y-75442048D01*
X151955501Y-75359919D01*
X151955488Y-75359912D01*
X151818917Y-75303343D01*
X151818907Y-75303340D01*
X151673920Y-75274500D01*
X151673918Y-75274500D01*
X151526082Y-75274500D01*
X151526080Y-75274500D01*
X151381092Y-75303340D01*
X151381082Y-75303343D01*
X151272452Y-75348339D01*
X151202983Y-75355808D01*
X151177548Y-75348339D01*
X151068917Y-75303343D01*
X151068907Y-75303340D01*
X150923920Y-75274500D01*
X150923918Y-75274500D01*
X150776082Y-75274500D01*
X150776080Y-75274500D01*
X150631092Y-75303340D01*
X150631082Y-75303343D01*
X150522452Y-75348339D01*
X150452983Y-75355808D01*
X150427548Y-75348339D01*
X150318917Y-75303343D01*
X150318907Y-75303340D01*
X150173920Y-75274500D01*
X150173918Y-75274500D01*
X150026082Y-75274500D01*
X150026080Y-75274500D01*
X149881092Y-75303340D01*
X149881082Y-75303343D01*
X149772452Y-75348339D01*
X149702983Y-75355808D01*
X149677548Y-75348339D01*
X149568917Y-75303343D01*
X149568907Y-75303340D01*
X149423920Y-75274500D01*
X149423918Y-75274500D01*
X149276082Y-75274500D01*
X149276080Y-75274500D01*
X149131092Y-75303340D01*
X149131082Y-75303343D01*
X148994511Y-75359912D01*
X148994498Y-75359919D01*
X148871584Y-75442048D01*
X148871580Y-75442051D01*
X148767051Y-75546580D01*
X148767048Y-75546584D01*
X148684919Y-75669498D01*
X148684912Y-75669511D01*
X148628343Y-75806082D01*
X148628340Y-75806092D01*
X148599500Y-75951079D01*
X148599500Y-75951082D01*
X148599500Y-76098918D01*
X148599500Y-76098920D01*
X148599499Y-76098920D01*
X132826045Y-76098920D01*
X132803164Y-61470932D01*
X132822744Y-61403864D01*
X132875476Y-61358026D01*
X132927233Y-61346740D01*
X133228687Y-61346910D01*
X133295714Y-61366632D01*
X133341439Y-61419462D01*
X133347095Y-61434322D01*
X133408169Y-61632091D01*
X133408466Y-61633052D01*
X133512602Y-61849116D01*
X133512616Y-61849144D01*
X133512617Y-61849147D01*
X133647812Y-62047304D01*
X133811026Y-62223092D01*
X133811028Y-62223094D01*
X133998623Y-62372598D01*
X133998625Y-62372599D01*
X133998627Y-62372601D01*
X134206395Y-62492466D01*
X134206397Y-62492467D01*
X134206406Y-62492472D01*
X134429734Y-62580038D01*
X134663618Y-62633342D01*
X134902835Y-62651191D01*
X135142041Y-62633187D01*
X135375891Y-62579733D01*
X135599162Y-62492023D01*
X135806867Y-62372015D01*
X135994366Y-62222391D01*
X136157471Y-62046492D01*
X136292537Y-61848249D01*
X136396548Y-61632089D01*
X136467181Y-61402842D01*
X136502857Y-61165628D01*
X136502818Y-61045687D01*
X136502818Y-61045684D01*
X136502187Y-54301231D01*
X136502189Y-54287869D01*
X136503793Y-54282201D01*
X136502195Y-54240760D01*
X136502196Y-54238376D01*
X136502459Y-54237477D01*
X136502801Y-54226155D01*
X136510378Y-54149813D01*
X136518335Y-54116783D01*
X136543200Y-54053391D01*
X136559821Y-54023761D01*
X136600966Y-53969491D01*
X136624997Y-53945495D01*
X136679336Y-53904425D01*
X136708980Y-53887853D01*
X136772414Y-53863080D01*
X136805454Y-53855173D01*
X136881800Y-53847710D01*
X136898820Y-53847222D01*
X136937854Y-53848786D01*
X136937860Y-53848784D01*
X136944842Y-53847963D01*
X136959311Y-53847112D01*
X141446328Y-53846495D01*
X141461080Y-53846496D01*
X141466740Y-53848097D01*
X141508162Y-53846499D01*
X141510554Y-53846500D01*
X141511451Y-53846763D01*
X141522786Y-53847105D01*
X141599124Y-53854682D01*
X141632156Y-53862639D01*
X141695548Y-53887504D01*
X141725181Y-53904127D01*
X141779440Y-53945264D01*
X141803450Y-53969309D01*
X141844508Y-54023633D01*
X141861088Y-54053291D01*
X141885858Y-54116716D01*
X141893766Y-54149762D01*
X141901228Y-54226103D01*
X141901717Y-54243126D01*
X141900154Y-54282160D01*
X141900969Y-54289089D01*
X141901818Y-54303572D01*
X141901818Y-61166570D01*
X141937568Y-61403760D01*
X141937570Y-61403766D01*
X142008278Y-61632993D01*
X142112353Y-61849107D01*
X142112358Y-61849116D01*
X142247488Y-62047316D01*
X142410649Y-62223161D01*
X142598196Y-62372725D01*
X142805940Y-62492666D01*
X143029239Y-62580305D01*
X143263107Y-62633684D01*
X143331453Y-62638805D01*
X143502313Y-62651610D01*
X143502318Y-62651610D01*
X143502323Y-62651610D01*
X143651824Y-62640406D01*
X143741529Y-62633684D01*
X143975397Y-62580305D01*
X144198696Y-62492666D01*
X144406440Y-62372725D01*
X144593987Y-62223161D01*
X144757148Y-62047316D01*
X144892278Y-61849116D01*
X144996359Y-61632990D01*
X145067066Y-61403765D01*
X145067206Y-61402840D01*
X145102817Y-61166570D01*
X145102818Y-61166561D01*
X145102818Y-61086170D01*
X145102822Y-61086156D01*
X145102818Y-61043359D01*
X145102818Y-60999027D01*
X145102818Y-60987658D01*
X145102811Y-60987600D01*
X145102187Y-54301236D01*
X145102189Y-54287869D01*
X145103793Y-54282201D01*
X145102195Y-54240760D01*
X145102196Y-54238376D01*
X145102459Y-54237477D01*
X145102801Y-54226155D01*
X145110378Y-54149813D01*
X145118335Y-54116783D01*
X145143200Y-54053391D01*
X145159821Y-54023761D01*
X145200966Y-53969491D01*
X145224997Y-53945495D01*
X145279336Y-53904425D01*
X145308980Y-53887853D01*
X145372414Y-53863080D01*
X145405454Y-53855173D01*
X145481801Y-53847710D01*
X145498824Y-53847222D01*
X145537854Y-53848786D01*
X145537854Y-53848785D01*
X145537855Y-53848786D01*
X145544821Y-53847966D01*
X145559300Y-53847115D01*
X151748260Y-53846492D01*
X151761072Y-53846493D01*
X151766740Y-53848097D01*
X151808172Y-53846499D01*
X151810560Y-53846500D01*
X151811458Y-53846763D01*
X151822786Y-53847105D01*
X151899124Y-53854682D01*
X151932156Y-53862639D01*
X151995548Y-53887504D01*
X152025181Y-53904127D01*
X152079440Y-53945264D01*
X152103450Y-53969309D01*
X152144508Y-54023633D01*
X152161088Y-54053291D01*
X152185858Y-54116716D01*
X152193766Y-54149762D01*
X152201228Y-54226103D01*
X152201717Y-54243126D01*
X152200154Y-54282160D01*
X152200969Y-54289089D01*
X152201818Y-54303572D01*
X152201818Y-61166570D01*
X152237568Y-61403760D01*
X152237570Y-61403766D01*
X152308278Y-61632993D01*
X152412353Y-61849107D01*
X152412358Y-61849116D01*
X152547488Y-62047316D01*
X152710649Y-62223161D01*
X152898196Y-62372725D01*
X153105940Y-62492666D01*
X153329239Y-62580305D01*
X153563107Y-62633684D01*
X153631453Y-62638805D01*
X153802313Y-62651610D01*
X153802318Y-62651610D01*
X153802323Y-62651610D01*
X153951824Y-62640406D01*
X154041529Y-62633684D01*
X154275397Y-62580305D01*
X154498696Y-62492666D01*
X154706440Y-62372725D01*
X154893987Y-62223161D01*
X155057148Y-62047316D01*
X155192278Y-61849116D01*
X155296359Y-61632990D01*
X155367066Y-61403765D01*
X155367206Y-61402840D01*
X155402817Y-61166570D01*
X155402818Y-61166561D01*
X155402818Y-61086170D01*
X155402822Y-61086156D01*
X155402818Y-61043359D01*
X155402818Y-60999027D01*
X155402818Y-60987658D01*
X155402811Y-60987600D01*
X155402187Y-54301236D01*
X155402189Y-54287869D01*
X155403793Y-54282201D01*
X155402195Y-54240760D01*
X155402196Y-54238376D01*
X155402459Y-54237477D01*
X155402801Y-54226155D01*
X155410378Y-54149813D01*
X155418335Y-54116783D01*
X155443200Y-54053391D01*
X155459821Y-54023761D01*
X155500966Y-53969491D01*
X155524997Y-53945495D01*
X155579336Y-53904425D01*
X155608980Y-53887853D01*
X155672414Y-53863080D01*
X155705454Y-53855173D01*
X155781801Y-53847710D01*
X155798824Y-53847222D01*
X155837854Y-53848786D01*
X155837854Y-53848785D01*
X155837855Y-53848786D01*
X155844821Y-53847966D01*
X155859300Y-53847115D01*
X162045905Y-53846492D01*
X162045915Y-53846493D01*
X162045918Y-53846492D01*
X162048256Y-53846492D01*
X162061066Y-53846493D01*
G37*
%TD.AperFunction*%
%TD*%
M02*
