M48
; DRILL file KiCad 10.0.4 date 2026-07-26T17:29:07
; FORMAT={-:-/ absolute / metric / decimal}
; #@! TF.CreationDate,2026-07-26T17:29:07+02:00
; #@! TF.GenerationSoftware,Kicad,Pcbnew,10.0.4
; #@! TF.FileFunction,Plated,1,4,PTH
FMAT,2
METRIC
; #@! TA.AperFunction,Plated,PTH,ComponentDrill
T1C0.250
; #@! TA.AperFunction,Plated,PTH,ViaDrill
T2C0.300
; #@! TA.AperFunction,Plated,PTH,ComponentDrill
T3C1.000
%
G90
G05
T1
X149.927Y-86.005
X149.927Y-87.38
X149.927Y-88.755
X151.302Y-86.005
X151.302Y-87.38
X151.302Y-88.755
X152.677Y-86.005
X152.677Y-87.38
X152.677Y-88.755
T2
X135.05Y-101.8
X135.55Y-115.0
X135.95Y-98.1
X137.2Y-89.45
X138.753Y-84.674
X139.1Y-103.05
X139.5Y-107.4
X140.25Y-105.25
X140.45Y-103.45
X141.175Y-104.225
X142.8Y-84.5
X143.15Y-116.9
X143.65Y-87.7
X143.65Y-90.2
X144.35Y-85.55
X145.1Y-101.65
X145.2Y-88.75
X145.5Y-91.1
X145.875Y-89.3
X146.1Y-101.9
X146.2Y-87.7
X146.5Y-62.65
X146.65Y-89.6
X146.85Y-107.35
X147.2Y-80.675
X147.4Y-62.65
X148.3Y-62.65
X148.601Y-81.299
X148.85Y-84.9
X149.15Y-87.4
X149.2Y-62.65
X149.35Y-76.025
X149.625Y-79.725
X149.75Y-103.05
X149.85Y-101.6
X150.1Y-76.025
X150.5Y-68.4
X150.85Y-76.025
X151.15Y-92.9
X151.15Y-95.45
X151.6Y-76.025
X151.85Y-89.53
X152.05Y-85.23
X152.1Y-82.315
X152.3Y-92.8
X152.302Y-95.425
X152.5Y-103.35
X152.525Y-79.825
X152.55Y-107.7
X153.321Y-71.571
X153.4Y-64.76
X153.452Y-88.55
X153.6Y-92.85
X153.602Y-95.395
X153.75Y-89.8
X154.2Y-81.35
X154.6Y-92.85
X154.6Y-95.4
X154.65Y-73.8
X155.37Y-91.78
X155.9Y-118.8
X155.95Y-82.35
X156.15Y-90.6
X156.6Y-88.15
X156.9Y-90.6
X157.2Y-88.15
X158.38Y-118.82
X159.776Y-87.4
X160.05Y-91.75
X160.3Y-86.4
X160.975Y-78.6
X161.3Y-103.3
X161.5Y-97.6
X163.691Y-93.279
X165.322Y-95.0
X165.67Y-87.88
X166.25Y-99.15
X167.462Y-88.75
T3
X145.68Y-121.3
X148.22Y-121.3
X150.76Y-121.3
X153.3Y-121.3
X155.84Y-121.3
X158.38Y-121.3
M30
