%TF.GenerationSoftware,KiCad,Pcbnew,10.0.4*%
%TF.CreationDate,2026-07-26T17:29:05+02:00*%
%TF.ProjectId,PS-microCard PCB,50532d6d-6963-4726-9f43-617264205043,rev?*%
%TF.SameCoordinates,Original*%
%TF.FileFunction,Legend,Bot*%
%TF.FilePolarity,Positive*%
%FSLAX46Y46*%
G04 Gerber Fmt 4.6, Leading zero omitted, Abs format (unit mm)*
G04 Created by KiCad (PCBNEW 10.0.4) date 2026-07-26 17:29:05*
%MOMM*%
%LPD*%
G01*
G04 APERTURE LIST*
%ADD10C,0.120000*%
%ADD11C,0.127000*%
%ADD12C,0.200000*%
G04 APERTURE END LIST*
%TO.C,J6*%
D10*
X163315000Y-100690000D02*
X163315000Y-101740000D01*
X163315000Y-101740000D02*
X162325000Y-101740000D01*
X163315000Y-105910000D02*
X163315000Y-104860000D01*
X165815000Y-100690000D02*
X163315000Y-100690000D01*
X165815000Y-105910000D02*
X163315000Y-105910000D01*
X167785000Y-101860000D02*
X167785000Y-104740000D01*
%TO.C,R10*%
X151453641Y-102670000D02*
X151146359Y-102670000D01*
X151453641Y-103430000D02*
X151146359Y-103430000D01*
%TO.C,C22*%
X138790000Y-104857836D02*
X138790000Y-104642164D01*
X139510000Y-104857836D02*
X139510000Y-104642164D01*
%TO.C,C24*%
X134315000Y-104561252D02*
X134315000Y-104038748D01*
X135785000Y-104561252D02*
X135785000Y-104038748D01*
%TO.C,R18*%
X158322000Y-105143641D02*
X158322000Y-104836359D01*
X159082000Y-105143641D02*
X159082000Y-104836359D01*
%TO.C,SW2*%
D11*
X153402000Y-109280000D02*
X153402000Y-115280000D01*
X153402000Y-115280000D02*
X159402000Y-115280000D01*
X159402000Y-109280000D02*
X153402000Y-109280000D01*
X159402000Y-115280000D02*
X159402000Y-109280000D01*
D12*
X154253000Y-106129000D02*
G75*
G02*
X154053000Y-106129000I-100000J0D01*
G01*
X154053000Y-106129000D02*
G75*
G02*
X154253000Y-106129000I100000J0D01*
G01*
%TO.C,SW1*%
D11*
X144240000Y-109350000D02*
X144240000Y-115350000D01*
X144240000Y-115350000D02*
X150240000Y-115350000D01*
X150240000Y-109350000D02*
X144240000Y-109350000D01*
X150240000Y-115350000D02*
X150240000Y-109350000D01*
D12*
X145091000Y-106199000D02*
G75*
G02*
X144891000Y-106199000I-100000J0D01*
G01*
X144891000Y-106199000D02*
G75*
G02*
X145091000Y-106199000I100000J0D01*
G01*
%TO.C,R8*%
D10*
X140696359Y-107020000D02*
X141003641Y-107020000D01*
X140696359Y-107780000D02*
X141003641Y-107780000D01*
%TO.C,J1*%
X144350000Y-122630000D02*
X144350000Y-119970000D01*
X157110000Y-119970000D02*
X144350000Y-119970000D01*
X157110000Y-122630000D02*
X144350000Y-122630000D01*
X157110000Y-122630000D02*
X157110000Y-119970000D01*
X159710000Y-119970000D02*
X158380000Y-119970000D01*
X159710000Y-121300000D02*
X159710000Y-119970000D01*
%TO.C,R17*%
X149120000Y-105163641D02*
X149120000Y-104856359D01*
X149880000Y-105163641D02*
X149880000Y-104856359D01*
%TD*%
M02*
