%TF.GenerationSoftware,KiCad,Pcbnew,10.0.4*%
%TF.CreationDate,2026-07-26T17:29:05+02:00*%
%TF.ProjectId,PS-microCard PCB,50532d6d-6963-4726-9f43-617264205043,rev?*%
%TF.SameCoordinates,Original*%
%TF.FileFunction,Profile,NP*%
%FSLAX46Y46*%
G04 Gerber Fmt 4.6, Leading zero omitted, Abs format (unit mm)*
G04 Created by KiCad (PCBNEW 10.0.4) date 2026-07-26 17:29:05*
%MOMM*%
%LPD*%
G01*
G04 APERTURE LIST*
%TA.AperFunction,Profile*%
%ADD10C,0.200000*%
%TD*%
G04 APERTURE END LIST*
D10*
X132502000Y-61046000D02*
X132600000Y-123700000D01*
X133602318Y-61046622D02*
X132502000Y-61046000D01*
X136201683Y-54246216D02*
G75*
G02*
X136902318Y-53546622I673617J26016D01*
G01*
X136202318Y-61045784D02*
G75*
G02*
X133602282Y-61046622I-1300018J-416D01*
G01*
X136202318Y-61045784D02*
X136201683Y-54246216D01*
X136902318Y-53546622D02*
X141502725Y-53545987D01*
X141502725Y-53545987D02*
G75*
G02*
X142202376Y-54246624I25975J-673713D01*
G01*
X142202318Y-54246622D02*
X142202318Y-61046622D01*
X144801683Y-54246216D02*
G75*
G02*
X145502318Y-53546622I673617J26016D01*
G01*
X144802318Y-61046622D02*
G75*
G02*
X142202318Y-61046622I-1300000J0D01*
G01*
X144802318Y-61046622D02*
X144801683Y-54246216D01*
X145502318Y-53546622D02*
X151802725Y-53545987D01*
X151802725Y-53545987D02*
G75*
G02*
X152502376Y-54246624I25975J-673713D01*
G01*
X152502318Y-54246622D02*
X152502318Y-61046622D01*
X155101683Y-54246216D02*
G75*
G02*
X155802318Y-53546622I673617J26016D01*
G01*
X155102318Y-61046622D02*
G75*
G02*
X152502318Y-61046622I-1300000J0D01*
G01*
X155102318Y-61046622D02*
X155101683Y-54246216D01*
X155802318Y-53546622D02*
X162102725Y-53545987D01*
X162102725Y-53545987D02*
G75*
G02*
X162802376Y-54246624I25975J-673713D01*
G01*
X162802318Y-54246622D02*
X162802318Y-61046622D01*
X165402318Y-61045784D02*
G75*
G02*
X162802282Y-61046622I-1300018J-416D01*
G01*
X165402318Y-61045784D02*
X168702000Y-61046000D01*
X168700000Y-123700000D02*
X132600000Y-123700000D01*
X168702000Y-61046000D02*
X168700000Y-123700000D01*
M02*
